<svg width="16" height="16" viewBox="0 0 16 16" fill="none" xmlns="http://www.w3.org/2000/svg">
<rect x="0.5" y="0.5" width="15" height="15" rx="0.5" stroke="currentColor"/>
<path fill-rule="evenodd" clip-rule="evenodd" d="M5.88383 12.1767L5.53027 12.5302L5.17672 12.1767L3.17672 10.1767C2.98146 9.98141 2.98146 9.66483 3.17672 9.46957C3.37198 9.2743 3.68856 9.2743 3.88383 9.46957L5.03027 10.616L5.03027 3.82312C5.03027 3.54698 5.25413 3.32312 5.53027 3.32312C5.80642 3.32312 6.03027 3.54698 6.03027 3.82312L6.03027 10.616L7.17672 9.46957C7.37198 9.2743 7.68856 9.2743 7.88383 9.46957C8.07909 9.66483 8.07909 9.98141 7.88383 10.1767L5.88383 12.1767Z" fill="currentColor"/>
<path fill-rule="evenodd" clip-rule="evenodd" d="M11.0303 3.67672L10.6768 3.32317L10.3232 3.67672L8.3232 5.67672C8.12794 5.87198 8.12794 6.18856 8.3232 6.38383C8.51847 6.57909 8.83505 6.57909 9.03031 6.38383L10.1768 5.23738L10.1768 12.0303C10.1768 12.3064 10.4006 12.5303 10.6768 12.5303C10.9529 12.5303 11.1768 12.3064 11.1768 12.0303L11.1768 5.23738L12.3232 6.38383C12.5185 6.57909 12.835 6.57909 13.0303 6.38383C13.2256 6.18856 13.2256 5.87198 13.0303 5.67672L11.0303 3.67672Z" fill="currentColor"/>
</svg>
