<svg width="16" height="16" viewBox="0 0 16 16" fill="none" xmlns="http://www.w3.org/2000/svg">
<rect x="0.5" y="0.5" width="15" height="15" rx="0.5" stroke="currentColor"/>
<path fill-rule="evenodd" clip-rule="evenodd" d="M13.2782 7.2681L13.2782 6.7681L12.7782 6.7681L9.94975 6.7681C9.67361 6.7681 9.44975 6.99196 9.44975 7.2681C9.44975 7.54424 9.6736 7.7681 9.94975 7.7681L11.5711 7.7681L6.76777 12.5714C6.5725 12.7667 6.5725 13.0832 6.76777 13.2785C6.96303 13.4738 7.27961 13.4738 7.47487 13.2785L12.2782 8.47521V10.0965C12.2782 10.3727 12.502 10.5965 12.7782 10.5965C13.0543 10.5965 13.2782 10.3727 13.2782 10.0965L13.2782 7.2681Z" fill="currentColor"/>
<path fill-rule="evenodd" clip-rule="evenodd" d="M2.76772 8.7778L2.76772 9.2778L3.26772 9.2778L6.09615 9.2778C6.37229 9.2778 6.59615 9.05394 6.59615 8.7778C6.59615 8.50165 6.37229 8.2778 6.09615 8.2778L4.47483 8.2778L9.27813 3.4745C9.47339 3.27923 9.47339 2.96265 9.27813 2.76739C9.08287 2.57213 8.76629 2.57213 8.57102 2.76739L3.76772 7.57069V5.94937C3.76772 5.67323 3.54387 5.44937 3.26772 5.44937C2.99158 5.44937 2.76772 5.67323 2.76772 5.94937L2.76772 8.7778Z" fill="currentColor"/>
</svg>
