<svg width="12" height="12" viewBox="0 0 12 12" fill="none" xmlns="http://www.w3.org/2000/svg">
<path d="M6 0C2.68633 0 0 2.68633 0 6C0 9.31367 2.68633 12 6 12C9.31367 12 12 9.31367 12 6C12 2.68633 9.31367 0 6 0ZM6 1.579C6.91967 1.579 7.77333 1.86033 8.481 2.34067L2.341 8.48067C1.86033 7.77333 1.57933 6.91933 1.57933 5.99967C1.579 3.55833 3.55833 1.579 6 1.579ZM6 10.421C5.08033 10.421 4.22667 10.1397 3.519 9.65933L9.659 3.51933C10.1397 4.22667 10.4207 5.08067 10.4207 6.00033C10.421 8.44167 8.44167 10.421 6 10.421Z" fill="currentColor"/>
</svg>
