<svg width="32" height="32" viewBox="0 0 32 32" fill="none" xmlns="http://www.w3.org/2000/svg">
<circle cx="16" cy="16" r="16" fill="#CACAF1"/>
<path fill-rule="evenodd" clip-rule="evenodd" d="M22.7995 11.5899C24.2517 13.1509 25.1431 15.2071 25.1431 17.4695C25.1431 22.3385 21.0497 26.2858 16.0003 26.2858C10.9509 26.2858 6.85742 22.3385 6.85742 17.4695C6.85742 13.1019 10.1539 9.48627 14.4765 8.78538V6.69395H13.4606C13.1797 6.69395 12.9527 6.47452 12.9527 6.20415C12.9527 5.93378 13.1797 5.71436 13.4606 5.71436H18.54C18.8209 5.71436 19.0479 5.93378 19.0479 6.20415C19.0479 6.47452 18.8209 6.69395 18.54 6.69395H17.5241V8.78293C19.2648 9.0675 20.8379 9.82325 22.0981 10.9135L23.281 9.7728C23.4746 9.58619 23.7885 9.58619 23.9825 9.7728C24.176 9.95942 24.176 10.2626 23.9825 10.4492L22.7995 11.5899ZM16.5082 6.69395H15.4923V8.67811C15.6615 8.6688 15.8286 8.65313 16.0003 8.65313C16.172 8.65313 16.3391 8.66734 16.5082 8.67615V6.69395ZM16.0003 9.63272C11.5122 9.63272 7.87329 13.1411 7.87329 17.4695C7.87329 21.7978 11.5122 25.3062 16.0003 25.3062C20.4889 25.3062 24.1273 21.7978 24.1273 17.4695C24.1273 13.1416 20.4889 9.63272 16.0003 9.63272ZM16.0003 19.4286C14.8782 19.4286 13.9685 18.5514 13.9685 17.4695C13.9685 17.1026 14.0798 16.7632 14.2621 16.4698L11.5736 13.8778C11.3801 13.6912 11.3801 13.388 11.5736 13.2014C11.7676 13.0148 12.0815 13.0148 12.2751 13.2014L14.9636 15.7934C15.2683 15.6175 15.6198 15.5103 16.0003 15.5103C17.1223 15.5103 18.032 16.3875 18.032 17.4695C18.032 18.5514 17.1223 19.4286 16.0003 19.4286ZM16.0003 16.4899C15.4395 16.4899 14.9844 16.9287 14.9844 17.4695C14.9844 18.0102 15.4395 18.449 16.0003 18.449C16.561 18.449 17.0162 18.0102 17.0162 17.4695C17.0162 16.9287 16.561 16.4899 16.0003 16.4899Z" fill="#1E1A31" stroke="#1E1A31"/>
</svg>
