<svg width="8" height="8" viewBox="0 0 4 4" fill="none" xmlns="http://www.w3.org/2000/svg">
<path d="M0.0984557 0.573842C-0.0328186 0.442567 -0.0328186 0.22973 0.0984557 0.0984557C0.22973 -0.0328186 0.442567 -0.0328186 0.573842 0.0984557L3.90154 3.42616C4.03282 3.55743 4.03282 3.77027 3.90154 3.90154C3.77027 4.03282 3.55743 4.03282 3.42616 3.90154L0.0984557 0.573842Z" fill="white"/>
<path d="M0.573842 3.90154C0.442568 4.03282 0.22973 4.03282 0.0984562 3.90154C-0.032818 3.77027 -0.032818 3.55743 0.0984562 3.42616L3.42616 0.098456C3.55743 -0.0328182 3.77027 -0.0328182 3.90154 0.098456C4.03282 0.22973 4.03282 0.442568 3.90154 0.573842L0.573842 3.90154Z" fill="white"/>
</svg>
