<svg width="16" height="16" fill="none" viewBox="0 0 16 16" xmlns="http://www.w3.org/2000/svg"><path d="M14.863 6.286l-.817-.017a5.397 5.397 0 00-.572-1.32l.589-.589a1.14 1.14 0 000-1.611l-.812-.812a1.138 1.138 0 00-1.611 0l-.583.572a6.038 6.038 0 00-1.343-.555v-.817A1.137 1.137 0 008.577 0H7.423a1.136 1.136 0 00-1.137 1.137l-.017.817a5.628 5.628 0 00-1.32.572l-.589-.589a1.138 1.138 0 00-1.611 0l-.812.812a1.125 1.125 0 00-.217 1.308c.055.113.128.215.217.303l.572.583a6.204 6.204 0 00-.555 1.343h-.817A1.137 1.137 0 000 7.423v1.154a1.137 1.137 0 001.137 1.137l.817.017c.132.463.325.907.572 1.32l-.589.589a1.138 1.138 0 000 1.611l.812.812a1.14 1.14 0 001.611 0l.583-.572c.425.236.875.422 1.343.555v.817A1.136 1.136 0 007.423 16h1.154a1.137 1.137 0 001.137-1.137l.017-.817a5.374 5.374 0 001.32-.572l.589.589a1.14 1.14 0 001.611 0l.812-.812a1.14 1.14 0 000-1.611l-.572-.583a6.04 6.04 0 00.555-1.343h.817A1.136 1.136 0 0016 8.577V7.423a1.137 1.137 0 00-1.137-1.137zM8 10.857a2.857 2.857 0 110-5.713 2.857 2.857 0 010 5.713z" fill="currentColor"/></svg>