<svg width="7" height="12" viewBox="0 0 7 12" fill="none" xmlns="http://www.w3.org/2000/svg">
<path d="M5.8032 2.92L4.7352 3.628C4.4072 3.012 3.9912 2.704 3.4872 2.704C3.2232 2.704 3.0112 2.792 2.8512 2.968C2.6912 3.136 2.6112 3.352 2.6112 3.616C2.6112 4.128 3.0352 4.584 3.8832 4.984C4.2272 5.136 4.4992 5.268 4.6992 5.38C4.8992 5.484 5.1352 5.64 5.4072 5.848C5.6792 6.056 5.8792 6.3 6.0072 6.58C6.1432 6.86 6.2112 7.18 6.2112 7.54C6.2112 8.188 6.0232 8.74 5.6472 9.196C5.2792 9.644 4.7872 9.924 4.1712 10.036V11.08H2.9712V10.036C2.4192 9.924 1.9512 9.668 1.5672 9.268C1.1912 8.86 0.939203 8.356 0.811203 7.756L1.8912 7.072C2.1872 8.256 2.7512 8.848 3.5832 8.848C3.9592 8.848 4.2672 8.732 4.5072 8.5C4.7472 8.26 4.8672 7.956 4.8672 7.588C4.8672 7.332 4.7792 7.108 4.6032 6.916C4.4272 6.716 4.2072 6.556 3.9432 6.436C3.6792 6.308 3.3912 6.164 3.0792 6.004C2.7672 5.844 2.4792 5.68 2.2152 5.512C1.9512 5.336 1.7312 5.096 1.5552 4.792C1.3792 4.48 1.2912 4.12 1.2912 3.712C1.2912 3.184 1.4472 2.72 1.7592 2.32C2.0712 1.928 2.4752 1.676 2.9712 1.564V0.52H4.1712V1.588C4.8672 1.772 5.4112 2.216 5.8032 2.92Z" fill="currentColor"/>
</svg>
