<svg width="4" height="17" viewBox="0 0 4 17" fill="none" xmlns="http://www.w3.org/2000/svg">
<path d="M0.515625 16.3828C0.855469 16.7227 1.28906 16.8984 1.81641 16.8984C2.34375 16.8984 2.78906 16.7227 3.12891 16.3828C3.46875 16.043 3.64453 15.6094 3.64453 15.1055C3.64453 14.5898 3.46875 14.1562 3.12891 13.8164C2.78906 13.4766 2.34375 13.3008 1.81641 13.3008C1.28906 13.3008 0.855469 13.4766 0.515625 13.8164C0.175781 14.1562 0 14.5898 0 15.1055C0 15.6094 0.175781 16.043 0.515625 16.3828ZM1.17482 0C0.600538 0 0.144244 0.482592 0.176391 1.05598L0.708792 10.5521C0.73849 11.0818 1.17669 11.4961 1.70722 11.4961H1.93731C2.46784 11.4961 2.90604 11.0818 2.93574 10.5521L3.46814 1.05598C3.50029 0.48259 3.04399 0 2.46971 0H1.17482Z" fill="currentColor"/>
</svg>
