<svg width="12" height="12" viewBox="0 0 12 12" fill="none" xmlns="http://www.w3.org/2000/svg">
<path fill-rule="evenodd" clip-rule="evenodd" d="M12 6C12 9.31371 9.31371 12 6 12C2.68629 12 0 9.31371 0 6C0 2.68629 2.68629 0 6 0C9.31371 0 12 2.68629 12 6ZM4.73713 4.36558V4.8588C4.73713 4.9252 4.76558 4.95366 4.83198 4.95366H5.85637V8.33035H4.59485C4.52846 8.33035 4.5 8.3588 4.5 8.4252V8.9374C4.5 9.00379 4.52846 9.03225 4.59485 9.03225H7.90515C7.97154 9.03225 8 9.00379 8 8.9374V8.4252C8 8.3588 7.97154 8.33035 7.90515 8.33035H6.59621V4.36558C6.59621 4.29918 6.56775 4.27073 6.50136 4.27073H4.83198C4.76558 4.27073 4.73713 4.29918 4.73713 4.36558ZM5.66653 2.58249V3.39821C5.66653 3.46461 5.69499 3.49306 5.76138 3.49306H6.5771C6.6435 3.49306 6.67195 3.46461 6.67195 3.39821V2.58249C6.67195 2.5161 6.6435 2.48764 6.5771 2.48764H5.76138C5.69499 2.48764 5.66653 2.5161 5.66653 2.58249Z" fill="currentColor"/>
</svg>
