<svg width="56" height="56" viewBox="0 0 56 56" fill="none" xmlns="http://www.w3.org/2000/svg">
<path fill-rule="evenodd" clip-rule="evenodd" d="M38.4049 36.0763L37.4866 35.1908C40.7006 31.452 42.6356 26.5981 42.6356 21.3178C42.6356 9.54382 33.0918 0 21.3178 0C9.54382 0 0 9.54382 0 21.3178C0 33.0918 9.54382 42.6356 21.3178 42.6356C26.5981 42.6356 31.452 40.7006 35.1908 37.4866L36.0763 38.4049V40.9958L50.1467 55.0381C51.4328 56.3215 53.5154 56.3205 54.8002 55.0358L55.0358 54.8002C56.3205 53.5154 56.3215 51.4328 55.0381 50.1467L40.9958 36.0763H38.4049ZM6.55933 21.3178C6.55933 13.1514 13.1514 6.55933 21.3178 6.55933C29.4842 6.55933 36.0763 13.1514 36.0763 21.3178C36.0763 29.4842 29.4842 36.0763 21.3178 36.0763C13.1514 36.0763 6.55933 29.4842 6.55933 21.3178Z" fill="#795DF5"/>
<path d="M20.2922 23.3704C20.2922 23.5728 20.4612 23.7202 20.6636 23.7202H21.8958C22.0136 23.7202 22.1029 23.6116 22.1029 23.4938V23.3292C22.1029 22.9383 22.1646 22.5679 22.3086 22.2181C22.4527 21.8683 22.679 21.5802 23.0082 21.3539L23.9547 20.7161C24.5514 20.3251 25.0453 19.8313 25.4568 19.2551C25.8477 18.679 26.0535 17.9588 26.0535 17.1358C26.0535 16.6214 25.9506 16.107 25.7449 15.6132C25.5391 15.1193 25.251 14.6667 24.8807 14.2757C24.4897 13.9053 24.0165 13.5967 23.4609 13.3498C22.8848 13.1235 22.2469 13 21.5473 13C20.7449 13 20.0658 13.144 19.4897 13.3909C18.9136 13.6584 18.4609 13.9877 18.0905 14.3992C17.7202 14.8107 17.4321 15.284 17.2675 15.7778C17.0823 16.2716 17 16.7654 17 17.2181C17 17.3691 17.0068 17.5133 17.0205 17.6506C17.0545 17.9917 17.3444 18.2331 17.6845 18.2752L18.6571 18.3955C18.8649 18.4212 19.0373 18.2083 19.0165 18C18.9753 17.8148 18.9753 17.6296 18.9753 17.4444C18.9753 17.1152 19.0165 16.8066 19.1193 16.4774C19.2222 16.1687 19.3868 15.8807 19.5926 15.6337C19.7984 15.3868 20.0453 15.2016 20.3745 15.037C20.7037 14.893 21.0947 14.8107 21.5473 14.8107C21.9588 14.8107 22.3086 14.893 22.6173 15.0165C22.9259 15.1399 23.1728 15.3251 23.3786 15.5309C23.5844 15.7572 23.7284 16.0041 23.8313 16.2922C23.9342 16.5802 23.9959 16.8683 23.9959 17.1564C23.9959 17.5679 23.893 17.9383 23.7078 18.2881C23.5226 18.6584 23.2551 18.9465 22.9053 19.1728L22 19.7901C21.3827 20.2016 20.93 20.6749 20.6831 21.1893C20.4156 21.7243 20.2922 22.321 20.2922 23V23.3704ZM19.8601 26.6626C19.8601 27.0329 19.9835 27.3621 20.251 27.6091C20.4979 27.8765 20.8272 28 21.1975 28C21.5679 28 21.8765 27.8765 22.144 27.6091C22.4115 27.3621 22.5556 27.0329 22.5556 26.6626C22.5556 26.2922 22.4115 25.9835 22.144 25.716C21.8765 25.4486 21.5679 25.3045 21.1975 25.3045C20.8272 25.3045 20.4979 25.4486 20.251 25.716C19.9835 25.9835 19.8601 26.2922 19.8601 26.6626Z" fill="#3B375B"/>
</svg>
