<svg width="18" height="20" viewBox="0 0 18 20" fill="none" xmlns="http://www.w3.org/2000/svg">
<path fill-rule="evenodd" clip-rule="evenodd" d="M17.1429 18.5743C17.1429 18.9524 16.9926 19.315 16.7253 19.5824C16.4579 19.8498 16.0953 20 15.7171 20H1.43C1.24216 20.0002 1.05612 19.9633 0.882541 19.8915C0.708961 19.8197 0.551244 19.7144 0.418419 19.5816C0.285594 19.4488 0.180268 19.291 0.10847 19.1175C0.0366725 18.9439 -0.000187222 18.7578 7.15066e-07 18.57V17.1429C7.15066e-07 13.3814 5.71429 11.4286 5.71429 11.4286C5.71429 11.4286 6.04143 10.8443 5.71429 10C4.51286 9.11429 4.36571 7.72857 4.28571 4.28571C4.53286 0.838571 6.95286 0 8.57143 0C10.19 0 12.61 0.837143 12.8571 4.28571C12.7771 7.72857 12.63 9.11429 11.4286 10C11.1014 10.8429 11.4286 11.4286 11.4286 11.4286C11.4286 11.4286 17.1429 13.3814 17.1429 17.1429V18.5743Z" fill="currentColor"/>
</svg>
