<svg width="10" height="16" viewBox="0 0 10 16" fill="none" xmlns="http://www.w3.org/2000/svg">
<path d="M3.80236 10.6C3.80236 10.7968 3.9666 10.94 4.16339 10.94H5.36106C5.47554 10.94 5.56236 10.8345 5.56236 10.72V10.56C5.56236 10.18 5.62236 9.82 5.76236 9.48C5.90236 9.14 6.12236 8.86 6.44236 8.64L7.36236 8.02001C7.94236 7.64 8.42236 7.16 8.82236 6.6C9.20236 6.04 9.40236 5.34 9.40236 4.54C9.40236 4.04 9.30236 3.54 9.10236 3.06C8.90236 2.58 8.62236 2.14 8.26236 1.76C7.88236 1.4 7.42236 1.1 6.88236 0.860004C6.32236 0.640004 5.70236 0.520004 5.02236 0.520004C4.24236 0.520004 3.58236 0.660005 3.02236 0.900004C2.46236 1.16 2.02236 1.48 1.66236 1.88C1.30236 2.28 1.02236 2.74 0.862356 3.22C0.682356 3.70001 0.602356 4.18 0.602356 4.62C0.602356 4.76679 0.609006 4.90693 0.622307 5.04042C0.655339 5.37194 0.937076 5.60657 1.26771 5.64747L2.21309 5.76442C2.41505 5.78941 2.58261 5.5825 2.56236 5.38C2.52236 5.2 2.52236 5.02001 2.52236 4.84C2.52236 4.52 2.56236 4.22 2.66236 3.9C2.76236 3.6 2.92236 3.32 3.12236 3.08C3.32236 2.84 3.56236 2.66 3.88236 2.5C4.20236 2.36 4.58236 2.28 5.02236 2.28C5.42236 2.28 5.76236 2.36 6.06236 2.48C6.36236 2.60001 6.60236 2.78 6.80236 2.98C7.00236 3.2 7.14236 3.44 7.24236 3.72C7.34236 4 7.40236 4.28 7.40236 4.56C7.40236 4.96 7.30236 5.32 7.12236 5.66C6.94236 6.02 6.68236 6.3 6.34236 6.52L5.46236 7.12C4.86236 7.52 4.42236 7.98 4.18236 8.48C3.92236 9 3.80236 9.58 3.80236 10.24V10.6ZM3.38236 13.8C3.38236 14.16 3.50236 14.48 3.76236 14.72C4.00236 14.98 4.32236 15.1 4.68236 15.1C5.04236 15.1 5.34236 14.98 5.60236 14.72C5.86236 14.48 6.00236 14.16 6.00236 13.8C6.00236 13.44 5.86236 13.14 5.60236 12.88C5.34236 12.62 5.04236 12.48 4.68236 12.48C4.32236 12.48 4.00236 12.62 3.76236 12.88C3.50236 13.14 3.38236 13.44 3.38236 13.8Z" fill="currentColor"/>
</svg>
