<svg width="16" height="12" viewBox="0 0 16 12" fill="none" xmlns="http://www.w3.org/2000/svg">
<path fill-rule="evenodd" clip-rule="evenodd" d="M0.155733 3.63101L3.53948 0.15976C3.74713 -0.0532532 4.08378 -0.0532532 4.29143 0.15976L7.67517 3.63101C7.88282 3.84402 7.88282 4.18939 7.67517 4.4024C7.46753 4.61541 7.13087 4.61541 6.92323 4.4024L4.44716 1.8623L4.44716 10.9228C4.44716 11.2165 4.20911 11.4545 3.91545 11.4545C3.6218 11.4545 3.38375 11.2165 3.38375 10.9228L3.38375 1.8623L0.907677 4.4024C0.700033 4.61541 0.363376 4.61541 0.155733 4.4024C-0.0519109 4.18939 -0.0519109 3.84402 0.155733 3.63101Z" fill="#9492C4"/>
<path fill-rule="evenodd" clip-rule="evenodd" d="M8.32482 8.36899L11.7086 11.8402C11.9162 12.0533 12.2529 12.0533 12.4605 11.8402L15.8443 8.36899C16.0519 8.15598 16.0519 7.81061 15.8443 7.5976C15.6366 7.38459 15.3 7.38459 15.0923 7.5976L12.6162 10.1377V1.07716C12.6162 0.783507 12.3782 0.545455 12.0845 0.545455C11.7909 0.545455 11.5528 0.783507 11.5528 1.07716V10.1377L9.07677 7.5976C8.86912 7.38459 8.53247 7.38459 8.32482 7.5976C8.11718 7.81061 8.11718 8.15598 8.32482 8.36899Z" fill="#9492C4"/>
</svg>
