<svg width="16" height="16" viewBox="0 0 16 16" fill="none" xmlns="http://www.w3.org/2000/svg"><path fill-rule="evenodd" clip-rule="evenodd" d="M9.44939 2.59082L8 0L6.55061 2.59082L4 1.0718L4.0402 4.0402L1.0718 4L2.59082 6.55061L0 8L2.59082 9.44939L1.0718 12L4.0402 11.9598L4 14.9282L6.55061 13.4092L8 16L9.44939 13.4092L12 14.9282L11.9598 11.9598L14.9282 12L13.4092 9.44939L16 8L13.4092 6.55061L14.9282 4L11.9598 4.0402L12 1.0718L9.44939 2.59082ZM12.8 8C12.8 10.651 10.651 12.8 8 12.8C5.34903 12.8 3.2 10.651 3.2 8C3.2 5.34903 5.34903 3.2 8 3.2C10.651 3.2 12.8 5.34903 12.8 8ZM12 8C12 10.2091 10.2091 12 8 12C5.79086 12 4 10.2091 4 8C4 5.79086 5.79086 4 8 4C10.2091 4 12 5.79086 12 8Z" fill="#F4C14D"/></svg>
