<svg width="195" height="111" viewBox="0 0 195 111" fill="none" xmlns="http://www.w3.org/2000/svg">
<path fill-rule="evenodd" clip-rule="evenodd" d="M18.6815 30.1739L15.0699 36.37V40.6087H13.7323V36.37L10.1206 30.1739H11.6069L14.4457 35.1632L17.2696 30.1739H18.6815ZM28.1511 40.6087H26.5311L22.3101 32.2196V40.6087H21.017V30.1739H22.6668L26.8729 38.6071V30.1739H28.1511V40.6087ZM39.5071 31.3955H35.94V40.6087H34.5875V31.3955H31.0056V30.1739H39.5071V31.3955ZM49.6984 40.6087H48.3459V35.796H43.8722V40.6087H42.5345V30.1739H43.8722V34.5303H48.3459V30.1739H49.6984V40.6087ZM60.129 40.6087H53.1584V30.1739H60.129V31.3807H54.4812V34.5597H58.7468V35.796H54.4812V39.4018H60.129V40.6087ZM71.2254 31.3955H67.6584V40.6087H66.3059V31.3955H62.724V30.1739H71.2254V31.3955ZM79.825 40.6087H73.8204V39.5196H76.1539V31.2483H73.8204V30.1739H79.825V31.2483H77.4915V39.5196H79.825V40.6087ZM90.9999 40.6087H89.4987L86.8532 36.37L84.2373 40.6087H82.7659L86.11 35.3398L82.7659 30.1739H84.2819L86.9126 34.2507L89.5136 30.1739H90.985L87.6558 35.3398L90.9999 40.6087Z" fill="white"/>
<path opacity="0.5" fill-rule="evenodd" clip-rule="evenodd" d="M1.24782 40.4807L0.167969 39.7063L6.9598 30.2198L8.03965 30.9943L1.24782 40.4807Z" fill="white"/>
<path fill-rule="evenodd" clip-rule="evenodd" d="M4.7462 34.726H5.10875C6.77799 34.726 8.13118 36.0819 8.13118 37.7543C8.13118 39.4268 6.77799 40.7826 5.10875 40.7826H0.663976C0.297272 40.7826 0 40.4848 0 40.1173C0 39.7499 0.297272 39.4521 0.663976 39.4521H5.10875C6.04458 39.4521 6.80323 38.692 6.80323 37.7543C6.80323 36.8167 6.04458 36.0566 5.10875 36.0566H3.38527H3.38498H3.02243C1.35319 36.0566 0 34.7008 0 33.0283C0 31.3558 1.35319 30 3.02243 30H7.4672C7.83391 30 8.13118 30.2978 8.13118 30.6653C8.13118 31.0327 7.83391 31.3305 7.4672 31.3305H3.02243C2.08659 31.3305 1.32795 32.0906 1.32795 33.0283C1.32795 33.9659 2.08659 34.726 3.02243 34.726H4.74591C4.74601 34.726 4.7461 34.726 4.7462 34.726Z" fill="white"/>
<path fill-rule="evenodd" clip-rule="evenodd" d="M0.259521 43.5652H7.06373V44.7578H1.5868V48.0969H6.14836V49.2895H1.5868V52.8075H7.26206V54H0.259521V43.5652ZM21.2795 48.7826C21.2795 47.7567 21.4831 46.8481 21.8904 46.0567C22.2976 45.2653 22.8787 44.6522 23.6337 44.2174C24.3886 43.7826 25.2627 43.5652 26.256 43.5652C27.4083 43.5652 28.3743 43.873 29.1541 44.4885C29.9338 45.1041 30.423 45.9443 30.6217 47.0093H29.3254C29.1367 46.2961 28.7667 45.7392 28.2154 45.3386C27.6641 44.938 26.9911 44.7377 26.1964 44.7377C25.4812 44.7377 24.8505 44.9087 24.3042 45.2506C23.7578 45.5926 23.3381 46.0689 23.0451 46.6796C22.7521 47.2902 22.6056 47.9912 22.6056 48.7826C22.6056 49.5643 22.7521 50.2628 23.0451 50.8784C23.3381 51.4939 23.7578 51.9727 24.3042 52.3146C24.8505 52.6566 25.4812 52.8276 26.1964 52.8276C27.001 52.8276 27.6715 52.6297 28.2079 52.234C28.7443 51.8383 29.1118 51.279 29.3105 50.556H30.6068C30.4081 51.6209 29.9239 52.4612 29.1541 53.0767C28.3842 53.6923 27.4182 54 26.256 54C25.2627 54 24.3886 53.7826 23.6337 53.3479C22.8787 52.9131 22.2976 52.3024 21.8904 51.5159C21.4831 50.7294 21.2795 49.8183 21.2795 48.7826ZM34.3413 43.5652H35.6243V48.1053H40.9631V43.5652H42.2462V54H40.9631V49.2962H35.6243V54H34.3413V43.5652ZM45.7595 54L49.6815 43.5652H51.1945L55.1017 54H53.7356L52.6487 51.1826H48.1685L47.0815 54H45.7595ZM48.5276 50H52.356L50.4342 45.1305L48.5276 50ZM58.9078 54V43.5652H60.0767L65.5708 51.6149V43.5652H66.8128V54H65.6438L60.1498 45.9503V54H58.9078ZM70.3261 48.7826C70.3261 47.7567 70.5265 46.8481 70.9274 46.0567C71.3282 45.2653 71.9002 44.6522 72.6433 44.2174C73.3864 43.7826 74.2467 43.5652 75.2245 43.5652C76.3587 43.5652 77.3095 43.873 78.077 44.4885C78.8445 45.1041 79.3261 45.9394 79.5216 46.9947H78.2603C78.0648 46.2814 77.6981 45.7269 77.1604 45.3312C76.6226 44.9355 75.9676 44.7377 75.1952 44.7377C74.4912 44.7377 73.8679 44.9087 73.3252 45.2506C72.7826 45.5926 72.3646 46.0714 72.0713 46.6869C71.778 47.3024 71.6313 48.001 71.6313 48.7826C71.6313 49.5643 71.778 50.2628 72.0713 50.8784C72.3646 51.4939 72.7802 51.9727 73.3179 52.3146C73.8557 52.6566 74.4716 52.8276 75.1658 52.8276C75.7916 52.8276 76.3513 52.7079 76.8451 52.4685C77.3388 52.2291 77.725 51.8872 78.0037 51.4426C78.2823 50.9981 78.4217 50.4778 78.4217 49.8818V49.5301H75.3418V48.3576H79.6683V53.9121H78.6123L78.4803 52.2853C78.1968 52.7445 77.7715 53.1451 77.2044 53.4871C76.6373 53.829 75.9529 54 75.1512 54C74.2125 54 73.3766 53.7802 72.6433 53.3405C71.91 52.9009 71.3405 52.2878 70.9347 51.5013C70.5289 50.7147 70.3261 49.8085 70.3261 48.7826ZM90.5958 43.5652V44.7578H85.142V48.0969H89.6843V49.2895H85.142V52.8075H90.7933V54H83.8204V43.5652H90.5958ZM12.1557 43.5652L14.7865 47.642L17.3874 43.5652H18.8588L15.5296 48.7311L18.8737 54H17.3726L14.727 49.7614L12.1112 54H10.6397L13.9839 48.7311L10.6397 43.5652H12.1557Z" fill="white"/>
<g filter="url(#filter0_d)">
<path d="M125 27L105 37V47L125 57L145 47V37L125 27Z" fill="#3399CC"/>
<path d="M125 27L105 37V47L125 57L145 47V37L125 27Z" fill="#795DF5"/>
<path opacity="0.11" d="M105 37L125 47V57L105 47V37Z" fill="black"/>
<path opacity="0.29" d="M145 37V47L125 57V47L145 37Z" fill="black"/>
</g>
<path d="M122.963 41.9143L127.231 39.0786L126.057 38.2444L123.088 40.2168L117.415 36.1852L116.115 37.0485L122.963 41.9143ZM132.46 35.6036L131.326 34.7973L128.867 36.431L128.395 33.7453C128.276 33.1113 127.938 32.5961 127.371 32.193C126.187 31.3519 124.605 31.2999 123.296 32.1699C122.716 32.555 122.403 33.0056 122.355 33.5079C122.308 34.0101 122.528 34.469 123.016 34.8574L124.391 34.2399C123.894 33.7767 123.891 33.3348 124.401 32.9961C124.96 32.6242 125.603 32.6683 126.16 33.0645C126.542 33.3356 126.782 33.754 126.863 34.3059L127.524 38.2113L128.013 38.5589L132.46 35.6036Z" fill="white"/>
<defs>
<filter id="filter0_d" x="55" y="-19" width="140" height="130" filterUnits="userSpaceOnUse" color-interpolation-filters="sRGB">
<feFlood flood-opacity="0" result="BackgroundImageFix"/>
<feColorMatrix in="SourceAlpha" type="matrix" values="0 0 0 0 0 0 0 0 0 0 0 0 0 0 0 0 0 0 127 0"/>
<feOffset dy="4"/>
<feGaussianBlur stdDeviation="25"/>
<feColorMatrix type="matrix" values="0 0 0 0 0.737255 0 0 0 0 0.388235 0 0 0 0 1 0 0 0 0.7 0"/>
<feBlend mode="normal" in2="BackgroundImageFix" result="effect1_dropShadow"/>
<feBlend mode="normal" in="SourceGraphic" in2="effect1_dropShadow" result="shape"/>
</filter>
</defs>
</svg>
