<svg width="113" height="29" viewBox="0 0 113 29" fill="none" xmlns="http://www.w3.org/2000/svg">
<path d="M13.1471 15.96V13.64H1.67513V25H4.90712V20.568H12.8751V18.296H4.90712V15.96H13.1471ZM16.7424 13.64V19.88C16.7424 23.16 19.1264 25.384 23.4304 25.384C27.7184 25.384 30.1024 23.176 30.1024 19.912V13.64H26.8704V19.576C26.8704 21.48 25.6064 22.856 23.4304 22.856C21.1904 22.856 19.9744 21.496 19.9744 19.576V13.64H16.7424ZM46.098 13.64H33.41V16.152H38.13V25H41.362V16.152H46.098V13.64ZM49.4611 13.64V19.88C49.4611 23.16 51.8451 25.384 56.1491 25.384C60.4371 25.384 62.8211 23.176 62.8211 19.912V13.64H59.5891V19.576C59.5891 21.48 58.3251 22.856 56.1491 22.856C53.9091 22.856 52.6931 21.496 52.6931 19.576V13.64H49.4611ZM76.5321 25H80.1641L77.1881 20.6C79.1081 19.992 79.7481 18.504 79.7481 17.24C79.7481 15.512 78.6921 13.64 75.0441 13.64H67.3001V25H70.5321V20.984H73.8441L76.5321 25ZM70.5321 15.8H74.3241C75.8761 15.8 76.3401 16.552 76.3401 17.336C76.3401 18.136 75.8761 18.92 74.3081 18.92H70.5321V15.8ZM87.3446 22.744V20.296H95.3126V18.184H87.3446V15.896H95.5846V13.64H84.1126V25H95.6966V22.744H87.3446ZM105.84 25.384C109.936 25.384 112.288 23.992 112.288 21.48C112.288 19.368 110.992 18.44 107.856 18.12L104.72 17.816C103.264 17.656 102.784 17.384 102.784 16.68C102.784 15.912 103.744 15.496 105.504 15.496C107.68 15.496 109.312 16.184 110.16 17.304L112.192 15.592C110.784 14.008 108.544 13.256 105.664 13.256C101.776 13.256 99.5839 14.584 99.5839 16.84C99.5839 18.936 100.912 19.96 103.696 20.264L107.184 20.648C108.544 20.792 109.024 21.08 109.024 21.784C109.024 22.68 108.064 23.096 106 23.096C103.664 23.096 101.92 22.2 100.976 20.872L98.6719 22.488C99.8399 24.28 102.48 25.384 105.84 25.384Z" fill="white"/>
<g clip-path="url(#synthetix-logoclip0)">
<path d="M11.6375 3.79396C11.1674 3.33456 10.6025 3.10496 9.94247 3.10496H3.39998C3.27847 3.10496 3.17422 3.06275 3.08703 2.97812C2.99984 2.8937 2.95635 2.79074 2.95635 2.66922V2.13862C2.95635 2.02265 2.99984 1.92224 3.08703 1.83761C3.17422 1.75319 3.27847 1.71077 3.39998 1.71077H11.8355C11.8566 1.71077 11.8737 1.70416 11.8869 1.69094C11.9001 1.67794 11.9067 1.66323 11.9067 1.64745V0.0633144C11.9067 0.0422096 11.9001 0.0264343 11.8869 0.0157753C11.8737 0.00532949 11.8564 0 11.8355 0H3.39998C2.73465 0 2.16823 0.229808 1.70094 0.68921C1.23365 1.14861 1 1.70288 1 2.35244V2.4554C1 3.11029 1.23365 3.66733 1.70094 4.12673C2.16823 4.58614 2.73465 4.81573 3.39998 4.81573H9.94247C10.0587 4.81573 10.1603 4.85666 10.2473 4.93852C10.3345 5.02038 10.378 5.12207 10.378 5.24358V5.77419C10.378 5.8957 10.3345 5.99739 10.2473 6.07925C10.1601 6.16111 10.0584 6.20204 9.94247 6.20204H1.49905C1.48328 6.20204 1.46857 6.20865 1.45557 6.22186C1.44235 6.23508 1.43574 6.25235 1.43574 6.27345V7.85759C1.43574 7.87337 1.44235 7.88808 1.45557 7.90108C1.46878 7.9143 1.48328 7.92091 1.49905 7.92091H9.94247C10.6025 7.92091 11.1674 7.69003 11.6375 7.22786C12.1073 6.7659 12.3425 6.21014 12.3425 5.56058V5.4574C12.3422 4.80784 12.1073 4.25336 11.6375 3.79396Z" fill="white"/>
<path d="M25.8412 0H24.0115C23.9957 0 23.981 0.0053295 23.968 0.0157753C23.9548 0.0264343 23.9482 0.0422096 23.9482 0.0633144V2.07509C23.9482 2.24926 23.8582 2.38143 23.6789 2.47118L20.0276 3.9839L16.3762 2.47118C16.1967 2.38143 16.107 2.24947 16.107 2.07509V0.0633144C16.107 0.0422096 16.1017 0.0264343 16.0912 0.0157753C16.0803 0.0053295 16.0646 0 16.0435 0H14.2137C14.198 0 14.1833 0.0053295 14.1703 0.0157753C14.157 0.0264343 14.1504 0.0422096 14.1504 0.0633144V2.36821C14.1504 2.71165 14.2455 3.02566 14.4357 3.31068C14.6258 3.59592 14.8844 3.80697 15.2119 3.94425L19.0455 5.55205V7.84928C19.0455 7.87039 19.0521 7.88765 19.0653 7.90087C19.0785 7.91409 19.0956 7.9207 19.1167 7.9207H20.9464C20.9622 7.9207 20.9767 7.91409 20.9899 7.90087C21.0031 7.88765 21.0097 7.8706 21.0097 7.84928V5.55227L24.8433 3.95235C25.1705 3.80974 25.4296 3.5972 25.6195 3.31473C25.8097 3.03227 25.9045 2.71953 25.9045 2.3761V0.0633144C25.9045 0.0422096 25.8979 0.0264343 25.8847 0.0157753C25.8715 0.0053295 25.857 0 25.8412 0Z" fill="white"/>
<path d="M39.4319 0H37.6021C37.581 0 37.565 0.00660858 37.5546 0.0198257C37.5439 0.0330429 37.5388 0.0475391 37.5388 0.0633144V6.20972H36.7705C36.6279 6.20972 36.5064 6.1464 36.4062 6.01956L32.8578 0.831615C32.4775 0.298452 31.952 0.0211048 31.2816 0H28.2244C28.2033 0 28.186 0.00660858 28.1728 0.0198257C28.1596 0.0330429 28.1529 0.0475391 28.1529 0.0633144V7.85717C28.1529 7.87295 28.1596 7.88765 28.1728 7.90066C28.186 7.91388 28.203 7.92049 28.2244 7.92049H30.0541C30.0699 7.92049 30.0844 7.91388 30.0976 7.90066C30.1108 7.88765 30.1174 7.87295 30.1174 7.85717V1.71077H30.8857C31.0283 1.71077 31.1496 1.77685 31.25 1.90881L34.7984 7.09676C35.1787 7.63013 35.704 7.90471 36.3747 7.92049H39.4321C39.4532 7.92049 39.469 7.91388 39.4796 7.90066C39.4901 7.88765 39.4954 7.87295 39.4954 7.85717V0.0633144C39.4954 0.0475391 39.4901 0.0330429 39.4796 0.0198257C39.4687 0.00660858 39.453 0 39.4319 0Z" fill="white"/>
<path d="M52.6565 0H41.4487C41.4276 0 41.4117 0.00660858 41.4012 0.0198257C41.3905 0.0330429 41.3854 0.0475391 41.3854 0.0633144V1.64745C41.3854 1.66323 41.3905 1.67794 41.4012 1.69094C41.4117 1.70416 41.4276 1.71077 41.4487 1.71077H46.0743V7.85717C46.0743 7.87295 46.0795 7.88765 46.0901 7.90066C46.1006 7.91388 46.1165 7.92049 46.1377 7.92049H47.9674C47.9885 7.92049 48.0043 7.91388 48.0149 7.90066C48.0254 7.88765 48.0307 7.87295 48.0307 7.85717V1.71077H52.6563C52.6774 1.71077 52.6944 1.70416 52.7077 1.69094C52.7209 1.67773 52.7275 1.66323 52.7275 1.64745V0.0633144C52.7275 0.0475391 52.7209 0.0330429 52.7077 0.0198257C52.6949 0.00660858 52.6776 0 52.6565 0Z" fill="white"/>
<path d="M66.2469 0H64.4172C64.4014 0 64.3867 0.00660858 64.3737 0.0198257C64.3605 0.0330429 64.3539 0.0475391 64.3539 0.0633144V3.10475H56.9401V0.0633144C56.9401 0.0475391 56.9335 0.0330429 56.9203 0.0198257C56.9071 0.00682176 56.8898 0 56.8689 0H55.0392C55.0234 0 55.0087 0.00660858 54.9957 0.0198257C54.9825 0.0330429 54.9759 0.0475391 54.9759 0.0633144V7.85717C54.9759 7.87295 54.9825 7.88765 54.9957 7.90066C55.0089 7.91388 55.0234 7.92049 55.0392 7.92049H56.8689C56.89 7.92049 56.9071 7.91388 56.9203 7.90066C56.9335 7.88744 56.9401 7.87295 56.9401 7.85717V4.81573H64.3539V7.85717C64.3539 7.87295 64.3605 7.88765 64.3737 7.90066C64.3869 7.91388 64.4014 7.92049 64.4172 7.92049H66.2469C66.268 7.92049 66.2851 7.91388 66.2983 7.90066C66.3115 7.88744 66.3181 7.87295 66.3181 7.85717V0.0633144C66.3181 0.0475391 66.3113 0.0330429 66.2983 0.0198257C66.2851 0.00660858 66.2678 0 66.2469 0Z" fill="white"/>
<path d="M79.789 0H70.91C70.2498 0 69.6849 0.229595 69.215 0.688997C68.745 1.1484 68.51 1.70288 68.51 2.35244V5.56016C68.51 6.21504 68.745 6.77208 69.215 7.23149C69.6849 7.69089 70.2498 7.9207 70.91 7.9207H79.789C79.8048 7.9207 79.8193 7.91409 79.8325 7.90087C79.8455 7.88765 79.8523 7.87316 79.8523 7.85738V6.27324C79.8523 6.25214 79.8457 6.23636 79.8325 6.2257C79.8193 6.21526 79.8048 6.20993 79.789 6.20993H70.91C70.7885 6.20993 70.6855 6.16772 70.6011 6.0833C70.5165 5.99888 70.4743 5.89847 70.4743 5.78229V4.81573H79.7832C79.8043 4.81573 79.8201 4.80912 79.8308 4.79591C79.8412 4.78269 79.8465 4.76819 79.8465 4.75242V3.16828C79.8465 3.14717 79.8412 3.1314 79.8308 3.12074C79.8201 3.11029 79.8043 3.10496 79.7832 3.10496H70.4743V2.13862C70.4743 2.02244 70.5165 1.92224 70.6011 1.83761C70.6855 1.75319 70.7885 1.71077 70.91 1.71077H79.789C79.8048 1.71077 79.8193 1.70416 79.8325 1.69094C79.8455 1.67794 79.8523 1.66323 79.8523 1.64745V0.0633144C79.8523 0.0475391 79.8457 0.0330429 79.8325 0.0198257C79.8193 0.00682175 79.8048 0 79.789 0Z" fill="white"/>
<path d="M93.3152 0H82.1075C82.0864 0 82.0704 0.00660858 82.0599 0.0198257C82.0493 0.0330429 82.0442 0.0475391 82.0442 0.0633144V1.64745C82.0442 1.66323 82.0493 1.67794 82.0599 1.69094C82.0704 1.70416 82.0864 1.71077 82.1075 1.71077H86.7331V7.85717C86.7331 7.87295 86.7382 7.88765 86.7488 7.90066C86.7595 7.91388 86.7753 7.92049 86.7964 7.92049H88.6261C88.6472 7.92049 88.663 7.91388 88.6736 7.90066C88.6843 7.88765 88.6894 7.87295 88.6894 7.85717V1.71077H93.315C93.3361 1.71077 93.3532 1.70416 93.3664 1.69094C93.3796 1.67773 93.3862 1.66323 93.3862 1.64745V0.0633144C93.3862 0.0475391 93.3796 0.0330429 93.3664 0.0198257C93.3534 0.00660858 93.3361 0 93.3152 0Z" fill="white"/>
<path d="M97.5752 0.0157753C97.5645 0.0053295 97.5487 0 97.5276 0H95.698C95.6768 0 95.6609 0.0053295 95.6504 0.0157753C95.6398 0.0264343 95.6346 0.0422096 95.6346 0.0633144V7.85717C95.6346 7.87295 95.6398 7.88765 95.6504 7.90066C95.6609 7.91388 95.6768 7.92049 95.698 7.92049H97.5276C97.5487 7.92049 97.5645 7.91388 97.5752 7.90066C97.5856 7.88744 97.591 7.87295 97.591 7.85717V0.0633144C97.591 0.0424228 97.5856 0.0264343 97.5752 0.0157753Z" fill="white"/>
<path d="M102.627 1.92484C102.547 1.8351 102.45 1.79011 102.334 1.79011H99.9575C99.9364 1.79011 99.9191 1.78351 99.9061 1.77029C99.8929 1.75728 99.8863 1.74258 99.8863 1.7268V0.14266C99.8863 0.126885 99.8929 0.112389 99.9061 0.0991714C99.9191 0.0861675 99.9364 0.0793457 99.9575 0.0793457H102.468C103.102 0.0793457 103.648 0.335588 104.108 0.847646L104.718 1.58418L103.53 3.01782L102.627 1.92484ZM107.015 0.839758C107.474 0.332817 108.023 0.0793457 108.662 0.0793457H111.165C111.186 0.0793457 111.202 0.0846752 111.213 0.095121C111.223 0.10578 111.228 0.121555 111.228 0.14266V1.7268C111.228 1.74258 111.223 1.75728 111.213 1.77029C111.202 1.78351 111.186 1.79011 111.165 1.79011H108.789C108.673 1.79011 108.575 1.8351 108.496 1.92484L106.745 4.0317L108.504 6.15433C108.583 6.23897 108.678 6.28118 108.789 6.28118H111.165C111.186 6.28118 111.202 6.28778 111.213 6.301C111.223 6.31422 111.228 6.33149 111.228 6.35238V7.93652C111.228 7.95229 111.223 7.967 111.213 7.98001C111.202 7.99322 111.186 7.99983 111.165 7.99983H108.662C108.023 7.99983 107.477 7.7438 107.023 7.23153L105.565 5.47322L104.108 7.23153C103.648 7.7438 103.099 7.99983 102.46 7.99983H99.9575C99.9364 7.99983 99.9204 7.99322 99.91 7.98001C99.8993 7.96679 99.8942 7.94973 99.8942 7.92842V6.34428C99.8942 6.3285 99.8993 6.314 99.91 6.30079C99.9204 6.28757 99.9364 6.28096 99.9575 6.28096H102.334C102.444 6.28096 102.542 6.23619 102.627 6.14623L104.345 4.07114L107.015 0.839758Z" fill="white"/>
</g>
<defs>
<clipPath id="synthetix-logoclip0">
<rect width="110.229" height="8" fill="white" transform="translate(1)"/>
</clipPath>
</defs>
</svg>
