<svg xmlns="http://www.w3.org/2000/svg" xmlns:xlink="http://www.w3.org/1999/xlink" width="290" height="73">
    <defs>
        <path id="a" d="M154.794 32.935c1.794 0 3.295.676 4.504 2.028 1.21 1.352 1.814 2.938 1.814 4.758 0 .364-.195.546-.585.546h-10.881a5.918 5.918 0 0 0 1.638 3.627c.962 1.014 2.132 1.521 3.51 1.521 1.898 0 3.393-.767 4.485-2.301.13-.182.286-.273.468-.273.364 0 .546.182.546.546a.48.48 0 0 1-.078.273c-1.092 1.898-2.899 2.847-5.421 2.847-1.768 0-3.256-.676-4.466-2.028-1.209-1.352-1.813-2.938-1.813-4.758 0-1.82.598-3.406 1.794-4.758 1.196-1.352 2.691-2.028 4.485-2.028zm-5.148 6.24h10.296a5.918 5.918 0 0 0-1.638-3.627c-.962-1.014-2.132-1.521-3.51-1.521-1.378 0-2.548.507-3.51 1.521a5.918 5.918 0 0 0-1.638 3.627zm19.812-5.967h2.925c.364 0 .546.182.546.546 0 .364-.182.546-.546.546h-2.925v11.466c0 .364-.182.546-.546.546-.364 0-.546-.182-.546-.546V34.3h-2.808c-.364 0-.546-.182-.546-.546 0-.364.182-.546.546-.546h2.808v-4.212c0-.364.182-.546.546-.546.364 0 .546.182.546.546v4.212zm13.767-.234c1.534 0 2.769.598 3.705 1.794.884 1.092 1.326 2.418 1.326 3.978v6.942c0 .364-.182.546-.546.546-.364 0-.546-.182-.546-.546v-6.942c0-1.274-.338-2.34-1.014-3.198-.728-.988-1.703-1.482-2.925-1.482-1.586 0-2.795.611-3.627 1.833-.754 1.118-1.079 2.483-.975 4.095.026.338.039.494.039.468v5.226c0 .364-.182.546-.546.546-.364 0-.546-.182-.546-.546V22.873c0-.364.182-.546.546-.546.364 0 .546.182.546.546v12.909c1.04-1.872 2.561-2.808 4.563-2.808zm16.302-.039c1.794 0 3.295.676 4.505 2.028 1.209 1.352 1.813 2.938 1.813 4.758 0 .364-.195.546-.585.546h-10.881a5.918 5.918 0 0 0 1.638 3.627c.962 1.014 2.132 1.521 3.51 1.521 1.898 0 3.393-.767 4.485-2.301.13-.182.286-.273.468-.273.364 0 .546.182.546.546a.48.48 0 0 1-.078.273c-1.092 1.898-2.899 2.847-5.421 2.847-1.768 0-3.256-.676-4.465-2.028-1.21-1.352-1.814-2.938-1.814-4.758 0-1.82.598-3.406 1.794-4.758 1.196-1.352 2.691-2.028 4.485-2.028zm-5.148 6.24h10.296a5.918 5.918 0 0 0-1.638-3.627c-.962-1.014-2.132-1.521-3.51-1.521-1.378 0-2.548.507-3.51 1.521a5.918 5.918 0 0 0-1.638 3.627zm22.308-5.967c.39 0 .585.169.585.507 0 .338-.169.533-.507.585-1.534.208-2.704.91-3.51 2.106-.754 1.066-1.131 2.405-1.131 4.017v5.226c0 .364-.182.546-.546.546-.364 0-.546-.182-.546-.546V33.754c0-.364.182-.546.546-.546.364 0 .546.182.546.546v2.418a6.611 6.611 0 0 1 1.911-2.067c.884-.598 1.768-.897 2.652-.897zm10.218-.273c1.794 0 3.295.676 4.505 2.028 1.209 1.352 1.813 2.938 1.813 4.758 0 .364-.195.546-.585.546h-10.881a5.918 5.918 0 0 0 1.638 3.627c.962 1.014 2.132 1.521 3.51 1.521 1.898 0 3.393-.767 4.485-2.301.13-.182.286-.273.468-.273.364 0 .546.182.546.546a.48.48 0 0 1-.078.273c-1.092 1.898-2.899 2.847-5.421 2.847-1.768 0-3.256-.676-4.465-2.028-1.21-1.352-1.814-2.938-1.814-4.758 0-1.82.598-3.406 1.794-4.758 1.196-1.352 2.691-2.028 4.485-2.028zm-5.148 6.24h10.296a5.918 5.918 0 0 0-1.638-3.627c-.962-1.014-2.132-1.521-3.51-1.521-1.378 0-2.548.507-3.51 1.521a5.918 5.918 0 0 0-1.638 3.627zm26.559-5.889c.364 0 .546.182.546.546v11.934c0 .364-.182.546-.546.546-.364 0-.546-.182-.546-.546v-2.262c-1.014 2.054-2.522 3.081-4.524 3.081-1.534 0-2.769-.598-3.705-1.794-.884-1.092-1.326-2.418-1.326-3.978v-6.981c0-.364.182-.546.546-.546.364 0 .546.182.546.546v6.981c0 1.274.325 2.34.975 3.198.728.988 1.716 1.482 2.964 1.482 3.016 0 4.524-2.405 4.524-7.215v-4.446c0-.364.182-.546.546-.546zm21.138-.312c1.534 0 2.756.565 3.666 1.697.91 1.13 1.365 2.476 1.365 4.036v6.981c0 .364-.182.546-.546.546-.364 0-.546-.182-.546-.546v-6.981c0-1.274-.338-2.34-1.014-3.198-.702-.962-1.677-1.443-2.925-1.443-1.508 0-2.678.689-3.51 2.067-.676 1.17-1.014 2.561-1.014 4.173v5.382c0 .364-.182.546-.546.546-.364 0-.546-.182-.546-.546v-6.981c0-1.274-.338-2.34-1.014-3.198-.728-.962-1.703-1.443-2.925-1.443-1.586 0-2.782.572-3.588 1.716-.702 1.066-1.027 2.522-.975 4.368v5.538c0 .364-.182.546-.546.546-.364 0-.546-.182-.546-.546V33.754c0-.364.182-.546.546-.546.364 0 .546.182.546.546v1.989c1.04-1.846 2.561-2.769 4.563-2.769 2.314 0 3.861 1.157 4.641 3.471 1.014-2.314 2.652-3.471 4.914-3.471z"/>
        <path id="b" d="M2.013 6.505h4.026c1.144 0 1.967-.201 2.469-.604.501-.402.752-1.006.752-1.811 0-.537-.085-.96-.254-1.272-.17-.31-.403-.55-.7-.72a2.75 2.75 0 0 0-1.027-.329 9.83 9.83 0 0 0-1.24-.074H2.013v4.81zM0 0h5.488c.325 0 .675.004 1.05.01.373.008.744.029 1.112.064.367.035.71.088 1.027.16.318.07.59.176.816.317.495.297.915.706 1.26 1.229.347.523.52 1.165.52 1.928 0 .805-.194 1.501-.583 2.087-.388.587-.943 1.021-1.663 1.304v.042c.932.198 1.646.622 2.14 1.271.495.65.742 1.441.742 2.374 0 .55-.1 1.087-.297 1.61-.198.523-.49.985-.88 1.388a4.396 4.396 0 0 1-1.44.975c-.572.247-1.233.37-1.981.37H0V0zm2.013 13.434h5.043c.89 0 1.586-.24 2.087-.72.502-.48.753-1.144.753-1.992 0-.494-.092-.904-.276-1.229a2.137 2.137 0 0 0-.73-.773 3.063 3.063 0 0 0-1.05-.403 6.363 6.363 0 0 0-1.229-.116H2.013v5.233zm21.275 1.696h-1.695v-1.738h-.043c-.381.678-.869 1.176-1.462 1.494-.593.318-1.292.477-2.098.477-.72 0-1.32-.096-1.8-.286a2.872 2.872 0 0 1-1.166-.816 3.07 3.07 0 0 1-.625-1.26 6.78 6.78 0 0 1-.18-1.622V4.174h1.8v7.417c0 .678.198 1.215.594 1.61.396.396.94.594 1.632.594.55 0 1.027-.085 1.43-.255.403-.17.738-.41 1.006-.72.269-.31.47-.675.604-1.091.135-.417.202-.873.202-1.367V4.174h1.8V15.13zm4.62-12.926h-1.802V0h1.801v2.204zm-1.802 1.97h1.801V15.13h-1.8V4.174zM30.81 0h1.801v15.13h-1.8V0zm7.099 4.174h2.182v1.59H37.91v6.802c0 .212.018.381.053.508a.524.524 0 0 0 .201.297.89.89 0 0 0 .413.138c.177.02.407.031.69.031h.825v1.59h-1.377c-.466 0-.865-.032-1.197-.096-.332-.063-.6-.18-.805-.35-.205-.169-.357-.409-.456-.72-.099-.31-.148-.72-.148-1.229V5.764h-1.865v-1.59h1.865V.89h1.8v3.284zm11.379 5.489c0 .664.088 1.253.265 1.769.176.516.42.946.73 1.293.312.346.675.61 1.092.794.417.184.858.276 1.325.276.466 0 .907-.092 1.324-.276.417-.183.78-.448 1.091-.794.311-.347.555-.777.731-1.293.177-.516.265-1.105.265-1.77 0-.663-.088-1.253-.265-1.769a3.818 3.818 0 0 0-.73-1.303 3.113 3.113 0 0 0-1.092-.805 3.248 3.248 0 0 0-1.324-.276c-.467 0-.908.092-1.325.276-.417.184-.78.452-1.091.805-.31.353-.555.788-.731 1.303-.177.516-.265 1.106-.265 1.77zm-1.907 0c0-.806.113-1.558.339-2.257.226-.7.565-1.307 1.017-1.822a4.791 4.791 0 0 1 1.674-1.219c.664-.297 1.427-.445 2.289-.445.875 0 1.642.148 2.299.445a4.816 4.816 0 0 1 1.663 1.219 5.113 5.113 0 0 1 1.017 1.822c.226.7.34 1.451.34 2.257 0 .805-.114 1.554-.34 2.246a5.127 5.127 0 0 1-1.017 1.812A4.701 4.701 0 0 1 55 14.928c-.657.29-1.424.435-2.3.435-.861 0-1.624-.145-2.288-.435a4.68 4.68 0 0 1-1.674-1.207 5.127 5.127 0 0 1-1.017-1.812 7.196 7.196 0 0 1-.34-2.246z"/>
        <path id="c" d="M60.137 4.174h1.695v1.738h.043c.749-1.328 1.935-1.992 3.56-1.992.72 0 1.32.099 1.8.297.481.198.87.473 1.166.826.297.353.505.774.625 1.261.12.487.18 1.028.18 1.621v7.205h-1.8V7.713c0-.678-.198-1.215-.594-1.61-.395-.396-.94-.594-1.632-.594-.55 0-1.027.085-1.43.255-.402.17-.738.41-1.006.72-.269.31-.47.675-.604 1.091a4.438 4.438 0 0 0-.202 1.367v6.188h-1.8V4.174z"/>
    </defs>
    <g fill="none" fill-rule="nonzero">
        <rect width="290" height="73" fill="##131722" stroke="#2e3241" stroke-width="4" rx="12"/>
        <use fill="#000" xlink:href="#a"/>
        <use fill="#FFF" xlink:href="#a"/>
        <g transform="translate(18.653 28.87)">
            <use fill="#000" xlink:href="#b"/>
            <use fill="#FFF" xlink:href="#b"/>
        </g>
        <g fill="#FFF" transform="translate(18.653 28.87)">
            <use xlink:href="#c"/>
            <use xlink:href="#c"/>
        </g>
        <g stroke="#FFF" stroke-width=".25">
            <path fill="#FF826B" d="M119.44 11l-.33 1.15v33.26l.33.33 15.45-9.12z"/>
            <path fill="#F3F047" d="M119.44 11L104 36.62l15.44 9.12z"/>
            <path fill="#6A7DD1" d="M119.44 48.67l-.19.23v11.85l.19.55 15.45-21.75z"/>
            <path fill="#00B2D8" d="M119.44 61.3V48.67L104 39.55z"/>
            <path fill="#A762B4" d="M119.44 45.74l15.45-9.12-15.44-7z"/>
            <path fill="#00BF70" d="M104 36.62l15.44 9.12V29.6z"/>
        </g>
    </g>
</svg>
