<?xml version="1.0" encoding="UTF-8"?>
<svg width="17px" height="15px" viewBox="0 0 17 15" version="1.1" xmlns="http://www.w3.org/2000/svg" xmlns:xlink="http://www.w3.org/1999/xlink">
    <!-- Generator: Sketch 51.2 (57519) - http://www.bohemiancoding.com/sketch -->
    <title>ico-switch</title>
    <desc>Created with Sketch.</desc>
    <defs></defs>
    <g id="🌀-Converter" stroke="none" stroke-width="1" fill="none" fill-rule="evenodd">
        <g id="Converter-–-Main" transform="translate(-710.000000, -651.000000)" fill="#FFFFFF" fill-rule="nonzero">
            <g id="Group-10" transform="translate(295.500000, 428.761719)">
                <g id="Group-9" transform="translate(1.000000, 48.000000)">
                    <g id="Group-4" transform="translate(0.000000, 0.773438)">
                        <g id="Group-2-Copy" transform="translate(414.000000, 140.000000)">
                            <g id="ico-switch" transform="translate(0.000000, 34.000000)">
                                <path d="M1,4.375 L12.6,4.375 L11.3,5.5125 C10.9,5.8625 10.9,6.3875 11.3,6.7375 C11.5,6.9125 11.7,7 12,7 C12.3,7 12.5,6.9125 12.7,6.7375 L15.7,4.1125 C16.1,3.7625 16.1,3.2375 15.7,2.8875 L12.7,0.2625 C12.3,-0.0875 11.7,-0.0875 11.3,0.2625 C10.9,0.6125 10.9,1.1375 11.3,1.4875 L12.6,2.625 L1,2.625 C0.4,2.625 0,2.975 0,3.5 C0,4.025 0.4,4.375 1,4.375 Z" id="Shape"></path>
                                <path d="M15,9.625 L3.4,9.625 L4.7,8.4875 C5.1,8.1375 5.1,7.6125 4.7,7.2625 C4.3,6.9125 3.7,6.9125 3.3,7.2625 L0.3,9.8875 C-0.1,10.2375 -0.1,10.7625 0.3,11.1125 L3.3,13.7375 C3.5,13.9125 3.7,14 4,14 C4.3,14 4.5,13.9125 4.7,13.7375 C5.1,13.3875 5.1,12.8625 4.7,12.5125 L3.4,11.375 L15,11.375 C15.6,11.375 16,11.025 16,10.5 C16,9.975 15.6,9.625 15,9.625 Z" id="Shape"></path>
                            </g>
                        </g>
                    </g>
                </g>
            </g>
        </g>
    </g>
</svg>