<svg width="40" height="40" xmlns="http://www.w3.org/2000/svg"><g fill="none" fill-rule="evenodd"><circle fill="#1E1A31" cx="20" cy="20" r="20"/><g fill="#FFF"><path opacity=".5" d="M15.623 27.487l-1.639-1.165 10.31-14.266 1.64 1.165z"/><path d="M20.934 18.833h.55c2.535 0 4.589 2.039 4.589 4.554s-2.054 4.554-4.588 4.554h-6.748a1.004 1.004 0 01-1.008-1c0-.553.452-1 1.008-1h6.748a2.563 2.563 0 002.572-2.554 2.563 2.563 0 00-2.572-2.553h-3.167c-2.535 0-4.589-2.04-4.589-4.554 0-2.515 2.054-4.554 4.588-4.554h6.748c.556 0 1.008.448 1.008 1 0 .553-.452 1-1.008 1h-6.748a2.563 2.563 0 00-2.572 2.554 2.563 2.563 0 002.572 2.553h2.617z"/></g></g></svg>
