<svg xmlns="http://www.w3.org/2000/svg" width="702" height="199">
    <g fill="#FFF" fill-rule="evenodd">
        <path d="M37.21 39.249c3.017 0 5.463.03 5.463 2.975 0 2.946-2.446 3.457-5.464 3.457l-14.184.446c-13.734 0-21.439-9.465-21.439-22.875 0-6.602 2.378-11.964 5.913-15.907 3.645-4.066 8.553-6.61 15.526-6.61h36.578c1.952 0 3.756.245 4.732 1.895.51.863.594 1.318.57 1.795-.02.435-.105.889-.57 1.676-.976 1.65-2.78 1.909-4.732 1.909H23.025c-3.744.047-8.019 1.706-10.75 4.493-2.833 2.893-4.053 6.983-4.053 10.777 0 7.45 7.173 15.682 14.803 15.779l14.184.19z"/>
        <path d="M27.728 45.955c-3.018 0-5.464-.22-5.464-3.165 0-2.946 2.446-3.541 5.464-3.541h14.184c6.747 0 11.66 2.248 15.36 6.163 3.829 4.053 6.324 9.528 6.324 16.35 0 13.41-7.947 22.187-21.684 22.187H5.334c-1.952 0-3.755.085-4.731-1.565-.486-.822-.6-1.276-.603-1.73-.002-.457.113-1.245.603-2.074.976-1.65 2.78-1.576 4.731-1.576h36.578c3.724-.047 7.938-1.381 10.63-4.137 2.825-2.89 4.04-7.292 4.04-11.105 0-7.45-7.04-15.71-14.67-15.807H27.728z"/>
        <path fill-opacity=".5" d="M7.512 81.97l-5.926-4.273L56.358.734l5.62 4.052z"/>
        <path fill-rule="nonzero" d="M87.855.094h7.458l27.465 45.95L150.48.094h7.22l-31.726 53.01v30.873h-6.392V53.104L87.855.094zm93.066 83.883V.214h6.037l49.01 71.916V.214h6.275v83.763h-6.037l-49.01-72.036v72.036h-6.275zM266.529.214h63.216v5.983h-28.412v77.78h-6.393V6.197H266.53V.214zm87.501-.12h6.393v38.172h47.945V.094h6.392v83.883h-6.392V44.249h-47.945v39.728h-6.393V.094zm90.817.12h51.022v5.983h-44.63v32.07h37.41v5.982h-37.41v33.745h46.17v5.983h-52.562V.214zm69.744 0h63.216v5.983h-28.412v77.78h-6.392V6.197H514.59V.214zm87.502 0h6.392v83.763h-6.392V.214zm60.747 40.924L635.612.214h7.458l23.913 35.779L691.015.214h6.866l-27.228 40.924 29.004 42.839h-7.576L666.51 46.403 640.82 83.977h-6.985l29.004-42.839zM2 116.7h50.31v5.828H8.303v31.242H45.19v5.828H8.303v32.874h45.525v5.829H2v-81.602zm104.92 39.867L80.071 116.7h7.354l23.579 34.856 23.696-34.856h6.77l-26.848 39.868 28.6 41.734h-7.472l-25.213-36.604-25.33 36.604H78.32l28.598-41.734zm57.41.933c0-8.082 1.556-15.271 4.669-21.566 3.113-6.295 7.548-11.191 13.307-14.688S194.718 116 202.266 116c8.639 0 15.876 2.254 21.712 6.761 5.837 4.508 9.611 10.841 11.323 19.002h-6.303c-1.712-6.373-4.942-11.288-9.689-14.747-4.747-3.458-10.544-5.187-17.392-5.187-6.226 0-11.673 1.515-16.342 4.546-4.67 3.03-8.288 7.247-10.856 12.648-2.568 5.401-3.852 11.56-3.852 18.477s1.284 13.076 3.852 18.477c2.568 5.401 6.186 9.617 10.856 12.648 4.669 3.03 10.116 4.546 16.342 4.546 7.003 0 12.82-1.71 17.45-5.129 4.63-3.42 7.802-8.393 9.514-14.921h6.303c-1.79 8.238-5.544 14.61-11.264 19.118-5.72 4.507-12.937 6.761-21.653 6.761-7.549 0-14.202-1.73-19.96-5.188-5.76-3.458-10.195-8.334-13.308-14.63-3.113-6.294-4.67-13.522-4.67-21.682zm102.118-40.917h6.303v37.187h47.275v-37.187h6.304V198.3h-6.304v-38.703h-47.275v38.703h-6.303v-81.718zm87.526 81.718l31.517-81.602h7.47l31.518 81.602h-6.77l-9.806-24.947h-37.587l-9.805 24.947h-6.537zm18.21-30.776h33.851l-16.925-43.948-16.926 43.948zm79.94 30.776v-81.602h5.952l48.326 70.06V116.7h6.187v81.602h-5.953l-48.326-70.177V198.3h-6.187zm91.611-40.801c0-8.082 1.557-15.271 4.67-21.566 3.112-6.295 7.51-11.191 13.19-14.688S573.929 116 581.555 116c8.56 0 15.76 2.254 21.596 6.761 5.836 4.508 9.65 10.841 11.44 19.002h-6.188c-1.867-6.373-5.136-11.288-9.805-14.747-4.669-3.458-10.428-5.187-17.276-5.187-6.225 0-11.673 1.515-16.342 4.546-4.669 3.03-8.288 7.247-10.856 12.648-2.568 5.401-3.852 11.56-3.852 18.477s1.265 13.076 3.794 18.477c2.53 5.401 6.109 9.617 10.74 12.648 4.63 3.03 9.94 4.546 15.933 4.546 5.914 0 11.07-1.224 15.466-3.672 4.397-2.448 7.782-5.79 10.156-10.025 2.373-4.235 3.56-9.034 3.56-14.397v-3.497h-26.848v-5.829h32.918v42.55h-5.253l-.584-18.652c-1.945 5.44-5.447 10.025-10.505 13.755-5.059 3.73-11.4 5.596-19.027 5.596-7.16 0-13.54-1.749-19.144-5.246-5.603-3.497-9.96-8.393-13.073-14.688-3.113-6.295-4.67-13.484-4.67-21.566zm106.437-40.8h50.31v5.828h-44.006v31.242h36.886v5.828h-36.886v32.874H702v5.829h-51.828v-81.602z"/>
    </g>
</svg>
