<svg width="91" height="24" viewBox="0 0 91 24" fill="none" xmlns="http://www.w3.org/2000/svg"><path fill-rule="evenodd" clip-rule="evenodd" d="M18.6817 0.173889L15.07 6.37V10.6087H13.7324V6.37L10.1207 0.173889H11.607L14.4458 5.16316L17.2697 0.173889H18.6817ZM28.1512 10.6087H26.5312L22.3102 2.21964V10.6087H21.0171V0.173889H22.6669L26.873 8.60708V0.173889H28.1512V10.6087ZM39.5072 1.39545H35.9401V10.6087H34.5876V1.39545H31.0057V0.173889H39.5072V1.39545ZM49.6985 10.6087H48.346V5.79601H43.8723V10.6087H42.5347V0.173889H43.8723V4.5303H48.346V0.173889H49.6985V10.6087ZM60.1291 10.6087H53.1585V0.173889H60.1291V1.38073H54.4813V4.55974H58.7469V5.79601H54.4813V9.40183H60.1291V10.6087ZM71.2256 1.39545H67.6585V10.6087H66.306V1.39545H62.7241V0.173889H71.2256V1.39545ZM79.8251 10.6087H73.8205V9.51957H76.154V1.24827H73.8205V0.173889H79.8251V1.24827H77.4916V9.51957H79.8251V10.6087ZM91 10.6087H89.4989L86.8533 6.37L84.2375 10.6087H82.7661L86.1102 5.33977L82.7661 0.173889H84.282L86.9128 4.25067L89.5137 0.173889H90.9851L87.6559 5.33977L91 10.6087Z" fill="white"/><path opacity="0.5" fill-rule="evenodd" clip-rule="evenodd" d="M1.2477 10.4807L0.167847 9.70628L6.95968 0.219849L8.03953 0.994286L1.2477 10.4807Z" fill="white"/><path fill-rule="evenodd" clip-rule="evenodd" d="M4.7462 4.72604H5.10875C6.77799 4.72604 8.13118 6.08185 8.13118 7.75433C8.13118 9.4268 6.77799 10.7826 5.10875 10.7826H0.663976C0.297272 10.7826 0 10.4848 0 10.1173C0 9.74993 0.297272 9.45208 0.663976 9.45208H5.10875C6.04458 9.45208 6.80323 8.69197 6.80323 7.75433C6.80323 6.81668 6.04458 6.05657 5.10875 6.05657H3.38527H3.38498H3.02243C1.35319 6.05657 0 4.70076 0 3.02828C0 1.35581 1.35319 0 3.02243 0H7.4672C7.83391 0 8.13118 0.297848 8.13118 0.665262C8.13118 1.03268 7.83391 1.33052 7.4672 1.33052H3.02243C2.08659 1.33052 1.32795 2.09064 1.32795 3.02828C1.32795 3.96593 2.08659 4.72604 3.02243 4.72604H4.74591C4.74601 4.72604 4.7461 4.72604 4.7462 4.72604Z" fill="white"/><path fill-rule="evenodd" clip-rule="evenodd" d="M0.259521 13.5652H7.06373V14.7578H1.5868V18.0969H6.14836V19.2895H1.5868V22.8075H7.26206V24H0.259521V13.5652ZM21.2795 18.7826C21.2795 17.7567 21.4831 16.8481 21.8904 16.0567C22.2976 15.2653 22.8787 14.6522 23.6337 14.2174C24.3886 13.7826 25.2627 13.5652 26.256 13.5652C27.4083 13.5652 28.3743 13.873 29.1541 14.4885C29.9338 15.1041 30.423 15.9443 30.6217 17.0093H29.3254C29.1367 16.2961 28.7667 15.7392 28.2154 15.3386C27.6641 14.938 26.9911 14.7377 26.1964 14.7377C25.4812 14.7377 24.8505 14.9087 24.3042 15.2506C23.7578 15.5926 23.3381 16.0689 23.0451 16.6796C22.7521 17.2902 22.6056 17.9912 22.6056 18.7826C22.6056 19.5643 22.7521 20.2628 23.0451 20.8784C23.3381 21.4939 23.7578 21.9727 24.3042 22.3146C24.8505 22.6566 25.4812 22.8276 26.1964 22.8276C27.001 22.8276 27.6715 22.6297 28.2079 22.234C28.7443 21.8383 29.1118 21.279 29.3105 20.556H30.6068C30.4081 21.6209 29.9239 22.4612 29.1541 23.0767C28.3842 23.6923 27.4182 24 26.256 24C25.2627 24 24.3886 23.7826 23.6337 23.3479C22.8787 22.9131 22.2976 22.3024 21.8904 21.5159C21.4831 20.7294 21.2795 19.8183 21.2795 18.7826ZM34.3413 13.5652H35.6243V18.1053H40.9631V13.5652H42.2462V24H40.9631V19.2962H35.6243V24H34.3413V13.5652ZM45.7595 24L49.6815 13.5652H51.1945L55.1017 24H53.7356L52.6487 21.1826H48.1685L47.0815 24H45.7595ZM48.5276 20H52.356L50.4342 15.1305L48.5276 20ZM58.9078 24V13.5652H60.0767L65.5708 21.6149V13.5652H66.8128V24H65.6438L60.1498 15.9503V24H58.9078ZM70.3261 18.7826C70.3261 17.7567 70.5265 16.8481 70.9274 16.0567C71.3282 15.2653 71.9002 14.6522 72.6433 14.2174C73.3864 13.7826 74.2467 13.5652 75.2245 13.5652C76.3587 13.5652 77.3095 13.873 78.077 14.4885C78.8445 15.1041 79.3261 15.9394 79.5216 16.9947H78.2603C78.0648 16.2814 77.6981 15.7269 77.1604 15.3312C76.6226 14.9355 75.9676 14.7377 75.1952 14.7377C74.4912 14.7377 73.8679 14.9087 73.3252 15.2506C72.7826 15.5926 72.3646 16.0714 72.0713 16.6869C71.778 17.3024 71.6313 18.001 71.6313 18.7826C71.6313 19.5643 71.778 20.2628 72.0713 20.8784C72.3646 21.4939 72.7802 21.9727 73.3179 22.3146C73.8557 22.6566 74.4716 22.8276 75.1658 22.8276C75.7916 22.8276 76.3513 22.7079 76.8451 22.4685C77.3388 22.2291 77.725 21.8872 78.0037 21.4426C78.2823 20.9981 78.4217 20.4778 78.4217 19.8818V19.5301H75.3418V18.3576H79.6683V23.9121H78.6123L78.4803 22.2853C78.1968 22.7445 77.7715 23.1451 77.2044 23.4871C76.6373 23.829 75.9529 24 75.1512 24C74.2125 24 73.3766 23.7802 72.6433 23.3405C71.91 22.9009 71.3405 22.2878 70.9347 21.5013C70.5289 20.7147 70.3261 19.8085 70.3261 18.7826ZM90.5958 13.5652V14.7578H85.142V18.0969H89.6843V19.2895H85.142V22.8075H90.7933V24H83.8204V13.5652H90.5958ZM12.1557 13.5652L14.7865 17.642L17.3874 13.5652H18.8588L15.5296 18.7311L18.8737 24H17.3726L14.727 19.7614L12.1112 24H10.6397L13.9839 18.7311L10.6397 13.5652H12.1557Z" fill="white"/></svg>
