<svg xmlns="http://www.w3.org/2000/svg" width="12" height="12">
    <g fill="#FFF" fill-rule="nonzero">
        <path d="M.827 4.064h8.175l-.916.916a.681.681 0 0 0 0 .987.64.64 0 0 0 .493.211.64.64 0 0 0 .493-.211l2.115-2.115a.681.681 0 0 0 0-.986L9.072.75a.681.681 0 0 0-.986 0 .681.681 0 0 0 0 .987l.916.916H.827c-.423 0-.705.282-.705.705s.282.705.705.705zM10.693 8.292H2.518l.916-.916a.681.681 0 0 0 0-.986.681.681 0 0 0-.986 0L.333 8.504a.681.681 0 0 0 0 .986l2.115 2.115a.64.64 0 0 0 .493.211.64.64 0 0 0 .493-.211.681.681 0 0 0 0-.987l-.916-.916h8.175c.423 0 .705-.282.705-.705s-.282-.705-.705-.705z"/>
    </g>
</svg>
