<?xml version="1.0" encoding="UTF-8"?>
<svg width="111px" height="111px" viewBox="0 0 111 111" version="1.1" xmlns="http://www.w3.org/2000/svg" xmlns:xlink="http://www.w3.org/1999/xlink">
    <!-- Generator: Sketch 51.2 (57519) - http://www.bohemiancoding.com/sketch -->
    <title>conv-done</title>
    <desc>Created with Sketch.</desc>
    <defs></defs>
    <g id="🌀-Converter" stroke="none" stroke-width="1" fill="none" fill-rule="evenodd">
        <g id="Converter-–-Conversion-Success-(Leaving-Feedback)" transform="translate(-666.000000, -284.000000)">
            <g id="conv-done" transform="translate(666.000000, 284.000000)">
                <circle id="Oval-2" fill="#53B167" cx="54" cy="54.2695312" r="54"></circle>
                <g id="check-circle-08" transform="translate(73.917969, 74.335938)" fill-rule="nonzero">
                    <path d="M18.1757812,0 C8.17910156,0 0,8.17910156 0,18.1757812 C0,28.1724609 8.17910156,36.3515625 18.1757812,36.3515625 C28.1724609,36.3515625 36.3515625,28.1724609 36.3515625,18.1757812 C36.3515625,8.17910156 28.1724609,0 18.1757812,0 Z" id="Shape" fill="#348C46"></path>
                    <g id="check-small" transform="translate(9.082031, 12.664062)" fill="#FFFFFF">
                        <path d="M6.8203125,12.421875 C6.44765625,12.421875 6.19921875,12.2976562 5.95078125,12.0492187 L0.98203125,7.08046875 C0.48515625,6.58359375 0.48515625,5.83828125 0.98203125,5.34140625 C1.47890625,4.84453125 2.22421875,4.84453125 2.72109375,5.34140625 L6.8203125,9.440625 L15.8882813,0.37265625 C16.3851563,-0.12421875 17.1304688,-0.12421875 17.6273438,0.37265625 C18.1242188,0.86953125 18.1242188,1.61484375 17.6273438,2.11171875 L7.68984375,12.0492187 C7.44140625,12.2976562 7.19296875,12.421875 6.8203125,12.421875 Z" id="Shape"></path>
                    </g>
                </g>
                <g id="direction-53" transform="translate(35.373047, 35.642578)" fill="#FFFFFF" fill-rule="nonzero">
                    <path d="M2.32836914,11.6418457 L29.3374512,11.6418457 L26.3105713,14.6687256 C25.3792236,15.6000732 25.3792236,16.9970947 26.3105713,17.9284424 C26.7762451,18.3941162 27.2419189,18.6269531 27.9404297,18.6269531 C28.6389404,18.6269531 29.1046143,18.3941162 29.5702881,17.9284424 L36.5553955,10.943335 C37.4867432,10.0119873 37.4867432,8.61496582 36.5553955,7.68361816 L29.5702881,0.698510742 C28.6389404,-0.232836914 27.2419189,-0.232836914 26.3105713,0.698510742 C25.3792236,1.6298584 25.3792236,3.02687988 26.3105713,3.95822754 L29.3374512,6.98510742 L2.32836914,6.98510742 C0.931347656,6.98510742 0,7.91645508 0,9.31347656 C0,10.710498 0.931347656,11.6418457 2.32836914,11.6418457 Z" id="Shape"></path>
                    <path d="M34.9255371,25.6120605 L7.91645508,25.6120605 L10.943335,22.5851807 C11.8746826,21.653833 11.8746826,20.2568115 10.943335,19.3254639 C10.0119873,18.3941162 8.61496582,18.3941162 7.68361816,19.3254639 L0.698510742,26.3105713 C-0.232836914,27.2419189 -0.232836914,28.6389404 0.698510742,29.5702881 L7.68361816,36.5553955 C8.14929199,37.0210693 8.61496582,37.2539062 9.31347656,37.2539062 C10.0119873,37.2539062 10.4776611,37.0210693 10.943335,36.5553955 C11.8746826,35.6240479 11.8746826,34.2270264 10.943335,33.2956787 L7.91645508,30.2687988 L34.9255371,30.2687988 C36.3225586,30.2687988 37.2539062,29.3374512 37.2539062,27.9404297 C37.2539062,26.5434082 36.3225586,25.6120605 34.9255371,25.6120605 Z" id="Shape"></path>
                </g>
            </g>
        </g>
    </g>
</svg>