<svg xmlns="http://www.w3.org/2000/svg" width="111" height="111">
    <g fill="none" fill-rule="evenodd">
        <circle cx="54" cy="54.27" r="54" fill="#D42351"/>
        <path fill="#AB0E37" fill-rule="nonzero" d="M92.094 74.336c-9.997 0-18.176 8.179-18.176 18.176 0 9.996 8.18 18.176 18.176 18.176 9.996 0 18.176-8.18 18.176-18.176 0-9.997-8.18-18.176-18.176-18.176z"/>
        <g fill="#FFF" fill-rule="nonzero">
            <path d="M37.701 47.284h27.01l-3.027 3.027c-.932.932-.932 2.329 0 3.26.465.466.931.699 1.63.699.698 0 1.164-.233 1.63-.699l6.984-6.985c.932-.931.932-2.328 0-3.26l-6.985-6.985c-.931-.931-2.328-.931-3.26 0-.93.931-.93 2.328 0 3.26l3.027 3.027H37.701c-1.397 0-2.328.931-2.328 2.328 0 1.397.931 2.328 2.328 2.328zM70.299 61.255h-27.01l3.027-3.027c.932-.932.932-2.329 0-3.26-.931-.931-2.328-.931-3.26 0l-6.984 6.985c-.932.931-.932 2.329 0 3.26l6.985 6.985c.465.466.931.698 1.63.698.698 0 1.164-.232 1.63-.698.93-.931.93-2.328 0-3.26l-3.027-3.027h27.009c1.397 0 2.328-.931 2.328-2.328 0-1.397-.931-2.328-2.328-2.328z"/>
        </g>
        <path fill="#FFF" fill-rule="nonzero" d="M98.587 85.651a1.33 1.33 0 0 0-1.926 0l-4.542 4.542-4.541-4.542a1.33 1.33 0 0 0-1.927 0 1.33 1.33 0 0 0 0 1.927l4.542 4.541-4.542 4.542a1.33 1.33 0 0 0 0 1.926c.275.275.55.413.963.413.413 0 .689-.138.964-.413l4.541-4.541 4.542 4.541c.275.275.688.413.963.413s.688-.138.963-.413a1.33 1.33 0 0 0 0-1.926l-4.541-4.542 4.541-4.541a1.33 1.33 0 0 0 0-1.927z"/>
    </g>
</svg>
