<svg width="300" height="300" viewBox="0 0 300 300" fill="none" xmlns="http://www.w3.org/2000/svg">
<path d="M150 300C232.843 300 300 232.843 300 150C300 67.1573 232.843 0 150 0C67.1573 0 0 67.1573 0 150C0 232.843 67.1573 300 150 300Z" fill="#F56070"/>
<path d="M47.3025 114.2C49.6359 114.2 51.5692 114.967 53.1025 116.5C54.6359 117.967 55.4025 119.833 55.4025 122.1C55.4025 124.367 54.6359 126.267 53.1025 127.8C51.5692 129.333 49.6359 130.1 47.3025 130.1C44.9692 130.1 43.0025 129.333 41.4025 127.8C39.8692 126.267 39.1025 124.367 39.1025 122.1C39.1025 119.833 39.8692 117.967 41.4025 116.5C43.0025 114.967 44.9692 114.2 47.3025 114.2ZM40.2025 135.6H54.3025V187H40.2025V135.6Z" fill="#1E1A31"/>
<path d="M59.6283 187L85.2283 117H103.228L128.628 187H112.528L107.128 171.7H80.5283L75.1283 187H59.6283ZM84.5283 159.6H103.028L93.7283 133L84.5283 159.6Z" fill="#1E1A31"/>
<path d="M135.053 117H159.353C166.353 117 172.519 118.5 177.853 121.5C183.253 124.433 187.386 128.567 190.253 133.9C193.186 139.167 194.653 145.2 194.653 152C194.653 158.8 193.186 164.867 190.253 170.2C187.386 175.467 183.253 179.6 177.853 182.6C172.519 185.533 166.353 187 159.353 187H135.053V117ZM159.353 174.5C165.686 174.5 170.586 172.467 174.053 168.4C177.586 164.267 179.353 158.8 179.353 152C179.353 145.2 177.586 139.767 174.053 135.7C170.586 131.567 165.686 129.5 159.353 129.5H150.053V174.5H159.353Z" fill="#1E1A31"/>
<path d="M195.273 187L220.873 117H238.873L264.273 187H248.173L242.773 171.7H216.173L210.773 187H195.273ZM220.173 159.6H238.673L229.373 133L220.173 159.6Z" fill="#1E1A31"/>
</svg>
