<svg width="300" height="300" viewBox="0 0 300 300" fill="none" xmlns="http://www.w3.org/2000/svg">
<path d="M150 300C232.843 300 300 232.843 300 150C300 67.1573 232.843 0 150 0C67.1573 0 0 67.1573 0 150C0 232.843 67.1573 300 150 300Z" fill="#F56070"/>
<path d="M48.242 114.2C50.5753 114.2 52.5087 114.967 54.042 116.5C55.5753 117.967 56.342 119.833 56.342 122.1C56.342 124.367 55.5753 126.267 54.042 127.8C52.5087 129.333 50.5753 130.1 48.242 130.1C45.9087 130.1 43.942 129.333 42.342 127.8C40.8087 126.267 40.042 124.367 40.042 122.1C40.042 119.833 40.8087 117.967 42.342 116.5C43.942 114.967 45.9087 114.2 48.242 114.2ZM41.142 135.6H55.242V187H41.142V135.6Z" fill="#1E1A31"/>
<path d="M92.7678 117C100.901 117 107.201 118.6 111.668 121.8C116.134 125 118.368 129.533 118.368 135.4C118.368 139.733 117.168 143.233 114.768 145.9C112.368 148.567 108.968 150.3 104.568 151.1C109.768 151.767 113.768 153.433 116.568 156.1C119.434 158.767 120.868 162.5 120.868 167.3C120.868 173.433 118.534 178.267 113.868 181.8C109.201 185.267 102.601 187 94.0678 187H66.1678V117H92.7678ZM81.1678 145.8H93.1678C96.3678 145.8 98.8678 145.033 100.668 143.5C102.468 141.967 103.368 139.9 103.368 137.3C103.368 134.7 102.468 132.633 100.668 131.1C98.8678 129.567 96.3678 128.8 93.1678 128.8H81.1678V145.8ZM81.1678 175.1H94.1678C97.7678 175.1 100.534 174.333 102.468 172.8C104.468 171.267 105.468 169.133 105.468 166.4C105.468 163.533 104.468 161.333 102.468 159.8C100.468 158.2 97.7011 157.4 94.1678 157.4H81.1678V175.1Z" fill="#1E1A31"/>
<path d="M128.016 152C128.016 144.867 129.383 138.633 132.116 133.3C134.916 127.9 138.883 123.733 144.016 120.8C149.216 117.867 155.316 116.4 162.316 116.4C167.783 116.4 172.683 117.467 177.016 119.6C181.35 121.733 184.85 124.733 187.516 128.6C190.183 132.467 191.783 136.933 192.316 142H177.316C176.45 138 174.616 134.867 171.816 132.6C169.083 130.267 165.65 129.1 161.516 129.1C155.916 129.1 151.483 131.2 148.216 135.4C144.95 139.6 143.316 145.133 143.316 152C143.316 158.8 144.95 164.333 148.216 168.6C151.483 172.8 155.916 174.9 161.516 174.9C165.65 174.9 169.083 173.767 171.816 171.5C174.616 169.167 176.45 166 177.316 162H192.316C191.783 167.067 190.183 171.533 187.516 175.4C184.85 179.267 181.35 182.267 177.016 184.4C172.683 186.533 167.783 187.6 162.316 187.6C155.316 187.6 149.216 186.133 144.016 183.2C138.883 180.267 134.916 176.133 132.116 170.8C129.383 165.4 128.016 159.133 128.016 152Z" fill="#1E1A31"/>
<path d="M201.031 117H216.031V145.1H243.831V117H258.831V187H243.831V158.1H216.031V187H201.031V117Z" fill="#1E1A31"/>
</svg>
