<svg width="300" height="300" viewBox="0 0 300 300" fill="none" xmlns="http://www.w3.org/2000/svg">
<path d="M150 300C232.843 300 300 232.843 300 150C300 67.1573 232.843 0 150 0C67.1573 0 0 67.1573 0 150C0 232.843 67.1573 300 150 300Z" fill="#F56070"/>
<path d="M50.3787 114.2C52.712 114.2 54.6454 114.967 56.1787 116.5C57.712 117.967 58.4787 119.833 58.4787 122.1C58.4787 124.367 57.712 126.267 56.1787 127.8C54.6454 129.333 52.712 130.1 50.3787 130.1C48.0454 130.1 46.0787 129.333 44.4787 127.8C42.9454 126.267 42.1787 124.367 42.1787 122.1C42.1787 119.833 42.9454 117.967 44.4787 116.5C46.0787 114.967 48.0454 114.2 50.3787 114.2ZM43.2787 135.6H57.3787V187H43.2787V135.6Z" fill="#1E1A31"/>
<path d="M94.9045 117C103.038 117 109.338 118.6 113.804 121.8C118.271 125 120.504 129.533 120.504 135.4C120.504 139.733 119.304 143.233 116.904 145.9C114.504 148.567 111.104 150.3 106.704 151.1C111.904 151.767 115.904 153.433 118.704 156.1C121.571 158.767 123.004 162.5 123.004 167.3C123.004 173.433 120.671 178.267 116.004 181.8C111.338 185.267 104.738 187 96.2045 187H68.3045V117H94.9045ZM83.3045 145.8H95.3045C98.5045 145.8 101.004 145.033 102.804 143.5C104.604 141.967 105.504 139.9 105.504 137.3C105.504 134.7 104.604 132.633 102.804 131.1C101.004 129.567 98.5045 128.8 95.3045 128.8H83.3045V145.8ZM83.3045 175.1H96.3045C99.9045 175.1 102.671 174.333 104.604 172.8C106.604 171.267 107.604 169.133 107.604 166.4C107.604 163.533 106.604 161.333 104.604 159.8C102.604 158.2 99.8378 157.4 96.3045 157.4H83.3045V175.1Z" fill="#1E1A31"/>
<path d="M132.953 187V117H146.553L176.253 161.1V117H191.053V187H177.353L147.653 142.9V187H132.953Z" fill="#1E1A31"/>
<path d="M229.572 117C237.706 117 244.006 118.6 248.472 121.8C252.939 125 255.172 129.533 255.172 135.4C255.172 139.733 253.972 143.233 251.572 145.9C249.172 148.567 245.772 150.3 241.372 151.1C246.572 151.767 250.572 153.433 253.372 156.1C256.239 158.767 257.672 162.5 257.672 167.3C257.672 173.433 255.339 178.267 250.672 181.8C246.006 185.267 239.406 187 230.872 187H202.972V117H229.572ZM217.972 145.8H229.972C233.172 145.8 235.672 145.033 237.472 143.5C239.272 141.967 240.172 139.9 240.172 137.3C240.172 134.7 239.272 132.633 237.472 131.1C235.672 129.567 233.172 128.8 229.972 128.8H217.972V145.8ZM217.972 175.1H230.972C234.572 175.1 237.339 174.333 239.272 172.8C241.272 171.267 242.272 169.133 242.272 166.4C242.272 163.533 241.272 161.333 239.272 159.8C237.272 158.2 234.506 157.4 230.972 157.4H217.972V175.1Z" fill="#1E1A31"/>
</svg>
