<svg width="300" height="300" viewBox="0 0 300 300" fill="none" xmlns="http://www.w3.org/2000/svg">
<path d="M150 300C232.843 300 300 232.843 300 150C300 67.1573 232.843 0 150 0C67.1573 0 0 67.1573 0 150C0 232.843 67.1573 300 150 300Z" fill="#F56070"/>
<path d="M53.0271 114.2C55.3605 114.2 57.2938 114.967 58.8271 116.5C60.3605 117.967 61.1271 119.833 61.1271 122.1C61.1271 124.367 60.3605 126.267 58.8271 127.8C57.2938 129.333 55.3605 130.1 53.0271 130.1C50.6938 130.1 48.7271 129.333 47.1271 127.8C45.5938 126.267 44.8271 124.367 44.8271 122.1C44.8271 119.833 45.5938 117.967 47.1271 116.5C48.7271 114.967 50.6938 114.2 53.0271 114.2ZM45.9271 135.6H60.0272V187H45.9271V135.6Z" fill="#1E1A31"/>
<path d="M68.1529 152C68.1529 144.867 69.5196 138.633 72.2529 133.3C75.0529 127.9 79.0196 123.733 84.1529 120.8C89.3529 117.867 95.4529 116.4 102.453 116.4C107.92 116.4 112.82 117.467 117.153 119.6C121.486 121.733 124.986 124.733 127.653 128.6C130.32 132.467 131.92 136.933 132.453 142H117.453C116.586 138 114.753 134.867 111.953 132.6C109.22 130.267 105.786 129.1 101.653 129.1C96.0529 129.1 91.6196 131.2 88.3529 135.4C85.0863 139.6 83.4529 145.133 83.4529 152C83.4529 158.8 85.0863 164.333 88.3529 168.6C91.6196 172.8 96.0529 174.9 101.653 174.9C105.786 174.9 109.22 173.767 111.953 171.5C114.753 169.167 116.586 166 117.453 162H132.453C131.92 167.067 130.32 171.533 127.653 175.4C124.986 179.267 121.486 182.267 117.153 184.4C112.82 186.533 107.92 187.6 102.453 187.6C95.4529 187.6 89.3529 186.133 84.1529 183.2C79.0196 180.267 75.0529 176.133 72.2529 170.8C69.5196 165.4 68.1529 159.133 68.1529 152Z" fill="#1E1A31"/>
<path d="M141.168 117H188.168V129.9H156.168V145.6H182.168V157.9H156.168V174.1H189.268V187H141.168V117Z" fill="#1E1A31"/>
<path d="M216.697 151.3L194.897 117H213.097L226.897 139L240.997 117H257.397L235.597 151.3L258.497 187H240.197L225.297 163.5L210.097 187H193.797L216.697 151.3Z" fill="#1E1A31"/>
</svg>
