<svg width="300" height="300" viewBox="0 0 300 300" fill="none" xmlns="http://www.w3.org/2000/svg">
<path d="M150 300C232.843 300 300 232.843 300 150C300 67.1573 232.843 0 150 0C67.1573 0 0 67.1573 0 150C0 232.843 67.1573 300 150 300Z" fill="#F56070"/>
<path d="M28.4815 120.024C30.6282 120.024 32.4068 120.729 33.8175 122.14C35.2282 123.489 35.9335 125.207 35.9335 127.292C35.9335 129.377 35.2282 131.125 33.8175 132.536C32.4068 133.947 30.6282 134.652 28.4815 134.652C26.3348 134.652 24.5255 133.947 23.0535 132.536C21.6428 131.125 20.9375 129.377 20.9375 127.292C20.9375 125.207 21.6428 123.489 23.0535 122.14C24.5255 120.729 26.3348 120.024 28.4815 120.024ZM21.9495 139.712H34.9215V187H21.9495V139.712Z" fill="#1E1A31"/>
<path d="M44.9732 122.6H67.3292C73.7692 122.6 79.4426 123.98 84.3492 126.74C89.3172 129.439 93.1199 133.241 95.7572 138.148C98.4559 142.993 99.8052 148.544 99.8052 154.8C99.8052 161.056 98.4559 166.637 95.7572 171.544C93.1199 176.389 89.3172 180.192 84.3492 182.952C79.4426 185.651 73.7692 187 67.3292 187H44.9732V122.6ZM67.3292 175.5C73.1559 175.5 77.6639 173.629 80.8532 169.888C84.1039 166.085 85.7292 161.056 85.7292 154.8C85.7292 148.544 84.1039 143.545 80.8532 139.804C77.6639 136.001 73.1559 134.1 67.3292 134.1H58.7732V175.5H67.3292Z" fill="#1E1A31"/>
<path d="M100.376 187L123.928 122.6H140.488L163.856 187H149.044L144.076 172.924H119.604L114.636 187H100.376ZM123.284 161.792H140.304L131.748 137.32L123.284 161.792Z" fill="#1E1A31"/>
<path d="M178.378 166.024C178.624 169.213 179.912 171.789 182.242 173.752C184.634 175.653 187.793 176.604 191.718 176.604C194.969 176.604 197.606 175.929 199.63 174.58C201.716 173.169 202.758 171.237 202.758 168.784C202.758 167.067 202.176 165.717 201.01 164.736C199.906 163.693 198.312 162.896 196.226 162.344C194.202 161.731 191.044 160.995 186.75 160.136C182.518 159.339 178.961 158.327 176.078 157.1C173.196 155.812 170.834 153.941 168.994 151.488C167.216 148.973 166.326 145.661 166.326 141.552C166.326 137.811 167.338 134.468 169.362 131.524C171.448 128.58 174.3 126.28 177.918 124.624C181.598 122.907 185.738 122.048 190.338 122.048C195.061 122.048 199.293 122.937 203.034 124.716C206.837 126.433 209.812 128.825 211.958 131.892C214.166 134.959 215.301 138.424 215.362 142.288H201.838C201.532 139.528 200.366 137.32 198.342 135.664C196.318 133.947 193.65 133.088 190.338 133.088C187.272 133.088 184.818 133.732 182.978 135.02C181.138 136.308 180.218 138.148 180.218 140.54C180.218 142.257 180.77 143.607 181.874 144.588C182.978 145.508 184.542 146.275 186.566 146.888C188.59 147.44 191.718 148.115 195.95 148.912C200.244 149.709 203.862 150.721 206.806 151.948C209.75 153.113 212.112 154.923 213.89 157.376C215.73 159.768 216.65 162.988 216.65 167.036C216.65 170.961 215.577 174.488 213.43 177.616C211.284 180.683 208.278 183.105 204.414 184.884C200.612 186.663 196.318 187.552 191.534 187.552C186.382 187.552 181.782 186.632 177.734 184.792C173.748 182.891 170.62 180.284 168.35 176.972C166.081 173.66 164.916 169.949 164.854 165.84L178.378 166.024Z" fill="#1E1A31"/>
<path d="M224.93 122.6H238.73V148.452H264.306V122.6H278.106V187H264.306V160.412H238.73V187H224.93V122.6Z" fill="#1E1A31"/>
</svg>
