<svg width="300" height="300" viewBox="0 0 300 300" fill="none" xmlns="http://www.w3.org/2000/svg">
<path d="M150 300C232.843 300 300 232.843 300 150C300 67.1573 232.843 0 150 0C67.1573 0 0 67.1573 0 150C0 232.843 67.1573 300 150 300Z" fill="#F56070"/>
<path d="M46.4236 114.2C48.757 114.2 50.6903 114.967 52.2236 116.5C53.757 117.967 54.5236 119.833 54.5236 122.1C54.5236 124.367 53.757 126.267 52.2236 127.8C50.6903 129.333 48.757 130.1 46.4236 130.1C44.0903 130.1 42.1236 129.333 40.5236 127.8C38.9903 126.267 38.2236 124.367 38.2236 122.1C38.2236 119.833 38.9903 117.967 40.5236 116.5C42.1236 114.967 44.0903 114.2 46.4236 114.2ZM39.3236 135.6H53.4236V187H39.3236V135.6Z" fill="#1E1A31"/>
<path d="M64.3494 117H88.6494C95.6494 117 101.816 118.5 107.149 121.5C112.549 124.433 116.683 128.567 119.549 133.9C122.483 139.167 123.949 145.2 123.949 152C123.949 158.8 122.483 164.867 119.549 170.2C116.683 175.467 112.549 179.6 107.149 182.6C101.816 185.533 95.6494 187 88.6494 187H64.3494V117ZM88.6494 174.5C94.9827 174.5 99.8827 172.467 103.349 168.4C106.883 164.267 108.649 158.8 108.649 152C108.649 145.2 106.883 139.767 103.349 135.7C99.8827 131.567 94.9827 129.5 88.6494 129.5H79.3494V174.5H88.6494Z" fill="#1E1A31"/>
<path d="M133.197 117H180.197V129.9H148.197V145.6H174.197V157.9H148.197V174.1H181.297V187H133.197V117Z" fill="#1E1A31"/>
<path d="M190.326 117H236.526V129.9H205.326V146.3H230.926V158.6H205.326V187H190.326V117Z" fill="#1E1A31"/>
<path d="M244.721 117H259.721V187H244.721V117Z" fill="#1E1A31"/>
</svg>
