<svg width="300" height="300" viewBox="0 0 300 300" fill="none" xmlns="http://www.w3.org/2000/svg">
<path d="M150 300C232.843 300 300 232.843 300 150C300 67.1573 232.843 0 150 0C67.1573 0 0 67.1573 0 150C0 232.843 67.1573 300 150 300Z" fill="#F56070"/>
<path d="M53.2596 114.2C55.5929 114.2 57.5262 114.967 59.0596 116.5C60.5929 117.967 61.3596 119.833 61.3596 122.1C61.3596 124.367 60.5929 126.267 59.0596 127.8C57.5262 129.333 55.5929 130.1 53.2596 130.1C50.9262 130.1 48.9596 129.333 47.3596 127.8C45.8262 126.267 45.0596 124.367 45.0596 122.1C45.0596 119.833 45.8262 117.967 47.3596 116.5C48.9596 114.967 50.9262 114.2 53.2596 114.2ZM46.1596 135.6H60.2596V187H46.1596V135.6Z" fill="#1E1A31"/>
<path d="M71.1854 117H118.185V129.9H86.1854V145.6H112.185V157.9H86.1854V174.1H119.285V187H71.1854V117Z" fill="#1E1A31"/>
<path d="M193.156 152C193.156 158.733 191.69 164.833 188.756 170.3C185.823 175.7 181.723 179.933 176.456 183C171.19 186.067 165.19 187.6 158.456 187.6C151.723 187.6 145.723 186.067 140.456 183C135.19 179.933 131.09 175.7 128.156 170.3C125.223 164.833 123.756 158.733 123.756 152C123.756 145.267 125.223 139.2 128.156 133.8C131.09 128.333 135.19 124.067 140.456 121C145.723 117.933 151.723 116.4 158.456 116.4C165.19 116.4 171.19 117.933 176.456 121C181.723 124.067 185.823 128.333 188.756 133.8C191.69 139.2 193.156 145.267 193.156 152ZM139.056 152C139.056 156.4 139.856 160.333 141.456 163.8C143.056 167.267 145.323 170 148.256 172C151.19 173.933 154.59 174.9 158.456 174.9C162.256 174.9 165.623 173.933 168.556 172C171.49 170 173.756 167.267 175.356 163.8C176.956 160.333 177.756 156.4 177.756 152C177.756 147.6 176.956 143.667 175.356 140.2C173.756 136.733 171.49 134.033 168.556 132.1C165.623 130.1 162.256 129.1 158.456 129.1C154.59 129.1 151.19 130.1 148.256 132.1C145.323 134.033 143.056 136.733 141.456 140.2C139.856 143.667 139.056 147.6 139.056 152Z" fill="#1E1A31"/>
<path d="M214.14 164.2C214.407 167.667 215.807 170.467 218.34 172.6C220.94 174.667 224.373 175.7 228.64 175.7C232.173 175.7 235.04 174.967 237.24 173.5C239.507 171.967 240.64 169.867 240.64 167.2C240.64 165.333 240.007 163.867 238.74 162.8C237.54 161.667 235.807 160.8 233.54 160.2C231.34 159.533 227.907 158.733 223.24 157.8C218.64 156.933 214.773 155.833 211.64 154.5C208.507 153.1 205.94 151.067 203.94 148.4C202.007 145.667 201.04 142.067 201.04 137.6C201.04 133.533 202.14 129.9 204.34 126.7C206.607 123.5 209.707 121 213.64 119.2C217.64 117.333 222.14 116.4 227.14 116.4C232.273 116.4 236.873 117.367 240.94 119.3C245.073 121.167 248.307 123.767 250.64 127.1C253.04 130.433 254.273 134.2 254.34 138.4H239.64C239.307 135.4 238.04 133 235.84 131.2C233.64 129.333 230.74 128.4 227.14 128.4C223.807 128.4 221.14 129.1 219.14 130.5C217.14 131.9 216.14 133.9 216.14 136.5C216.14 138.367 216.74 139.833 217.94 140.9C219.14 141.9 220.84 142.733 223.04 143.4C225.24 144 228.64 144.733 233.24 145.6C237.907 146.467 241.84 147.567 245.04 148.9C248.24 150.167 250.807 152.133 252.74 154.8C254.74 157.4 255.74 160.9 255.74 165.3C255.74 169.567 254.573 173.4 252.24 176.8C249.907 180.133 246.64 182.767 242.44 184.7C238.307 186.633 233.64 187.6 228.44 187.6C222.84 187.6 217.84 186.6 213.44 184.6C209.107 182.533 205.707 179.7 203.24 176.1C200.773 172.5 199.507 168.467 199.44 164L214.14 164.2Z" fill="#1E1A31"/>
</svg>
