<svg width="300" height="300" viewBox="0 0 300 300" fill="none" xmlns="http://www.w3.org/2000/svg">
<path d="M150 300C232.843 300 300 232.843 300 150C300 67.1573 232.843 0 150 0C67.1573 0 0 67.1573 0 150C0 232.843 67.1573 300 150 300Z" fill="#F56070"/>
<path d="M59.4617 114.2C61.7951 114.2 63.7284 114.967 65.2617 116.5C66.7951 117.967 67.5617 119.833 67.5617 122.1C67.5617 124.367 66.7951 126.267 65.2617 127.8C63.7284 129.333 61.7951 130.1 59.4617 130.1C57.1284 130.1 55.1617 129.333 53.5617 127.8C52.0284 126.267 51.2617 124.367 51.2617 122.1C51.2617 119.833 52.0284 117.967 53.5617 116.5C55.1617 114.967 57.1284 114.2 59.4617 114.2ZM52.3617 135.6H66.4617V187H52.3617V135.6Z" fill="#1E1A31"/>
<path d="M77.3875 117H124.387V129.9H92.3875V145.6H118.387V157.9H92.3875V174.1H125.487V187H77.3875V117Z" fill="#1E1A31"/>
<path d="M129.545 117H184.945V129.9H164.745V187H149.745V129.9H129.545V117Z" fill="#1E1A31"/>
<path d="M185.525 152C185.525 144.867 186.892 138.633 189.625 133.3C192.425 127.9 196.392 123.733 201.525 120.8C206.725 117.867 212.825 116.4 219.825 116.4C225.292 116.4 230.192 117.467 234.525 119.6C238.858 121.733 242.358 124.733 245.025 128.6C247.692 132.467 249.292 136.933 249.825 142H234.825C233.958 138 232.125 134.867 229.325 132.6C226.592 130.267 223.158 129.1 219.025 129.1C213.425 129.1 208.992 131.2 205.725 135.4C202.458 139.6 200.825 145.133 200.825 152C200.825 158.8 202.458 164.333 205.725 168.6C208.992 172.8 213.425 174.9 219.025 174.9C223.158 174.9 226.592 173.767 229.325 171.5C232.125 169.167 233.958 166 234.825 162H249.825C249.292 167.067 247.692 171.533 245.025 175.4C242.358 179.267 238.858 182.267 234.525 184.4C230.192 186.533 225.292 187.6 219.825 187.6C212.825 187.6 206.725 186.133 201.525 183.2C196.392 180.267 192.425 176.133 189.625 170.8C186.892 165.4 185.525 159.133 185.525 152Z" fill="#1E1A31"/>
</svg>
