<svg width="300" height="300" viewBox="0 0 300 300" fill="none" xmlns="http://www.w3.org/2000/svg">
<path d="M150 300C232.843 300 300 232.843 300 150C300 67.1573 232.843 0 150 0C67.1573 0 0 67.1573 0 150C0 232.843 67.1573 300 150 300Z" fill="#F56070"/>
<path d="M57.3123 114.2C59.6456 114.2 61.579 114.967 63.1123 116.5C64.6456 117.967 65.4123 119.833 65.4123 122.1C65.4123 124.367 64.6456 126.267 63.1123 127.8C61.579 129.333 59.6456 130.1 57.3123 130.1C54.979 130.1 53.0123 129.333 51.4123 127.8C49.879 126.267 49.1123 124.367 49.1123 122.1C49.1123 119.833 49.879 117.967 51.4123 116.5C53.0123 114.967 54.979 114.2 57.3123 114.2ZM50.2123 135.6H64.3123V187H50.2123V135.6Z" fill="#1E1A31"/>
<path d="M75.2381 117H122.238V129.9H90.2381V145.6H116.238V157.9H90.2381V174.1H123.338V187H75.2381V117Z" fill="#1E1A31"/>
<path d="M127.395 117H182.795V129.9H162.595V187H147.595V129.9H127.395V117Z" fill="#1E1A31"/>
<path d="M190.961 117H205.961V145.1H233.761V117H248.761V187H233.761V158.1H205.961V187H190.961V117Z" fill="#1E1A31"/>
</svg>
