<svg width="300" height="300" viewBox="0 0 300 300" fill="none" xmlns="http://www.w3.org/2000/svg">
<path d="M150 300C232.843 300 300 232.843 300 150C300 67.1573 232.843 0 150 0C67.1573 0 0 67.1573 0 150C0 232.843 67.1573 300 150 300Z" fill="#F56070"/>
<path d="M67.3221 114.2C69.6554 114.2 71.5887 114.967 73.1221 116.5C74.6554 117.967 75.4221 119.833 75.4221 122.1C75.4221 124.367 74.6554 126.267 73.1221 127.8C71.5887 129.333 69.6554 130.1 67.3221 130.1C64.9887 130.1 63.0221 129.333 61.4221 127.8C59.8887 126.267 59.1221 124.367 59.1221 122.1C59.1221 119.833 59.8887 117.967 61.4221 116.5C63.0221 114.967 64.9887 114.2 67.3221 114.2ZM60.2221 135.6H74.3221V187H60.2221V135.6Z" fill="#1E1A31"/>
<path d="M85.2479 187V117H100.248V174.1H128.048V187H85.2479Z" fill="#1E1A31"/>
<path d="M121.682 117H177.082V129.9H156.882V187H141.882V129.9H121.682V117Z" fill="#1E1A31"/>
<path d="M177.663 152C177.663 144.867 179.029 138.633 181.763 133.3C184.563 127.9 188.529 123.733 193.663 120.8C198.863 117.867 204.963 116.4 211.963 116.4C217.429 116.4 222.329 117.467 226.663 119.6C230.996 121.733 234.496 124.733 237.163 128.6C239.829 132.467 241.429 136.933 241.963 142H226.963C226.096 138 224.263 134.867 221.463 132.6C218.729 130.267 215.296 129.1 211.163 129.1C205.563 129.1 201.129 131.2 197.863 135.4C194.596 139.6 192.963 145.133 192.963 152C192.963 158.8 194.596 164.333 197.863 168.6C201.129 172.8 205.563 174.9 211.163 174.9C215.296 174.9 218.729 173.767 221.463 171.5C224.263 169.167 226.096 166 226.963 162H241.963C241.429 167.067 239.829 171.533 237.163 175.4C234.496 179.267 230.996 182.267 226.663 184.4C222.329 186.533 217.429 187.6 211.963 187.6C204.963 187.6 198.863 186.133 193.663 183.2C188.529 180.267 184.563 176.133 181.763 170.8C179.029 165.4 177.663 159.133 177.663 152Z" fill="#1E1A31"/>
</svg>
