<svg width="300" height="300" viewBox="0 0 300 300" fill="none" xmlns="http://www.w3.org/2000/svg">
<path d="M150 300C232.843 300 300 232.843 300 150C300 67.1573 232.843 0 150 0C67.1573 0 0 67.1573 0 150C0 232.843 67.1573 300 150 300Z" fill="#F56070"/>
<path d="M39.2459 114.2C41.5792 114.2 43.5126 114.967 45.0459 116.5C46.5792 117.967 47.3459 119.833 47.3459 122.1C47.3459 124.367 46.5792 126.267 45.0459 127.8C43.5126 129.333 41.5792 130.1 39.2459 130.1C36.9126 130.1 34.9459 129.333 33.3459 127.8C31.8126 126.267 31.0459 124.367 31.0459 122.1C31.0459 119.833 31.8126 117.967 33.3459 116.5C34.9459 114.967 36.9126 114.2 39.2459 114.2ZM32.1459 135.6H46.2459V187H32.1459V135.6Z" fill="#1E1A31"/>
<path d="M57.1717 117H76.8717L96.2717 168.4L115.072 117H134.372V187H120.072V140.1L101.872 187H89.6717L71.4717 140.1V187H57.1717V117Z" fill="#1E1A31"/>
<path d="M146.332 117.1H161.332V148.5L189.332 117.1H207.532L181.832 145.9L209.232 187H191.232L171.232 157.5L161.332 168.6V187H146.332V117.1Z" fill="#1E1A31"/>
<path d="M243.094 117C248.16 117 252.627 117.967 256.494 119.9C260.427 121.767 263.46 124.467 265.594 128C267.727 131.533 268.794 135.633 268.794 140.3C268.794 144.767 267.727 148.733 265.594 152.2C263.46 155.6 260.527 158.2 256.794 160L270.594 187H253.994L242.294 163.5H229.594V187H214.594V117H243.094ZM229.594 151H241.894C245.427 151 248.227 150.033 250.294 148.1C252.427 146.167 253.494 143.567 253.494 140.3C253.494 136.967 252.427 134.333 250.294 132.4C248.227 130.467 245.427 129.5 241.894 129.5H229.594V151Z" fill="#1E1A31"/>
</svg>
