<svg width="300" height="300" viewBox="0 0 300 300" fill="none" xmlns="http://www.w3.org/2000/svg">
<path d="M150 300C232.843 300 300 232.843 300 150C300 67.1573 232.843 0 150 0C67.1573 0 0 67.1573 0 150C0 232.843 67.1573 300 150 300Z" fill="#F56070"/>
<path d="M54.3338 114.2C56.6671 114.2 58.6005 114.967 60.1338 116.5C61.6671 117.967 62.4338 119.833 62.4338 122.1C62.4338 124.367 61.6671 126.267 60.1338 127.8C58.6005 129.333 56.6671 130.1 54.3338 130.1C52.0005 130.1 50.0338 129.333 48.4338 127.8C46.9005 126.267 46.1338 124.367 46.1338 122.1C46.1338 119.833 46.9005 117.967 48.4338 116.5C50.0338 114.967 52.0005 114.2 54.3338 114.2ZM47.2338 135.6H61.3338V187H47.2338V135.6Z" fill="#1E1A31"/>
<path d="M68.4596 117H123.86V129.9H103.66V187H88.6596V129.9H68.4596V117Z" fill="#1E1A31"/>
<path d="M160.525 117C165.592 117 170.059 117.967 173.925 119.9C177.859 121.767 180.892 124.467 183.025 128C185.159 131.533 186.225 135.633 186.225 140.3C186.225 144.767 185.159 148.733 183.025 152.2C180.892 155.6 177.959 158.2 174.225 160L188.025 187H171.425L159.725 163.5H147.025V187H132.025V117H160.525ZM147.025 151H159.325C162.859 151 165.659 150.033 167.725 148.1C169.859 146.167 170.925 143.567 170.925 140.3C170.925 136.967 169.859 134.333 167.725 132.4C165.659 130.467 162.859 129.5 159.325 129.5H147.025V151Z" fill="#1E1A31"/>
<path d="M214.39 151.3L192.59 117H210.79L224.59 139L238.69 117H255.09L233.29 151.3L256.19 187H237.89L222.99 163.5L207.79 187H191.49L214.39 151.3Z" fill="#1E1A31"/>
</svg>
