<svg width="300" height="300" viewBox="0 0 300 300" fill="none" xmlns="http://www.w3.org/2000/svg">
<path d="M150 300C232.843 300 300 232.843 300 150C300 67.1573 232.843 0 150 0C67.1573 0 0 67.1573 0 150C0 232.843 67.1573 300 150 300Z" fill="#F56070"/>
<path d="M40.0389 114.2C42.3722 114.2 44.3055 114.967 45.8389 116.5C47.3722 117.967 48.1389 119.833 48.1389 122.1C48.1389 124.367 47.3722 126.267 45.8389 127.8C44.3055 129.333 42.3722 130.1 40.0389 130.1C37.7055 130.1 35.7389 129.333 34.1389 127.8C32.6055 126.267 31.8389 124.367 31.8389 122.1C31.8389 119.833 32.6055 117.967 34.1389 116.5C35.7389 114.967 37.7055 114.2 40.0389 114.2ZM32.9389 135.6H47.0389V187H32.9389V135.6Z" fill="#1E1A31"/>
<path d="M76.3647 151.3L54.5646 117H72.7646L86.5647 139L100.665 117H117.065L95.2647 151.3L118.165 187H99.8646L84.9646 163.5L69.7646 187H53.4646L76.3647 151.3Z" fill="#1E1A31"/>
<path d="M125.64 117H145.34L164.74 168.4L183.54 117H202.84V187H188.54V140.1L170.34 187H158.14L139.94 140.1V187H125.64V117Z" fill="#1E1A31"/>
<path d="M243.301 117C248.367 117 252.834 117.967 256.701 119.9C260.634 121.767 263.667 124.467 265.801 128C267.934 131.533 269.001 135.633 269.001 140.3C269.001 144.767 267.934 148.733 265.801 152.2C263.667 155.6 260.734 158.2 257.001 160L270.801 187H254.201L242.501 163.5H229.801V187H214.801V117H243.301ZM229.801 151H242.101C245.634 151 248.434 150.033 250.501 148.1C252.634 146.167 253.701 143.567 253.701 140.3C253.701 136.967 252.634 134.333 250.501 132.4C248.434 130.467 245.634 129.5 242.101 129.5H229.801V151Z" fill="#1E1A31"/>
</svg>
