<svg width="300" height="300" viewBox="0 0 300 300" fill="none" xmlns="http://www.w3.org/2000/svg">
<path d="M150 300C232.843 300 300 232.843 300 150C300 67.1573 232.843 0 150 0C67.1573 0 0 67.1573 0 150C0 232.843 67.1573 300 150 300Z" fill="#F56070"/>
<path d="M53.0154 114.2C55.3488 114.2 57.2821 114.967 58.8154 116.5C60.3488 117.967 61.1154 119.833 61.1154 122.1C61.1154 124.367 60.3488 126.267 58.8154 127.8C57.2821 129.333 55.3488 130.1 53.0154 130.1C50.6821 130.1 48.7154 129.333 47.1154 127.8C45.5821 126.267 44.8154 124.367 44.8154 122.1C44.8154 119.833 45.5821 117.967 47.1154 116.5C48.7154 114.967 50.6821 114.2 53.0154 114.2ZM45.9154 135.6H60.0154V187H45.9154V135.6Z" fill="#1E1A31"/>
<path d="M89.3412 151.3L67.5412 117H85.7412L99.5412 139L113.641 117H130.041L108.241 151.3L131.141 187H112.841L97.9412 163.5L82.7412 187H66.4412L89.3412 151.3Z" fill="#1E1A31"/>
<path d="M167.117 117C172.184 117 176.65 117.967 180.517 119.9C184.45 121.767 187.484 124.467 189.617 128C191.75 131.533 192.817 135.633 192.817 140.3C192.817 144.767 191.75 148.733 189.617 152.2C187.484 155.6 184.55 158.2 180.817 160L194.617 187H178.017L166.317 163.5H153.617V187H138.617V117H167.117ZM153.617 151H165.917C169.45 151 172.25 150.033 174.317 148.1C176.45 146.167 177.517 143.567 177.517 140.3C177.517 136.967 176.45 134.333 174.317 132.4C172.25 130.467 169.45 129.5 165.917 129.5H153.617V151Z" fill="#1E1A31"/>
<path d="M231.277 117C236.277 117 240.677 117.967 244.477 119.9C248.344 121.767 251.31 124.467 253.377 128C255.51 131.533 256.577 135.633 256.577 140.3C256.577 144.967 255.51 149.067 253.377 152.6C251.31 156.067 248.344 158.767 244.477 160.7C240.677 162.567 236.277 163.5 231.277 163.5H217.777V187H202.777V117H231.277ZM217.777 151H229.877C233.41 151 236.21 150.033 238.277 148.1C240.344 146.167 241.377 143.567 241.377 140.3C241.377 136.967 240.344 134.333 238.277 132.4C236.21 130.467 233.41 129.5 229.877 129.5H217.777V151Z" fill="#1E1A31"/>
</svg>
