<svg width="300" height="300" viewBox="0 0 300 300" fill="none" xmlns="http://www.w3.org/2000/svg">
<path d="M150 300C232.843 300 300 232.843 300 150C300 67.1573 232.843 0 150 0C67.1573 0 0 67.1573 0 150C0 232.843 67.1573 300 150 300Z" fill="#F56070"/>
<path d="M55.4197 114.2C57.7531 114.2 59.6864 114.967 61.2197 116.5C62.7531 117.967 63.5197 119.833 63.5197 122.1C63.5197 124.367 62.7531 126.267 61.2197 127.8C59.6864 129.333 57.7531 130.1 55.4197 130.1C53.0864 130.1 51.1197 129.333 49.5197 127.8C47.9864 126.267 47.2197 124.367 47.2197 122.1C47.2197 119.833 47.9864 117.967 49.5197 116.5C51.1197 114.967 53.0864 114.2 55.4197 114.2ZM48.3197 135.6H62.4197V187H48.3197V135.6Z" fill="#1E1A31"/>
<path d="M91.7455 151.3L69.9455 117H88.1455L101.946 139L116.046 117H132.446L110.646 151.3L133.546 187H115.246L100.346 163.5L85.1455 187H68.8455L91.7455 151.3Z" fill="#1E1A31"/>
<path d="M137.221 117H192.621V129.9H172.421V187H157.421V129.9H137.221V117Z" fill="#1E1A31"/>
<path d="M198.387 117H253.987V126.9L218.087 174.2H254.887V187H197.487V177.1L233.387 129.8H198.387V117Z" fill="#1E1A31"/>
</svg>
