<svg width="300" height="300" viewBox="0 0 300 300" fill="none" xmlns="http://www.w3.org/2000/svg">
<path d="M150 300C232.843 300 300 232.843 300 150C300 67.1573 232.843 0 150 0C67.1573 0 0 67.1573 0 150C0 232.843 67.1573 300 150 300Z" fill="#6E97FF"/>
<path d="M221 211.401L179 196.041V185.241L221 170.001V179.661L211.82 182.901V198.861L221 202.101V211.401ZM204.56 196.461V185.361L188.6 190.941L204.56 196.461Z" fill="#1E1A31"/>
<path d="M179 166.146V151.566C179 147.366 179.9 143.666 181.7 140.466C183.46 137.226 185.94 134.746 189.14 133.026C192.3 131.266 195.92 130.386 200 130.386C204.08 130.386 207.72 131.266 210.92 133.026C214.08 134.746 216.56 137.226 218.36 140.466C220.12 143.666 221 147.366 221 151.566V166.146H179ZM213.5 151.566C213.5 147.766 212.28 144.826 209.84 142.746C207.36 140.626 204.08 139.566 200 139.566C195.92 139.566 192.66 140.626 190.22 142.746C187.74 144.826 186.5 147.766 186.5 151.566V157.146H213.5V151.566Z" fill="#1E1A31"/>
<path d="M221 130.014L179 114.654V103.854L221 88.6139V98.2739L211.82 101.514L211.82 117.474L221 120.714V130.014ZM204.56 115.074V103.974L188.6 109.554L204.56 115.074Z" fill="#1E1A31"/>
<path opacity="0.5" fill-rule="evenodd" clip-rule="evenodd" d="M81.4239 208.528L68.9404 199.622L147.457 90.5283L159.94 99.4343L81.4239 208.528Z" fill="#1E1A31"/>
<path fill-rule="evenodd" clip-rule="evenodd" d="M121.868 142.349H126.059C145.357 142.349 161 157.941 161 177.175C161 196.408 145.357 212 126.059 212H74.6759C70.4366 212 67 208.575 67 204.349C67 200.124 70.4366 196.699 74.6759 196.699H126.059C136.878 196.699 145.648 187.958 145.648 177.175C145.648 166.392 136.878 157.651 126.059 157.651H106.135H106.132H101.941C82.6434 157.651 67 142.059 67 122.825C67 103.592 82.6434 88 101.941 88H153.324C157.563 88 161 91.4253 161 95.6505C161 99.8758 157.563 103.301 153.324 103.301H101.941C91.1219 103.301 82.3517 112.042 82.3517 122.825C82.3517 133.608 91.1219 142.349 101.941 142.349H121.865C121.866 142.349 121.867 142.349 121.868 142.349Z" fill="#1E1A31"/>
</svg>
