<svg width="300" height="300" viewBox="0 0 300 300" fill="none" xmlns="http://www.w3.org/2000/svg">
<path d="M150 300C232.843 300 300 232.843 300 150C300 67.1573 232.843 0 150 0C67.1573 0 0 67.1573 0 150C0 232.843 67.1573 300 150 300Z" fill="#6E97FF"/>
<path d="M179 191.317C179 186.437 179.96 182.657 181.88 179.977C183.8 177.297 186.52 175.957 190.04 175.957C192.64 175.957 194.74 176.677 196.34 178.117C197.94 179.557 198.98 181.597 199.46 184.237C199.86 181.117 200.86 178.717 202.46 177.037C204.06 175.317 206.3 174.457 209.18 174.457C212.86 174.457 215.76 175.857 217.88 178.657C219.96 181.457 221 185.417 221 190.537V207.277H179V191.317ZM196.28 198.277V191.077C196.28 189.157 195.82 187.657 194.9 186.577C193.98 185.497 192.74 184.957 191.18 184.957C189.62 184.957 188.38 185.497 187.46 186.577C186.54 187.657 186.08 189.157 186.08 191.077V198.277H196.28ZM213.86 198.277V190.477C213.86 188.317 213.4 186.657 212.48 185.497C211.56 184.297 210.28 183.697 208.64 183.697C206.92 183.697 205.6 184.297 204.68 185.497C203.72 186.697 203.24 188.357 203.24 190.477V198.277H213.86Z" fill="#1E1A31"/>
<path d="M200 170.168C195.72 170.168 191.98 169.348 188.78 167.708C185.54 166.028 183.04 163.648 181.28 160.568C179.52 157.448 178.64 153.788 178.64 149.588C178.64 146.308 179.28 143.368 180.56 140.768C181.84 138.168 183.64 136.068 185.96 134.468C188.28 132.868 190.96 131.908 194 131.588V140.588C191.6 141.108 189.72 142.208 188.36 143.888C186.96 145.528 186.26 147.588 186.26 150.068C186.26 153.428 187.52 156.088 190.04 158.048C192.56 160.008 195.88 160.988 200 160.988C204.08 160.988 207.4 160.008 209.96 158.048C212.48 156.088 213.74 153.428 213.74 150.068C213.74 147.588 213.06 145.528 211.7 143.888C210.3 142.208 208.4 141.108 206 140.588V131.588C209.04 131.908 211.72 132.868 214.04 134.468C216.36 136.068 218.16 138.168 219.44 140.768C220.72 143.368 221.36 146.308 221.36 149.588C221.36 153.788 220.48 157.448 218.72 160.568C216.96 163.648 214.48 166.028 211.28 167.708C208.04 169.348 204.28 170.168 200 170.168Z" fill="#1E1A31"/>
<path d="M179 126.359V117.359H195.86V100.679H179V91.6789L221 91.6789V100.679L203.66 100.679V117.359L221 117.359V126.359L179 126.359Z" fill="#1E1A31"/>
<path opacity="0.5" fill-rule="evenodd" clip-rule="evenodd" d="M81.4239 208.528L68.9404 199.622L147.457 90.5283L159.94 99.4343L81.4239 208.528Z" fill="#1E1A31"/>
<path fill-rule="evenodd" clip-rule="evenodd" d="M121.868 142.349H126.059C145.357 142.349 161 157.941 161 177.175C161 196.408 145.357 212 126.059 212H74.6759C70.4366 212 67 208.575 67 204.349C67 200.124 70.4366 196.699 74.6759 196.699H126.059C136.878 196.699 145.648 187.958 145.648 177.175C145.648 166.392 136.878 157.651 126.059 157.651H106.135H106.132H101.941C82.6434 157.651 67 142.059 67 122.825C67 103.592 82.6434 88 101.941 88H153.324C157.563 88 161 91.4253 161 95.6505C161 99.8758 157.563 103.301 153.324 103.301H101.941C91.1219 103.301 82.3517 112.042 82.3517 122.825C82.3517 133.608 91.1219 142.349 101.941 142.349H121.865C121.866 142.349 121.867 142.349 121.868 142.349Z" fill="#1E1A31"/>
</svg>
