<svg width="300" height="300" viewBox="0 0 300 300" fill="none" xmlns="http://www.w3.org/2000/svg">
<path d="M150 300C232.843 300 300 232.843 300 150C300 67.1573 232.843 0 150 0C67.1573 0 0 67.1573 0 150C0 232.843 67.1573 300 150 300Z" fill="#6E97FF"/>
<path d="M179 190.235C179 185.355 179.96 181.575 181.88 178.895C183.8 176.215 186.52 174.875 190.04 174.875C192.64 174.875 194.74 175.595 196.34 177.035C197.94 178.475 198.98 180.515 199.46 183.155C199.86 180.035 200.86 177.635 202.46 175.955C204.06 174.235 206.3 173.375 209.18 173.375C212.86 173.375 215.76 174.775 217.88 177.575C219.96 180.375 221 184.335 221 189.455V206.195H179V190.235ZM196.28 197.195V189.995C196.28 188.075 195.82 186.575 194.9 185.495C193.98 184.415 192.74 183.875 191.18 183.875C189.62 183.875 188.38 184.415 187.46 185.495C186.54 186.575 186.08 188.075 186.08 189.995V197.195H196.28ZM213.86 197.195V189.395C213.86 187.235 213.4 185.575 212.48 184.415C211.56 183.215 210.28 182.615 208.64 182.615C206.92 182.615 205.6 183.215 204.68 184.415C203.72 185.615 203.24 187.275 203.24 189.395V197.195H213.86Z" fill="#1E1A31"/>
<path d="M221 167.406H179V159.246L205.46 141.426H179V132.546H221V140.766L194.54 158.586H221V167.406Z" fill="#1E1A31"/>
<path d="M179 109.434C179 104.554 179.96 100.774 181.88 98.094C183.8 95.414 186.52 94.074 190.04 94.074C192.64 94.074 194.74 94.794 196.34 96.234C197.94 97.674 198.98 99.714 199.46 102.354C199.86 99.234 200.86 96.834 202.46 95.154C204.06 93.434 206.3 92.574 209.18 92.574C212.86 92.574 215.76 93.974 217.88 96.774C219.96 99.574 221 103.534 221 108.654L221 125.394L179 125.394V109.434ZM196.28 116.394V109.194C196.28 107.274 195.82 105.774 194.9 104.694C193.98 103.614 192.74 103.074 191.18 103.074C189.62 103.074 188.38 103.614 187.46 104.694C186.54 105.774 186.08 107.274 186.08 109.194V116.394H196.28ZM213.86 116.394L213.86 108.594C213.86 106.434 213.4 104.774 212.48 103.614C211.56 102.414 210.28 101.814 208.64 101.814C206.92 101.814 205.6 102.414 204.68 103.614C203.72 104.814 203.24 106.474 203.24 108.594V116.394H213.86Z" fill="#1E1A31"/>
<path opacity="0.5" fill-rule="evenodd" clip-rule="evenodd" d="M81.4244 208.528L68.9409 199.622L147.457 90.5283L159.941 99.4343L81.4244 208.528Z" fill="#1E1A31"/>
<path fill-rule="evenodd" clip-rule="evenodd" d="M121.868 142.349H126.059C145.357 142.349 161 157.941 161 177.175C161 196.408 145.357 212 126.059 212H74.6759C70.4366 212 67 208.575 67 204.349C67 200.124 70.4366 196.699 74.6759 196.699H126.059C136.878 196.699 145.648 187.958 145.648 177.175C145.648 166.392 136.878 157.651 126.059 157.651H106.135H106.132H101.941C82.6434 157.651 67 142.059 67 122.825C67 103.592 82.6434 88 101.941 88H153.324C157.563 88 161 91.4253 161 95.6505C161 99.8758 157.563 103.301 153.324 103.301H101.941C91.1219 103.301 82.3517 112.042 82.3517 122.825C82.3517 133.608 91.1219 142.349 101.941 142.349H121.865C121.866 142.349 121.867 142.349 121.868 142.349Z" fill="#1E1A31"/>
</svg>
