<svg width="300" height="300" viewBox="0 0 300 300" fill="none" xmlns="http://www.w3.org/2000/svg">
<path d="M150 300C232.843 300 300 232.843 300 150C300 67.1573 232.843 0 150 0C67.1573 0 0 67.1573 0 150C0 232.843 67.1573 300 150 300Z" fill="#F4C14D"/>
<path d="M179 168.172C179 163.292 179.96 159.512 181.88 156.832C183.8 154.152 186.52 152.812 190.04 152.812C192.64 152.812 194.74 153.532 196.34 154.972C197.94 156.412 198.98 158.452 199.46 161.092C199.86 157.972 200.86 155.572 202.46 153.892C204.06 152.172 206.3 151.312 209.18 151.312C212.86 151.312 215.76 152.712 217.88 155.512C219.96 158.312 221 162.272 221 167.392V184.132H179V168.172ZM196.28 175.132V167.932C196.28 166.012 195.82 164.512 194.9 163.432C193.98 162.352 192.74 161.812 191.18 161.812C189.62 161.812 188.38 162.352 187.46 163.432C186.54 164.512 186.08 166.012 186.08 167.932V175.132H196.28ZM213.86 175.132V167.332C213.86 165.172 213.4 163.512 212.48 162.352C211.56 161.152 210.28 160.552 208.64 160.552C206.92 160.552 205.6 161.152 204.68 162.352C203.72 163.552 203.24 165.212 203.24 167.332V175.132H213.86Z" fill="#1E1A31"/>
<path d="M179 146.783V113.423H184.94L213.32 134.963V112.883L221 112.883V147.323H215.06L186.68 125.783V146.783H179Z" fill="#1E1A31"/>
<path opacity="0.5" fill-rule="evenodd" clip-rule="evenodd" d="M81.4239 208.528L68.9404 199.622L147.457 90.5283L159.94 99.4343L81.4239 208.528Z" fill="#1E1A31"/>
<path fill-rule="evenodd" clip-rule="evenodd" d="M121.868 142.349H126.059C145.357 142.349 161 157.941 161 177.175C161 196.408 145.357 212 126.059 212H74.6759C70.4366 212 67 208.575 67 204.349C67 200.124 70.4366 196.699 74.6759 196.699H126.059C136.878 196.699 145.648 187.958 145.648 177.175C145.648 166.392 136.878 157.651 126.059 157.651H106.135H106.132H101.941C82.6434 157.651 67 142.059 67 122.825C67 103.592 82.6434 88 101.941 88H153.324C157.563 88 161 91.4253 161 95.6505C161 99.8758 157.563 103.301 153.324 103.301H101.941C91.1219 103.301 82.3517 112.042 82.3517 122.825C82.3517 133.608 91.1219 142.349 101.941 142.349H121.865C121.866 142.349 121.867 142.349 121.868 142.349Z" fill="#1E1A31"/>
</svg>
