<svg width="300" height="300" viewBox="0 0 300 300" fill="none" xmlns="http://www.w3.org/2000/svg">
<path d="M150 300C232.843 300 300 232.843 300 150C300 67.1573 232.843 0 150 0C67.1573 0 0 67.1573 0 150C0 232.843 67.1573 300 150 300Z" fill="#10BA97"/>
<path d="M200 209.984C195.72 209.984 191.98 209.164 188.78 207.524C185.54 205.844 183.04 203.464 181.28 200.384C179.52 197.264 178.64 193.604 178.64 189.404C178.64 186.124 179.28 183.184 180.56 180.584C181.84 177.984 183.64 175.884 185.96 174.284C188.28 172.684 190.96 171.724 194 171.404V180.404C191.6 180.924 189.72 182.024 188.36 183.704C186.96 185.344 186.26 187.404 186.26 189.884C186.26 193.244 187.52 195.904 190.04 197.864C192.56 199.824 195.88 200.804 200 200.804C204.08 200.804 207.4 199.824 209.96 197.864C212.48 195.904 213.74 193.244 213.74 189.884C213.74 187.404 213.06 185.344 211.7 183.704C210.3 182.024 208.4 180.924 206 180.404V171.404C209.04 171.724 211.72 172.684 214.04 174.284C216.36 175.884 218.16 177.984 219.44 180.584C220.72 183.184 221.36 186.124 221.36 189.404C221.36 193.604 220.48 197.264 218.72 200.384C216.96 203.464 214.48 205.844 211.28 207.524C208.04 209.164 204.28 209.984 200 209.984Z" fill="#1E1A31"/>
<path d="M221 171.059L179 155.699V144.899L221 129.659V139.319L211.82 142.559V158.519L221 161.759V171.059ZM204.56 156.119V145.019L188.6 150.599L204.56 156.119Z" fill="#1E1A31"/>
<path d="M179 125.804V111.224C179 107.024 179.9 103.324 181.7 100.124C183.46 96.8844 185.94 94.4044 189.14 92.6844C192.3 90.9244 195.92 90.0444 200 90.0444C204.08 90.0444 207.72 90.9244 210.92 92.6844C214.08 94.4044 216.56 96.8844 218.36 100.124C220.12 103.324 221 107.024 221 111.224L221 125.804L179 125.804ZM213.5 111.224C213.5 107.424 212.28 104.484 209.84 102.404C207.36 100.284 204.08 99.2244 200 99.2244C195.92 99.2244 192.66 100.284 190.22 102.404C187.74 104.484 186.5 107.424 186.5 111.224V116.804H213.5L213.5 111.224Z" fill="#1E1A31"/>
<path opacity="0.5" fill-rule="evenodd" clip-rule="evenodd" d="M81.4239 208.528L68.9404 199.622L147.457 90.5283L159.94 99.4343L81.4239 208.528Z" fill="#1E1A31"/>
<path fill-rule="evenodd" clip-rule="evenodd" d="M121.868 142.349H126.059C145.357 142.349 161 157.941 161 177.175C161 196.408 145.357 212 126.059 212H74.6759C70.4366 212 67 208.575 67 204.349C67 200.124 70.4366 196.699 74.6759 196.699H126.059C136.878 196.699 145.648 187.958 145.648 177.175C145.648 166.392 136.878 157.651 126.059 157.651H106.135H106.132H101.941C82.6434 157.651 67 142.059 67 122.825C67 103.592 82.6434 88 101.941 88H153.324C157.563 88 161 91.4253 161 95.6505C161 99.8758 157.563 103.301 153.324 103.301H101.941C91.1219 103.301 82.3517 112.042 82.3517 122.825C82.3517 133.608 91.1219 142.349 101.941 142.349H121.865C121.866 142.349 121.867 142.349 121.868 142.349Z" fill="#1E1A31"/>
</svg>
