<svg width="300" height="300" viewBox="0 0 300 300" fill="none" xmlns="http://www.w3.org/2000/svg">
<path d="M150 300C232.843 300 300 232.843 300 150C300 67.1573 232.843 0 150 0C67.1573 0 0 67.1573 0 150C0 232.843 67.1573 300 150 300Z" fill="#B2A1FB"/>
<path d="M200 206.586C195.72 206.586 191.98 205.766 188.78 204.126C185.54 202.446 183.04 200.066 181.28 196.986C179.52 193.866 178.64 190.206 178.64 186.006C178.64 182.726 179.28 179.786 180.56 177.186C181.84 174.586 183.64 172.486 185.96 170.886C188.28 169.286 190.96 168.326 194 168.006V177.006C191.6 177.526 189.72 178.626 188.36 180.306C186.96 181.946 186.26 184.006 186.26 186.486C186.26 189.846 187.52 192.506 190.04 194.466C192.56 196.426 195.88 197.406 200 197.406C204.08 197.406 207.4 196.426 209.96 194.466C212.48 192.506 213.74 189.846 213.74 186.486C213.74 184.006 213.06 181.946 211.7 180.306C210.3 178.626 208.4 177.526 206 177.006V168.006C209.04 168.326 211.72 169.286 214.04 170.886C216.36 172.486 218.16 174.586 219.44 177.186C220.72 179.786 221.36 182.726 221.36 186.006C221.36 190.206 220.48 193.866 218.72 196.986C216.96 200.066 214.48 202.446 211.28 204.126C208.04 205.766 204.28 206.586 200 206.586Z" fill="#1E1A31"/>
<path d="M179 162.777V134.577H186.74V153.777H196.16V138.177H203.54V153.777H213.26V133.917H221V162.777H179Z" fill="#1E1A31"/>
<path d="M199.58 117.46L179 130.54L179 119.62L192.2 111.34L179 102.88V93.0397L199.58 106.12L221 92.3797V103.36L206.9 112.3L221 121.42V131.2L199.58 117.46Z" fill="#1E1A31"/>
<path opacity="0.5" fill-rule="evenodd" clip-rule="evenodd" d="M81.4244 208.528L68.9409 199.622L147.457 90.5283L159.941 99.4343L81.4244 208.528Z" fill="#1E1A31"/>
<path fill-rule="evenodd" clip-rule="evenodd" d="M121.868 142.349H126.059C145.357 142.349 161 157.941 161 177.175C161 196.408 145.357 212 126.059 212H74.6759C70.4366 212 67 208.575 67 204.349C67 200.124 70.4366 196.699 74.6759 196.699H126.059C136.878 196.699 145.648 187.958 145.648 177.175C145.648 166.392 136.878 157.651 126.059 157.651H106.135H106.132H101.941C82.6434 157.651 67 142.059 67 122.825C67 103.592 82.6434 88 101.941 88H153.324C157.563 88 161 91.4253 161 95.6505C161 99.8758 157.563 103.301 153.324 103.301H101.941C91.1219 103.301 82.3517 112.042 82.3517 122.825C82.3517 133.608 91.1219 142.349 101.941 142.349H121.865C121.866 142.349 121.867 142.349 121.868 142.349Z" fill="#1E1A31"/>
</svg>
