<svg width="300" height="300" viewBox="0 0 300 300" fill="none" xmlns="http://www.w3.org/2000/svg">
<path d="M150 300C232.843 300 300 232.843 300 150C300 67.1573 232.843 0 150 0C67.1573 0 0 67.1573 0 150C0 232.843 67.1573 300 150 300Z" fill="#10BA97"/>
<path d="M200 205.881C195.72 205.881 191.98 205.061 188.78 203.421C185.54 201.741 183.04 199.361 181.28 196.281C179.52 193.161 178.64 189.501 178.64 185.301C178.64 182.021 179.28 179.081 180.56 176.481C181.84 173.881 183.64 171.781 185.96 170.181C188.28 168.581 190.96 167.621 194 167.301V176.301C191.6 176.821 189.72 177.921 188.36 179.601C186.96 181.241 186.26 183.301 186.26 185.781C186.26 189.141 187.52 191.801 190.04 193.761C192.56 195.721 195.88 196.701 200 196.701C204.08 196.701 207.4 195.721 209.96 193.761C212.48 191.801 213.74 189.141 213.74 185.781C213.74 183.301 213.06 181.241 211.7 179.601C210.3 177.921 208.4 176.821 206 176.301V167.301C209.04 167.621 211.72 168.581 214.04 170.181C216.36 171.781 218.16 173.881 219.44 176.481C220.72 179.081 221.36 182.021 221.36 185.301C221.36 189.501 220.48 193.161 218.72 196.281C216.96 199.361 214.48 201.741 211.28 203.421C208.04 205.061 204.28 205.881 200 205.881Z" fill="#1E1A31"/>
<path d="M179 162.072V153.072H195.86V136.392H179L179 127.392L221 127.392V136.392H203.66V153.072H221V162.072H179Z" fill="#1E1A31"/>
<path d="M179 120.236V92.516H186.74V111.236H196.58V95.876H203.96V111.236L221 111.236V120.236L179 120.236Z" fill="#1E1A31"/>
<path opacity="0.5" fill-rule="evenodd" clip-rule="evenodd" d="M81.4239 208.528L68.9404 199.622L147.457 90.5283L159.94 99.4343L81.4239 208.528Z" fill="#1E1A31"/>
<path fill-rule="evenodd" clip-rule="evenodd" d="M121.868 142.349H126.059C145.357 142.349 161 157.941 161 177.175C161 196.408 145.357 212 126.059 212H74.6759C70.4366 212 67 208.575 67 204.349C67 200.124 70.4366 196.699 74.6759 196.699H126.059C136.878 196.699 145.648 187.958 145.648 177.175C145.648 166.392 136.878 157.651 126.059 157.651H106.135H106.132H101.941C82.6434 157.651 67 142.059 67 122.825C67 103.592 82.6434 88 101.941 88H153.324C157.563 88 161 91.4253 161 95.6505C161 99.8758 157.563 103.301 153.324 103.301H101.941C91.1219 103.301 82.3517 112.042 82.3517 122.825C82.3517 133.608 91.1219 142.349 101.941 142.349H121.865C121.866 142.349 121.867 142.349 121.868 142.349Z" fill="#1E1A31"/>
</svg>
