<svg width="300" height="300" viewBox="0 0 300 300" fill="none" xmlns="http://www.w3.org/2000/svg">
<path d="M150 300C232.843 300 300 232.843 300 150C300 67.1573 232.843 0 150 0C67.1573 0 0 67.1573 0 150C0 232.843 67.1573 300 150 300Z" fill="#6E97FF"/>
<path d="M183.8 217.433V203.825C183.8 199.905 184.64 196.452 186.32 193.465C187.963 190.441 190.277 188.126 193.264 186.521C196.213 184.878 199.592 184.057 203.4 184.057C207.208 184.057 210.605 184.878 213.592 186.521C216.541 188.126 218.856 190.441 220.536 193.465C222.179 196.452 223 199.905 223 203.825V217.433H183.8ZM216 203.825C216 200.278 214.861 197.534 212.584 195.593C210.269 193.614 207.208 192.625 203.4 192.625C199.592 192.625 196.549 193.614 194.272 195.593C191.957 197.534 190.8 200.278 190.8 203.825V209.033H216V203.825Z" fill="#1E1A31"/>
<path d="M223 183.709L183.8 169.373V159.293L223 145.069V154.085L214.432 157.109V172.005L223 175.029V183.709ZM207.656 169.765V159.405L192.76 164.613L207.656 169.765Z" fill="#1E1A31"/>
<path d="M210.232 136.23C212.173 136.08 213.741 135.296 214.936 133.878C216.093 132.422 216.672 130.499 216.672 128.11C216.672 126.131 216.261 124.526 215.44 123.294C214.581 122.024 213.405 121.39 211.912 121.39C210.867 121.39 210.045 121.744 209.448 122.454C208.813 123.126 208.328 124.096 207.992 125.366C207.619 126.598 207.171 128.52 206.648 131.134C206.163 133.71 205.547 135.875 204.8 137.63C204.016 139.384 202.877 140.822 201.384 141.942C199.853 143.024 197.837 143.566 195.336 143.566C193.059 143.566 191.024 142.95 189.232 141.718C187.44 140.448 186.04 138.712 185.032 136.51C183.987 134.27 183.464 131.75 183.464 128.95C183.464 126.075 184.005 123.499 185.088 121.222C186.133 118.907 187.589 117.096 189.456 115.79C191.323 114.446 193.432 113.755 195.784 113.718V121.95C194.104 122.136 192.76 122.846 191.752 124.078C190.707 125.31 190.184 126.934 190.184 128.95C190.184 130.816 190.576 132.31 191.36 133.43C192.144 134.55 193.264 135.11 194.72 135.11C195.765 135.11 196.587 134.774 197.184 134.102C197.744 133.43 198.211 132.478 198.584 131.246C198.92 130.014 199.331 128.11 199.816 125.534C200.301 122.92 200.917 120.718 201.664 118.926C202.373 117.134 203.475 115.696 204.968 114.614C206.424 113.494 208.384 112.934 210.848 112.934C213.237 112.934 215.384 113.587 217.288 114.894C219.155 116.2 220.629 118.03 221.712 120.382C222.795 122.696 223.336 125.31 223.336 128.222C223.336 131.358 222.776 134.158 221.656 136.622C220.499 139.048 218.912 140.952 216.896 142.334C214.88 143.715 212.621 144.424 210.12 144.462L210.232 136.23Z" fill="#1E1A31"/>
<path d="M183.8 107.894V99.4938H199.536V83.9258H183.8V75.5258H223V83.9258H206.816V99.4938L223 99.4938V107.894L183.8 107.894Z" fill="#1E1A31"/>
<path opacity="0.5" fill-rule="evenodd" clip-rule="evenodd" d="M81.4239 208.528L68.9404 199.622L147.457 90.5283L159.94 99.4343L81.4239 208.528Z" fill="#1E1A31"/>
<path fill-rule="evenodd" clip-rule="evenodd" d="M121.868 142.349H126.059C145.357 142.349 161 157.941 161 177.175C161 196.408 145.357 212 126.059 212H74.6759C70.4366 212 67 208.575 67 204.349C67 200.124 70.4366 196.699 74.6759 196.699H126.059C136.878 196.699 145.648 187.958 145.648 177.175C145.648 166.392 136.878 157.651 126.059 157.651H106.135H106.132H101.941C82.6434 157.651 67 142.059 67 122.825C67 103.592 82.6434 88 101.941 88H153.324C157.563 88 161 91.4253 161 95.6505C161 99.8758 157.563 103.301 153.324 103.301H101.941C91.1219 103.301 82.3517 112.042 82.3517 122.825C82.3517 133.608 91.1219 142.349 101.941 142.349H121.865C121.866 142.349 121.867 142.349 121.868 142.349Z" fill="#1E1A31"/>
</svg>
