<svg width="300" height="300" viewBox="0 0 300 300" fill="none" xmlns="http://www.w3.org/2000/svg">
<path d="M150 300C232.843 300 300 232.843 300 150C300 67.1573 232.843 0 150 0C67.1573 0 0 67.1573 0 150C0 232.843 67.1573 300 150 300Z" fill="#B2A1FB"/>
<path d="M179 208.068V193.488C179 189.288 179.9 185.588 181.7 182.388C183.46 179.148 185.94 176.668 189.14 174.948C192.3 173.188 195.92 172.308 200 172.308C204.08 172.308 207.72 173.188 210.92 174.948C214.08 176.668 216.56 179.148 218.36 182.388C220.12 185.588 221 189.288 221 193.488V208.068H179ZM213.5 193.488C213.5 189.688 212.28 186.748 209.84 184.668C207.36 182.548 204.08 181.488 200 181.488C195.92 181.488 192.66 182.548 190.22 184.668C187.74 186.748 186.5 189.688 186.5 193.488V199.068H213.5V193.488Z" fill="#1E1A31"/>
<path d="M179 166.759V138.559H186.74V157.759H196.16V142.159H203.54V157.759H213.26V137.899H221V166.759H179Z" fill="#1E1A31"/>
<path d="M179 132.482L179 104.762H186.74V123.482H196.58L196.58 108.122H203.96L203.96 123.482L221 123.482V132.482H179Z" fill="#1E1A31"/>
<path d="M179 99.8452V90.8452L221 90.8452V99.8452L179 99.8452Z" fill="#1E1A31"/>
<path opacity="0.5" fill-rule="evenodd" clip-rule="evenodd" d="M81.4239 208.528L68.9404 199.622L147.457 90.5283L159.94 99.4343L81.4239 208.528Z" fill="#1E1A31"/>
<path fill-rule="evenodd" clip-rule="evenodd" d="M121.868 142.349H126.059C145.357 142.349 161 157.941 161 177.175C161 196.408 145.357 212 126.059 212H74.6759C70.4366 212 67 208.575 67 204.349C67 200.124 70.4366 196.699 74.6759 196.699H126.059C136.878 196.699 145.648 187.958 145.648 177.175C145.648 166.392 136.878 157.651 126.059 157.651H106.135H106.132H101.941C82.6434 157.651 67 142.059 67 122.825C67 103.592 82.6434 88 101.941 88H153.324C157.563 88 161 91.4253 161 95.6505C161 99.8758 157.563 103.301 153.324 103.301H101.941C91.1219 103.301 82.3517 112.042 82.3517 122.825C82.3517 133.608 91.1219 142.349 101.941 142.349H121.865C121.866 142.349 121.867 142.349 121.868 142.349Z" fill="#1E1A31"/>
</svg>
