<svg width="300" height="300" viewBox="0 0 300 300" fill="none" xmlns="http://www.w3.org/2000/svg">
<path d="M150 300C232.843 300 300 232.843 300 150C300 67.1573 232.843 0 150 0C67.1573 0 0 67.1573 0 150C0 232.843 67.1573 300 150 300Z" fill="#6E97FF"/>
<path d="M179 203.966V175.766H186.74V194.966H196.16V179.366H203.54V194.966H213.26V175.106H221V203.966H179Z" fill="#1E1A31"/>
<path d="M200 130.784C204.04 130.784 207.7 131.664 210.98 133.424C214.22 135.184 216.76 137.644 218.6 140.804C220.44 143.964 221.36 147.564 221.36 151.604C221.36 155.644 220.44 159.244 218.6 162.404C216.76 165.564 214.22 168.024 210.98 169.784C207.7 171.544 204.04 172.424 200 172.424C195.96 172.424 192.32 171.544 189.08 169.784C185.8 168.024 183.24 165.564 181.4 162.404C179.56 159.244 178.64 155.644 178.64 151.604C178.64 147.564 179.56 143.964 181.4 140.804C183.24 137.644 185.8 135.184 189.08 133.424C192.32 131.664 195.96 130.784 200 130.784ZM200 163.244C202.64 163.244 205 162.764 207.08 161.804C209.16 160.844 210.8 159.484 212 157.724C213.16 155.964 213.74 153.924 213.74 151.604C213.74 149.324 213.16 147.304 212 145.544C210.8 143.784 209.16 142.424 207.08 141.464C205 140.504 202.64 140.024 200 140.024C197.36 140.024 195 140.504 192.92 141.464C190.84 142.424 189.22 143.784 188.06 145.544C186.86 147.304 186.26 149.324 186.26 151.604C186.26 153.924 186.86 155.964 188.06 157.724C189.22 159.484 190.84 160.844 192.92 161.804C195 162.764 197.36 163.244 200 163.244Z" fill="#1E1A31"/>
<path d="M207.32 118.193C209.4 118.033 211.08 117.193 212.36 115.673C213.6 114.113 214.22 112.053 214.22 109.493C214.22 107.373 213.78 105.653 212.9 104.333C211.98 102.973 210.72 102.293 209.12 102.293C208 102.293 207.12 102.673 206.48 103.433C205.8 104.153 205.28 105.193 204.92 106.553C204.52 107.873 204.04 109.933 203.48 112.733C202.96 115.493 202.3 117.813 201.5 119.693C200.66 121.573 199.44 123.113 197.84 124.313C196.2 125.473 194.04 126.053 191.36 126.053C188.92 126.053 186.74 125.393 184.82 124.073C182.9 122.713 181.4 120.853 180.32 118.493C179.2 116.093 178.64 113.393 178.64 110.393C178.64 107.313 179.22 104.553 180.38 102.113C181.5 99.6335 183.06 97.6935 185.06 96.2935C187.06 94.8535 189.32 94.1135 191.84 94.0735V102.893C190.04 103.093 188.6 103.853 187.52 105.173C186.4 106.493 185.84 108.233 185.84 110.393C185.84 112.393 186.26 113.993 187.1 115.193C187.94 116.393 189.14 116.993 190.7 116.993C191.82 116.993 192.7 116.633 193.34 115.913C193.94 115.193 194.44 114.173 194.84 112.853C195.2 111.533 195.64 109.493 196.16 106.733C196.68 103.933 197.34 101.573 198.14 99.6535C198.9 97.7335 200.08 96.1935 201.68 95.0335C203.24 93.8335 205.34 93.2335 207.98 93.2335C210.54 93.2335 212.84 93.9335 214.88 95.3335C216.88 96.7335 218.46 98.6935 219.62 101.213C220.78 103.693 221.36 106.493 221.36 109.613C221.36 112.973 220.76 115.973 219.56 118.613C218.32 121.213 216.62 123.253 214.46 124.733C212.3 126.214 209.88 126.973 207.2 127.013L207.32 118.193Z" fill="#1E1A31"/>
<path opacity="0.5" fill-rule="evenodd" clip-rule="evenodd" d="M81.4239 208.528L68.9404 199.622L147.457 90.5283L159.94 99.4343L81.4239 208.528Z" fill="#1E1A31"/>
<path fill-rule="evenodd" clip-rule="evenodd" d="M121.868 142.349H126.059C145.357 142.349 161 157.941 161 177.175C161 196.408 145.357 212 126.059 212H74.6759C70.4366 212 67 208.575 67 204.349C67 200.124 70.4366 196.699 74.6759 196.699H126.059C136.878 196.699 145.648 187.958 145.648 177.175C145.648 166.392 136.878 157.651 126.059 157.651H106.135H106.132H101.941C82.6434 157.651 67 142.059 67 122.825C67 103.592 82.6434 88 101.941 88H153.324C157.563 88 161 91.4253 161 95.6505C161 99.8758 157.563 103.301 153.324 103.301H101.941C91.1219 103.301 82.3517 112.042 82.3517 122.825C82.3517 133.608 91.1219 142.349 101.941 142.349H121.865C121.866 142.349 121.867 142.349 121.868 142.349Z" fill="#1E1A31"/>
</svg>
