<svg width="300" height="300" viewBox="0 0 300 300" fill="none" xmlns="http://www.w3.org/2000/svg">
<path d="M150 300C232.843 300 300 232.843 300 150C300 67.1573 232.843 0 150 0C67.1573 0 0 67.1573 0 150C0 232.843 67.1573 300 150 300Z" fill="#6E97FF"/>
<path d="M179 200.246V172.046H186.74V191.246H196.16V175.646H203.54V191.246H213.26V171.386H221V200.246H179ZM179 168.951V135.711H186.74V147.831H221V156.831H186.74V168.951H179ZM200 135.363C195.72 135.363 191.98 134.543 188.78 132.903C185.54 131.223 183.04 128.843 181.28 125.763C179.52 122.643 178.64 118.983 178.64 114.783C178.64 111.503 179.28 108.563 180.56 105.963C181.84 103.363 183.64 101.263 185.96 99.6632C188.28 98.0632 190.96 97.1032 194 96.7832V105.783C191.6 106.303 189.72 107.403 188.36 109.083C186.96 110.723 186.26 112.783 186.26 115.263C186.26 118.623 187.52 121.283 190.04 123.243C192.56 125.203 195.88 126.183 200 126.183C204.08 126.183 207.4 125.203 209.96 123.243C212.48 121.283 213.74 118.623 213.74 115.263C213.74 112.783 213.06 110.723 211.7 109.083C210.3 107.403 208.4 106.303 206 105.783V96.7832C209.04 97.1032 211.72 98.0632 214.04 99.6632C216.36 101.263 218.16 103.363 219.44 105.963C220.72 108.563 221.36 111.503 221.36 114.783C221.36 118.983 220.48 122.643 218.72 125.763C216.96 128.843 214.48 131.223 211.28 132.903C208.04 134.543 204.28 135.363 200 135.363Z" fill="#1E1A31"/>
<path opacity="0.5" fill-rule="evenodd" clip-rule="evenodd" d="M81.4239 208.528L68.9404 199.622L147.457 90.5283L159.94 99.4343L81.4239 208.528Z" fill="#1E1A31"/>
<path fill-rule="evenodd" clip-rule="evenodd" d="M121.868 142.349H126.059C145.357 142.349 161 157.941 161 177.175C161 196.408 145.357 212 126.059 212H74.6759C70.4366 212 67 208.575 67 204.349C67 200.124 70.4366 196.699 74.6759 196.699H126.059C136.878 196.699 145.648 187.958 145.648 177.175C145.648 166.392 136.878 157.651 126.059 157.651H106.135H106.132H101.941C82.6434 157.651 67 142.059 67 122.825C67 103.592 82.6434 88 101.941 88H153.324C157.563 88 161 91.4253 161 95.6505C161 99.8758 157.563 103.301 153.324 103.301H101.941C91.1219 103.301 82.3517 112.042 82.3517 122.825C82.3517 133.608 91.1219 142.349 101.941 142.349H121.865C121.866 142.349 121.867 142.349 121.868 142.349Z" fill="#1E1A31"/>
</svg>
