<svg width="300" height="300" viewBox="0 0 300 300" fill="none" xmlns="http://www.w3.org/2000/svg">
<path d="M150 300C232.843 300 300 232.843 300 150C300 67.1573 232.843 0 150 0C67.1573 0 0 67.1573 0 150C0 232.843 67.1573 300 150 300Z" fill="#FFA14A"/>
<path d="M179 215.216V187.496H186.74V206.216H196.58V190.856H203.96V206.216H221V215.216H179Z" fill="#1E1A31"/>
<path d="M179 184.391V151.151H186.74V163.271H221V172.271H186.74V184.391H179Z" fill="#1E1A31"/>
<path d="M207.32 141.221C209.4 141.061 211.08 140.221 212.36 138.701C213.6 137.141 214.22 135.081 214.22 132.521C214.22 130.401 213.78 128.681 212.9 127.361C211.98 126.001 210.72 125.321 209.12 125.321C208 125.321 207.12 125.701 206.48 126.461C205.8 127.181 205.28 128.221 204.92 129.581C204.52 130.901 204.04 132.961 203.48 135.761C202.96 138.521 202.3 140.841 201.5 142.721C200.66 144.601 199.44 146.141 197.84 147.341C196.2 148.501 194.04 149.081 191.36 149.081C188.92 149.081 186.74 148.421 184.82 147.101C182.9 145.741 181.4 143.881 180.32 141.521C179.2 139.121 178.64 136.421 178.64 133.421C178.64 130.341 179.22 127.581 180.38 125.141C181.5 122.661 183.06 120.721 185.06 119.321C187.06 117.881 189.32 117.141 191.84 117.101V125.921C190.04 126.121 188.6 126.881 187.52 128.201C186.4 129.521 185.84 131.261 185.84 133.421C185.84 135.421 186.26 137.021 187.1 138.221C187.94 139.421 189.14 140.021 190.7 140.021C191.82 140.021 192.7 139.661 193.34 138.941C193.94 138.221 194.44 137.201 194.84 135.881C195.2 134.561 195.64 132.521 196.16 129.761C196.68 126.961 197.34 124.601 198.14 122.681C198.9 120.761 200.08 119.221 201.68 118.061C203.24 116.861 205.34 116.261 207.98 116.261C210.54 116.261 212.84 116.961 214.88 118.361C216.88 119.761 218.46 121.721 219.62 124.241C220.78 126.721 221.36 129.521 221.36 132.641C221.36 136.001 220.76 139.001 219.56 141.641C218.32 144.241 216.62 146.281 214.46 147.761C212.3 149.241 209.88 150.001 207.2 150.041L207.32 141.221Z" fill="#1E1A31"/>
<path d="M179 110.861V82.6608H186.74V101.861H196.16V86.2608H203.54V101.861H213.26V82.0008H221V110.861L179 110.861Z" fill="#1E1A31"/>
<path opacity="0.5" fill-rule="evenodd" clip-rule="evenodd" d="M81.4239 208.528L68.9404 199.622L147.457 90.5283L159.94 99.4343L81.4239 208.528Z" fill="#1E1A31"/>
<path fill-rule="evenodd" clip-rule="evenodd" d="M121.868 142.349H126.059C145.357 142.349 161 157.941 161 177.175C161 196.408 145.357 212 126.059 212H74.6759C70.4366 212 67 208.575 67 204.349C67 200.124 70.4366 196.699 74.6759 196.699H126.059C136.878 196.699 145.648 187.958 145.648 177.175C145.648 166.392 136.878 157.651 126.059 157.651H106.135H106.132H101.941C82.6434 157.651 67 142.059 67 122.825C67 103.592 82.6434 88 101.941 88H153.324C157.563 88 161 91.4253 161 95.6505C161 99.8758 157.563 103.301 153.324 103.301H101.941C91.1219 103.301 82.3517 112.042 82.3517 122.825C82.3517 133.608 91.1219 142.349 101.941 142.349H121.865C121.866 142.349 121.867 142.349 121.868 142.349Z" fill="#1E1A31"/>
</svg>
