<svg width="300" height="300" viewBox="0 0 300 300" fill="none" xmlns="http://www.w3.org/2000/svg">
<path d="M150 300C232.843 300 300 232.843 300 150C300 67.1573 232.843 0 150 0C67.1573 0 0 67.1573 0 150C0 232.843 67.1573 300 150 300Z" fill="#10BA97"/>
<path d="M200 208.607C195.72 208.607 191.98 207.767 188.78 206.087C185.54 204.407 183.04 202.007 181.28 198.887C179.52 195.727 178.64 192.027 178.64 187.787C178.64 184.467 179.28 181.487 180.56 178.847C181.84 176.207 183.64 174.087 185.96 172.487C188.28 170.847 190.94 169.847 193.94 169.487V178.367C191.58 178.927 189.72 180.047 188.36 181.727C186.96 183.407 186.26 185.507 186.26 188.027C186.26 190.347 186.84 192.367 188 194.087C189.16 195.807 190.78 197.127 192.86 198.047C194.94 198.967 197.32 199.427 200 199.427C204.12 199.427 207.44 198.427 209.96 196.427C212.48 194.387 213.74 191.587 213.74 188.027C213.74 185.427 213.04 183.127 211.64 181.127C210.2 179.127 208.1 177.927 205.34 177.527H204.8V187.967H197.66V169.187H221V175.427L215.78 176.387C217.42 177.627 218.76 179.287 219.8 181.367C220.84 183.447 221.36 185.867 221.36 188.627C221.36 192.587 220.48 196.087 218.72 199.127C216.96 202.127 214.46 204.467 211.22 206.147C207.98 207.787 204.24 208.607 200 208.607Z" fill="#1E1A31"/>
<path d="M179 146.026C179 141.146 179.96 137.366 181.88 134.686C183.8 132.006 186.52 130.666 190.04 130.666C192.64 130.666 194.74 131.386 196.34 132.826C197.94 134.266 198.98 136.306 199.46 138.946C199.86 135.826 200.86 133.426 202.46 131.746C204.06 130.026 206.3 129.166 209.18 129.166C212.86 129.166 215.76 130.566 217.88 133.366C219.96 136.166 221 140.126 221 145.246V161.986H179V146.026ZM196.28 152.986V145.786C196.28 143.866 195.82 142.366 194.9 141.286C193.98 140.206 192.74 139.666 191.18 139.666C189.62 139.666 188.38 140.206 187.46 141.286C186.54 142.366 186.08 143.866 186.08 145.786V152.986H196.28ZM213.86 152.986V145.186C213.86 143.026 213.4 141.366 212.48 140.206C211.56 139.006 210.28 138.406 208.64 138.406C206.92 138.406 205.6 139.006 204.68 140.206C203.72 141.406 203.24 143.066 203.24 145.186V152.986H213.86Z" fill="#1E1A31"/>
<path d="M179 106.097C179 103.097 179.58 100.457 180.74 98.1769C181.86 95.8569 183.48 94.077 185.6 92.837C187.72 91.557 190.18 90.9169 192.98 90.9169C195.78 90.9169 198.24 91.557 200.36 92.837C202.44 94.077 204.06 95.8569 205.22 98.1769C206.34 100.457 206.9 103.097 206.9 106.097V114.197L221 114.197V123.197L179 123.197V106.097ZM199.4 114.197V106.937C199.4 104.817 198.82 103.137 197.66 101.897C196.5 100.657 194.94 100.037 192.98 100.037C190.98 100.037 189.4 100.657 188.24 101.897C187.08 103.137 186.5 104.817 186.5 106.937V114.197H199.4Z" fill="#1E1A31"/>
<path opacity="0.5" fill-rule="evenodd" clip-rule="evenodd" d="M81.4239 208.528L68.9404 199.622L147.457 90.5283L159.94 99.4343L81.4239 208.528Z" fill="#1E1A31"/>
<path fill-rule="evenodd" clip-rule="evenodd" d="M121.868 142.349H126.059C145.357 142.349 161 157.941 161 177.175C161 196.408 145.357 212 126.059 212H74.6759C70.4366 212 67 208.575 67 204.349C67 200.124 70.4366 196.699 74.6759 196.699H126.059C136.878 196.699 145.648 187.958 145.648 177.175C145.648 166.392 136.878 157.651 126.059 157.651H106.135H106.132H101.941C82.6434 157.651 67 142.059 67 122.825C67 103.592 82.6434 88 101.941 88H153.324C157.563 88 161 91.4253 161 95.6505C161 99.8758 157.563 103.301 153.324 103.301H101.941C91.1219 103.301 82.3517 112.042 82.3517 122.825C82.3517 133.608 91.1219 142.349 101.941 142.349H121.865C121.866 142.349 121.867 142.349 121.868 142.349Z" fill="#1E1A31"/>
</svg>
