<svg width="300" height="300" viewBox="0 0 300 300" fill="none" xmlns="http://www.w3.org/2000/svg">
<path d="M150 300C232.843 300 300 232.843 300 150C300 67.1573 232.843 0 150 0C67.1573 0 0 67.1573 0 150C0 232.843 67.1573 300 150 300Z" fill="#6E97FF"/>
<path d="M179 212.375V200.555L209.84 188.915L179 177.635V166.055H221V174.635H192.86L221 185.555V192.875L192.86 203.795H221V212.375H179Z" fill="#1E1A31"/>
<path d="M179.06 158.878V149.878H197.9L179.06 133.078V122.158L196.34 137.578L221 121.138V131.938L203.3 143.938L209.96 149.878H221V158.878H179.06Z" fill="#1E1A31"/>
<path d="M179 100.821C179 97.7814 179.58 95.1014 180.74 92.7814C181.86 90.4214 183.48 88.6014 185.6 87.3214C187.72 86.0414 190.18 85.4014 192.98 85.4014C195.66 85.4014 198.04 86.0414 200.12 87.3214C202.16 88.6014 203.72 90.3614 204.8 92.6014L221 84.3214V94.2814L206.9 101.301V108.921L221 108.921L221 117.921L179 117.921V100.821ZM199.4 108.921V101.541C199.4 99.4214 198.82 97.7414 197.66 96.5014C196.5 95.2214 194.94 94.5814 192.98 94.5814C190.98 94.5814 189.4 95.2214 188.24 96.5014C187.08 97.7414 186.5 99.4214 186.5 101.541V108.921H199.4Z" fill="#1E1A31"/>
<path opacity="0.5" fill-rule="evenodd" clip-rule="evenodd" d="M81.4239 208.528L68.9404 199.622L147.457 90.5283L159.94 99.4343L81.4239 208.528Z" fill="#1E1A31"/>
<path fill-rule="evenodd" clip-rule="evenodd" d="M121.868 142.349H126.059C145.357 142.349 161 157.941 161 177.175C161 196.408 145.357 212 126.059 212H74.6759C70.4366 212 67 208.575 67 204.349C67 200.124 70.4366 196.699 74.6759 196.699H126.059C136.878 196.699 145.648 187.958 145.648 177.175C145.648 166.392 136.878 157.651 126.059 157.651H106.135H106.132H101.941C82.6434 157.651 67 142.059 67 122.825C67 103.592 82.6434 88 101.941 88H153.324C157.563 88 161 91.4253 161 95.6505C161 99.8758 157.563 103.301 153.324 103.301H101.941C91.1219 103.301 82.3517 112.042 82.3517 122.825C82.3517 133.608 91.1219 142.349 101.941 142.349H121.865C121.866 142.349 121.867 142.349 121.868 142.349Z" fill="#1E1A31"/>
</svg>
