<svg width="300" height="300" viewBox="0 0 300 300" fill="none" xmlns="http://www.w3.org/2000/svg">
<path d="M150 300C232.843 300 300 232.843 300 150C300 67.1573 232.843 0 150 0C67.1573 0 0 67.1573 0 150C0 232.843 67.1573 300 150 300Z" fill="#6E97FF"/>
<path d="M179 205.602V172.362H186.74V184.482H221V193.482H186.74V205.602H179Z" fill="#1E1A31"/>
<path d="M179 150.362C179 147.322 179.58 144.642 180.74 142.322C181.86 139.962 183.48 138.142 185.6 136.862C187.72 135.582 190.18 134.942 192.98 134.942C195.66 134.942 198.04 135.582 200.12 136.862C202.16 138.142 203.72 139.902 204.8 142.142L221 133.862V143.822L206.9 150.842V158.462H221V167.462H179V150.362ZM199.4 158.462V151.082C199.4 148.962 198.82 147.282 197.66 146.042C196.5 144.762 194.94 144.122 192.98 144.122C190.98 144.122 189.4 144.762 188.24 146.042C187.08 147.282 186.5 148.962 186.5 151.082V158.462H199.4Z" fill="#1E1A31"/>
<path d="M199.58 118.044L179 131.124L179 120.204L192.2 111.924L179 103.464V93.6235L199.58 106.704L221 92.9635V103.944L206.9 112.884L221 122.004V131.784L199.58 118.044Z" fill="#1E1A31"/>
<path opacity="0.5" fill-rule="evenodd" clip-rule="evenodd" d="M81.4239 208.528L68.9404 199.622L147.457 90.5283L159.94 99.4343L81.4239 208.528Z" fill="#1E1A31"/>
<path fill-rule="evenodd" clip-rule="evenodd" d="M121.868 142.349H126.059C145.357 142.349 161 157.941 161 177.175C161 196.408 145.357 212 126.059 212H74.6759C70.4366 212 67 208.575 67 204.349C67 200.124 70.4366 196.699 74.6759 196.699H126.059C136.878 196.699 145.648 187.958 145.648 177.175C145.648 166.392 136.878 157.651 126.059 157.651H106.135H106.132H101.941C82.6434 157.651 67 142.059 67 122.825C67 103.592 82.6434 88 101.941 88H153.324C157.563 88 161 91.4253 161 95.6505C161 99.8758 157.563 103.301 153.324 103.301H101.941C91.1219 103.301 82.3517 112.042 82.3517 122.825C82.3517 133.608 91.1219 142.349 101.941 142.349H121.865C121.866 142.349 121.867 142.349 121.868 142.349Z" fill="#1E1A31"/>
</svg>
