<svg width="300" height="300" viewBox="0 0 300 300" fill="none" xmlns="http://www.w3.org/2000/svg">
<path d="M150 300C232.843 300 300 232.843 300 150C300 67.1573 232.843 0 150 0C67.1573 0 0 67.1573 0 150C0 232.843 67.1573 300 150 300Z" fill="#10BA97"/>
<path d="M179 197.641H203.36C206.76 197.641 209.32 196.981 211.04 195.661C212.76 194.341 213.62 192.261 213.62 189.421C213.62 186.581 212.76 184.501 211.04 183.181C209.32 181.821 206.76 181.141 203.36 181.141H179V172.141H202.88C208.88 172.141 213.46 173.621 216.62 176.581C219.78 179.501 221.36 183.781 221.36 189.421C221.36 195.061 219.78 199.341 216.62 202.261C213.46 205.181 208.88 206.641 202.88 206.641H179V197.641Z" fill="#1E1A31"/>
<path d="M207.32 158.127C209.4 157.967 211.08 157.127 212.36 155.607C213.6 154.047 214.22 151.987 214.22 149.427C214.22 147.307 213.78 145.587 212.9 144.267C211.98 142.907 210.72 142.227 209.12 142.227C208 142.227 207.12 142.607 206.48 143.367C205.8 144.087 205.28 145.127 204.92 146.487C204.52 147.807 204.04 149.867 203.48 152.667C202.96 155.427 202.3 157.747 201.5 159.627C200.66 161.507 199.44 163.047 197.84 164.247C196.2 165.407 194.04 165.987 191.36 165.987C188.92 165.987 186.74 165.327 184.82 164.007C182.9 162.647 181.4 160.787 180.32 158.427C179.2 156.027 178.64 153.327 178.64 150.327C178.64 147.247 179.22 144.487 180.38 142.047C181.5 139.567 183.06 137.627 185.06 136.227C187.06 134.787 189.32 134.047 191.84 134.007V142.827C190.04 143.027 188.6 143.787 187.52 145.107C186.4 146.427 185.84 148.167 185.84 150.327C185.84 152.327 186.26 153.927 187.1 155.127C187.94 156.327 189.14 156.927 190.7 156.927C191.82 156.927 192.7 156.567 193.34 155.847C193.94 155.127 194.44 154.107 194.84 152.787C195.2 151.467 195.64 149.427 196.16 146.667C196.68 143.867 197.34 141.507 198.14 139.587C198.9 137.667 200.08 136.127 201.68 134.967C203.24 133.767 205.34 133.167 207.98 133.167C210.54 133.167 212.84 133.867 214.88 135.267C216.88 136.667 218.46 138.627 219.62 141.147C220.78 143.627 221.36 146.427 221.36 149.547C221.36 152.907 220.76 155.907 219.56 158.547C218.32 161.147 216.62 163.187 214.46 164.667C212.3 166.147 209.88 166.907 207.2 166.947L207.32 158.127Z" fill="#1E1A31"/>
<path d="M179 127.767V113.187C179 108.987 179.9 105.287 181.7 102.087C183.46 98.8471 185.94 96.3671 189.14 94.6471C192.3 92.8871 195.92 92.0071 200 92.0071C204.08 92.0071 207.72 92.8871 210.92 94.6471C214.08 96.3671 216.56 98.8471 218.36 102.087C220.12 105.287 221 108.987 221 113.187V127.767L179 127.767ZM213.5 113.187C213.5 109.387 212.28 106.447 209.84 104.367C207.36 102.247 204.08 101.187 200 101.187C195.92 101.187 192.66 102.247 190.22 104.367C187.74 106.447 186.5 109.387 186.5 113.187V118.767H213.5V113.187Z" fill="#1E1A31"/>
<path opacity="0.5" d="M81.4244 208.528L68.9409 199.622L147.457 90.5283L159.941 99.4343L81.4244 208.528Z" fill="#1E1A31"/>
<path fill-rule="evenodd" clip-rule="evenodd" d="M121.868 142.349H126.059C145.357 142.349 161 157.941 161 177.175C161 196.408 145.357 212 126.059 212H74.6759C70.4366 212 67 208.575 67 204.349C67 200.124 70.4366 196.699 74.6759 196.699H126.059C136.878 196.699 145.648 187.958 145.648 177.175C145.648 166.392 136.878 157.651 126.059 157.651H106.135H106.132H101.941C82.6434 157.651 67 142.059 67 122.825C67 103.592 82.6434 88 101.941 88H153.324C157.563 88 161 91.4253 161 95.6505C161 99.8758 157.563 103.301 153.324 103.301H101.941C91.1219 103.301 82.3517 112.042 82.3517 122.825C82.3517 133.608 91.1219 142.349 101.941 142.349H121.865C121.866 142.349 121.867 142.349 121.868 142.349Z" fill="#1E1A31"/>
</svg>
