<svg width="300" height="300" viewBox="0 0 300 300" fill="none" xmlns="http://www.w3.org/2000/svg">
<path d="M150 300C232.843 300 300 232.843 300 150C300 67.1573 232.843 0 150 0C67.1573 0 0 67.1573 0 150C0 232.843 67.1573 300 150 300Z" fill="#6E97FF"/>
<path d="M199.58 201.159L179 214.239V203.319L192.2 195.039L179 186.579V176.739L199.58 189.819L221 176.079V187.059L206.9 195.999L221 205.119V214.899L199.58 201.159Z" fill="#1E1A31"/>
<path d="M179 171.593V159.773L209.84 148.133L179 136.853V125.273L221 125.273V133.853H192.86L221 144.773V152.093L192.86 163.013H221V171.593H179Z" fill="#1E1A31"/>
<path d="M179 100.997C179 97.9574 179.58 95.2774 180.74 92.9574C181.86 90.5974 183.48 88.7774 185.6 87.4974C187.72 86.2174 190.18 85.5773 192.98 85.5773C195.66 85.5773 198.04 86.2174 200.12 87.4974C202.16 88.7774 203.72 90.5374 204.8 92.7774L221 84.4974V94.4574L206.9 101.477V109.097L221 109.097V118.097L179 118.097V100.997ZM199.4 109.097V101.717C199.4 99.5974 198.82 97.9174 197.66 96.6774C196.5 95.3974 194.94 94.7574 192.98 94.7574C190.98 94.7574 189.4 95.3974 188.24 96.6774C187.08 97.9174 186.5 99.5974 186.5 101.717V109.097H199.4Z" fill="#1E1A31"/>
<path opacity="0.5" fill-rule="evenodd" clip-rule="evenodd" d="M81.4239 208.528L68.9404 199.622L147.457 90.5283L159.94 99.4343L81.4239 208.528Z" fill="#1E1A31"/>
<path fill-rule="evenodd" clip-rule="evenodd" d="M121.868 142.349H126.059C145.357 142.349 161 157.941 161 177.175C161 196.408 145.357 212 126.059 212H74.6759C70.4366 212 67 208.575 67 204.349C67 200.124 70.4366 196.699 74.6759 196.699H126.059C136.878 196.699 145.648 187.958 145.648 177.175C145.648 166.392 136.878 157.651 126.059 157.651H106.135H106.132H101.941C82.6434 157.651 67 142.059 67 122.825C67 103.592 82.6434 88 101.941 88H153.324C157.563 88 161 91.4253 161 95.6505C161 99.8758 157.563 103.301 153.324 103.301H101.941C91.1219 103.301 82.3517 112.042 82.3517 122.825C82.3517 133.608 91.1219 142.349 101.941 142.349H121.865C121.866 142.349 121.867 142.349 121.868 142.349Z" fill="#1E1A31"/>
</svg>
