<svg width="300" height="300" viewBox="0 0 300 300" fill="none" xmlns="http://www.w3.org/2000/svg">
<path d="M150 300C232.843 300 300 232.843 300 150C300 67.1573 232.843 0 150 0C67.1573 0 0 67.1573 0 150C0 232.843 67.1573 300 150 300Z" fill="#6E97FF"/>
<path d="M199.58 193.073L179 206.153V195.233L192.2 186.953L179 178.493V168.653L199.58 181.733L221 167.993V178.973L206.9 187.913L221 197.033V206.813L199.58 193.073Z" fill="#1E1A31"/>
<path d="M179 146.408C179 143.368 179.58 140.688 180.74 138.368C181.86 136.008 183.48 134.188 185.6 132.908C187.72 131.628 190.18 130.988 192.98 130.988C195.66 130.988 198.04 131.628 200.12 132.908C202.16 134.188 203.72 135.948 204.8 138.188L221 129.908V139.868L206.9 146.888V154.508H221V163.508H179V146.408ZM199.4 154.508V147.128C199.4 145.008 198.82 143.328 197.66 142.088C196.5 140.808 194.94 140.168 192.98 140.168C190.98 140.168 189.4 140.808 188.24 142.088C187.08 143.328 186.5 145.008 186.5 147.128V154.508H199.4Z" fill="#1E1A31"/>
<path d="M179 107.911C179 104.911 179.58 102.271 180.74 99.9914C181.86 97.6714 183.48 95.8914 185.6 94.6514C187.72 93.3714 190.18 92.7314 192.98 92.7314C195.78 92.7314 198.24 93.3714 200.36 94.6514C202.44 95.8914 204.06 97.6714 205.22 99.9914C206.34 102.271 206.9 104.911 206.9 107.911V116.011L221 116.011V125.011L179 125.011V107.911ZM199.4 116.011V108.751C199.4 106.631 198.82 104.951 197.66 103.711C196.5 102.471 194.94 101.851 192.98 101.851C190.98 101.851 189.4 102.471 188.24 103.711C187.08 104.951 186.5 106.631 186.5 108.751V116.011H199.4Z" fill="#1E1A31"/>
<path opacity="0.5" fill-rule="evenodd" clip-rule="evenodd" d="M81.4239 208.528L68.9404 199.622L147.457 90.5283L159.94 99.4343L81.4239 208.528Z" fill="#1E1A31"/>
<path fill-rule="evenodd" clip-rule="evenodd" d="M121.868 142.349H126.059C145.357 142.349 161 157.941 161 177.175C161 196.408 145.357 212 126.059 212H74.6759C70.4366 212 67 208.575 67 204.349C67 200.124 70.4366 196.699 74.6759 196.699H126.059C136.878 196.699 145.648 187.958 145.648 177.175C145.648 166.392 136.878 157.651 126.059 157.651H106.135H106.132H101.941C82.6434 157.651 67 142.059 67 122.825C67 103.592 82.6434 88 101.941 88H153.324C157.563 88 161 91.4253 161 95.6505C161 99.8758 157.563 103.301 153.324 103.301H101.941C91.1219 103.301 82.3517 112.042 82.3517 122.825C82.3517 133.608 91.1219 142.349 101.941 142.349H121.865C121.866 142.349 121.867 142.349 121.868 142.349Z" fill="#1E1A31"/>
</svg>
