<svg width="19" height="24" viewBox="0 0 19 24" fill="none" xmlns="http://www.w3.org/2000/svg">
<path opacity="0.5" d="M3.1994 22.9252L0.869141 21.2628L15.5256 0.89856L17.8558 2.56102L3.1994 22.9252Z" fill="#1E1A31"/>
<path fill-rule="evenodd" clip-rule="evenodd" d="M10.7489 10.5719H11.5313C15.1334 10.5719 18.0535 13.4823 18.0535 17.0726C18.0535 20.6628 15.1334 23.5733 11.5313 23.5733H1.93966C1.14833 23.5733 0.506836 22.9339 0.506836 22.1452C0.506836 21.3565 1.14833 20.7171 1.93966 20.7171H11.5313C13.5507 20.7171 15.1879 19.0854 15.1879 17.0726C15.1879 15.0598 13.5507 13.4281 11.5313 13.4281H7.81207H7.81146H7.02908C3.42694 13.4281 0.506836 10.5176 0.506836 6.92735C0.506836 3.3371 3.42694 0.426636 7.02908 0.426636H16.6207C17.412 0.426636 18.0535 1.06602 18.0535 1.85473C18.0535 2.64345 17.412 3.28283 16.6207 3.28283H7.02908C5.0096 3.28283 3.37249 4.91454 3.37249 6.92735C3.37249 8.94016 5.0096 10.5719 7.02908 10.5719H10.7483C10.7485 10.5719 10.7487 10.5719 10.7489 10.5719Z" fill="#1E1A31"/>
</svg>
