<svg xmlns="http://www.w3.org/2000/svg" width="126" height="117">
    <g fill="none" fill-rule="nonzero" stroke-linecap="round" stroke-linejoin="round">
        <path fill="#E2761B" stroke="#E2761B" d="M119.02.721L70.4 36.833l8.99-21.306z"/>
        <g fill="#E4761B" stroke="#E4761B">
            <path d="M6.776.721l48.23 36.454-8.55-21.648zM101.527 84.428l-12.95 19.839 27.707 7.623 7.965-27.023zM1.646 84.867l7.916 27.023 27.707-7.623-12.95-19.84z"/>
            <path d="M35.705 50.906l-7.72 11.679 27.51 1.221-.977-29.563zM90.092 50.906L71.035 33.9l-.636 29.905 27.463-1.221zM37.269 104.267l16.516-8.063-14.269-11.141zM72.012 96.204l16.565 8.063-2.296-19.204z"/>
        </g>
        <g fill="#D7C1B3" stroke="#D7C1B3">
            <path d="M88.577 104.267l-16.565-8.063 1.32 10.8-.147 4.544zM37.269 104.267l15.392 7.281-.098-4.545 1.222-10.799z"/>
        </g>
        <path fill="#233447" stroke="#233447" d="M52.905 77.929l-13.78-4.056 9.725-4.447zM72.891 77.929l4.056-8.503 9.773 4.447z"/>
        <g fill="#CD6116" stroke="#CD6116">
            <path d="M37.269 104.267l2.345-19.84-15.295.44zM86.232 84.428l2.345 19.839 12.95-19.4zM97.862 62.585l-27.463 1.221L72.94 77.93l4.056-8.503 9.773 4.447zM39.125 73.873l9.774-4.447 4.006 8.503 2.59-14.123-27.51-1.221z"/>
        </g>
        <g fill="#E4751F" stroke="#E4751F">
            <path d="M27.984 62.585l11.532 22.478-.39-11.19zM86.77 73.873l-.49 11.19 11.582-22.478zM55.495 63.806l-2.59 14.123 3.226 16.663.733-21.94zM70.4 63.806l-1.32 8.796.586 21.99 3.274-16.663z"/>
        </g>
        <path fill="#F6851B" stroke="#F6851B" d="M72.94 77.929l-3.274 16.663 2.346 1.612L86.28 85.063l.488-11.19zM39.125 73.873l.391 11.19 14.27 11.141 2.345-1.612-3.226-16.663z"/>
        <path fill="#C0AD9E" stroke="#C0AD9E" d="M73.185 111.548l.146-4.545-1.221-1.075H53.687l-1.124 1.075.098 4.545-15.392-7.281 5.375 4.398 10.897 7.574h18.715l10.946-7.574 5.375-4.398z"/>
        <path fill="#161616" stroke="#161616" d="M72.012 96.204l-2.346-1.612H56.131l-2.346 1.612-1.222 10.8 1.124-1.076H72.11l1.221 1.075z"/>
        <g fill="#763D16" stroke="#763D16">
            <path d="M121.073 39.178l4.153-19.937L119.02.721l-47.008 34.89 18.08 15.295 25.557 7.476 5.668-6.596-2.443-1.76 3.91-3.567-3.03-2.345 3.909-2.981zM.62 19.241l4.153 19.937-2.639 1.955 3.91 2.98-2.981 2.346 3.909 3.567-2.443 1.76 5.62 6.596 25.556-7.476 18.08-15.295L6.776.721z"/>
        </g>
        <path fill="#F6851B" stroke="#F6851B" d="M115.649 58.382l-25.557-7.476 7.77 11.679L86.28 85.063l15.246-.196h22.722zM35.705 50.906l-25.557 7.476-8.502 26.485h22.673l15.197.196-11.532-22.478zM70.4 63.806l1.612-28.195 7.427-20.084H46.455l7.33 20.084 1.71 28.195.587 8.894.049 21.892h13.535l.098-21.892z"/>
    </g>
</svg>
