<svg xmlns="http://www.w3.org/2000/svg" width="73" height="68">
    <g fill="none" fill-rule="nonzero" stroke-linecap="round" stroke-linejoin="round">
        <path fill="#E2761B" stroke="#E2761B" d="M68.908.696L41.046 21.389 46.198 9.18z"/>
        <g fill="#E4761B" stroke="#E4761B">
            <path d="M4.588.696l27.638 20.889-4.9-12.405zM58.883 48.663l-7.42 11.368L67.34 64.4l4.564-15.485zM1.648 48.915L6.184 64.4 22.06 60.03l-7.42-11.368z"/>
            <path d="M21.165 29.453l-4.424 6.693 15.765.7-.56-16.941zM52.33 29.453L41.41 19.71l-.364 17.137 15.737-.7zM22.06 60.031l9.465-4.62-8.176-6.384zM41.97 55.411l9.493 4.62-1.316-11.004z"/>
        </g>
        <g fill="#D7C1B3" stroke="#D7C1B3">
            <path d="M51.463 60.031l-9.493-4.62.756 6.188-.084 2.605zM22.06 60.031l8.821 4.173-.056-2.605.7-6.188z"/>
        </g>
        <path fill="#233447" stroke="#233447" d="M31.021 44.938l-7.896-2.324 5.572-2.548zM42.474 44.938l2.324-4.872 5.6 2.548z"/>
        <g fill="#CD6116" stroke="#CD6116">
            <path d="M22.06 60.031l1.345-11.368-8.765.252zM50.119 48.663l1.344 11.368 7.42-11.116zM56.783 36.146l-15.737.7 1.456 8.092 2.324-4.872 5.6 2.548zM23.125 42.614l5.6-2.548 2.296 4.872 1.485-8.092-15.765-.7z"/>
        </g>
        <g fill="#E4751F" stroke="#E4751F">
            <path d="M16.74 36.146l6.609 12.88-.224-6.412zM50.427 42.614l-.28 6.413 6.636-12.881zM32.506 36.846l-1.485 8.092 1.849 9.549.42-12.573zM41.046 36.846l-.756 5.04.336 12.6 1.876-9.548z"/>
        </g>
        <path fill="#F6851B" stroke="#F6851B" d="M42.502 44.938l-1.876 9.549 1.344.924 8.177-6.384.28-6.413zM23.125 42.614l.224 6.413 8.176 6.384 1.345-.924-1.849-9.549z"/>
        <path fill="#C0AD9E" stroke="#C0AD9E" d="M42.642 64.204l.084-2.605-.7-.616H31.47l-.644.616.056 2.605-8.82-4.173 3.08 2.52 6.244 4.34H42.11l6.273-4.34 3.08-2.52z"/>
        <path fill="#161616" stroke="#161616" d="M41.97 55.411l-1.344-.924H32.87l-1.345.924-.7 6.188.644-.616h10.557l.7.616z"/>
        <g fill="#763D16" stroke="#763D16">
            <path d="M70.084 22.733l2.38-11.425L68.908.696 41.97 20.689l10.36 8.764 14.646 4.285 3.248-3.78-1.4-1.009 2.24-2.044-1.736-1.344 2.24-1.708zM1.06 11.308l2.38 11.425-1.512 1.12 2.24 1.708-1.708 1.344L4.7 28.95l-1.4 1.008 3.22 3.78 14.645-4.284 10.36-8.764L4.588.696z"/>
        </g>
        <path fill="#F6851B" stroke="#F6851B" d="M66.976 33.738L52.33 29.453l4.452 6.693-6.636 12.88 8.736-.111h13.02zM21.165 29.453L6.52 33.738 1.648 48.915H14.64l8.709.112-6.608-12.881zM41.046 36.846l.924-16.157L46.226 9.18h-18.9l4.2 11.509.98 16.157.336 5.096.028 12.545h7.756l.056-12.545z"/>
    </g>
</svg>
