<svg xmlns="http://www.w3.org/2000/svg" width="35" height="33">
    <g fill="none" fill-rule="nonzero" stroke-linecap="round" stroke-linejoin="round">
        <path fill="#E2761B" stroke="#E2761B" d="M32.51 1.068l-12.964 9.63 2.397-5.682z"/>
        <g fill="#E4761B" stroke="#E4761B">
            <path d="M2.582 1.068l12.86 9.72-2.28-5.772zM27.846 23.388l-3.453 5.29 7.388 2.032 2.123-7.205zM1.213 23.505l2.111 7.205 7.388-2.032-3.453-5.29z"/>
            <path d="M10.295 14.45l-2.059 3.114 7.336.325-.26-7.882zM24.797 14.45l-5.082-4.535-.17 7.974 7.323-.325zM10.712 28.678l4.404-2.15-3.805-2.97zM19.976 26.528l4.417 2.15-.613-5.12z"/>
        </g>
        <g fill="#D7C1B3" stroke="#D7C1B3">
            <path d="M24.393 28.678l-4.417-2.15.352 2.88-.04 1.211zM10.712 28.678l4.104 1.941-.026-1.212.326-2.88z"/>
        </g>
        <path fill="#233447" stroke="#233447" d="M14.881 21.655l-3.674-1.082 2.593-1.185zM20.21 21.655l1.082-2.267 2.606 1.185z"/>
        <g fill="#CD6116" stroke="#CD6116">
            <path d="M10.712 28.678l.625-5.29-4.078.117zM23.767 23.388l.626 5.29 3.453-5.173zM26.868 17.564l-7.322.325.677 3.766 1.082-2.267 2.606 1.185zM11.207 20.573l2.606-1.185 1.068 2.267.69-3.766-7.335-.325z"/>
        </g>
        <g fill="#E4751F" stroke="#E4751F">
            <path d="M8.236 17.564l3.075 5.993-.104-2.984zM23.91 20.573l-.13 2.984 3.088-5.993zM15.572 17.89l-.69 3.765.86 4.443.195-5.85zM19.546 17.89l-.352 2.345.156 5.863.873-4.443z"/>
        </g>
        <path fill="#F6851B" stroke="#F6851B" d="M20.223 21.655l-.873 4.443.626.43 3.804-2.97.13-2.985zM11.207 20.573l.104 2.984 3.805 2.97.625-.429-.86-4.443z"/>
        <path fill="#C0AD9E" stroke="#C0AD9E" d="M20.289 30.62l.039-1.213-.326-.286H15.09l-.3.286.026 1.212-4.104-1.941 1.433 1.172 2.906 2.02h4.99l2.919-2.02 1.433-1.172z"/>
        <path fill="#161616" stroke="#161616" d="M19.976 26.528l-.626-.43h-3.609l-.625.43-.326 2.88.3-.287h4.912l.326.286z"/>
        <g fill="#763D16" stroke="#763D16">
            <path d="M33.057 11.323l1.108-5.316-1.655-4.939-12.534 9.303 4.82 4.079 6.815 1.993 1.512-1.759-.652-.469 1.042-.951-.807-.625 1.042-.795zM.94 6.007l1.107 5.316-.703.52 1.042.796-.795.625 1.043.951-.652.47 1.499 1.758 6.814-1.993 4.82-4.079L2.583 1.068z"/>
        </g>
        <path fill="#F6851B" stroke="#F6851B" d="M31.611 16.443l-6.814-1.993 2.071 3.114-3.088 5.993 4.066-.052h6.058zM10.295 14.45l-6.814 1.993-2.268 7.062H7.26l4.052.052-3.075-5.993zM19.546 17.89l.43-7.519 1.98-5.355h-8.795l1.955 5.355.456 7.518.156 2.372.013 5.837h3.61l.025-5.837z"/>
    </g>
</svg>
