<svg xmlns="http://www.w3.org/2000/svg" width="36" height="51">
    <path fill="#53B167" fill-rule="nonzero" d="M18.057.968C11.217.968 5.68 6.504 5.68 13.344v4.639C3.278 18.418.87 18.998.87 19.75v24.208s0 .67.752.987c2.727 1.105 13.454 4.901 15.918 5.77.318.118.407.118.49.118.117 0 .173 0 .49-.117 2.465-.87 13.219-4.666 15.946-5.77.697-.29.724-.96.724-.96V19.75c0-.752-2.374-1.36-4.783-1.767v-4.639C30.44 6.504 24.87.968 18.056.968zm0 5.915c4.031 0 6.468 2.437 6.468 6.468v4.031c-4.522-.317-8.38-.317-12.93 0v-4.03c0-4.039 2.437-6.469 6.462-6.469zm-.028 16.436c5.626 0 10.347.435 10.347 1.215v15.103c0 .235-.027.262-.234.345-.2.09-9.595 3.48-9.595 3.48s-.38.116-.49.116c-.118 0-.49-.145-.49-.145s-9.395-3.389-9.595-3.479c-.2-.09-.235-.117-.235-.345V24.506c-.055-.78 4.666-1.187 10.292-1.187z"/>
</svg>
