<svg xmlns="http://www.w3.org/2000/svg" width="120" height="238">
    <g fill="none" fill-rule="evenodd" transform="translate(.5 .98)">
        <path fill="#030319" stroke="#25244B" d="M59.522.225c51.619 0 59.061 4.98 59.061 30.463v125.177c0 29.258-23.62 65.775-30.669 73.958-7.048 8.184-51.285 7.668-57.377 0C24.444 222.156.25 189.107.25 152.005c0-37.101.3-109.866.3-127.182C.55 7.506 7.903.225 59.52.225z"/>
        <path fill="#070624" stroke="#33335E" d="M13.367 118.4a5.8 5.8 0 0 0-5.8 5.8v9.763a5.8 5.8 0 0 0 5.8 5.8h36.76a5.8 5.8 0 0 0 5.8-5.8V124.2a5.8 5.8 0 0 0-5.8-5.8h-36.76zM66.922 118.4a5.8 5.8 0 0 0-5.8 5.8v9.763a5.8 5.8 0 0 0 5.8 5.8h36.76a5.8 5.8 0 0 0 5.8-5.8V124.2a5.8 5.8 0 0 0-5.8-5.8h-36.76z" opacity=".585"/>
        <rect width="103.7" height="57.8" x="7.567" y="52.1" fill="#25244B" stroke="#55548F" opacity=".585" rx="10.5"/>
    </g>
</svg>
