<svg xmlns="http://www.w3.org/2000/svg" width="21" height="30">
    <path fill="#53B167" fill-rule="nonzero" d="M10.534.3a7.221 7.221 0 0 0-7.225 7.224v2.708C1.906 10.486.5 10.824.5 11.264v14.131s0 .391.44.577c1.59.644 7.853 2.86 9.291 3.368.186.069.238.069.286.069.069 0 .101 0 .287-.069 1.438-.507 7.716-2.724 9.308-3.368.407-.17.423-.56.423-.56V11.263c0-.44-1.386-.794-2.793-1.032V7.524C17.762 3.531 14.511.3 10.534.3zm0 3.453c2.353 0 3.775 1.422 3.775 3.775v2.354a51.287 51.287 0 0 0-7.547 0V7.528c0-2.357 1.422-3.775 3.772-3.775zm-.017 9.594c3.285 0 6.04.254 6.04.71v8.816c0 .137-.015.153-.136.201-.117.053-5.601 2.031-5.601 2.031s-.222.069-.286.069c-.069 0-.287-.085-.287-.085s-5.484-1.978-5.6-2.03c-.117-.053-.138-.07-.138-.202V14.04c-.032-.455 2.724-.693 6.008-.693z"/>
</svg>
