<svg width="91" height="24" viewBox="0 0 91 24" fill="none" xmlns="http://www.w3.org/2000/svg"><path fill-rule="evenodd" clip-rule="evenodd" d="M18.8189 0.173889L15.2141 6.37V10.6087H13.879V6.37L10.2742 0.173889H11.7576L14.591 5.16316L17.4096 0.173889H18.8189ZM28.2705 10.6087H26.6535L22.4405 2.21964V10.6087H21.1499V0.173889H22.7965L26.9947 8.60708V0.173889H28.2705V10.6087ZM39.6049 1.39545H36.0446V10.6087H34.6946V1.39545H31.1195V0.173889H39.6049V1.39545ZM49.7769 10.6087H48.4269V5.79601H43.9617V10.6087H42.6266V0.173889H43.9617V4.5303H48.4269V0.173889H49.7769V10.6087ZM60.1877 10.6087H53.2303V0.173889H60.1877V1.38073H54.5505V4.55974H58.8081V5.79601H54.5505V9.40183H60.1877V10.6087ZM71.2631 1.39545H67.7028V10.6087H66.3528V1.39545H62.7777V0.173889H71.2631V1.39545ZM79.8463 10.6087H73.8531V9.51957H76.1821V1.24827H73.8531V0.173889H79.8463V1.24827H77.5172V9.51957H79.8463V10.6087ZM91 10.6087H89.5017L86.8611 6.37L84.2503 10.6087H82.7816L86.1194 5.33977L82.7816 0.173889H84.2948L86.9205 4.25067L89.5165 0.173889H90.9851L87.6622 5.33977L91 10.6087Z" fill="#1E1A31"/><path opacity="0.5" d="M1.24534 10.4807L0.167542 9.70628L6.94648 0.219849L8.02428 0.994286L1.24534 10.4807Z" fill="#4A4A4A"/><path fill-rule="evenodd" clip-rule="evenodd" d="M4.73719 4.72604H5.09906C6.76513 4.72604 8.11575 6.08185 8.11575 7.75433C8.11575 9.4268 6.76513 10.7826 5.09906 10.7826H0.662716C0.296708 10.7826 0 10.4848 0 10.1173C0 9.74993 0.296708 9.45208 0.662716 9.45208H5.09906C6.03311 9.45208 6.79032 8.69197 6.79032 7.75433C6.79032 6.81668 6.03311 6.05657 5.09906 6.05657H3.37884H3.37856H3.01669C1.35062 6.05657 0 4.70076 0 3.02828C0 1.35581 1.35062 0 3.01669 0H7.45303C7.81904 0 8.11575 0.297848 8.11575 0.665262C8.11575 1.03268 7.81904 1.33052 7.45303 1.33052H3.01669C2.08264 1.33052 1.32543 2.09064 1.32543 3.02828C1.32543 3.96593 2.08264 4.72604 3.01669 4.72604H4.73691C4.737 4.72604 4.73709 4.72604 4.73719 4.72604Z" fill="#1E1A31"/><path fill-rule="evenodd" clip-rule="evenodd" d="M0.518005 13.5652H7.3093V14.7578H1.84276V18.0969H6.39567V19.2895H1.84276V22.8075H7.50725V24H0.518005V13.5652ZM21.4981 18.7826C21.4981 17.7567 21.7013 16.8481 22.1078 16.0567C22.5143 15.2653 23.0943 14.6522 23.8478 14.2174C24.6013 13.7826 25.4737 13.5652 26.4652 13.5652C27.6153 13.5652 28.5794 13.873 29.3577 14.4885C30.136 15.1041 30.6243 15.9443 30.8226 17.0093H29.5287C29.3404 16.2961 28.9711 15.7392 28.4208 15.3386C27.8705 14.938 27.1989 14.7377 26.4057 14.7377C25.6919 14.7377 25.0623 14.9087 24.517 15.2506C23.9717 15.5926 23.5528 16.0689 23.2604 16.6796C22.9679 17.2902 22.8217 17.9912 22.8217 18.7826C22.8217 19.5643 22.9679 20.2628 23.2604 20.8784C23.5528 21.4939 23.9717 21.9727 24.517 22.3146C25.0623 22.6566 25.6919 22.8276 26.4057 22.8276C27.2088 22.8276 27.878 22.6297 28.4134 22.234C28.9487 21.8383 29.3156 21.279 29.5139 20.556H30.8077C30.6094 21.6209 30.1261 22.4612 29.3577 23.0767C28.5893 23.6923 27.6252 24 26.4652 24C25.4737 24 24.6013 23.7826 23.8478 23.3479C23.0943 22.9131 22.5143 22.3024 22.1078 21.5159C21.7013 20.7294 21.4981 19.8183 21.4981 18.7826ZM34.5351 13.5652H35.8157V18.1053H41.1444V13.5652H42.425V24H41.1444V19.2962H35.8157V24H34.5351V13.5652ZM45.9317 24L49.8462 13.5652H51.3563L55.2561 24H53.8927L52.8077 21.1826H48.3361L47.2512 24H45.9317ZM48.6945 20H52.5156L50.5975 15.1305L48.6945 20ZM59.055 24V13.5652H60.2217L65.7053 21.6149V13.5652H66.945V24H65.7782L60.2946 15.9503V24H59.055ZM70.4516 18.7826C70.4516 17.7567 70.6516 16.8481 71.0518 16.0567C71.4519 15.2653 72.0227 14.6522 72.7644 14.2174C73.5061 13.7826 74.3648 13.5652 75.3407 13.5652C76.4727 13.5652 77.4218 13.873 78.1878 14.4885C78.9539 15.1041 79.4345 15.9394 79.6297 16.9947H78.3708C78.1756 16.2814 77.8097 15.7269 77.273 15.3312C76.7362 14.9355 76.0824 14.7377 75.3114 14.7377C74.6088 14.7377 73.9867 14.9087 73.4451 15.2506C72.9035 15.5926 72.4863 16.0714 72.1935 16.6869C71.9008 17.3024 71.7544 18.001 71.7544 18.7826C71.7544 19.5643 71.9008 20.2628 72.1935 20.8784C72.4863 21.4939 72.901 21.9727 73.4378 22.3146C73.9745 22.6566 74.5893 22.8276 75.2822 22.8276C75.9067 22.8276 76.4654 22.7079 76.9582 22.4685C77.451 22.2291 77.8365 21.8872 78.1146 21.4426C78.3928 20.9981 78.5318 20.4778 78.5318 19.8818V19.5301H75.4578V18.3576H79.7761V23.9121H78.7221L78.5904 22.2853C78.3074 22.7445 77.8829 23.1451 77.3169 23.4871C76.7509 23.829 76.0677 24 75.2675 24C74.3307 24 73.4963 23.7802 72.7644 23.3405C72.0325 22.9009 71.4641 22.2878 71.0591 21.5013C70.6541 20.7147 70.4516 19.8085 70.4516 18.7826ZM90.6829 13.5652V14.7578H85.2394V18.0969H89.7731V19.2895H85.2394V22.8075H90.88V24H83.9203V13.5652H90.6829ZM12.3917 13.5652L15.0174 17.642L17.6134 13.5652H19.082L15.7591 18.7311L19.0969 24H17.5986L14.958 19.7614L12.3472 24H10.8785L14.2163 18.7311L10.8785 13.5652H12.3917Z" fill="#1E1A31"/></svg>
