<svg width="133" height="71" viewBox="0 0 133 71" fill="none" xmlns="http://www.w3.org/2000/svg">
<circle cx="27" cy="38" r="24" transform="rotate(-180 27 38)" fill="#D1D1E8"/>
<circle cx="24" cy="36" r="23.5" transform="rotate(-180 24 36)" stroke="#9492C4"/>
<circle r="24" transform="matrix(1 0 0 -1 106 33)" fill="#6E97FF"/>
<circle cx="109" cy="31" r="23.5" stroke="#2959D5"/>
<path d="M79.8449 63.7127L80.06 64.164L80.06 64.164L79.8449 63.7127ZM84.5086 61.0976C84.7689 61.1899 84.9051 61.4756 84.8129 61.7359L83.3099 65.9775C83.2177 66.2378 82.9319 66.374 82.6717 66.2818C82.4114 66.1896 82.2751 65.9038 82.3674 65.6435L83.7033 61.8732L79.933 60.5372C79.6728 60.445 79.5365 60.1592 79.6287 59.899C79.721 59.6387 80.0067 59.5024 80.267 59.5947L84.5086 61.0976ZM79.6297 63.2613L84.1265 61.1176L84.5568 62.0202L80.06 64.164L79.6297 63.2613ZM51.6143 61.4593C60.008 66.8789 70.6109 67.5609 79.6297 63.2613L80.06 64.164C70.728 68.6129 59.757 67.9072 51.0719 62.2994L51.6143 61.4593Z" fill="#5641F2"/>
<path d="M54.0505 9.20105L53.8092 8.76309L53.8092 8.76309L54.0505 9.20105ZM49.5479 12.0848C49.2826 12.008 49.1299 11.7307 49.2067 11.4654L50.4587 7.14308C50.5355 6.87784 50.8128 6.7251 51.078 6.80192C51.3433 6.87875 51.496 7.15604 51.4192 7.42129L50.3064 11.2634L54.1484 12.3762C54.4137 12.453 54.5664 12.7303 54.4896 12.9956C54.4128 13.2608 54.1355 13.4135 53.8702 13.3367L49.5479 12.0848ZM54.2917 9.63901L49.9282 12.0425L49.4458 11.1666L53.8092 8.76309L54.2917 9.63901ZM82.3645 9.79697C73.6678 4.87831 63.0432 4.81853 54.2917 9.63901L53.8092 8.76309C62.8646 3.77523 73.8582 3.8371 82.8568 8.92654L82.3645 9.79697Z" fill="#5641F2"/>
</svg>
