<svg width="133" height="64" viewBox="0 0 133 64" fill="none" xmlns="http://www.w3.org/2000/svg">
<circle cx="24" cy="38" r="24" fill="#D1D1E8"/>
<circle cx="27" cy="40" r="23.5" stroke="#9492C4"/>
<circle r="24" transform="matrix(1 0 0 -1 106 35)" fill="#6E97FF"/>
<circle r="23.5" transform="matrix(1 0 0 -1 109 33)" stroke="#2959D4"/>
<path d="M76.6352 7.94785L76.8098 7.47932L76.8098 7.47932L76.6352 7.94785ZM81.5112 10.1419C81.7623 10.0271 81.8729 9.73044 81.7581 9.47929L79.8873 5.38659C79.7725 5.13544 79.4758 5.02491 79.2247 5.13971C78.9735 5.25451 78.863 5.55117 78.9778 5.80232L80.6407 9.44028L77.0028 11.1032C76.7516 11.218 76.6411 11.5146 76.7559 11.7658C76.8707 12.0169 77.1673 12.1275 77.4185 12.0127L81.5112 10.1419ZM76.4606 8.41639L81.1287 10.1557L81.4779 9.21862L76.8098 7.47932L76.4606 8.41639ZM48.7129 12.6793C56.5965 6.54138 67.0981 4.928 76.4606 8.41639L76.8098 7.47932C67.1221 3.8698 56.2559 5.53921 48.0986 11.8903L48.7129 12.6793Z" fill="#5641F2"/>
</svg>
