<svg width="133" height="66" viewBox="0 0 133 66" fill="none" xmlns="http://www.w3.org/2000/svg">
<circle r="24" transform="matrix(1 0 0 -1 24 26)" fill="#D1D1E8"/>
<circle r="23.5" transform="matrix(1 0 0 -1 27 24)" stroke="#9492C4"/>
<circle cx="106" cy="29" r="24" fill="#10BA97"/>
<circle cx="109" cy="31" r="23.5" stroke="#068066"/>
<path d="M75.268 57.9374L75.4296 58.4105L75.4296 58.4105L75.268 57.9374ZM80.2023 55.8778C80.4502 55.9994 80.5525 56.299 80.4309 56.5469L78.4486 60.5868C78.327 60.8347 78.0274 60.9371 77.7795 60.8155C77.5316 60.6938 77.4293 60.3942 77.5509 60.1463L79.3129 56.5553L75.7219 54.7933C75.474 54.6717 75.3716 54.3721 75.4932 54.1242C75.6149 53.8763 75.9145 53.7739 76.1624 53.8956L80.2023 55.8778ZM75.1063 57.4642L79.8203 55.8535L80.1437 56.7998L75.4296 58.4105L75.1063 57.4642ZM47.4858 52.4423C55.1982 58.7941 65.6517 60.6947 75.1063 57.4642L75.4296 58.4105C65.6467 61.7532 54.8303 59.7865 46.8501 53.2143L47.4858 52.4423Z" fill="#5641F2"/>
</svg>
