<?xml version="1.0" encoding="UTF-8"?>
<svg width="207px" height="73px" viewBox="0 0 207 73" version="1.1" xmlns="http://www.w3.org/2000/svg" xmlns:xlink="http://www.w3.org/1999/xlink">
    <g id="Page-1" stroke="none" stroke-width="1" fill="none" fill-rule="evenodd">
        <g id="Home-Page-(new-footer)" transform="translate(-128.000000, -4042.000000)" fill-rule="nonzero">
            <g id="DeFi-Network-logo" transform="translate(128.000000, 4042.000000)">
                <g>
                    <rect id="Rectangle" fill="#FFFFFF" x="0" y="0" width="207" height="73" rx="12"></rect>
                    <path d="M61.04,63 L61.04,39.2 L65.664,39.2 L75.762,54.194 L75.762,39.2 L80.794,39.2 L80.794,63 L76.136,63 L66.038,48.006 L66.038,63 L61.04,63 Z M83.786,54.296 C83.786,52.4826576 84.1543296,50.9016734 84.891,49.553 C85.6276704,48.2043266 86.6589934,47.1616704 87.985,46.425 C89.3110066,45.6883297 90.8466579,45.32 92.592,45.32 C94.3600088,45.32 95.9183266,45.6656632 97.267,46.357 C98.6156734,47.0483368 99.6696629,48.0229937 100.429,49.281 C101.188337,50.5390063 101.579333,52.0179915 101.602,53.718 C101.602,54.3300031 101.556667,54.8739976 101.466,55.35 L88.784,55.35 L88.784,55.486 C88.8973339,56.7553397 89.3053298,57.752663 90.008,58.478 C90.7106702,59.203337 91.6739939,59.566 92.898,59.566 C93.8726715,59.566 94.6829968,59.3563354 95.329,58.937 C95.9750032,58.5176646 96.399999,57.9000041 96.604,57.084 L101.33,57.084 C101.148666,58.2400058 100.70667,59.282662 100.004,60.212 C99.3013298,61.141338 98.3720058,61.8723307 97.216,62.405 C96.0599942,62.9376693 94.7340075,63.204 93.238,63.204 C91.2886569,63.204 89.6056737,62.841337 88.189,62.116 C86.7723262,61.390663 85.6843371,60.3536734 84.925,59.005 C84.1656629,57.6563266 83.786,56.0866756 83.786,54.296 Z M96.808,52.222 C96.6493325,51.1566613 96.2130036,50.3350029 95.499,49.757 C94.7849964,49.1789971 93.8840054,48.89 92.796,48.89 C91.7533281,48.89 90.8750036,49.1903303 90.161,49.791 C89.4469964,50.3916697 89.0220007,51.2019949 88.886,52.222 L96.808,52.222 Z M105.342,49.57 L102.452,49.57 L102.452,45.524 L105.342,45.524 L105.342,40.628 L110.136,40.628 L110.136,45.524 L114.114,45.524 L114.114,49.57 L110.136,49.57 L110.136,57.22 C110.136,57.8320031 110.266332,58.2739986 110.527,58.546 C110.787668,58.8180014 111.223997,58.954 111.836,58.954 L114.318,58.954 L114.318,63 L110.34,63 C107.007983,63 105.342,61.3340167 105.342,58.002 L105.342,49.57 Z M114.658,45.524 L119.724,45.524 L123.226,57.832 L126.524,45.524 L130.842,45.524 L134.038,57.866 L137.608,45.524 L142.504,45.524 L136.758,63 L131.658,63 L128.598,52.46 L125.47,63 L120.37,63 L114.658,45.524 Z M152.704,63.204 C150.867991,63.204 149.253007,62.8356704 147.859,62.099 C146.464993,61.3623296 145.388337,60.3140068 144.629,58.954 C143.869663,57.5939932 143.49,56.0300088 143.49,54.262 C143.49,52.4939912 143.869663,50.9300068 144.629,49.57 C145.388337,48.2099932 146.464993,47.1616704 147.859,46.425 C149.253007,45.6883297 150.867991,45.32 152.704,45.32 C154.540009,45.32 156.154993,45.6883297 157.549,46.425 C158.943007,47.1616704 160.019663,48.2099932 160.779,49.57 C161.538337,50.9300068 161.918,52.4939912 161.918,54.262 C161.918,56.0526756 161.538337,57.6223266 160.779,58.971 C160.019663,60.3196734 158.943007,61.3623296 157.549,62.099 C156.154993,62.8356704 154.540009,63.204 152.704,63.204 Z M152.704,59.294 C154.04134,59.294 155.100996,58.829338 155.883,57.9 C156.665004,56.970662 157.056,55.7580075 157.056,54.262 C157.056,52.7659925 156.665004,51.553338 155.883,50.624 C155.100996,49.694662 154.04134,49.23 152.704,49.23 C151.389327,49.23 150.341004,49.694662 149.559,50.624 C148.776996,51.553338 148.386,52.7659925 148.386,54.262 C148.386,55.7580075 148.776996,56.970662 149.559,57.9 C150.341004,58.829338 151.389327,59.294 152.704,59.294 Z M175.212,45.524 L175.212,49.876 L173.308,49.876 C171.947993,49.876 170.95067,50.2839959 170.316,51.1 C169.68133,51.9160041 169.364,53.0266596 169.364,54.432 L169.364,63 L164.57,63 L164.57,45.524 L168.922,45.524 L169.364,48.142 C169.885336,47.2806624 170.531329,46.6290022 171.302,46.187 C172.072671,45.7449978 173.103994,45.524 174.396,45.524 L175.212,45.524 Z M177.354,39.2 L182.148,39.2 L182.148,52.97 L189.016,45.524 L194.388,45.524 L188.166,52.358 L194.728,63 L189.186,63 L184.766,55.928 L182.148,58.75 L182.148,63 L177.354,63 L177.354,39.2 Z" id="Network" fill="#0A34FF"></path>
                    <path d="M61.04,9.2 L69.302,9.2 C71.6820119,9.2 73.7843242,9.70432829 75.609,10.713 C77.4336758,11.7216717 78.8389951,13.126991 79.825,14.929 C80.8110049,16.731009 81.304,18.7879884 81.304,21.1 C81.304,23.4120116 80.8110049,25.468991 79.825,27.271 C78.8389951,29.073009 77.4336758,30.4783283 75.609,31.487 C73.7843242,32.4956717 71.6820119,33 69.302,33 L61.04,33 L61.04,9.2 Z M69.302,28.75 C71.4553441,28.75 73.1269941,28.053007 74.317,26.659 C75.507006,25.264993 76.102,23.4120116 76.102,21.1 C76.102,18.7879884 75.507006,16.935007 74.317,15.541 C73.1269941,14.146993 71.4553441,13.45 69.302,13.45 L66.14,13.45 L66.14,28.75 L69.302,28.75 Z M83.378,24.296 C83.378,22.4826576 83.7463297,20.9016734 84.483,19.553 C85.2196704,18.2043266 86.2509934,17.1616704 87.577,16.425 C88.9030066,15.6883297 90.4386579,15.32 92.184,15.32 C93.9520088,15.32 95.5103266,15.6656632 96.859,16.357 C98.2076734,17.0483368 99.2616629,18.0229937 100.021,19.281 C100.780337,20.5390063 101.171333,22.0179915 101.194,23.718 C101.194,24.3300031 101.148667,24.8739976 101.058,25.35 L88.376,25.35 L88.376,25.486 C88.4893339,26.7553397 88.8973298,27.752663 89.6,28.478 C90.3026702,29.203337 91.2659939,29.566 92.49,29.566 C93.4646715,29.566 94.2749968,29.3563354 94.921,28.937 C95.5670032,28.5176646 95.991999,27.9000041 96.196,27.084 L100.922,27.084 C100.740666,28.2400058 100.29867,29.282662 99.596,30.212 C98.8933298,31.141338 97.9640058,31.8723307 96.808,32.405 C95.6519942,32.9376693 94.3260075,33.204 92.83,33.204 C90.8806569,33.204 89.1976738,32.841337 87.781,32.116 C86.3643263,31.390663 85.2763371,30.3536734 84.517,29.005 C83.7576629,27.6563266 83.378,26.0866756 83.378,24.296 Z M96.4,22.222 C96.2413325,21.1566613 95.8050036,20.3350029 95.091,19.757 C94.3769964,19.1789971 93.4760054,18.89 92.388,18.89 C91.3453281,18.89 90.4670036,19.1903303 89.753,19.791 C89.0389964,20.3916697 88.6140007,21.2019949 88.478,22.222 L96.4,22.222 Z M104.186,9.2 L119.894,9.2 L119.894,13.586 L109.286,13.586 L109.286,19.162 L117.99,19.162 L117.99,23.344 L109.286,23.344 L109.286,33 L104.186,33 L104.186,9.2 Z M124.722,8.248 C125.515337,8.248 126.172664,8.50299745 126.694,9.013 C127.215336,9.52300255 127.476,10.1633295 127.476,10.934 C127.476,11.7046705 127.215336,12.3506641 126.694,12.872 C126.172664,13.3933359 125.515337,13.654 124.722,13.654 C123.928663,13.654 123.265669,13.3933359 122.733,12.872 C122.200331,12.3506641 121.934,11.7046705 121.934,10.934 C121.934,10.1633295 122.200331,9.52300255 122.733,9.013 C123.265669,8.50299745 123.928663,8.248 124.722,8.248 Z M122.308,15.524 L127.102,15.524 L127.102,33 L122.308,33 L122.308,15.524 Z" id="DeFi" fill="#0A34FF"></path>
                    <g id="White-dots" transform="translate(142.000000, 2.000000)" fill="#0A34FF">
                        <circle id="Oval" cx="41" cy="31" r="1"></circle>
                        <circle id="Oval" cx="31" cy="31" r="1"></circle>
                        <circle id="Oval" cx="21" cy="31" r="1"></circle>
                        <circle id="Oval" cx="11" cy="31" r="1"></circle>
                        <circle id="Oval" cx="1" cy="31" r="1"></circle>
                        <circle id="Oval" cx="41" cy="21" r="1"></circle>
                        <circle id="Oval" cx="31" cy="21" r="1"></circle>
                        <circle id="Oval" cx="21" cy="21" r="1"></circle>
                        <circle id="Oval" cx="11" cy="21" r="1"></circle>
                        <circle id="Oval" cx="1" cy="21" r="1"></circle>
                        <circle id="Oval" cx="41" cy="11" r="1"></circle>
                        <circle id="Oval" cx="31" cy="11" r="1"></circle>
                        <circle id="Oval" cx="21" cy="11" r="1"></circle>
                        <circle id="Oval" cx="11" cy="11" r="1"></circle>
                        <circle id="Oval" cx="1" cy="11" r="1"></circle>
                        <circle id="Oval" cx="41" cy="1" r="1"></circle>
                        <circle id="Oval" cx="31" cy="1" r="1"></circle>
                        <circle id="Oval" cx="21" cy="1" r="1"></circle>
                        <circle id="Oval" cx="11" cy="1" r="1"></circle>
                        <circle id="Oval" cx="1" cy="1" r="1"></circle>
                    </g>
                </g>
                <g id="Ethereum-Diamon" transform="translate(15.000000, 11.000000)" fill="#0A34FF">
                    <polygon id="Path" points="15.44 -1.63424829e-13 15.11 1.15 15.11 34.41 15.44 34.74 30.89 25.62"></polygon>
                    <polygon id="Path" points="15.44 -1.63424829e-13 1.54543045e-13 25.62 15.44 34.74"></polygon>
                    <polygon id="Path" points="15.44 37.67 15.25 37.9 15.25 49.75 15.44 50.3 30.89 28.55"></polygon>
                    <polygon id="Path" points="15.44 50.3 15.44 37.67 1.54543045e-13 28.55"></polygon>
                    <polygon id="Path" points="15.44 34.74 30.89 25.62 15.45 18.62"></polygon>
                    <polygon id="Path" points="1.54543045e-13 25.62 15.44 34.74 15.44 18.6"></polygon>
                </g>
            </g>
        </g>
    </g>
</svg>