<?xml version="1.0" encoding="UTF-8"?>
<svg width="22px" height="25px" viewBox="0 0 22 25" version="1.1" xmlns="http://www.w3.org/2000/svg" xmlns:xlink="http://www.w3.org/1999/xlink">
    <g id="Page-1" stroke="none" stroke-width="1" fill="none" fill-rule="evenodd">
        <g id="Desktop" transform="translate(-1224.000000, -4170.000000)" fill="#FFFFFF" fill-rule="nonzero">
            <g id="Group-17" transform="translate(0.000000, 4092.000000)">
                <g id="Group-12" transform="translate(1110.000000, 78.480469)">
                    <g id="logo-discord" transform="translate(114.666667, 0.000000)">
                        <path d="M8.328,10.068 C7.63696503,10.1279315 7.10652056,10.7063711 7.10652056,11.4 C7.10652056,12.0936289 7.63696503,12.6720685 8.328,12.732 C8.66705215,12.717977 8.98660717,12.5696857 9.21621456,12.3198188 C9.44582195,12.0699519 9.56662826,11.7390266 9.552,11.4 C9.56853191,11.0604813 9.44837546,10.7284879 9.21837633,10.4781947 C8.9883772,10.2279015 8.66770314,10.0801676 8.328,10.068 Z M12.708,10.068 C12.158874,10.0214226 11.6374276,10.3165498 11.3946853,10.8113073 C11.1519431,11.3060649 11.2376434,11.8990757 11.6105301,12.3048642 C11.9834169,12.7106527 12.5670846,12.8460719 13.0805556,12.6459308 C13.5940265,12.4457897 13.9320891,11.9510979 13.932,11.4 C13.9466283,11.0609734 13.825822,10.7300481 13.5962146,10.4801812 C13.3666072,10.2303143 13.0470522,10.082023 12.708,10.068 Z" id="Shape"></path>
                        <path d="M18.54,0 L2.46,0 C1.80597554,0.00158936449 1.1793698,0.262924837 0.718029894,0.726515186 C0.256689984,1.19010553 -0.00159323627,1.81797555 3.38813179e-21,2.472 L3.38813179e-21,18.7 C-0.00159323627,19.3540245 0.256689984,19.9818945 0.718029894,20.4454848 C1.1793698,20.9090752 1.80597554,21.1704106 2.46,21.172 L16.068,21.172 L15.432,18.952 L16.968,20.38 L18.42,21.72 L21.0000073,24 L21,2.472 C21.0015932,1.81797555 20.74331,1.19010553 20.2819701,0.726515186 C19.8206302,0.262924837 19.1940245,0.00158936449 18.54,0 Z M13.908,15.672 C13.908,15.672 13.476,15.156 13.116,14.7 C13.9858031,14.4951652 14.7551538,13.9893491 15.288,13.272 C14.8562138,13.5593585 14.3932616,13.7968731 13.908,13.98 C13.3497486,14.2182729 12.7658968,14.3914152 12.168,14.496 C11.1402604,14.6852244 10.0862478,14.6811548 9.06,14.484 C8.45886262,14.3658788 7.86975463,14.1931631 7.3,13.968 C6.81881742,13.7842149 6.35991338,13.546712 5.932,13.26 C6.44553497,13.9623659 7.18833892,14.4632279 8.032,14.676 C7.672,15.132 7.232,15.676 7.232,15.676 C5.78449055,15.7149118 4.41247405,15.0311527 3.572,13.852 C3.61035919,11.4179014 4.20122975,9.02432854 5.3,6.852 C6.26642152,6.09298359 7.44464941,5.6527205 8.672,5.592 L8.792,5.736 C7.63451179,6.02080637 6.5541495,6.55757297 5.628,7.308 C5.628,7.308 5.892,7.164 6.336,6.96 C7.198345,6.56488889 8.11766167,6.30839819 9.06,6.2 C9.1258623,6.1863236 9.19277187,6.17829446 9.26,6.176 C10.064142,6.07122398 10.877941,6.06316657 11.684,6.152 C12.9532576,6.29750371 14.1817209,6.69023145 15.3,7.308 C14.4231163,6.59420398 13.4046552,6.07474794 12.312,5.784 L12.48,5.592 C13.7073506,5.6527205 14.8855785,6.09298359 15.852,6.852 C16.9507702,9.02432854 17.5416408,11.4179014 17.58,13.852 C16.7321218,15.0283807 15.3576039,15.7096505 13.908,15.672 Z" id="Shape"></path>
                    </g>
                </g>
            </g>
        </g>
    </g>
</svg>