<svg width="64" height="64" viewBox="0 0 64 64" fill="none" xmlns="http://www.w3.org/2000/svg">
<path fill-rule="evenodd" clip-rule="evenodd" d="M32 64C49.6731 64 64 49.6731 64 32C64 14.3269 49.6731 0 32 0C14.3269 0 0 14.3269 0 32C0 49.6731 14.3269 64 32 64Z" fill="white"/>
<path fill-rule="evenodd" clip-rule="evenodd" d="M29.6436 15.8566C29.6436 14.279 30.9225 13 32.5002 13C34.0778 13 35.3568 14.279 35.3568 15.8566C35.3568 15.9305 35.354 16.0037 35.3485 16.0761C35.3252 16.1762 35.3125 16.2764 35.3098 16.3756C35.0657 17.7055 33.9006 18.7132 32.5002 18.7132C31.0984 18.7132 29.9325 17.7036 29.6899 16.3718C29.687 16.2751 29.6746 16.1774 29.6521 16.0798C29.6465 16.0062 29.6436 15.9317 29.6436 15.8566ZM26.6692 15.305C26.9472 12.3292 29.4517 10 32.5002 10C35.5487 10 38.0533 12.3293 38.3312 15.3052C45.6068 17.7385 50.8454 24.6067 50.8454 32.7097C50.8454 32.954 50.8403 33.1959 50.8309 33.4351C52.713 34.4092 53.9994 36.3743 53.9994 38.6398C53.9994 41.8743 51.3773 44.4964 48.1427 44.4964C47.6442 44.4964 47.1603 44.4341 46.6982 44.3169C43.3497 48.4354 38.2293 51.0563 32.4999 51.0563C26.7646 51.0563 21.6519 48.4303 18.2904 44.3196C17.8316 44.4351 17.3513 44.4964 16.8566 44.4964C13.6221 44.4964 11 41.8743 11 38.6398C11 36.3782 12.2818 34.4161 14.1586 33.4403C14.1491 33.198 14.1441 32.9556 14.1436 32.7131L14.1436 32.7097C14.1436 24.6051 19.3935 17.7377 26.6692 15.305ZM17.144 32.7901C20.245 32.9399 22.7132 35.5016 22.7132 38.6398C22.7132 40.279 22.0397 41.761 20.9544 42.8241C23.7675 46.034 27.8929 48.0563 32.4999 48.0563C37.109 48.0563 41.2406 46.0326 44.0391 42.8183C42.9572 41.7556 42.2861 40.2761 42.2861 38.6398C42.2861 35.505 44.7489 32.9455 47.8452 32.7906L47.8454 32.7097C47.8454 26.0972 43.6756 20.466 37.8217 18.3057C36.8944 20.3171 34.8603 21.7132 32.5002 21.7132C30.1399 21.7132 28.1057 20.317 27.1786 18.3055C21.3224 20.4657 17.1443 26.0973 17.1436 32.708C17.1436 32.7354 17.1438 32.7627 17.144 32.7901ZM18.2403 41.1395C19.1187 40.6522 19.7132 39.7154 19.7132 38.6398C19.7132 37.0621 18.4343 35.7831 16.8566 35.7831C15.279 35.7831 14 37.0621 14 38.6398C14 40.2174 15.279 41.4964 16.8566 41.4964C17.2759 41.4964 17.6741 41.406 18.0328 41.2438C18.1001 41.2032 18.1694 41.1684 18.2403 41.1395ZM48.9279 35.8924C48.8926 35.8844 48.8578 35.8752 48.8236 35.8648C48.6054 35.8114 48.3774 35.7831 48.1427 35.7831C46.5651 35.7831 45.2861 37.0621 45.2861 38.6398C45.2861 39.6984 45.862 40.6225 46.7175 41.116C46.8127 41.1524 46.9055 41.199 46.9942 41.2561C47.3457 41.4106 47.7342 41.4964 48.1427 41.4964C49.7204 41.4964 50.9994 40.2174 50.9994 38.6398C50.9994 37.3344 50.1238 36.2335 48.9279 35.8924Z" fill="#5641F2"/>
</svg>
