<?xml version="1.0" encoding="UTF-8"?>
<svg width="290px" height="73px" viewBox="0 0 290 73" version="1.1" xmlns="http://www.w3.org/2000/svg" xmlns:xlink="http://www.w3.org/1999/xlink">
    <g id="Page-1" stroke="none" stroke-width="1" fill="none" fill-rule="evenodd">
        <g id="Home-Page-(new-footer)" transform="translate(-128.000000, -3949.000000)" fill-rule="nonzero">
            <g id="Built-on-Ethereum" transform="translate(128.000000, 3949.000000)">
                <g id="built-on-ethereum">
                    <rect id="Rectangle" fill="#FFFFFF" x="0" y="0" width="290" height="73" rx="12"></rect>
                    <g id="Ethereum-Diamon" transform="translate(104.000000, 11.000000)" stroke="#2D2D2D" stroke-width="0.25">
                        <polygon id="Path" fill="#FF826B" points="15.44 2.62190269e-12 15.11 1.15 15.11 34.41 15.44 34.74 30.89 25.62"></polygon>
                        <polygon id="Path" fill="#F3F047" points="15.44 2.62190269e-12 -1.98951966e-13 25.62 15.44 34.74"></polygon>
                        <polygon id="Path" fill="#6A7DD1" points="15.44 37.67 15.25 37.9 15.25 49.75 15.44 50.3 30.89 28.55"></polygon>
                        <polygon id="Path" fill="#00B2D8" points="15.44 50.3 15.44 37.67 -1.98951966e-13 28.55"></polygon>
                        <polygon id="Path" fill="#A762B4" points="15.44 34.74 30.89 25.62 15.45 18.62"></polygon>
                        <polygon id="Path" fill="#00BF70" points="-1.98951966e-13 25.62 15.44 34.74 15.44 18.6"></polygon>
                    </g>
                </g>
                <path d="M155.279,32.608 C157.073009,32.608 158.574494,33.2839932 159.7835,34.636 C160.992506,35.9880068 161.597,37.5739909 161.597,39.394 C161.597,39.7580018 161.402002,39.94 161.012,39.94 L150.131,39.94 C150.261001,41.344007 150.806995,42.5529949 151.769,43.567 C152.731005,44.5810051 153.900993,45.088 155.279,45.088 C157.177009,45.088 158.671995,44.3210077 159.764,42.787 C159.894001,42.6049991 160.049999,42.514 160.232,42.514 C160.596002,42.514 160.778,42.6959982 160.778,43.06 C160.778,43.1640005 160.752,43.2549996 160.7,43.333 C159.607995,45.2310095 157.801013,46.18 155.279,46.18 C153.510991,46.18 152.022506,45.5040068 150.8135,44.152 C149.604494,42.7999932 149,41.2140091 149,39.394 C149,37.5739909 149.597994,35.9880068 150.794,34.636 C151.990006,33.2839932 153.484991,32.608 155.279,32.608 Z M150.131,38.848 L160.427,38.848 C160.296999,37.443993 159.751005,36.2350051 158.789,35.221 C157.826995,34.2069949 156.657007,33.7 155.279,33.7 C153.900993,33.7 152.731005,34.2069949 151.769,35.221 C150.806995,36.2350051 150.261001,37.443993 150.131,38.848 Z M169.943,32.881 L172.868,32.881 C173.232002,32.881 173.414,33.0629982 173.414,33.427 C173.414,33.7910018 173.232002,33.973 172.868,33.973 L169.943,33.973 L169.943,45.439 C169.943,45.8030018 169.761002,45.985 169.397,45.985 C169.032998,45.985 168.851,45.8030018 168.851,45.439 L168.851,33.973 L166.043,33.973 C165.678998,33.973 165.497,33.7910018 165.497,33.427 C165.497,33.0629982 165.678998,32.881 166.043,32.881 L168.851,32.881 L168.851,28.669 C168.851,28.3049982 169.032998,28.123 169.397,28.123 C169.761002,28.123 169.943,28.3049982 169.943,28.669 L169.943,32.881 Z M183.71,32.647 C185.244008,32.647 186.478995,33.244994 187.415,34.441 C188.299004,35.5330055 188.741,36.8589922 188.741,38.419 L188.741,45.361 C188.741,45.7250018 188.559002,45.907 188.195,45.907 C187.830998,45.907 187.649,45.7250018 187.649,45.361 L187.649,38.419 C187.649,37.1449936 187.311003,36.0790043 186.635,35.221 C185.906996,34.2329951 184.932006,33.739 183.71,33.739 C182.123992,33.739 180.915004,34.3499939 180.083,35.572 C179.328996,36.6900056 179.003999,38.0549919 179.108,39.667 C179.134,40.0050017 179.147,40.1610001 179.147,40.135 L179.147,45.361 C179.147,45.7250018 178.965002,45.907 178.601,45.907 C178.236998,45.907 178.055,45.7250018 178.055,45.361 L178.055,22.546 C178.055,22.1819982 178.236998,22 178.601,22 C178.965002,22 179.147,22.1819982 179.147,22.546 L179.147,35.455 C180.187005,33.5829906 181.70799,32.647 183.71,32.647 Z M200.012,32.608 C201.806009,32.608 203.307494,33.2839932 204.5165,34.636 C205.725506,35.9880068 206.33,37.5739909 206.33,39.394 C206.33,39.7580018 206.135002,39.94 205.745,39.94 L194.864,39.94 C194.994001,41.344007 195.539995,42.5529949 196.502,43.567 C197.464005,44.5810051 198.633993,45.088 200.012,45.088 C201.910009,45.088 203.404995,44.3210077 204.497,42.787 C204.627001,42.6049991 204.782999,42.514 204.965,42.514 C205.329002,42.514 205.511,42.6959982 205.511,43.06 C205.511,43.1640005 205.485,43.2549996 205.433,43.333 C204.340995,45.2310095 202.534013,46.18 200.012,46.18 C198.243991,46.18 196.755506,45.5040068 195.5465,44.152 C194.337494,42.7999932 193.733,41.2140091 193.733,39.394 C193.733,37.5739909 194.330994,35.9880068 195.527,34.636 C196.723006,33.2839932 198.217991,32.608 200.012,32.608 Z M194.864,38.848 L205.16,38.848 C205.029999,37.443993 204.484005,36.2350051 203.522,35.221 C202.559995,34.2069949 201.390007,33.7 200.012,33.7 C198.633993,33.7 197.464005,34.2069949 196.502,35.221 C195.539995,36.2350051 194.994001,37.443993 194.864,38.848 Z M217.172,32.881 C217.562002,32.881 217.757,33.0499983 217.757,33.388 C217.757,33.7260017 217.588002,33.9209997 217.25,33.973 C215.715992,34.181001 214.546004,34.882994 213.74,36.079 C212.985996,37.1450053 212.609,38.4839919 212.609,40.096 L212.609,45.322 C212.609,45.6860018 212.427002,45.868 212.063,45.868 C211.698998,45.868 211.517,45.6860018 211.517,45.322 L211.517,33.427 C211.517,33.0629982 211.698998,32.881 212.063,32.881 C212.427002,32.881 212.609,33.0629982 212.609,33.427 L212.609,35.845 C213.103002,35.0129958 213.739996,34.3240027 214.52,33.778 C215.404004,33.179997 216.287996,32.881 217.172,32.881 Z M227.39,32.608 C229.184009,32.608 230.685494,33.2839932 231.8945,34.636 C233.103506,35.9880068 233.708,37.5739909 233.708,39.394 C233.708,39.7580018 233.513002,39.94 233.123,39.94 L222.242,39.94 C222.372001,41.344007 222.917995,42.5529949 223.88,43.567 C224.842005,44.5810051 226.011993,45.088 227.39,45.088 C229.288009,45.088 230.782995,44.3210077 231.875,42.787 C232.005001,42.6049991 232.160999,42.514 232.343,42.514 C232.707002,42.514 232.889,42.6959982 232.889,43.06 C232.889,43.1640005 232.863,43.2549996 232.811,43.333 C231.718995,45.2310095 229.912013,46.18 227.39,46.18 C225.621991,46.18 224.133506,45.5040068 222.9245,44.152 C221.715494,42.7999932 221.111,41.2140091 221.111,39.394 C221.111,37.5739909 221.708994,35.9880068 222.905,34.636 C224.101006,33.2839932 225.595991,32.608 227.39,32.608 Z M222.242,38.848 L232.538,38.848 C232.407999,37.443993 231.862005,36.2350051 230.9,35.221 C229.937995,34.2069949 228.768007,33.7 227.39,33.7 C226.011993,33.7 224.842005,34.2069949 223.88,35.221 C222.917995,36.2350051 222.372001,37.443993 222.242,38.848 Z M248.801,32.959 C249.165002,32.959 249.347,33.1409982 249.347,33.505 L249.347,45.439 C249.347,45.8030018 249.165002,45.985 248.801,45.985 C248.436998,45.985 248.255,45.8030018 248.255,45.439 L248.255,43.177 C247.240995,45.2310103 245.73301,46.258 243.731,46.258 C242.196992,46.258 240.962005,45.660006 240.026,44.464 C239.141996,43.3719945 238.7,42.0460078 238.7,40.486 L238.7,33.505 C238.7,33.1409982 238.881998,32.959 239.246,32.959 C239.610002,32.959 239.792,33.1409982 239.792,33.505 L239.792,40.486 C239.792,41.7600064 240.116997,42.8259957 240.767,43.684 C241.495004,44.6720049 242.482994,45.166 243.731,45.166 C246.747015,45.166 248.255,42.761024 248.255,37.951 L248.255,33.505 C248.255,33.1409982 248.436998,32.959 248.801,32.959 Z M269.939,32.647 C271.473008,32.647 272.694995,33.2124943 273.605,34.3435 C274.515005,35.4745057 274.97,36.8199922 274.97,38.38 L274.97,45.361 C274.97,45.7250018 274.788002,45.907 274.424,45.907 C274.059998,45.907 273.878,45.7250018 273.878,45.361 L273.878,38.38 C273.878,37.1059936 273.540003,36.0400043 272.864,35.182 C272.161996,34.2199952 271.187006,33.739 269.939,33.739 C268.430992,33.739 267.261004,34.4279931 266.429,35.806 C265.752997,36.9760058 265.415,38.3669919 265.415,39.979 L265.415,45.361 C265.415,45.7250018 265.233002,45.907 264.869,45.907 C264.504998,45.907 264.323,45.7250018 264.323,45.361 L264.323,38.38 C264.323,37.1059936 263.985003,36.0400043 263.309,35.182 C262.580996,34.2199952 261.606006,33.739 260.384,33.739 C258.797992,33.739 257.602004,34.3109943 256.796,35.455 C256.093996,36.5210053 255.769,37.9769908 255.821,39.823 L255.821,45.361 C255.821,45.7250018 255.639002,45.907 255.275,45.907 C254.910998,45.907 254.729,45.7250018 254.729,45.361 L254.729,33.427 C254.729,33.0629982 254.910998,32.881 255.275,32.881 C255.639002,32.881 255.821,33.0629982 255.821,33.427 L255.821,35.416 C256.861005,33.5699908 258.38199,32.647 260.384,32.647 C262.698012,32.647 264.244996,33.8039884 265.025,36.118 C266.039005,33.8039884 267.676989,32.647 269.939,32.647 Z" id="ethereum" fill="#2D2D2D"></path>
                <path d="M21.01305,35.50533 L25.03915,35.50533 C26.1834157,35.50533 27.0062858,35.304027 27.507785,34.901415 C28.0092842,34.498803 28.26003,33.894894 28.26003,33.08967 C28.26003,32.552854 28.1752708,32.1290582 28.00575,31.81827 C27.8362292,31.5074818 27.6031415,31.2673308 27.30648,31.09781 C27.0098185,30.9282892 26.6672503,30.8188086 26.278765,30.769365 C25.8902797,30.7199214 25.4770789,30.6952 25.03915,30.6952 L21.01305,30.6952 L21.01305,35.50533 Z M19,29 L24.48821,29 C24.813125,29 25.1627565,29.0035316 25.537115,29.010595 C25.9114735,29.0176584 26.2822948,29.0388482 26.64959,29.074165 C27.0168852,29.1094818 27.3594534,29.1624563 27.677305,29.23309 C27.9951566,29.3037237 28.2670922,29.4096726 28.49312,29.55094 C28.9875558,29.8476015 29.4078199,30.2572707 29.753925,30.77996 C30.1000301,31.3026493 30.27308,31.9454062 30.27308,32.70825 C30.27308,33.513474 30.0788403,34.2092054 29.690355,34.795465 C29.3018697,35.3817246 28.7474036,35.8161153 28.02694,36.09865 L28.02694,36.14103 C28.9593047,36.3388043 29.6726942,36.7626001 30.16713,37.41243 C30.6615658,38.0622599 30.90878,38.8533453 30.90878,39.78571 C30.90878,40.3366528 30.8098943,40.8734607 30.61212,41.39615 C30.4143457,41.9188393 30.1212203,42.381483 29.732735,42.784095 C29.3442497,43.186707 28.8639479,43.5116171 28.291815,43.758835 C27.7196821,44.0060529 27.0592671,44.12966 26.31055,44.12966 L19,44.12966 L19,29 Z M21.01305,42.43446 L26.05627,42.43446 C26.9462544,42.43446 27.6419858,42.1943091 28.143485,41.714 C28.6449842,41.2336909 28.89573,40.5697442 28.89573,39.72214 C28.89573,39.2277042 28.8039076,38.818035 28.62026,38.49312 C28.4366124,38.168205 28.1929299,37.910396 27.889205,37.719685 C27.5854801,37.528974 27.2358486,37.3947721 26.8403,37.317075 C26.4447514,37.2393779 26.0350821,37.20053 25.61128,37.20053 L21.01305,37.20053 L21.01305,42.43446 Z M42.28781,44.12966 L40.59261,44.12966 L40.59261,42.39208 L40.55023,42.39208 C40.1688081,43.0701634 39.681443,43.5681234 39.08812,43.885975 C38.494797,44.2038266 37.795534,44.36275 36.99031,44.36275 C36.2698464,44.36275 35.6694691,44.267396 35.18916,44.076685 C34.7088509,43.885974 34.3203715,43.6140384 34.02371,43.26087 C33.7270485,42.9077016 33.5186823,42.4874374 33.398605,42.000065 C33.2785277,41.5126926 33.21849,40.972353 33.21849,40.37903 L33.21849,33.17443 L35.01964,33.17443 L35.01964,40.59093 C35.01964,41.2690134 35.2174114,41.8058214 35.61296,42.20137 C36.0085086,42.5969186 36.5523799,42.79469 37.24459,42.79469 C37.7955328,42.79469 38.272303,42.7099308 38.674915,42.54041 C39.077527,42.3708892 39.413032,42.1307382 39.68144,41.81995 C39.949848,41.5091618 40.151151,41.1454038 40.285355,40.728665 C40.419559,40.3119262 40.48666,39.8563458 40.48666,39.36191 L40.48666,33.17443 L42.28781,33.17443 L42.28781,44.12966 Z M46.90723,31.20376 L45.10608,31.20376 L45.10608,29 L46.90723,29 L46.90723,31.20376 Z M45.10608,33.17443 L46.90723,33.17443 L46.90723,44.12966 L45.10608,44.12966 L45.10608,33.17443 Z M49.81026,29 L51.61141,29 L51.61141,44.12966 L49.81026,44.12966 L49.81026,29 Z M56.90891,33.17443 L59.09148,33.17443 L59.09148,34.76368 L56.90891,34.76368 L56.90891,41.56567 C56.90891,41.7775711 56.9265682,41.9470894 56.961885,42.07423 C56.9972018,42.2013706 57.0643028,42.3002563 57.16319,42.37089 C57.2620772,42.4415237 57.3998108,42.4874349 57.576395,42.508625 C57.7529792,42.5298151 57.9825353,42.54041 58.26507,42.54041 L59.09148,42.54041 L59.09148,44.12966 L57.71413,44.12966 C57.2479477,44.12966 56.8488733,44.0978753 56.516895,44.034305 C56.1849167,43.9707347 55.9165127,43.8541908 55.711675,43.68467 C55.5068373,43.5151492 55.3549772,43.2749982 55.25609,42.96421 C55.1572028,42.6534218 55.10776,42.2437525 55.10776,41.73519 L55.10776,34.76368 L53.24304,34.76368 L53.24304,33.17443 L55.10776,33.17443 L55.10776,29.88998 L56.90891,29.88998 L56.90891,33.17443 Z M68.28794,38.66264 C68.28794,39.3265967 68.3762308,39.9163791 68.552815,40.432005 C68.7293992,40.9476309 68.9730818,41.3784899 69.28387,41.724595 C69.5946582,42.0707001 69.9584162,42.3355724 70.375155,42.51922 C70.7918938,42.7028676 71.2333477,42.79469 71.69953,42.79469 C72.1657123,42.79469 72.6071662,42.7028676 73.023905,42.51922 C73.4406438,42.3355724 73.8044018,42.0707001 74.11519,41.724595 C74.4259782,41.3784899 74.6696608,40.9476309 74.846245,40.432005 C75.0228292,39.9163791 75.11112,39.3265967 75.11112,38.66264 C75.11112,37.9986833 75.0228292,37.4089009 74.846245,36.893275 C74.6696608,36.3776491 74.4259782,35.9432584 74.11519,35.59009 C73.8044018,35.2369216 73.4406438,34.9685176 73.023905,34.78487 C72.6071662,34.6012224 72.1657123,34.5094 71.69953,34.5094 C71.2333477,34.5094 70.7918938,34.6012224 70.375155,34.78487 C69.9584162,34.9685176 69.5946582,35.2369216 69.28387,35.59009 C68.9730818,35.9432584 68.7293992,36.3776491 68.552815,36.893275 C68.3762308,37.4089009 68.28794,37.9986833 68.28794,38.66264 Z M66.38084,38.66264 C66.38084,37.857416 66.4938522,37.1051785 66.71988,36.405905 C66.9459078,35.7066315 67.2849444,35.0991909 67.737,34.583565 C68.1890556,34.0679391 68.7470533,33.6618015 69.41101,33.36514 C70.0749667,33.0684785 70.837799,32.92015 71.69953,32.92015 C72.5753877,32.92015 73.3417517,33.0684785 73.998645,33.36514 C74.6555383,33.6618015 75.2100044,34.0679391 75.66206,34.583565 C76.1141156,35.0991909 76.4531522,35.7066315 76.67918,36.405905 C76.9052078,37.1051785 77.01822,37.857416 77.01822,38.66264 C77.01822,39.467864 76.9052078,40.2165699 76.67918,40.90878 C76.4531522,41.6009901 76.1141156,42.2048991 75.66206,42.720525 C75.2100044,43.2361509 74.6555383,43.6387569 73.998645,43.928355 C73.3417517,44.2179531 72.5753877,44.36275 71.69953,44.36275 C70.837799,44.36275 70.0749667,44.2179531 69.41101,43.928355 C68.7470533,43.6387569 68.1890556,43.2361509 67.737,42.720525 C67.2849444,42.2048991 66.9459078,41.6009901 66.71988,40.90878 C66.4938522,40.2165699 66.38084,39.467864 66.38084,38.66264 Z M79.13722,33.17443 L80.83242,33.17443 L80.83242,34.91201 L80.8748,34.91201 C81.6235171,33.5840967 82.8101452,32.92015 84.43472,32.92015 C85.1551836,32.92015 85.7555609,33.0190357 86.23587,33.21681 C86.7161791,33.4145843 87.1046585,33.6900516 87.40132,34.04322 C87.6979815,34.3963884 87.9063477,34.8166526 88.026425,35.304025 C88.1465023,35.7913974 88.20654,36.331737 88.20654,36.92506 L88.20654,44.12966 L86.40539,44.12966 L86.40539,36.71316 C86.40539,36.0350766 86.2076186,35.4982686 85.81207,35.10272 C85.4165214,34.7071714 84.8726501,34.5094 84.18044,34.5094 C83.6294972,34.5094 83.152727,34.5941592 82.750115,34.76368 C82.347503,34.9332008 82.011998,35.1733518 81.74359,35.48414 C81.475182,35.7949282 81.273879,36.1586862 81.139675,36.575425 C81.005471,36.9921638 80.93837,37.4477442 80.93837,37.94218 L80.93837,44.12966 L79.13722,44.12966 L79.13722,33.17443 Z" id="Builton" fill="#2D2D2D"></path>
            </g>
        </g>
    </g>
</svg>