<svg width="229" height="47" viewBox="0 0 229 47" fill="none" xmlns="http://www.w3.org/2000/svg">
<rect width="229" height="47" rx="8" fill="#262439"/>
<path d="M14.08 29H17.212C18.94 29 19.984 28.088 19.984 26.468C19.984 25.448 19.564 24.764 18.724 24.416C19.252 24.14 19.552 23.552 19.552 22.868C19.552 21.38 18.628 20.6 17.152 20.6H14.08V29ZM17.032 22.04C17.716 22.04 18.052 22.292 18.052 22.952C18.052 23.612 17.728 23.864 17.068 23.864H15.64V22.04H17.032ZM17.068 25.304C17.968 25.304 18.424 25.676 18.424 26.432C18.424 27.188 17.968 27.56 17.068 27.56H15.64V25.304H17.068ZM27.9611 20.6V25.832C27.9611 27.044 27.4331 27.656 26.3891 27.656C25.3451 27.656 24.8171 27.044 24.8171 25.832V20.6H23.2571V25.808C23.2571 27.98 24.4691 29.096 26.3891 29.096C28.3091 29.096 29.5211 27.98 29.5211 25.808V20.6H27.9611ZM32.998 20.6V29H34.558V20.6H32.998ZM38.2675 29H43.3915V27.56H39.8275V20.6H38.2675V29ZM47.2131 22.04V29H48.7731V22.04H51.1011V20.6H44.8851V22.04H47.2131ZM60.7438 20.96C59.5798 21.548 58.7518 22.928 58.7518 24.8C58.7518 25.736 58.9318 26.54 59.3038 27.2C60.0598 28.532 61.2598 29.096 62.7118 29.096C63.4438 29.096 64.0918 28.952 64.6798 28.652C65.8438 28.04 66.6718 26.672 66.6718 24.8C66.6718 23.864 66.4798 23.06 66.1078 22.4C65.3758 21.068 64.1638 20.504 62.7118 20.504C61.9798 20.504 61.3318 20.66 60.7438 20.96ZM64.4038 22.664C64.8598 23.144 65.0878 23.852 65.0878 24.8C65.0878 25.748 64.8598 26.456 64.4038 26.936C63.9598 27.416 63.3958 27.656 62.7118 27.656C62.0278 27.656 61.4638 27.416 61.0078 26.936C60.5638 26.456 60.3358 25.748 60.3358 24.8C60.3358 23.852 60.5638 23.144 61.0078 22.664C61.4638 22.184 62.0278 21.944 62.7118 21.944C63.3958 21.944 63.9598 22.184 64.4038 22.664ZM74.7963 26.144L71.7123 20.6H70.0683V29H71.6283V23.456L74.7123 29H76.3563V20.6H74.7963V26.144Z" fill="white"/>
<path d="M96.994 7L87 23.2956L96.994 18.8374V7Z" fill="#F3F047"/>
<path d="M96.994 18.8374L87 23.2956L96.994 29.102V18.8374Z" fill="#00BF70"/>
<path d="M107 23.2956L96.9941 7V18.8374L107 23.2956Z" fill="#FF826B"/>
<path d="M96.9941 29.102L107 23.2956L96.9941 18.8374V29.102Z" fill="#A762B4"/>
<path d="M87 25.1641L96.994 39V30.9586L87 25.1641Z" fill="#01AFD3"/>
<path d="M96.9941 30.9586V39L107 25.1641L96.9941 30.9586Z" fill="#6A7DD1"/>
<path d="M123.936 25.2134C123.936 25.4315 123.738 25.6266 123.517 25.6266H115.802C115.999 27.4403 117.429 29.208 119.45 29.208C120.833 29.208 121.856 28.68 122.634 27.578C122.715 27.4632 122.832 27.3829 122.971 27.3829C123.192 27.3829 123.355 27.5436 123.355 27.7617C123.355 27.842 123.331 27.8994 123.296 27.9568C122.518 29.2998 120.973 29.9541 119.45 29.9541C116.848 29.9541 115 27.6583 115 25.2019C115 22.7454 116.848 20.4612 119.45 20.4612C122.053 20.4612 123.936 22.7569 123.936 25.2134ZM123.099 24.8461C122.936 22.9062 121.472 21.2417 119.45 21.2417C117.429 21.2417 115.988 22.9062 115.802 24.8461H123.099Z" fill="white" stroke="white" stroke-width="0.5"/>
<path d="M133.313 20.5874C133.534 20.5874 133.696 20.7825 133.696 20.9776C133.696 21.1957 133.534 21.3679 133.313 21.3679H131.245V29.426C131.245 29.6211 131.07 29.8048 130.849 29.8048C130.629 29.8048 130.454 29.6096 130.454 29.426V21.3679H128.467C128.247 21.3679 128.084 21.1957 128.084 20.9776C128.084 20.7825 128.247 20.5874 128.467 20.5874H130.454V17.6718C130.454 17.4537 130.629 17.293 130.849 17.293C131.07 17.293 131.245 17.4537 131.245 17.6718V20.5874H133.313Z" fill="white" stroke="white" stroke-width="0.5"/>
<path d="M145.885 24.5017V29.3687C145.885 29.5868 145.757 29.7475 145.56 29.7475C145.339 29.7475 145.235 29.5868 145.235 29.3687V24.5017C145.235 22.8602 144.27 21.2188 142.411 21.2188C140.029 21.2188 138.972 23.2735 139.099 25.3741C139.099 25.4315 139.088 25.6725 139.088 25.707V29.3687C139.088 29.5868 138.983 29.7475 138.762 29.7475C138.542 29.7475 138.437 29.5868 138.437 29.3687V13.3788C138.437 13.1837 138.542 13 138.762 13C138.983 13 139.088 13.1951 139.088 13.3788V22.424C139.878 21.2532 140.935 20.4612 142.318 20.4612C144.584 20.4612 145.885 22.424 145.885 24.5017Z" fill="white" stroke="white" stroke-width="0.5"/>
<path d="M159.806 25.2134C159.806 25.4315 159.608 25.6266 159.387 25.6266H151.672C151.869 27.4403 153.299 29.208 155.32 29.208C156.703 29.208 157.726 28.68 158.504 27.578C158.586 27.4632 158.702 27.3829 158.841 27.3829C159.062 27.3829 159.225 27.5436 159.225 27.7617C159.225 27.842 159.201 27.8994 159.167 27.9568C158.388 29.2998 156.843 29.9541 155.32 29.9541C152.718 29.9541 150.87 27.6583 150.87 25.2019C150.87 22.7454 152.718 20.4612 155.32 20.4612C157.923 20.4612 159.806 22.7569 159.806 25.2134ZM158.981 24.8461C158.818 22.9062 157.354 21.2417 155.332 21.2417C153.31 21.2417 151.869 22.9062 151.683 24.8461H158.981Z" fill="white" stroke="white" stroke-width="0.5"/>
<path d="M169.299 20.9777C169.299 21.2187 169.159 21.3565 168.927 21.3909C166.661 21.7238 165.627 23.5489 165.627 25.684V29.3342C165.627 29.5523 165.453 29.713 165.232 29.713C165.011 29.713 164.837 29.5523 164.837 29.3342V21.0006C164.837 20.7825 165.011 20.6218 165.232 20.6218C165.453 20.6218 165.627 20.7825 165.627 21.0006V22.6995C166.278 21.632 167.544 20.6218 168.869 20.6218C169.066 20.6218 169.299 20.7596 169.299 20.9777Z" fill="white" stroke="white" stroke-width="0.5"/>
<path d="M181.988 25.2134C181.988 25.4315 181.79 25.6266 181.57 25.6266H173.854C174.052 27.4403 175.481 29.208 177.503 29.208C178.885 29.208 179.908 28.68 180.686 27.578C180.768 27.4632 180.884 27.3829 181.023 27.3829C181.244 27.3829 181.407 27.5436 181.407 27.7617C181.407 27.842 181.384 27.8994 181.349 27.9568C180.57 29.2998 179.025 29.9541 177.503 29.9541C174.9 29.9541 173.052 27.6584 173.052 25.2019C173.052 22.7455 174.9 20.4612 177.503 20.4612C180.105 20.4497 181.988 22.757 181.988 25.2134ZM181.163 24.8461C181 22.9062 179.536 21.2418 177.514 21.2418C175.492 21.2418 174.052 22.9062 173.866 24.8461H181.163Z" fill="white" stroke="white" stroke-width="0.5"/>
<path d="M194.525 21.058V23.7096V29.4145C194.525 29.6326 194.328 29.7933 194.13 29.7933C193.909 29.7933 193.735 29.6326 193.735 29.4145V27.8419C193.084 29.0931 191.957 29.9999 190.516 29.9999C188.216 29.9999 186.938 28.0371 186.938 25.9594V21.0695C186.938 20.8743 187.112 20.6907 187.333 20.6907C187.553 20.6907 187.728 20.8858 187.728 21.0695V25.9594C187.728 27.6009 188.669 29.2423 190.528 29.2423C193.131 29.2423 193.747 26.8433 193.747 24.1917V21.0809C193.747 20.8858 193.921 20.7021 194.142 20.7021C194.328 20.6792 194.525 20.8743 194.525 21.058Z" fill="white" stroke="white" stroke-width="0.5"/>
<path d="M214 24.4787V29.3687C214 29.5868 213.802 29.7475 213.605 29.7475C213.384 29.7475 213.21 29.5868 213.21 29.3687V24.4787C213.21 22.8373 212.269 21.2303 210.409 21.2303C208.085 21.2303 207.191 23.6867 207.191 25.6037V29.3687C207.191 29.5868 206.993 29.7475 206.796 29.7475C206.575 29.7475 206.401 29.5868 206.401 29.3687V24.4787C206.401 22.8373 205.483 21.2303 203.635 21.2303C201.288 21.2303 200.312 23.0554 200.393 25.4889V25.684V29.3687C200.393 29.5868 200.219 29.7475 199.998 29.7475C199.777 29.7475 199.603 29.5868 199.603 29.3687V21.0122C199.603 20.7941 199.777 20.6334 199.998 20.6334C200.219 20.6334 200.393 20.7941 200.393 21.0122V22.4011C201.044 21.2303 202.264 20.4612 203.647 20.4612C205.227 20.4612 206.447 21.4484 206.947 22.8947C207.586 21.4713 208.829 20.4612 210.433 20.4612C212.71 20.4612 214 22.4011 214 24.4787Z" fill="white" stroke="white" stroke-width="0.5"/>
</svg>
