<svg width="24" height="24" viewBox="0 0 24 24" fill="none" xmlns="http://www.w3.org/2000/svg">
<path fill-rule="evenodd" clip-rule="evenodd" d="M12 0C18.6276 0 24 5.50791 24 12.3035C24 17.7383 20.5656 22.3487 15.8004 23.9771C15.192 24.0983 14.976 23.7141 14.976 23.3865C14.976 22.9809 14.9904 21.6561 14.9904 20.0097C14.9904 18.8625 14.6064 18.1138 14.1756 17.7322C16.848 17.4274 19.656 16.3869 19.656 11.6613C19.656 10.3173 19.1904 9.22057 18.42 8.35897C18.5448 8.04817 18.9564 6.79674 18.3024 5.10234C18.3024 5.10234 17.2968 4.77266 15.006 6.36386C14.0272 6.09105 13.0161 5.95153 12 5.9496C10.9847 5.95144 9.97432 6.09096 8.99639 6.36386C6.70319 4.77266 5.6952 5.10234 5.6952 5.10234C5.0436 6.79674 5.4552 8.04817 5.5788 8.35897C4.812 9.22057 4.3428 10.3173 4.3428 11.6613C4.3428 16.3749 7.1448 17.4314 9.80999 17.7422C9.46679 18.0494 9.15599 18.5913 9.04799 19.3869C8.36399 19.7013 6.62639 20.2454 5.55599 18.365C5.55599 18.365 4.92119 17.1829 3.7164 17.0965C3.7164 17.0965 2.5464 17.0809 3.63479 17.8441C3.63479 17.8441 4.42079 18.2221 4.96679 19.6441C4.96679 19.6441 5.6712 21.8401 9.00959 21.0961C9.01559 22.1245 9.02639 23.0937 9.02639 23.3865C9.02639 23.7117 8.80559 24.0923 8.20679 23.9783C3.43799 22.3523 0 17.7395 0 12.3035C0 5.50791 5.37359 0 12 0Z" fill="white"/>
</svg>
