<svg width="64" height="64" viewBox="0 0 64 64" fill="none" xmlns="http://www.w3.org/2000/svg">
<path fill-rule="evenodd" clip-rule="evenodd" d="M32 64C49.6731 64 64 49.6731 64 32C64 14.3269 49.6731 0 32 0C14.3269 0 0 14.3269 0 32C0 49.6731 14.3269 64 32 64Z" fill="white"/>
<path d="M34.0382 17.2547C32.2703 19.0226 31.4156 21.8173 31.0022 24.4177C30.6364 26.7193 30.6049 28.9474 30.6367 30.3524C29.2315 30.3203 27.0033 30.3518 24.7017 30.7177C22.1014 31.1312 19.3068 31.9861 17.539 33.7539C15.6236 35.6693 14.6251 37.8139 14.6251 40C14.6251 42.1861 15.6236 44.3307 17.539 46.2461C19.4544 48.1615 21.599 49.16 23.7851 49.16C25.9712 49.16 28.1158 48.1615 30.0312 46.2461C31.799 44.4783 32.6538 41.6835 33.0671 39.0832C33.433 36.7816 33.4645 34.5534 33.4326 33.1485C34.8378 33.1805 37.0661 33.149 39.3677 32.7831C41.968 32.3697 44.7626 31.5148 46.5304 29.747C48.4458 27.8316 49.4443 25.687 49.4443 23.5008C49.4443 21.3147 48.4458 19.1701 46.5304 17.2547C44.615 15.3393 42.4704 14.3408 40.2843 14.3408C38.0981 14.3408 35.9535 15.3393 34.0382 17.2547ZM28.1456 44.3605C26.192 46.3141 24.4346 46.6793 22.9961 46.4202C21.5179 46.1539 20.2748 45.2107 19.4246 44.3605C18.5744 43.5103 17.6312 42.2672 17.3649 40.7891C17.1058 39.3505 17.471 37.5932 19.4246 35.6395C20.7334 34.3308 23.0616 33.6378 25.4477 33.3006C27.5165 33.0082 29.5355 32.9948 30.7591 33.0262C30.7911 34.2497 30.7786 36.2677 30.4865 38.3359C30.1497 40.7213 29.4565 43.0496 28.1456 44.3605ZM44.6448 27.8613C43.336 29.1701 41.0078 29.863 38.6217 30.2003C36.5529 30.4927 34.5339 30.506 33.3103 30.4746C33.2783 29.2512 33.2908 27.2332 33.5829 25.1649C33.9197 22.7795 34.6129 20.4512 35.9238 19.1404C37.8774 17.1867 39.6348 16.8216 41.0733 17.0807C42.5514 17.3469 43.7945 18.2901 44.6448 19.1404C45.495 19.9906 46.4382 21.2337 46.7045 22.7118C46.9636 24.1503 46.5984 25.9077 44.6448 27.8613Z" fill="#5641F2" stroke="#5641F2"/>
</svg>
