<?xml version="1.0" encoding="UTF-8"?>
<svg width="25px" height="25px" viewBox="0 0 25 25" version="1.1" xmlns="http://www.w3.org/2000/svg" xmlns:xlink="http://www.w3.org/1999/xlink">
    <g id="Page-1" stroke="none" stroke-width="1" fill="none" fill-rule="evenodd">
        <g id="Desktop" transform="translate(-1167.000000, -4170.000000)" fill="#FFFFFF" fill-rule="nonzero">
            <g id="Group-17" transform="translate(0.000000, 4092.000000)">
                <g id="Group-12" transform="translate(1110.000000, 78.480469)">
                    <g id="logo-medium" transform="translate(57.333333, 0.000000)">
                        <path d="M23,0 L1,0 C0.44771525,-3.38176876e-17 6.76353751e-17,0.44771525 0,1 L0,23 C6.76353751e-17,23.5522847 0.44771525,24 1,24 L23,24 C23.5522847,24 24,23.5522847 24,23 L24,1 C24,0.44771525 23.5522847,3.38176876e-17 23,0 Z M19.938,5.686 L18.651,6.92 C18.5400806,7.00450717 18.4850385,7.1434597 18.508,7.281 L18.508,16.349 C18.4850385,16.4865403 18.5400806,16.6254928 18.651,16.71 L19.908,17.944 L19.908,18.215 L13.586,18.215 L13.586,17.944 L14.886,16.68 C15.014,16.552 15.014,16.514 15.014,16.319 L15.014,8.99 L11.393,18.19 L10.904,18.19 L6.691,8.99 L6.691,15.153 C6.6558556,15.4119539 6.74178114,15.6726807 6.924,15.86 L8.618,17.914 L8.618,18.185 L3.818,18.185 L3.818,17.914 L5.509,15.86 C5.68989412,15.6723698 5.77081941,15.4099195 5.727,15.153 L5.727,8.027 C5.74783051,7.82953703 5.67359414,7.6339242 5.527,7.5 L4.019,5.686 L4.019,5.415 L8.693,5.415 L12.306,13.339 L15.482,5.415 L19.938,5.415 L19.938,5.686 Z" id="Shape"></path>
                    </g>
                </g>
            </g>
        </g>
    </g>
</svg>