<?xml version="1.0" encoding="UTF-8"?>
<svg width="565px" height="190px" viewBox="0 0 565 190" version="1.1" xmlns="http://www.w3.org/2000/svg" xmlns:xlink="http://www.w3.org/1999/xlink">
    <g id="Messari-Verified" stroke="none" stroke-width="1" fill="none" fill-rule="evenodd">
        <rect id="Rectangle" fill="#FFFFFF" fill-rule="nonzero" x="0" y="0" width="565" height="191" rx="12"></rect>
        <g id="tcr_badge" transform="translate(417.000000, 24.000000)" fill-rule="nonzero">
            <ellipse id="Oval" fill="#FFFFFF" cx="65" cy="70.5" rx="37" ry="37.5"></ellipse>
            <path d="M5.99931677,25.4783304 L60.600905,0.490952132 C62.0401935,-0.167710915 63.6939482,-0.163440604 65.1298444,0.502646722 L118.61826,25.3149935 C120.221665,26.058785 121.364628,27.539207 121.682425,29.2838498 C126.071899,53.3812311 124.226144,75.7442161 116.145158,96.3728048 C107.7525,117.79701 90.3148597,133.339408 63.832238,143 C36.5881476,136.21034 18.185199,119.885419 8.62339202,94.0252377 C-0.53921348,69.2447076 -2.40016732,47.5382153 3.0405305,28.9057607 C3.48429585,27.3860091 4.56416544,26.1351001 5.99931677,25.4783304 Z M74.6131257,39.2274498 L59.6018874,54.6836552 L53.8675266,49.0573948 C52.5917921,47.8057096 50.5127243,47.7953249 49.2237983,49.0341999 C47.9348725,50.2730748 47.9241789,52.2920728 49.1999133,53.543758 L57.3250359,61.5157112 C58.631906,62.797945 60.7729798,62.7728844 62.0476459,61.4604343 L79.3907325,43.6032593 C80.6350301,42.3220778 80.574229,40.3039167 79.2549293,39.0955703 C77.9356296,37.8872239 75.8574233,37.9462683 74.6131257,39.2274498 Z M86.8290544,57.9491291 C86.8290544,57.585476 86.684353,57.2368979 86.4271305,56.980915 C85.8946211,56.4509721 85.0351172,56.4548527 84.5073749,56.9895826 L74.1873968,67.4462025 C73.9354545,67.7014807 73.7941045,68.0463435 73.7941045,68.4057491 L73.7941045,101.353241 C73.7941045,101.684094 73.9139342,102.003654 74.1312502,102.252337 C74.6257453,102.818205 75.4834346,102.874393 76.0469529,102.377836 L86.366931,93.2841511 C86.6606527,93.0253315 86.8290544,92.6519605 86.8290544,92.2595563 L86.8290544,57.9491291 Z M62.8784529,78.6356724 C62.3851418,79.0588894 61.6625507,79.07239 61.1539033,78.667893 L57.9459712,76.1168161 C57.7061249,75.9260807 57.409147,75.8222978 57.1031981,75.8222978 C56.3534794,75.8222978 55.7457122,76.4325992 55.7457122,77.1854442 L55.7457122,101.355836 C55.7457122,101.688095 55.8665607,102.008915 56.0855441,102.257997 C56.5817248,102.822375 57.4395778,102.875983 58.0016125,102.377734 L68.3215906,93.228968 C68.613476,92.9702086 68.7806622,92.5980505 68.7806622,92.2070705 L68.7806622,76.5295964 C68.7806622,76.2049544 68.6652808,75.8909701 68.45528,75.644143 C67.9682882,75.071751 67.1114149,75.0041666 66.5413998,75.493189 L62.8784529,78.6356724 Z M38.7000085,57.9464173 L38.7000085,101.371202 C38.7000085,102.124047 39.3077756,102.734349 40.0574944,102.734349 C40.3697725,102.734349 40.6725018,102.626234 40.9146524,102.42823 L51.2346305,93.9896856 C51.5512118,93.7308201 51.7349584,93.3426241 51.7349584,92.9326575 L51.7349584,68.3391512 C51.7349584,67.9782988 51.5924711,67.632169 51.3387337,67.3766425 L41.0187555,56.9839086 C40.489384,56.4508049 39.6298724,56.449569 39.0989824,56.9811478 C38.8435632,57.2368988 38.7000085,57.5842118 38.7000085,57.9464173 Z" id="Combined-Shape-Copy" fill="#FFFFFF"></path>
            <path d="M15.3390239,31.5038625 L61.5274354,10.4849085 C62.9570231,9.83434621 64.59535,9.83856844 66.0216268,10.4964908 L111.201754,31.3374784 C112.839736,32.0930573 114.000577,33.6183367 114.301497,35.4103648 C117.7152,55.7395031 115.98318,74.6334611 109.105436,92.0922386 C101.903841,110.373094 86.7944076,123.675682 63.7771362,132 C41.1286421,126.124011 25.7019845,112.153022 17.4971634,90.0870341 C9.70858038,69.1404739 7.98849509,50.7891289 12.3369075,35.0329992 C12.7695092,33.4655146 13.8692507,32.1727121 15.3390239,31.5038625 Z M73.8553854,43.3995245 L60.9745016,56.5880027 L56.0539458,51.7872245 C54.9592602,50.7191861 53.175248,50.710325 52.069243,51.7674329 C50.9632381,52.8245406 50.954062,54.5473121 52.0487477,55.6153506 L59.0207747,62.4176625 C60.1421774,63.5117675 61.9793957,63.4903838 63.0731646,62.3704958 L77.9549671,47.1333172 C79.0226773,46.0401101 78.9705048,44.3180527 77.8384366,43.2869943 C76.7063685,42.2559359 74.9230957,42.3063174 73.8553854,43.3995245 Z M83.8787879,59.9561429 C83.8787879,59.5929558 83.7360493,59.2445968 83.4818834,58.9874828 C82.9517957,58.4512463 82.0913413,58.4502245 81.5600048,58.9852008 L72.9686101,67.635447 C72.713061,67.8927466 72.5694445,68.2420838 72.5694445,68.6063892 L72.5694445,96.5156995 C72.5694445,96.8459278 72.6875042,97.1650686 72.9019382,97.4145016 C73.393797,97.9866392 74.2520983,98.0480409 74.8190079,97.5516462 L83.4104026,90.0288893 C83.7079053,89.7683915 83.8787879,89.3904434 83.8787879,88.9929425 L83.8787879,59.9561429 Z M63.2065981,77.2488634 C62.7147275,77.6681832 61.9987962,77.6815965 61.4918434,77.2809898 L59.1071372,75.396536 C58.8680056,75.2075682 58.5730435,75.1048904 58.2693279,75.1048904 C57.518787,75.1048904 56.9103536,75.718935 56.9103536,76.4763972 L56.9103536,96.5163717 C56.9103536,96.8480119 57.0294231,97.1684194 57.2455152,97.4182677 C57.7390671,97.9889183 58.5975466,98.0477294 59.1629827,97.549626 L67.7543774,89.9813031 C68.0500383,89.7208499 68.219697,89.3441181 68.219697,88.9480487 L68.219697,75.9290518 C68.219697,75.6050588 68.1060456,75.291527 67.8988835,75.0440191 C67.41456,74.4653711 66.5571377,74.3925268 65.9837772,74.8813169 L63.2065981,77.2488634 Z M42.1212121,59.9519333 L42.1212121,96.5496294 C42.1212121,97.3070917 42.7296457,97.9211362 43.4801864,97.9211362 C43.7902193,97.9211362 44.0909321,97.8141493 44.3324241,97.6179291 L52.9238188,90.637137 C53.2442324,90.3767904 53.4305555,89.9839848 53.4305555,89.5688374 L53.4305555,68.5493299 C53.4305555,68.1835678 53.2857915,67.832958 53.0284376,67.5754242 L44.4370429,58.9780277 C43.9040845,58.4446971 43.0436373,58.4483796 42.5151801,58.9862529 C42.2628119,59.2431179 42.1212121,59.5902021 42.1212121,59.9519333 Z" id="Combined-Shape" fill="#4A90E2"></path>
        </g>
        <path d="M22.46,34.3 L30.537,34.3 L38.491,55.374 L46.199,34.3 L54.112,34.3 L54.112,63 L48.249,63 L48.249,43.771 L40.787,63 L35.785,63 L28.323,43.771 L28.323,63 L22.46,63 L22.46,34.3 Z M63.032,34.3 L82.302,34.3 L82.302,39.589 L69.182,39.589 L69.182,46.026 L79.842,46.026 L79.842,51.069 L69.182,51.069 L69.182,57.711 L82.753,57.711 L82.753,63 L63.032,63 L63.032,34.3 Z M95.322,53.652 C95.4313339,55.0733404 96.0121614,56.2144957 97.0645,57.0755 C98.1168386,57.9365043 99.5176579,58.367 101.267,58.367 C102.715674,58.367 103.897829,58.0595031 104.8135,57.4445 C105.729171,56.8294969 106.187,55.9753388 106.187,54.882 C106.187,54.1166628 105.934169,53.5085023 105.4285,53.0575 C104.922831,52.6064977 104.212171,52.251168 103.2965,51.9915 C102.380829,51.731832 100.966343,51.4106686 99.053,51.028 C97.1669906,50.6726649 95.5816731,50.2148361 94.297,49.6545 C93.0123269,49.0941639 91.9668374,48.2605055 91.1605,47.1535 C90.3541626,46.0464945 89.951,44.5773425 89.951,42.746 C89.951,41.0786583 90.4088288,39.5890066 91.3245,38.277 C92.2401712,36.9649934 93.5111585,35.9331704 95.1375,35.1815 C96.7638415,34.4298296 98.6019898,34.054 100.652,34.054 C102.756677,34.054 104.649492,34.4434961 106.3305,35.2225 C108.011508,36.0015039 109.337162,37.0743265 110.3075,38.441 C111.277838,39.8076735 111.776667,41.3519914 111.804,43.074 L105.777,43.074 C105.640333,41.8439939 105.121005,40.8531704 104.219,40.1015 C103.316995,39.3498296 102.128007,38.974 100.652,38.974 C99.2853265,38.974 98.1920041,39.2609971 97.372,39.835 C96.5519959,40.4090029 96.142,41.2289947 96.142,42.295 C96.142,43.0603372 96.3879975,43.6548312 96.88,44.0785 C97.3720025,44.5021688 98.0689955,44.843832 98.971,45.1035 C99.8730045,45.363168 101.266991,45.6706649 103.153,46.026 C105.066343,46.3813351 106.678993,46.8254973 107.991,47.3585 C109.303007,47.8915027 110.362163,48.6978279 111.1685,49.7775 C111.974837,50.8571721 112.378,52.298991 112.378,54.103 C112.378,55.8523421 111.899671,57.4171598 110.943,58.7975 C109.986329,60.1778402 108.653842,61.2643294 106.9455,62.057 C105.237158,62.8496706 103.317011,63.246 101.185,63.246 C98.8889885,63.246 96.8458423,62.8291708 95.0555,61.9955 C93.2651577,61.1618292 91.8643384,60.0070074 90.853,58.531 C89.8416616,57.0549926 89.3223335,55.4013425 89.295,53.57 L95.322,53.652 Z M124.619,53.652 C124.728334,55.0733404 125.309161,56.2144957 126.3615,57.0755 C127.413839,57.9365043 128.814658,58.367 130.564,58.367 C132.012674,58.367 133.194829,58.0595031 134.1105,57.4445 C135.026171,56.8294969 135.484,55.9753388 135.484,54.882 C135.484,54.1166628 135.231169,53.5085023 134.7255,53.0575 C134.219831,52.6064977 133.509171,52.251168 132.5935,51.9915 C131.677829,51.731832 130.263343,51.4106686 128.35,51.028 C126.463991,50.6726649 124.878673,50.2148361 123.594,49.6545 C122.309327,49.0941639 121.263837,48.2605055 120.4575,47.1535 C119.651163,46.0464945 119.248,44.5773425 119.248,42.746 C119.248,41.0786583 119.705829,39.5890066 120.6215,38.277 C121.537171,36.9649934 122.808159,35.9331704 124.4345,35.1815 C126.060841,34.4298296 127.89899,34.054 129.949,34.054 C132.053677,34.054 133.946492,34.4434961 135.6275,35.2225 C137.308508,36.0015039 138.634162,37.0743265 139.6045,38.441 C140.574838,39.8076735 141.073667,41.3519914 141.101,43.074 L135.074,43.074 C134.937333,41.8439939 134.418005,40.8531704 133.516,40.1015 C132.613995,39.3498296 131.425007,38.974 129.949,38.974 C128.582327,38.974 127.489004,39.2609971 126.669,39.835 C125.848996,40.4090029 125.439,41.2289947 125.439,42.295 C125.439,43.0603372 125.684998,43.6548312 126.177,44.0785 C126.669002,44.5021688 127.365995,44.843832 128.268,45.1035 C129.170005,45.363168 130.563991,45.6706649 132.45,46.026 C134.363343,46.3813351 135.975993,46.8254973 137.288,47.3585 C138.600007,47.8915027 139.659163,48.6978279 140.4655,49.7775 C141.271837,50.8571721 141.675,52.298991 141.675,54.103 C141.675,55.8523421 141.196671,57.4171598 140.24,58.7975 C139.283329,60.1778402 137.950842,61.2643294 136.2425,62.057 C134.534158,62.8496706 132.614011,63.246 130.482,63.246 C128.185989,63.246 126.142842,62.8291708 124.3525,61.9955 C122.562158,61.1618292 121.161338,60.0070074 120.15,58.531 C119.138662,57.0549926 118.619333,55.4013425 118.592,53.57 L124.619,53.652 Z M146.044,63 L156.54,34.3 L163.92,34.3 L174.334,63 L167.733,63 L165.519,56.727 L154.613,56.727 L152.399,63 L146.044,63 Z M156.253,51.766 L163.838,51.766 L160.025,40.86 L156.253,51.766 Z M192.643,34.3 C194.720344,34.3 196.558492,34.6894961 198.1575,35.4685 C199.756508,36.2475039 200.993329,37.3613261 201.868,38.81 C202.742671,40.2586739 203.18,41.9396571 203.18,43.853 C203.18,45.6843425 202.742671,47.3038263 201.868,48.7115 C200.993329,50.1191737 199.790674,51.1919963 198.26,51.93 L203.918,63 L197.112,63 L192.315,53.365 L187.108,53.365 L187.108,63 L180.958,63 L180.958,34.3 L192.643,34.3 Z M187.108,48.24 L192.151,48.24 C193.599674,48.24 194.754496,47.8436706 195.6155,47.051 C196.476504,46.2583294 196.907,45.19234 196.907,43.853 C196.907,42.4863265 196.476504,41.4066706 195.6155,40.614 C194.754496,39.8213294 193.599674,39.425 192.151,39.425 L187.108,39.425 L187.108,48.24 Z M211.28,34.3 L217.43,34.3 L217.43,63 L211.28,63 L211.28,34.3 Z M20.902,83.3 L43.616,83.3 L43.616,88.589 L35.334,88.589 L35.334,112 L29.184,112 L29.184,88.589 L20.902,88.589 L20.902,83.3 Z M62.663,83.3 C64.7403437,83.3 66.578492,83.6894961 68.1775,84.4685 C69.776508,85.2475039 71.013329,86.3613261 71.888,87.81 C72.762671,89.2586739 73.2,90.9396571 73.2,92.853 C73.2,94.6843425 72.762671,96.3038263 71.888,97.7115 C71.013329,99.1191737 69.8106743,100.191996 68.28,100.93 L73.938,112 L67.132,112 L62.335,102.365 L57.128,102.365 L57.128,112 L50.978,112 L50.978,83.3 L62.663,83.3 Z M57.128,97.24 L62.171,97.24 C63.6196739,97.24 64.7744957,96.8436706 65.6355,96.051 C66.4965043,95.2583294 66.927,94.19234 66.927,92.853 C66.927,91.4863265 66.4965043,90.4066706 65.6355,89.614 C64.7744957,88.8213294 63.6196739,88.425 62.171,88.425 L57.128,88.425 L57.128,97.24 Z M78.799,112 L89.295,83.3 L96.675,83.3 L107.089,112 L100.488,112 L98.274,105.727 L87.368,105.727 L85.154,112 L78.799,112 Z M89.008,100.766 L96.593,100.766 L92.78,89.86 L89.008,100.766 Z M113.713,112 L113.713,83.3 L119.289,83.3 L131.466,101.381 L131.466,83.3 L137.534,83.3 L137.534,112 L131.917,112 L119.74,93.919 L119.74,112 L113.713,112 Z M151.292,102.652 C151.401334,104.07334 151.982161,105.214496 153.0345,106.0755 C154.086839,106.936504 155.487658,107.367 157.237,107.367 C158.685674,107.367 159.867829,107.059503 160.7835,106.4445 C161.699171,105.829497 162.157,104.975339 162.157,103.882 C162.157,103.116663 161.904169,102.508502 161.3985,102.0575 C160.892831,101.606498 160.182171,101.251168 159.2665,100.9915 C158.350829,100.731832 156.936343,100.410669 155.023,100.028 C153.136991,99.6726649 151.551673,99.2148361 150.267,98.6545 C148.982327,98.0941639 147.936837,97.2605055 147.1305,96.1535 C146.324163,95.0464945 145.921,93.5773425 145.921,91.746 C145.921,90.0786583 146.378829,88.5890066 147.2945,87.277 C148.210171,85.9649934 149.481159,84.9331704 151.1075,84.1815 C152.733841,83.4298296 154.57199,83.054 156.622,83.054 C158.726677,83.054 160.619492,83.4434961 162.3005,84.2225 C163.981508,85.0015039 165.307162,86.0743265 166.2775,87.441 C167.247838,88.8076735 167.746667,90.3519914 167.774,92.074 L161.747,92.074 C161.610333,90.8439939 161.091005,89.8531704 160.189,89.1015 C159.286995,88.3498296 158.098007,87.974 156.622,87.974 C155.255327,87.974 154.162004,88.2609971 153.342,88.835 C152.521996,89.4090029 152.112,90.2289947 152.112,91.295 C152.112,92.0603372 152.357998,92.6548312 152.85,93.0785 C153.342002,93.5021688 154.038995,93.843832 154.941,94.1035 C155.843005,94.363168 157.236991,94.6706649 159.123,95.026 C161.036343,95.3813351 162.648993,95.8254973 163.961,96.3585 C165.273007,96.8915027 166.332163,97.6978279 167.1385,98.7775 C167.944837,99.8571721 168.348,101.298991 168.348,103.103 C168.348,104.852342 167.869671,106.41716 166.913,107.7975 C165.956329,109.17784 164.623842,110.264329 162.9155,111.057 C161.207158,111.849671 159.287011,112.246 157.155,112.246 C154.858989,112.246 152.815842,111.829171 151.0255,110.9955 C149.235158,110.161829 147.834338,109.007007 146.823,107.531 C145.811662,106.054993 145.292333,104.401342 145.265,102.57 L151.292,102.652 Z M187.723,83.3 C189.77301,83.3 191.583825,83.6894961 193.1555,84.4685 C194.727175,85.2475039 195.943496,86.3613261 196.8045,87.81 C197.665504,89.2586739 198.096,90.9396571 198.096,92.853 C198.096,94.7663429 197.665504,96.4404928 196.8045,97.8755 C195.943496,99.3105072 194.727175,100.417496 193.1555,101.1965 C191.583825,101.975504 189.77301,102.365 187.723,102.365 L182.188,102.365 L182.188,112 L176.038,112 L176.038,83.3 L187.723,83.3 Z M182.188,97.24 L187.149,97.24 C188.597674,97.24 189.745662,96.8436706 190.593,96.051 C191.440338,95.2583294 191.864,94.19234 191.864,92.853 C191.864,91.4863265 191.440338,90.4066706 190.593,89.614 C189.745662,88.8213294 188.597674,88.425 187.149,88.425 L182.188,88.425 L182.188,97.24 Z M199.8,112 L210.296,83.3 L217.676,83.3 L228.09,112 L221.489,112 L219.275,105.727 L208.369,105.727 L206.155,112 L199.8,112 Z M210.009,100.766 L217.594,100.766 L213.781,89.86 L210.009,100.766 Z M246.399,83.3 C248.476344,83.3 250.314492,83.6894961 251.9135,84.4685 C253.512508,85.2475039 254.749329,86.3613261 255.624,87.81 C256.498671,89.2586739 256.936,90.9396571 256.936,92.853 C256.936,94.6843425 256.498671,96.3038263 255.624,97.7115 C254.749329,99.1191737 253.546674,100.191996 252.016,100.93 L257.674,112 L250.868,112 L246.071,102.365 L240.864,102.365 L240.864,112 L234.714,112 L234.714,83.3 L246.399,83.3 Z M240.864,97.24 L245.907,97.24 C247.355674,97.24 248.510496,96.8436706 249.3715,96.051 C250.232504,95.2583294 250.663,94.19234 250.663,92.853 C250.663,91.4863265 250.232504,90.4066706 249.3715,89.614 C248.510496,88.8213294 247.355674,88.425 245.907,88.425 L240.864,88.425 L240.864,97.24 Z M265.036,83.3 L284.306,83.3 L284.306,88.589 L271.186,88.589 L271.186,95.026 L281.846,95.026 L281.846,100.069 L271.186,100.069 L271.186,106.711 L284.757,106.711 L284.757,112 L265.036,112 L265.036,83.3 Z M292.447,112 L292.447,83.3 L298.023,83.3 L310.2,101.381 L310.2,83.3 L316.268,83.3 L316.268,112 L310.651,112 L298.474,93.919 L298.474,112 L292.447,112 Z M323.999,97.65 C323.999,94.7253187 324.566161,92.1628443 325.7005,89.9625 C326.834839,87.7621557 328.461156,86.0606727 330.5795,84.858 C332.697844,83.6553273 335.191986,83.054 338.062,83.054 C340.303345,83.054 342.312324,83.491329 344.089,84.366 C345.865676,85.240671 347.300661,86.4706587 348.394,88.056 C349.487339,89.6413413 350.143332,91.4726563 350.362,93.55 L344.212,93.55 C343.856665,91.9099918 343.111839,90.6185047 341.9775,89.6755 C340.843161,88.7324953 339.428675,88.261 337.734,88.261 C335.437989,88.261 333.62034,89.1219914 332.281,90.844 C330.94166,92.5660086 330.272,94.8346526 330.272,97.65 C330.272,100.438014 330.94166,102.699825 332.281,104.4355 C333.62034,106.171175 335.437989,107.039 337.734,107.039 C339.428675,107.039 340.843161,106.567505 341.9775,105.6245 C343.111839,104.681495 343.856665,103.390008 344.212,101.75 L350.362,101.75 C350.143332,103.827344 349.487339,105.658659 348.394,107.244 C347.300661,108.829341 345.865676,110.059329 344.089,110.934 C342.312324,111.808671 340.303345,112.246 338.062,112.246 C335.191986,112.246 332.697844,111.644673 330.5795,110.442 C328.461156,109.239327 326.834839,107.537844 325.7005,105.3375 C324.566161,103.137156 323.999,100.574681 323.999,97.65 Z M353.747,83.3 L360.922,83.3 L367.359,95.067 L374.124,83.3 L380.971,83.3 L370.434,101.34 L370.434,112 L364.284,112 L364.284,101.34 L353.747,83.3 Z M20,132.3 L26.519,132.3 L33.407,153.538 L40.459,132.3 L46.814,132.3 L37.097,161 L29.758,161 L20,132.3 Z M53.274,132.3 L72.544,132.3 L72.544,137.589 L59.424,137.589 L59.424,144.026 L70.084,144.026 L70.084,149.069 L59.424,149.069 L59.424,155.711 L72.995,155.711 L72.995,161 L53.274,161 L53.274,132.3 Z M92.37,132.3 C94.4473437,132.3 96.285492,132.689496 97.8845,133.4685 C99.483508,134.247504 100.720329,135.361326 101.595,136.81 C102.469671,138.258674 102.907,139.939657 102.907,141.853 C102.907,143.684342 102.469671,145.303826 101.595,146.7115 C100.720329,148.119174 99.5176743,149.191996 97.987,149.93 L103.645,161 L96.839,161 L92.042,151.365 L86.835,151.365 L86.835,161 L80.685,161 L80.685,132.3 L92.37,132.3 Z M86.835,146.24 L91.878,146.24 C93.3266739,146.24 94.4814957,145.843671 95.3425,145.051 C96.2035043,144.258329 96.634,143.19234 96.634,141.853 C96.634,140.486327 96.2035043,139.406671 95.3425,138.614 C94.4814957,137.821329 93.3266739,137.425 91.878,137.425 L86.835,137.425 L86.835,146.24 Z M111.007,132.3 L117.157,132.3 L117.157,161 L111.007,161 L111.007,132.3 Z M126.036,132.3 L144.978,132.3 L144.978,137.589 L132.186,137.589 L132.186,144.313 L142.682,144.313 L142.682,149.356 L132.186,149.356 L132.186,161 L126.036,161 L126.036,132.3 Z M152.34,132.3 L158.49,132.3 L158.49,161 L152.34,161 L152.34,132.3 Z M167.369,132.3 L186.639,132.3 L186.639,137.589 L173.519,137.589 L173.519,144.026 L184.179,144.026 L184.179,149.069 L173.519,149.069 L173.519,155.711 L187.09,155.711 L187.09,161 L167.369,161 L167.369,132.3 Z M194.78,132.3 L204.743,132.3 C207.613014,132.3 210.148156,132.908161 212.3485,134.1245 C214.548844,135.340839 216.243494,137.035489 217.4325,139.2085 C218.621506,141.381511 219.216,143.861986 219.216,146.65 C219.216,149.438014 218.621506,151.918489 217.4325,154.0915 C216.243494,156.264511 214.548844,157.959161 212.3485,159.1755 C210.148156,160.391839 207.613014,161 204.743,161 L194.78,161 L194.78,132.3 Z M204.743,155.875 C207.33968,155.875 209.355493,155.034508 210.7905,153.3535 C212.225507,151.672492 212.943,149.438014 212.943,146.65 C212.943,143.861986 212.225507,141.627508 210.7905,139.9465 C209.355493,138.265492 207.33968,137.425 204.743,137.425 L200.93,137.425 L200.93,155.875 L204.743,155.875 Z" id="MESSARITRANSPARENCYVERIFIED" fill="#4A90E2" fill-rule="nonzero"></path>
    </g>
</svg>