<svg width="275" height="47" viewBox="0 0 275 47" fill="none" xmlns="http://www.w3.org/2000/svg">
<rect width="275" height="47" rx="8" fill="#262439"/>
<circle cx="248" cy="23" r="10" fill="white"/>
<path fill-rule="evenodd" clip-rule="evenodd" d="M238.371 15.2013L247.115 11.1644C247.593 10.9438 248.144 10.9453 248.62 11.1683L257.129 15.1501C257.669 15.4031 258.048 15.9094 258.137 16.4994C258.749 20.5299 258.379 24.283 257.03 27.7587C255.574 31.5069 252.521 34.2344 247.869 35.9411C243.291 34.7363 240.173 31.8718 238.515 27.3476C236.996 23.2033 236.619 19.5545 237.384 16.4012C237.513 15.8716 237.876 15.4297 238.371 15.2013ZM249.906 17.7751L247.302 20.4792L246.308 19.4948C246.087 19.2758 245.726 19.274 245.502 19.4908C245.279 19.7075 245.277 20.0607 245.498 20.2797L246.907 21.6744C247.134 21.8988 247.505 21.8944 247.726 21.6648L250.734 18.5406C250.95 18.3165 250.939 17.9634 250.711 17.752C250.482 17.5406 250.121 17.5509 249.906 17.7751ZM251.728 21.5426C251.728 21.4249 251.682 21.3119 251.599 21.2283C251.425 21.0533 251.143 21.0522 250.968 21.2258L249.564 22.6187C249.479 22.7025 249.432 22.8166 249.432 22.9355V28.075C249.432 28.182 249.47 28.2855 249.54 28.3665C249.701 28.5531 249.983 28.5739 250.17 28.4129L251.574 27.2015C251.672 27.1168 251.728 26.9934 251.728 26.8636V21.5426ZM247.635 24.5047C247.474 24.6401 247.24 24.6444 247.074 24.5151L246.805 24.3059C246.745 24.259 246.671 24.2335 246.595 24.2335C246.405 24.2335 246.252 24.387 246.252 24.5764V28.0736C246.252 28.1811 246.291 28.285 246.361 28.3662C246.523 28.5523 246.804 28.5723 246.991 28.4107L248.395 27.192C248.492 27.1072 248.548 26.9843 248.548 26.8549V24.5144C248.548 24.4293 248.518 24.3468 248.464 24.2816C248.335 24.1286 248.107 24.1087 247.954 24.2373L247.635 24.5047ZM243.248 21.54V28.0991C243.248 28.3456 243.448 28.5454 243.695 28.5454C243.796 28.5454 243.895 28.5109 243.974 28.4475L245.378 27.3234C245.484 27.2387 245.545 27.1105 245.545 26.975V22.9244C245.545 22.805 245.497 22.6905 245.412 22.6066L244.008 21.2222C243.833 21.0492 243.55 21.0512 243.377 21.2267C243.295 21.3102 243.248 21.4228 243.248 21.54Z" fill="#4A90E2"/>
<path d="M19.64 28V22.816L21.248 27.232H22.376L23.984 22.816V28H25.544V19.6H23.792L21.812 24.844L19.832 19.6H18.08V28H19.64ZM27.8558 28H33.1718V26.56H29.4158V24.244H32.3318V22.804H29.4158V21.04H33.0518V19.6H27.8558V28ZM39.9181 21.028C39.4381 20.008 38.6341 19.504 37.4941 19.504C36.8341 19.504 36.2941 19.72 35.8501 20.164C35.4181 20.608 35.2021 21.148 35.2021 21.784C35.1781 23.332 36.4741 23.968 37.4701 24.388C38.1781 24.688 38.7181 25.072 38.7181 25.564C38.7181 26.296 38.3581 26.656 37.6261 26.656C36.8341 26.656 36.2821 26.092 35.9581 24.952L34.6981 25.744C34.8301 26.404 35.1661 26.968 35.6941 27.424C36.2221 27.868 36.8581 28.096 37.5901 28.096C39.2221 28.096 40.2781 27.112 40.2781 25.48C40.2901 24.028 38.9581 23.404 37.9501 22.96C37.2661 22.636 36.6901 22.24 36.6901 21.712C36.6901 21.268 37.0261 20.944 37.4941 20.944C37.9621 20.944 38.3581 21.244 38.6581 21.832L39.9181 21.028ZM46.9634 21.028C46.4834 20.008 45.6794 19.504 44.5394 19.504C43.8794 19.504 43.3394 19.72 42.8954 20.164C42.4634 20.608 42.2474 21.148 42.2474 21.784C42.2234 23.332 43.5194 23.968 44.5154 24.388C45.2234 24.688 45.7634 25.072 45.7634 25.564C45.7634 26.296 45.4034 26.656 44.6714 26.656C43.8794 26.656 43.3274 26.092 43.0034 24.952L41.7434 25.744C41.8754 26.404 42.2114 26.968 42.7394 27.424C43.2674 27.868 43.9034 28.096 44.6354 28.096C46.2674 28.096 47.3234 27.112 47.3234 25.48C47.3354 24.028 46.0034 23.404 44.9954 22.96C44.3114 22.636 43.7354 22.24 43.7354 21.712C43.7354 21.268 44.0714 20.944 44.5394 20.944C45.0074 20.944 45.4034 21.244 45.7034 21.832L46.9634 21.028ZM55.8291 28L52.9851 19.6H51.4251L48.5811 28H50.2611L50.8731 26.02H53.5371L54.1491 28H55.8291ZM53.0931 24.58H51.3171L52.2051 21.664L53.0931 24.58ZM63.0944 21.988C63.0944 20.548 62.1704 19.6 60.5384 19.6H57.4784V28H59.0384V24.376H59.8544L62.1104 28H63.8504L61.5224 24.244C62.5304 23.944 63.0944 23.104 63.0944 21.988ZM59.0384 22.936V21.04H60.5504C61.2104 21.04 61.5344 21.352 61.5344 21.988C61.5344 22.624 61.2104 22.936 60.5504 22.936H59.0384ZM65.555 19.6V28H67.115V19.6H65.555ZM74.7904 21.04V28H76.3504V21.04H78.6784V19.6H72.4624V21.04H74.7904ZM86.2366 21.988C86.2366 20.548 85.3126 19.6 83.6806 19.6H80.6206V28H82.1806V24.376H82.9966L85.2526 28H86.9926L84.6646 24.244C85.6726 23.944 86.2366 23.104 86.2366 21.988ZM82.1806 22.936V21.04H83.6926C84.3526 21.04 84.6766 21.352 84.6766 21.988C84.6766 22.624 84.3526 22.936 83.6926 22.936H82.1806ZM95.4643 28L92.6203 19.6H91.0603L88.2163 28H89.8963L90.5083 26.02H93.1723L93.7843 28H95.4643ZM92.7283 24.58H90.9523L91.8403 21.664L92.7283 24.58ZM101.842 25.144L98.7576 19.6H97.1136V28H98.6736V22.456L101.758 28H103.402V19.6H101.842V25.144ZM110.43 21.028C109.95 20.008 109.146 19.504 108.006 19.504C107.346 19.504 106.806 19.72 106.362 20.164C105.93 20.608 105.714 21.148 105.714 21.784C105.69 23.332 106.986 23.968 107.982 24.388C108.69 24.688 109.23 25.072 109.23 25.564C109.23 26.296 108.87 26.656 108.138 26.656C107.346 26.656 106.794 26.092 106.47 24.952L105.21 25.744C105.342 26.404 105.678 26.968 106.206 27.424C106.734 27.868 107.37 28.096 108.102 28.096C109.734 28.096 110.79 27.112 110.79 25.48C110.802 24.028 109.47 23.404 108.462 22.96C107.778 22.636 107.202 22.24 107.202 21.712C107.202 21.268 107.538 20.944 108.006 20.944C108.474 20.944 108.87 21.244 109.17 21.832L110.43 21.028ZM115.943 24.712C117.659 24.712 118.571 23.692 118.571 22.156C118.571 20.62 117.659 19.6 115.943 19.6H112.775V28H114.335V24.712H115.943ZM114.335 23.272V21.04H115.883C116.615 21.04 116.987 21.412 116.987 22.156C116.987 22.9 116.615 23.272 115.883 23.272H114.335ZM126.165 28L123.321 19.6H121.761L118.917 28H120.597L121.209 26.02H123.873L124.485 28H126.165ZM123.429 24.58H121.653L122.541 21.664L123.429 24.58ZM133.43 21.988C133.43 20.548 132.506 19.6 130.874 19.6H127.814V28H129.374V24.376H130.19L132.446 28H134.186L131.858 24.244C132.866 23.944 133.43 23.104 133.43 21.988ZM129.374 22.936V21.04H130.886C131.546 21.04 131.87 21.352 131.87 21.988C131.87 22.624 131.546 22.936 130.886 22.936H129.374ZM135.891 28H141.207V26.56H137.451V24.244H140.367V22.804H137.451V21.04H141.087V19.6H135.891V28ZM147.969 25.144L144.885 19.6H143.241V28H144.801V22.456L147.885 28H149.529V19.6H147.969V25.144ZM159.168 22.048C158.772 20.428 157.512 19.504 155.688 19.504C154.572 19.504 153.636 19.888 152.868 20.644C152.1 21.4 151.716 22.456 151.716 23.8C151.716 25.144 152.1 26.2 152.868 26.956C153.636 27.712 154.572 28.096 155.688 28.096C157.512 28.096 158.772 27.172 159.168 25.552L157.764 25.192C157.392 26.164 156.708 26.656 155.688 26.656C155.004 26.656 154.428 26.416 153.972 25.924C153.528 25.432 153.3 24.724 153.3 23.8C153.3 22.876 153.528 22.168 153.972 21.676C154.428 21.184 155.004 20.944 155.688 20.944C156.708 20.944 157.392 21.436 157.764 22.408L159.168 22.048ZM162.519 24.424V28H164.079V24.424L166.503 19.6H164.823L163.299 22.864L161.775 19.6H160.095L162.519 24.424ZM177.918 19.6H176.19L174.306 25.816L172.422 19.6H170.694L173.514 28H175.098L177.918 19.6ZM179.428 28H184.744V26.56H180.988V24.244H183.904V22.804H180.988V21.04H184.624V19.6H179.428V28ZM192.394 21.988C192.394 20.548 191.47 19.6 189.838 19.6H186.778V28H188.338V24.376H189.154L191.41 28H193.15L190.822 24.244C191.83 23.944 192.394 23.104 192.394 21.988ZM188.338 22.936V21.04H189.85C190.51 21.04 190.834 21.352 190.834 21.988C190.834 22.624 190.51 22.936 189.85 22.936H188.338ZM194.855 19.6V28H196.415V19.6H194.855ZM198.725 28H200.285V24.4H203.309V22.96H200.285V21.04H204.041V19.6H198.725V28ZM206.016 19.6V28H207.576V19.6H206.016ZM209.885 28H215.201V26.56H211.445V24.244H214.361V22.804H211.445V21.04H215.081V19.6H209.885V28ZM219.863 28C221.843 28 223.775 26.728 223.775 23.8C223.775 20.872 221.843 19.6 219.863 19.6H217.235V28H219.863ZM218.795 21.04H219.371C220.103 21.04 220.703 21.196 221.267 21.58C221.843 21.964 222.191 22.732 222.191 23.8C222.191 24.868 221.843 25.636 221.267 26.02C220.703 26.404 220.103 26.56 219.371 26.56H218.795V21.04Z" fill="white"/>
</svg>
