<svg width="64" height="64" viewBox="0 0 64 64" fill="none" xmlns="http://www.w3.org/2000/svg">
<path fill-rule="evenodd" clip-rule="evenodd" d="M32 64C49.6731 64 64 49.6731 64 32C64 14.3269 49.6731 0 32 0C14.3269 0 0 14.3269 0 32C0 49.6731 14.3269 64 32 64Z" fill="white"/>
<path d="M45.6929 35.7436C46.5833 35.0289 47.1905 33.8775 47.1905 32.6466C47.1905 30.4628 45.369 28.6761 43.1429 28.6761C40.9167 28.6761 39.0952 30.4628 39.0952 32.6466C39.0952 33.8775 39.7024 35.0289 40.5929 35.7436C39.2976 36.5377 38.4071 37.848 38.2857 39.4362L31.8095 34.6319V29.4702H35.0476C35.4929 29.4702 35.8571 29.1129 35.8571 28.6761V23.1174C35.8571 21.4101 34.9262 19.9013 33.55 19.0675C34.4405 18.3528 35.0476 17.2014 35.0476 15.9705C35.0476 13.7867 33.2262 12 31 12C28.7738 12 26.9524 13.7867 26.9524 15.9705C26.9524 17.2014 27.5595 18.3528 28.45 19.0675C27.0738 19.9013 26.1429 21.4101 26.1429 23.1174V28.6761C26.1429 29.1129 26.5071 29.4702 26.9524 29.4702H30.1905V34.6319L23.7143 39.3965C23.5929 37.848 22.7024 36.498 21.4071 35.7039C22.2976 35.0289 22.9048 33.8775 22.9048 32.6466C22.9048 30.4628 21.0833 28.6761 18.8571 28.6761C16.631 28.6761 14.8095 30.4628 14.8095 32.6466C14.8095 33.8775 15.4167 35.0289 16.3071 35.7436C14.931 36.5774 14 38.0862 14 39.7935V45.3522C14 45.789 14.3643 46.1463 14.8095 46.1463H22.9048C23.35 46.1463 23.7143 45.789 23.7143 45.3522V41.3817L31 36.0216L38.2857 41.3817V45.3522C38.2857 45.789 38.65 46.1463 39.0952 46.1463H47.1905C47.6357 46.1463 48 45.789 48 45.3522V39.7935C48 38.0862 47.069 36.5774 45.6929 35.7436ZM18.8571 30.2643C20.1929 30.2643 21.2857 31.3364 21.2857 32.6466C21.2857 33.9569 20.1929 35.0289 18.8571 35.0289C17.5214 35.0289 16.4286 33.9569 16.4286 32.6466C16.4286 31.3364 17.5214 30.2643 18.8571 30.2643ZM22.0952 44.5581H15.619V39.7935C15.619 38.0465 17.0762 36.6171 18.8571 36.6171C20.6381 36.6171 22.0952 38.0465 22.0952 39.7935V44.5581ZM31 13.5882C32.3357 13.5882 33.4286 14.6602 33.4286 15.9705C33.4286 17.2808 32.3357 18.3528 31 18.3528C29.6643 18.3528 28.5714 17.2808 28.5714 15.9705C28.5714 14.6602 29.6643 13.5882 31 13.5882ZM27.7619 27.882V23.1174C27.7619 21.3704 29.219 19.941 31 19.941C32.781 19.941 34.2381 21.3704 34.2381 23.1174V27.882H27.7619ZM43.1429 30.2643C44.4786 30.2643 45.5714 31.3364 45.5714 32.6466C45.5714 33.9569 44.4786 35.0289 43.1429 35.0289C41.8071 35.0289 40.7143 33.9569 40.7143 32.6466C40.7143 31.3364 41.8071 30.2643 43.1429 30.2643ZM46.3809 44.5581H39.9048V39.7935C39.9048 38.0465 41.3619 36.6171 43.1429 36.6171C44.9238 36.6171 46.3809 38.0465 46.3809 39.7935V44.5581Z" fill="#5641F2" stroke="#5641F2"/>
</svg>
