<svg width="300" height="300" viewBox="0 0 300 300" fill="none" xmlns="http://www.w3.org/2000/svg">
<circle cx="150" cy="150" r="150" fill="#7986CB"/>
<path d="M201 143.318L192.515 148.134L149.372 164.417L99 143.318L149.372 57L201 143.318Z" fill="#FEFEFE"/>
<path d="M201 143.318L149.372 172.607L99 143.318L149.372 119.8L201 143.318Z" fill="#C0CBF8"/>
<path d="M201 163.914L149.372 242.609L99 163.914L149.372 193.198L201 163.914Z" fill="#FEFEFE"/>
<path d="M201 163.914L149.372 242.609V193.198L201 163.914Z" fill="#C0CBF8"/>
<path d="M201 143.318L192.515 148.134L149.372 123.464V57L201 143.318Z" fill="#C0CBF8"/>
<path d="M201 143.318L149.372 172.607V119.8L201 143.318Z" fill="#9EABE2"/>
</svg>
