<svg xmlns="http://www.w3.org/2000/svg" width="300" height="300">
    <g fill="none" fill-rule="evenodd">
        <circle cx="150" cy="150" r="150" fill="#45992F"/>
        <path fill="#FFF" fill-rule="nonzero" d="M48.375 113c2.383 0 4.358.766 5.924 2.298 1.566 1.532 2.35 3.456 2.35 5.77 0 2.316-.784 4.256-2.35 5.822-1.566 1.567-3.54 2.35-5.924 2.35-2.383 0-4.375-.783-5.975-2.35-1.6-1.566-2.4-3.506-2.4-5.821s.8-4.239 2.4-5.77c1.6-1.533 3.592-2.299 5.975-2.299zm-7.252 21.857h14.402v52.498H41.123v-52.498zm52.702-18.997c8.308 0 14.742 1.634 19.304 4.902 4.562 3.269 6.843 7.899 6.843 13.89 0 4.427-1.225 8.001-3.677 10.725-2.451 2.724-5.924 4.494-10.418 5.311 5.312.68 9.414 2.383 12.308 5.107 2.894 2.723 4.34 6.536 4.34 11.439 0 6.264-2.383 11.184-7.149 14.759-4.766 3.574-11.507 5.362-20.223 5.362H66.657V115.86h27.168zm-11.847 29.415h12.256c3.268 0 5.822-.783 7.66-2.35 1.839-1.565 2.758-3.676 2.758-6.332 0-2.655-.92-4.766-2.758-6.332-1.838-1.566-4.392-2.35-7.66-2.35H81.978v17.364zm0 29.926h13.277c3.677 0 6.52-.783 8.529-2.35 2.008-1.566 3.013-3.745 3.013-6.536 0-2.928-1.022-5.192-3.064-6.792-2.043-1.6-4.869-2.4-8.478-2.4H81.978V175.2zm50.659 12.154V115.86h13.89l30.335 45.042V115.86h15.116v71.495h-13.993l-30.334-45.042v45.042h-15.014zM231.3 115.86c8.307 0 14.741 1.634 19.304 4.902 4.562 3.269 6.843 7.899 6.843 13.89 0 4.427-1.226 8.001-3.677 10.725-2.452 2.724-5.924 4.494-10.418 5.311 5.311.68 9.413 2.383 12.307 5.107 2.894 2.723 4.341 6.536 4.341 11.439 0 6.264-2.383 11.184-7.15 14.759-4.766 3.574-11.507 5.362-20.222 5.362h-28.496V115.86H231.3zm-11.848 29.415h12.256c3.269 0 5.822-.783 7.66-2.35 1.84-1.565 2.758-3.676 2.758-6.332 0-2.655-.919-4.766-2.757-6.332-1.839-1.566-4.392-2.35-7.66-2.35h-12.257v17.364zm0 29.926h13.278c3.677 0 6.52-.783 8.528-2.35 2.009-1.566 3.013-3.745 3.013-6.536 0-2.928-1.021-5.192-3.064-6.792-2.043-1.6-4.868-2.4-8.477-2.4h-13.278V175.2z"/>
    </g>
</svg>
