<svg width="300" height="300" viewBox="0 0 300 300" fill="none" xmlns="http://www.w3.org/2000/svg">
<path d="M150 300C232.843 300 300 232.843 300 150C300 67.1573 232.843 0 150 0C67.1573 0 0 67.1573 0 150C0 232.843 67.1573 300 150 300Z" fill="#F56070"/>
<path d="M58.0564 114.2C60.3898 114.2 62.3231 114.967 63.8564 116.5C65.3898 117.967 66.1564 119.833 66.1564 122.1C66.1564 124.367 65.3898 126.267 63.8564 127.8C62.3231 129.333 60.3898 130.1 58.0564 130.1C55.7231 130.1 53.7564 129.333 52.1564 127.8C50.6231 126.267 49.8564 124.367 49.8564 122.1C49.8564 119.833 50.6231 117.967 52.1564 116.5C53.7564 114.967 55.7231 114.2 58.0564 114.2ZM50.9564 135.6H65.0564V187H50.9564V135.6Z" fill="#1E1A31"/>
<path d="M102.582 117C110.716 117 117.016 118.6 121.482 121.8C125.949 125 128.182 129.533 128.182 135.4C128.182 139.733 126.982 143.233 124.582 145.9C122.182 148.567 118.782 150.3 114.382 151.1C119.582 151.767 123.582 153.433 126.382 156.1C129.249 158.767 130.682 162.5 130.682 167.3C130.682 173.433 128.349 178.267 123.682 181.8C119.016 185.267 112.416 187 103.882 187H75.9822V117H102.582ZM90.9822 145.8H102.982C106.182 145.8 108.682 145.033 110.482 143.5C112.282 141.967 113.182 139.9 113.182 137.3C113.182 134.7 112.282 132.633 110.482 131.1C108.682 129.567 106.182 128.8 102.982 128.8H90.9822V145.8ZM90.9822 175.1H103.982C107.582 175.1 110.349 174.333 112.282 172.8C114.282 171.267 115.282 169.133 115.282 166.4C115.282 163.533 114.282 161.333 112.282 159.8C110.282 158.2 107.516 157.4 103.982 157.4H90.9822V175.1Z" fill="#1E1A31"/>
<path d="M131.948 117H187.348V129.9H167.148V187H152.148V129.9H131.948V117Z" fill="#1E1A31"/>
<path d="M187.928 152C187.928 144.867 189.295 138.633 192.028 133.3C194.828 127.9 198.795 123.733 203.928 120.8C209.128 117.867 215.228 116.4 222.228 116.4C227.695 116.4 232.595 117.467 236.928 119.6C241.262 121.733 244.762 124.733 247.428 128.6C250.095 132.467 251.695 136.933 252.228 142H237.228C236.362 138 234.528 134.867 231.728 132.6C228.995 130.267 225.562 129.1 221.428 129.1C215.828 129.1 211.395 131.2 208.128 135.4C204.862 139.6 203.228 145.133 203.228 152C203.228 158.8 204.862 164.333 208.128 168.6C211.395 172.8 215.828 174.9 221.428 174.9C225.562 174.9 228.995 173.767 231.728 171.5C234.528 169.167 236.362 166 237.228 162H252.228C251.695 167.067 250.095 171.533 247.428 175.4C244.762 179.267 241.262 182.267 236.928 184.4C232.595 186.533 227.695 187.6 222.228 187.6C215.228 187.6 209.128 186.133 203.928 183.2C198.795 180.267 194.828 176.133 192.028 170.8C189.295 165.4 187.928 159.133 187.928 152Z" fill="#1E1A31"/>
</svg>
