<svg xmlns="http://www.w3.org/2000/svg" width="300" height="300">
    <g fill="none" fill-rule="evenodd">
        <circle cx="150" cy="150" r="150" fill="#c0392b"/>
        <path fill="#FFF" fill-rule="nonzero" d="M48.552 110c2.434 0 4.45.802 6.05 2.406 1.598 1.603 2.398 3.617 2.398 6.04 0 2.424-.8 4.455-2.399 6.095-1.599 1.64-3.615 2.459-6.049 2.459-2.433 0-4.467-.82-6.101-2.46-1.634-1.639-2.451-3.67-2.451-6.093 0-2.424.817-4.438 2.45-6.041 1.635-1.604 3.669-2.406 6.102-2.406zM42 134h15v55H42v-55zm56.177-21c8.922 0 15.832 1.737 20.732 5.211 4.9 3.475 7.349 8.397 7.349 14.766 0 4.705-1.316 8.505-3.949 11.4-2.633 2.895-6.362 4.777-11.188 5.646 5.704.724 10.11 2.533 13.217 5.428 3.108 2.896 4.662 6.949 4.662 12.16 0 6.66-2.56 11.889-7.678 15.689-5.12 3.8-12.359 5.7-21.719 5.7H69v-76h29.177zM85 144h14.054c3.748 0 6.676-.767 8.784-2.3 2.108-1.533 3.162-3.6 3.162-6.2s-1.054-4.667-3.162-6.2c-2.108-1.533-5.036-2.3-8.784-2.3H85v17zm0 33h14.444c4 0 7.093-.823 9.278-2.469 2.185-1.646 3.278-3.936 3.278-6.87 0-3.077-1.111-5.457-3.333-7.138-2.223-1.682-5.297-2.523-9.223-2.523H85v19zm44-64h60v14.006h-21.877V189h-16.246v-61.994H129V113zm62 39c0-7.815 1.484-14.661 4.453-20.54 2.97-5.88 7.226-10.426 12.77-13.64 5.545-3.213 12.072-4.82 19.584-4.82 5.866 0 11.125 1.169 15.775 3.506 4.65 2.337 8.406 5.623 11.267 9.86 2.862 4.235 4.579 9.128 5.151 14.679h-16.096c-.93-4.382-2.88-7.833-5.849-10.353-2.969-2.52-6.67-3.78-11.106-3.78-6.01 0-10.767 2.301-14.272 6.903-3.506 4.6-5.259 10.662-5.259 18.185 0 7.45 1.753 13.493 5.259 18.13 3.505 4.638 8.262 6.957 14.272 6.957 4.435 0 8.137-1.26 11.106-3.78 2.97-2.52 4.919-5.97 5.849-10.352H260c-.572 5.55-2.29 10.444-5.15 14.68-2.862 4.236-6.618 7.522-11.268 9.86-4.65 2.336-9.909 3.505-15.775 3.505-7.512 0-14.04-1.607-19.584-4.82-5.544-3.214-9.8-7.76-12.77-13.64C192.484 166.662 191 159.816 191 152z"/>
    </g>
</svg>
