<svg xmlns="http://www.w3.org/2000/svg" width="350" height="350">
    <g fill="none" fill-rule="evenodd">
        <circle cx="175" cy="175" r="175" fill="#D42351"/>
        <path fill="#FFF" fill-rule="nonzero" d="M50.061 129c2.863 0 5.236.943 7.117 2.83 1.881 1.887 2.822 4.256 2.822 7.107s-.94 5.241-2.822 7.17C55.297 148.036 52.924 149 50.06 149c-2.863 0-5.255-.964-7.178-2.893-1.922-1.929-2.883-4.319-2.883-7.17s.961-5.22 2.883-7.107c1.923-1.887 4.315-2.83 7.178-2.83zM41 156h18v65H41v-65zm28 20.5c0-9.117 1.764-17.105 5.292-23.964 3.529-6.86 8.587-12.163 15.176-15.912 6.59-3.75 14.347-5.624 23.274-5.624 6.971 0 13.22 1.363 18.746 4.09 5.527 2.726 9.99 6.56 13.39 11.503 3.401 4.942 5.442 10.65 6.122 17.126h-19.13c-1.104-5.112-3.421-9.138-6.95-12.078-3.528-2.94-7.927-4.41-13.198-4.41-7.142 0-12.796 2.685-16.962 8.053-4.165 5.368-6.248 12.44-6.248 21.216 0 8.691 2.083 15.742 6.248 21.152 4.166 5.411 9.82 8.116 16.962 8.116 5.27 0 9.67-1.47 13.199-4.41 3.528-2.939 5.845-6.965 6.95-12.077H151c-.68 6.476-2.72 12.184-6.121 17.126-3.401 4.942-7.864 8.777-13.39 11.503-5.527 2.727-11.776 4.09-18.747 4.09-8.927 0-16.685-1.875-23.274-5.624-6.589-3.749-11.647-9.053-15.176-15.912C70.764 193.605 69 185.617 69 176.5zm93-43.5h59.605v16.217h-40.582v19.737h32.973v15.463h-32.973v20.366H223V221h-61v-88zm95.023 43.12L229.394 133h23.067l17.49 27.657L287.82 133h20.785l-27.63 43.12L310 221h-23.193l-18.884-29.543L248.658 221H228l29.023-44.88z"/>
    </g>
</svg>
