<?xml version="1.0" encoding="UTF-8"?>
<svg width="300px" height="300px" viewBox="0 0 300 300" version="1.1" xmlns="http://www.w3.org/2000/svg" xmlns:xlink="http://www.w3.org/1999/xlink">
    <!-- Generator: Sketch 60 (88103) - https://sketch.com -->
    <title>iDEFI</title>
    <desc>Created with Sketch.</desc>
    <g id="Page-1" stroke="none" stroke-width="1" fill="none" fill-rule="evenodd">
        <g id="iDEFI">
            <g id="iCEX" fill="#D42351">
                <g id="Oval-Copy">
                    <circle cx="150" cy="150" r="150"></circle>
                </g>
            </g>
            <path d="M44.0490798,129 C46.3394683,129 48.2372188,128.228512 49.7423313,126.685535 C51.2474438,125.142558 52,123.230608 52,120.949686 C52,118.668763 51.2474438,116.773585 49.7423313,115.264151 C48.2372188,113.754717 46.3394683,113 44.0490798,113 C41.7586912,113 39.8445808,113.754717 38.3067485,115.264151 C36.7689162,116.773585 36,118.668763 36,120.949686 C36,123.230608 36.7689162,125.142558 38.3067485,126.685535 C39.8445808,128.228512 41.7586912,129 44.0490798,129 Z M51,188 L51,135 L37,135 L37,188 L51,188 Z M87.8708054,188 C95.0352349,188 101.363814,186.453095 106.856544,183.359286 C112.349273,180.265476 116.579698,175.955 119.547819,170.427857 C122.51594,164.900714 124,158.591429 124,151.5 C124,144.408571 122.51594,138.099286 119.547819,132.572143 C116.579698,127.045 112.349273,122.734524 106.856544,119.640714 C101.363814,116.546905 95.0352349,115 87.8708054,115 L87.8708054,115 L63,115 L63,188 L87.8708054,188 Z M87.8395904,175 L78,175 L78,128 L87.8395904,128 C94.5403868,128 99.7423208,130.141111 103.445392,134.423333 C107.148464,138.705556 109,144.397778 109,151.5 C109,158.602222 107.148464,164.294444 103.445392,168.576667 C99.7423208,172.858889 94.5403868,175 87.8395904,175 L87.8395904,175 Z M184,188 L184,174.547143 L150.280665,174.547143 L150.280665,157.652857 L176.767152,157.652857 L176.767152,144.825714 L150.280665,144.825714 L150.280665,128.452857 L182.879418,128.452857 L182.879418,115 L135,115 L135,188 L184,188 Z M208.584416,188 L208.584416,158.382857 L235.181818,158.382857 L235.181818,145.555714 L208.584416,145.555714 L208.584416,128.452857 L241,128.452857 L241,115 L193,115 L193,188 L208.584416,188 Z M265,188 L265,115 L250,115 L250,188 L265,188 Z" fill="#FFFFFF" fill-rule="nonzero"></path>
        </g>
    </g>
</svg>