<svg
  xmlns="http://www.w3.org/2000/svg" width="300" height="300">
  <g fill="none" fill-rule="evenodd">
    <circle cx="150.39" cy="150.271" r="149.576" fill="#c0392b"/>
    <path fill="#8E8C98" d="M86.257 205.645l-11.93-8.548L149.36 92.385l11.93 8.548z"/>
    <path fill="#FFF" d="M125.57 141.8a7.338 7.338 0 1 1 0 14.675h-19.047c-18.447 0-33.402-14.955-33.402-33.402 0-18.448 14.955-33.403 33.402-33.403h49.122a7.338 7.338 0 1 1 0 14.676h-49.122c-10.342 0-18.726 8.384-18.726 18.727 0 10.342 8.384 18.726 18.726 18.726h19.048z"/>
    <path fill="#FFF" d="M110.533 156.475a7.338 7.338 0 0 1 0-14.676h19.048c18.448 0 33.402 14.955 33.402 33.403s-14.954 33.403-33.402 33.403H80.459a7.338 7.338 0 1 1 0-14.676h49.122c10.342 0 18.726-8.384 18.726-18.727 0-10.342-8.384-18.727-18.726-18.727h-19.048z"/>
    <path fill="#FFF" fill-rule="nonzero" d="M174.006 189.49c0-5.368 1.056-9.526 3.168-12.474 2.112-2.948 5.104-4.422 8.976-4.422 2.86 0 5.17.792 6.93 2.376 1.76 1.584 2.904 3.828 3.432 6.732.44-3.432 1.54-6.083 3.3-7.953 1.76-1.87 4.224-2.805 7.392-2.805 4.048 0 7.227 1.54 9.537 4.62 2.31 3.08 3.465 7.436 3.465 13.068v18.414h-46.2V189.49zm19.008 7.656v-7.92c0-2.112-.506-3.762-1.518-4.95-1.012-1.188-2.376-1.782-4.092-1.782-1.716 0-3.08.594-4.092 1.782-1.012 1.188-1.518 2.838-1.518 4.95v7.92h11.22zm19.338 0v-8.58c0-2.376-.506-4.213-1.518-5.511s-2.42-1.947-4.224-1.947c-1.892 0-3.355.66-4.389 1.98-1.034 1.32-1.551 3.146-1.551 5.478v8.58h11.682zm-38.346-26.994v-36.564h8.514v13.332h37.686v9.9H182.52v13.332h-8.514zm23.1-36.96c-4.708 0-8.833-.913-12.375-2.739-3.542-1.826-6.281-4.444-8.217-7.854-1.936-3.41-2.904-7.425-2.904-12.045 0-3.608.704-6.842 2.112-9.702 1.408-2.86 3.388-5.17 5.94-6.93 2.552-1.76 5.5-2.816 8.844-3.168v9.9c-2.64.572-4.719 1.771-6.237 3.597-1.518 1.826-2.277 4.103-2.277 6.831 0 3.696 1.386 6.622 4.158 8.778 2.772 2.156 6.424 3.234 10.956 3.234 4.488 0 8.129-1.078 10.923-3.234 2.794-2.156 4.191-5.082 4.191-8.778 0-2.728-.759-5.005-2.277-6.831-1.518-1.826-3.597-3.025-6.237-3.597v-9.9c3.344.352 6.292 1.408 8.844 3.168 2.552 1.76 4.532 4.07 5.94 6.93 1.408 2.86 2.112 6.094 2.112 9.702 0 4.62-.968 8.635-2.904 12.045s-4.675 6.028-8.217 7.854c-3.542 1.826-7.667 2.739-12.375 2.739z"/>
  </g>
</svg>
