<svg xmlns="http://www.w3.org/2000/svg" width="300" height="300">
    <g fill="none" fill-rule="evenodd">
        <circle cx="150" cy="150" r="150" fill="#45992F"/>
        <path fill="#FFF" fill-rule="nonzero" d="M48.766 110c2.495 0 4.562.822 6.2 2.466 1.64 1.644 2.46 3.708 2.46 6.192s-.82 4.567-2.46 6.247c-1.638 1.68-3.705 2.52-6.2 2.52-2.494 0-4.579-.84-6.254-2.52-1.675-1.68-2.512-3.763-2.512-6.247s.837-4.548 2.512-6.192c1.675-1.644 3.76-2.466 6.254-2.466zm-7.677 22.871h15.248v56.634H41.089V132.87zm27.228-20.693h52.146v14.25H84.959v17.344h28.847v13.587H84.959v17.896h36.724v14.25H68.317v-77.327zm58.812 0h60.99v14.25H165.88v63.077h-16.514v-63.077h-22.238v-14.25zm69.703 0h16.393v31.041h30.382v-31.04H260v77.326h-16.393V157.58h-30.382v31.925h-16.393v-77.327z"/>
    </g>
</svg>
