<?xml version="1.0" encoding="UTF-8"?>
<svg width="300px" height="300px" viewBox="0 0 300 300" version="1.1" xmlns="http://www.w3.org/2000/svg" xmlns:xlink="http://www.w3.org/1999/xlink">
    <!-- Generator: Sketch 60 (88103) - https://sketch.com -->
    <title>iLINK</title>
    <desc>Created with Sketch.</desc>
    <g id="Page-1" stroke="none" stroke-width="1" fill="none" fill-rule="evenodd">
        <g id="iLINK">
            <g id="iCEX" fill="#D42351">
                <g id="Oval-Copy">
                    <circle cx="150" cy="150" r="150"></circle>
                </g>
            </g>
            <path d="M40.0490798,130 C42.3394683,130 44.2372188,129.228512 45.7423313,127.685535 C47.2474438,126.142558 48,124.230608 48,121.949686 C48,119.668763 47.2474438,117.773585 45.7423313,116.264151 C44.2372188,114.754717 42.3394683,114 40.0490798,114 C37.7586912,114 35.8445808,114.754717 34.3067485,116.264151 C32.7689162,117.773585 32,119.668763 32,121.949686 C32,124.230608 32.7689162,126.142558 34.3067485,127.685535 C35.8445808,129.228512 37.7586912,130 40.0490798,130 Z M47,187 L47,135 L33,135 L33,187 L47,187 Z M101,187 L101,174.1 L73.0700935,174.1 L73.0700935,117 L58,117 L58,187 L101,187 Z M124,187 L124,117 L109,117 L109,187 L124,187 Z M150.674699,187 L150.674699,142.9 L180.32358,187 L194,187 L194,117 L179.225473,117 L179.225473,161.1 L149.576592,117 L136,117 L136,187 L150.674699,187 Z M221.023847,187 L221.023847,168.573677 L230.939587,157.457797 L250.971383,187 L269,187 L241.556439,145.841202 L267.297297,117 L249.068362,117 L221.023847,148.444921 L221.023847,117 L206,117 L206,187 L221.023847,187 Z" fill="#FFFFFF" fill-rule="nonzero"></path>
        </g>
    </g>
</svg>