<svg width="300" height="300" viewBox="0 0 300 300" fill="none" xmlns="http://www.w3.org/2000/svg">
<path d="M150 300C232.843 300 300 232.843 300 150C300 67.1573 232.843 0 150 0C67.1573 0 0 67.1573 0 150C0 232.843 67.1573 300 150 300Z" fill="#F56070"/>
<path d="M42.0291 114.2C44.3624 114.2 46.2958 114.967 47.8291 116.5C49.3624 117.967 50.1291 119.833 50.1291 122.1C50.1291 124.367 49.3624 126.267 47.8291 127.8C46.2958 129.333 44.3624 130.1 42.0291 130.1C39.6958 130.1 37.7291 129.333 36.1291 127.8C34.5958 126.267 33.8291 124.367 33.8291 122.1C33.8291 119.833 34.5958 117.967 36.1291 116.5C37.7291 114.967 39.6958 114.2 42.0291 114.2ZM34.9291 135.6H49.0291V187H34.9291V135.6Z" fill="#1E1A31"/>
<path d="M59.9549 187V117H74.9549V174.1H102.755V187H59.9549Z" fill="#1E1A31"/>
<path d="M110.834 117H125.834V187H110.834V117Z" fill="#1E1A31"/>
<path d="M137.689 187V117H151.289L180.989 161.1V117H195.789V187H182.089L152.389 142.9V187H137.689Z" fill="#1E1A31"/>
<path d="M207.709 117.1H222.709V148.5L250.709 117.1H268.909L243.209 145.9L270.609 187H252.609L232.609 157.5L222.709 168.6V187H207.709V117.1Z" fill="#1E1A31"/>
</svg>
