<?xml version="1.0" encoding="UTF-8"?>
<svg width="300px" height="300px" viewBox="0 0 300 300" version="1.1" xmlns="http://www.w3.org/2000/svg" xmlns:xlink="http://www.w3.org/1999/xlink">
    <!-- Generator: Sketch 60 (88103) - https://sketch.com -->
    <title>iLTC</title>
    <desc>Created with Sketch.</desc>
    <g id="Page-1" stroke="none" stroke-width="1" fill="none" fill-rule="evenodd">
        <g id="iLTC">
            <g id="iCEX" fill="#D42351">
                <g id="Oval-Copy">
                    <circle cx="150" cy="150" r="150"></circle>
                </g>
            </g>
            <path d="M51.0613497,125 C53.9243354,125 56.2965235,124.083857 58.1779141,122.251572 C60.0593047,120.419287 61,118.148847 61,115.440252 C61,112.731656 60.0593047,110.481132 58.1779141,108.688679 C56.2965235,106.896226 53.9243354,106 51.0613497,106 C48.198364,106 45.805726,106.896226 43.8834356,108.688679 C41.9611452,110.481132 41,112.731656 41,115.440252 C41,118.148847 41.9611452,120.419287 43.8834356,122.251572 C45.805726,124.083857 48.198364,125 51.0613497,125 Z M60,194 L60,132 L43,132 L43,194 L60,194 Z M124,194 L124,178.52 L90.8738318,178.52 L90.8738318,110 L73,110 L73,194 L124,194 Z M157.935018,194 L157.935018,125.48 L182,125.48 L182,110 L116,110 L116,125.48 L140.064982,125.48 L140.064982,194 L157.935018,194 Z M224.07465,194 C230.621047,194 236.488854,192.726592 241.678072,190.179775 C246.867289,187.632959 251.05858,184.051498 254.251944,179.435393 C257.445308,174.819288 259.361327,169.486891 260,163.438202 L260,163.438202 L242.037325,163.438202 C240.999482,168.213483 238.824002,171.974017 235.510886,174.719803 C232.197771,177.46559 228.066356,178.838483 223.116641,178.838483 C216.410575,178.838483 211.101607,176.311564 207.189736,171.257725 C203.277864,166.203886 201.321928,159.617978 201.321928,151.5 C201.321928,143.302434 203.277864,136.696629 207.189736,131.682584 C211.101607,126.668539 216.410575,124.161517 223.116641,124.161517 C228.066356,124.161517 232.197771,125.53441 235.510886,128.280197 C238.824002,131.025983 240.999482,134.786517 242.037325,139.561798 L242.037325,139.561798 L260,139.561798 C259.361327,133.513109 257.445308,128.180712 254.251944,123.564607 C251.05858,118.948502 246.867289,115.367041 241.678072,112.820225 C236.488854,110.273408 230.621047,109 224.07465,109 C215.692068,109 208.407206,110.750936 202.220062,114.252809 C196.032919,117.754682 191.282789,122.709036 187.969673,129.115871 C184.656558,135.522706 183,142.984082 183,151.5 C183,160.015918 184.656558,167.477294 187.969673,173.884129 C191.282789,180.290964 196.032919,185.245318 202.220062,188.747191 C208.407206,192.249064 215.692068,194 224.07465,194 Z" fill="#FFFFFF" fill-rule="nonzero"></path>
        </g>
    </g>
</svg>