<svg xmlns="http://www.w3.org/2000/svg" width="300" height="300">
    <g fill="none" fill-rule="evenodd">
        <circle cx="149.576" cy="149.576" r="149.576" fill="#BE392A"/>
        <path fill="#FFF" fill-rule="nonzero" d="M39.118 114c2.31 0 4.224.742 5.742 2.228 1.518 1.485 2.277 3.349 2.277 5.593 0 2.244-.759 4.125-2.277 5.643-1.518 1.518-3.432 2.277-5.742 2.277s-4.24-.759-5.791-2.277c-1.552-1.518-2.327-3.399-2.327-5.643 0-2.244.775-4.108 2.327-5.593 1.55-1.486 3.481-2.228 5.791-2.228zm-7.029 21.186h13.959v50.886H32.089v-50.886zm24.75-18.414h19.503l19.206 50.886 18.612-50.886h19.107v69.3H119.11v-46.431l-18.018 46.431H89.014l-18.018-46.431v46.431H56.839v-69.3zm88.308.099h14.85v31.086l27.72-31.086h18.018l-25.443 28.512 27.126 40.689h-17.82l-19.8-29.205-9.801 10.989v18.216h-14.85v-69.201zm95.832-.099c5.016 0 9.454.94 13.315 2.822 3.862 1.88 6.848 4.57 8.96 8.068 2.112 3.498 3.168 7.557 3.168 12.177 0 4.422-1.056 8.332-3.168 11.732-2.112 3.399-5.016 5.989-8.712 7.771l13.662 26.73H251.77l-11.583-23.265h-12.573v23.265h-14.85v-69.3h28.215zm-13.365 33.66h12.177c3.498 0 6.286-.957 8.365-2.871 2.08-1.914 3.119-4.488 3.119-7.722 0-3.3-1.04-5.907-3.119-7.821-2.079-1.914-4.867-2.871-8.365-2.871h-12.177v21.285z"/>
    </g>
</svg>
