<svg xmlns="http://www.w3.org/2000/svg" width="300" height="300">
    <g fill="none" fill-rule="evenodd">
        <circle cx="149.576" cy="149.576" r="149.576" fill="#BE392A"/>
        <path fill="#FFF" fill-rule="nonzero" d="M47.61 111c2.45 0 4.48.787 6.09 2.362 1.61 1.576 2.415 3.553 2.415 5.933s-.805 4.375-2.415 5.985c-1.61 1.61-3.64 2.415-6.09 2.415-2.45 0-4.497-.805-6.142-2.415-1.646-1.61-2.468-3.605-2.468-5.985 0-2.38.822-4.357 2.468-5.933C43.113 111.787 45.16 111 47.61 111zm-7.455 22.47H54.96v53.97H40.155v-53.97zm22.26-19.53h58.17v13.545h-21.21v59.955h-15.75v-59.955h-21.21V113.94zm96.705 0c5.32 0 10.027.997 14.123 2.993 4.095 1.995 7.262 4.847 9.502 8.557 2.24 3.71 3.36 8.015 3.36 12.915 0 4.69-1.12 8.837-3.36 12.442-2.24 3.606-5.32 6.353-9.24 8.243l14.49 28.35h-17.43l-12.285-24.675h-13.335v24.675h-15.75v-73.5h29.925zm-14.175 35.7h12.915c3.71 0 6.667-1.015 8.872-3.045 2.206-2.03 3.308-4.76 3.308-8.19 0-3.5-1.102-6.265-3.308-8.295-2.205-2.03-5.162-3.045-8.872-3.045h-12.915v22.575zm70.77.315l-22.89-36.015h19.11l14.49 23.1 14.805-23.1h17.22l-22.89 36.015 24.045 37.485H240.39l-15.645-24.675-15.96 24.675H191.67l24.045-37.485z"/>
    </g>
</svg>
