<?xml version="1.0" encoding="UTF-8"?>
<svg width="300px" height="300px" viewBox="0 0 300 300" version="1.1" xmlns="http://www.w3.org/2000/svg" xmlns:xlink="http://www.w3.org/1999/xlink">
    <!-- Generator: Sketch 60 (88103) - https://sketch.com -->
    <title>iXRP</title>
    <desc>Created with Sketch.</desc>
    <g id="Page-1" stroke="none" stroke-width="1" fill="none" fill-rule="evenodd">
        <g id="iXRP">
            <g id="iCEX" fill="#D42351">
                <g id="Oval-Copy">
                    <circle cx="150" cy="150" r="150"></circle>
                </g>
            </g>
            <path d="M41.0552147,127 C43.6319018,127 45.7668712,126.180294 47.4601227,124.540881 C49.1533742,122.901468 50,120.870021 50,118.446541 C50,116.023061 49.1533742,114.009434 47.4601227,112.40566 C45.7668712,110.801887 43.6319018,110 41.0552147,110 C38.4785276,110 36.3251534,110.801887 34.595092,112.40566 C32.8650307,114.009434 32,116.023061 32,118.446541 C32,120.870021 32.8650307,122.901468 34.595092,124.540881 C36.3251534,126.180294 38.4785276,127 41.0552147,127 Z M50,191 L50,134 L34,134 L34,191 L50,191 Z M74.1391036,191 L91.0540958,164.814286 L107.63524,191 L128,191 L102.516229,151.22 L126.775889,113 L108.525502,113 L92.8346213,137.514286 L77.4775889,113 L57.2241113,113 L81.4837713,151.22 L56,191 L74.1391036,191 Z M152.875,191 L152.875,164.814286 L167.1625,164.814286 L180.325,191 L199,191 L183.475,160.914286 C187.675,158.908571 190.975,155.992857 193.375,152.167143 C195.775,148.341429 196.975,143.94 196.975,138.962857 C196.975,133.762857 195.775,129.194286 193.375,125.257143 C190.975,121.32 187.58125,118.292857 183.19375,116.175714 C178.80625,114.058571 173.7625,113 168.0625,113 L168.0625,113 L136,113 L136,191 L152.875,191 Z M167.895397,151 L154,151 L154,127 L167.895397,127 C171.887029,127 175.069038,128.07907 177.441423,130.237209 C179.813808,132.395349 181,135.334884 181,139.055814 C181,142.702326 179.813808,145.604651 177.441423,147.762791 C175.069038,149.92093 171.887029,151 167.895397,151 L167.895397,151 Z M224.728625,191 L224.728625,164.814286 L239.784387,164.814286 C245.360595,164.814286 250.286245,163.755714 254.561338,161.638571 C258.836431,159.521429 262.144981,156.512857 264.486989,152.612857 C266.828996,148.712857 268,144.162857 268,138.962857 C268,133.762857 266.828996,129.194286 264.486989,125.257143 C262.144981,121.32 258.836431,118.292857 254.561338,116.175714 C250.286245,114.058571 245.360595,113 239.784387,113 L239.784387,113 L208,113 L208,191 L224.728625,191 Z M238.84322,151 L225,151 L225,127 L238.84322,127 C242.885593,127 246.088983,128.07907 248.45339,130.237209 C250.817797,132.395349 252,135.334884 252,139.055814 C252,142.702326 250.817797,145.604651 248.45339,147.762791 C246.088983,149.92093 242.885593,151 238.84322,151 L238.84322,151 Z" fill="#FFFFFF" fill-rule="nonzero"></path>
        </g>
    </g>
</svg>