<svg xmlns="http://www.w3.org/2000/svg" width="300" height="300">
    <g fill="none" fill-rule="evenodd">
        <circle cx="149.576" cy="149.576" r="149.576" fill="#BE392A"/>
        <path fill="#FFF" fill-rule="nonzero" d="M49.61 111c2.45 0 4.48.787 6.09 2.362 1.61 1.576 2.415 3.553 2.415 5.933s-.805 4.375-2.415 5.985c-1.61 1.61-3.64 2.415-6.09 2.415-2.45 0-4.497-.805-6.142-2.415-1.646-1.61-2.468-3.605-2.468-5.985 0-2.38.822-4.357 2.468-5.933C45.113 111.787 47.16 111 49.61 111zm-7.455 22.47H56.96v53.97H42.155v-53.97zm45.57 16.485l-22.89-36.015h19.11l14.49 23.1 14.805-23.1h17.22l-22.89 36.015 24.045 37.485H112.4l-15.645-24.675-15.96 24.675H63.68l24.045-37.485zM135.5 113.94h58.17v13.545h-21.21v59.955h-15.75v-59.955H135.5V113.94zm64.26 0h58.38v10.395L220.445 174h38.64v13.44h-60.27v-10.395l37.695-49.665h-36.75v-13.44z"/>
    </g>
</svg>
