<svg width="300" height="300" viewBox="0 0 300 300" fill="none" xmlns="http://www.w3.org/2000/svg">
<path d="M150 300C232.843 300 300 232.843 300 150C300 67.1573 232.843 0 150 0C67.1573 0 0 67.1573 0 150C0 232.843 67.1573 300 150 300Z" fill="#10BA97"/>
<path d="M221 210.639L179 195.279V184.479L221 169.239V178.899L211.82 182.139V198.099L221 201.339V210.639ZM204.56 195.699V184.599L188.6 190.179L204.56 195.699Z" fill="#1E1A31"/>
<path d="M179 159.204H203.36C206.76 159.204 209.32 158.544 211.04 157.224C212.76 155.904 213.62 153.824 213.62 150.984C213.62 148.144 212.76 146.064 211.04 144.744C209.32 143.384 206.76 142.704 203.36 142.704H179V133.704H202.88C208.88 133.704 213.46 135.184 216.62 138.144C219.78 141.064 221.36 145.344 221.36 150.984C221.36 156.624 219.78 160.904 216.62 163.824C213.46 166.744 208.88 168.204 202.88 168.204H179V159.204Z" fill="#1E1A31"/>
<path d="M179 126.83V112.25C179 108.05 179.9 104.35 181.7 101.15C183.46 97.9097 185.94 95.4297 189.14 93.7097C192.3 91.9497 195.92 91.0697 200 91.0697C204.08 91.0697 207.72 91.9497 210.92 93.7097C214.08 95.4297 216.56 97.9097 218.36 101.15C220.12 104.35 221 108.05 221 112.25L221 126.83L179 126.83ZM213.5 112.25C213.5 108.45 212.28 105.51 209.84 103.43C207.36 101.31 204.08 100.25 200 100.25C195.92 100.25 192.66 101.31 190.22 103.43C187.74 105.51 186.5 108.45 186.5 112.25V117.83H213.5L213.5 112.25Z" fill="#1E1A31"/>
<path opacity="0.5" fill-rule="evenodd" clip-rule="evenodd" d="M81.4239 208.528L68.9404 199.622L147.457 90.5283L159.94 99.4343L81.4239 208.528Z" fill="#1E1A31"/>
<path fill-rule="evenodd" clip-rule="evenodd" d="M121.868 142.349H126.059C145.357 142.349 161 157.941 161 177.175C161 196.408 145.357 212 126.059 212H74.6759C70.4366 212 67 208.575 67 204.349C67 200.124 70.4366 196.699 74.6759 196.699H126.059C136.878 196.699 145.648 187.958 145.648 177.175C145.648 166.392 136.878 157.651 126.059 157.651H106.135H106.132H101.941C82.6434 157.651 67 142.059 67 122.825C67 103.592 82.6434 88 101.941 88H153.324C157.563 88 161 91.4253 161 95.6505C161 99.8758 157.563 103.301 153.324 103.301H101.941C91.1219 103.301 82.3517 112.042 82.3517 122.825C82.3517 133.608 91.1219 142.349 101.941 142.349H121.865C121.866 142.349 121.867 142.349 121.868 142.349Z" fill="#1E1A31"/>
</svg>
