<svg xmlns="http://www.w3.org/2000/svg" xmlns:xlink="http://www.w3.org/1999/xlink" width="300" height="300">
    <defs>
        <path id="a" d="M.348 59.82l15.05-41.152H25.98L40.913 59.82h-9.465l-3.175-8.995H12.635L9.46 59.82H.348zm14.639-16.108h10.876l-5.468-15.638-5.408 15.638zM50.73 18.668v23.868c0 3.332.647 5.84 1.94 7.526 1.293 1.685 3.331 2.528 6.114 2.528s4.83-.843 6.144-2.528c1.313-1.686 1.97-4.194 1.97-7.526V18.668h8.818v23.398c0 5.88-1.44 10.367-4.321 13.463-2.881 3.096-7.085 4.644-12.61 4.644-5.527 0-9.72-1.548-12.582-4.644-2.861-3.096-4.292-7.584-4.292-13.463V18.668h8.819zm31.746 0h14.286c4.116 0 7.75.872 10.906 2.616 3.155 1.744 5.585 4.174 7.29 7.29 1.705 3.116 2.557 6.672 2.557 10.67s-.852 7.555-2.557 10.67c-1.705 3.116-4.135 5.546-7.29 7.29-3.155 1.745-6.79 2.617-10.906 2.617H82.477V18.668zm14.286 33.804c3.724 0 6.614-1.205 8.672-3.616 2.058-2.41 3.086-5.614 3.086-9.612s-1.028-7.202-3.086-9.612-4.948-3.616-8.672-3.616h-5.467v26.456h5.467z"/>
    </defs>
    <g fill="none" fill-rule="evenodd">
        <circle cx="150.39" cy="150.271" r="149.576" fill="#FFF"/>
        <path fill="#8E8C98" d="M87.203 204.618l-11.93-8.548 75.033-104.712 11.929 8.548z"/>
        <path fill="#1E1A31" d="M126.517 140.772a7.338 7.338 0 1 1 0 14.676h-19.048c-18.448 0-33.402-14.955-33.402-33.402 0-18.448 14.954-33.403 33.402-33.403h49.122a7.338 7.338 0 1 1 0 14.676H107.47c-10.342 0-18.726 8.384-18.726 18.727 0 10.342 8.384 18.726 18.726 18.726h19.048z"/>
        <path fill="#1E1A31" d="M111.48 155.448a7.338 7.338 0 0 1 0-14.676h19.047c18.447 0 33.402 14.955 33.402 33.403s-14.955 33.403-33.402 33.403H81.405a7.338 7.338 0 1 1 0-14.676h49.122c10.342 0 18.726-8.384 18.726-18.727 0-10.342-8.384-18.727-18.726-18.727h-19.048z"/>
        <g>
            <g transform="rotate(-90 183.62 25.62)">
                <use fill="#000" xlink:href="#a"/>
                <use fill="#1E1A31" xlink:href="#a"/>
            </g>
        </g>
    </g>
</svg>
