<svg xmlns="http://www.w3.org/2000/svg" width="300" height="300">
    <g fill="none" fill-rule="evenodd">
        <ellipse cx="149.984" cy="150.288" fill="#45992F" rx="149.098" ry="149.611"/>
        <g fill="#FFF">
            <path d="M132.032 141.727c4.04 0 7.315 3.286 7.315 7.34s-3.275 7.34-7.315 7.34h-18.986c-18.389 0-33.296-14.959-33.296-33.41 0-18.453 14.907-33.411 33.296-33.411h48.965c4.04 0 7.314 3.286 7.314 7.34 0 4.053-3.274 7.34-7.314 7.34h-48.965c-10.31 0-18.667 8.385-18.667 18.73s8.357 18.731 18.667 18.731h18.986z"/>
            <path d="M117.043 156.407c-4.04 0-7.315-3.286-7.315-7.34s3.275-7.34 7.315-7.34h18.986c18.39 0 33.296 14.959 33.296 33.41 0 18.453-14.907 33.411-33.296 33.411H87.064c-4.04 0-7.314-3.286-7.314-7.34 0-4.053 3.275-7.34 7.314-7.34h48.965c10.31 0 18.667-8.385 18.667-18.73s-8.357-18.731-18.667-18.731h-18.986z"/>
            <path fill-opacity=".5" d="M92.844 205.587l-11.891-8.55 74.792-104.735 11.892 8.55z"/>
        </g>
        <path fill="#FFF" fill-rule="nonzero" d="M178.5 191.247c0-4.961.976-8.804 2.928-11.529 1.952-2.725 4.717-4.087 8.296-4.087 2.643 0 4.778.732 6.405 2.196 1.627 1.464 2.684 3.538 3.172 6.222.407-3.172 1.423-5.622 3.05-7.35 1.627-1.729 3.904-2.593 6.832-2.593 3.741 0 6.68 1.423 8.814 4.27 2.136 2.847 3.203 6.873 3.203 12.078v17.019h-42.7v-16.226zm17.568 7.076v-7.32c0-1.952-.468-3.477-1.403-4.575-.935-1.098-2.196-1.647-3.782-1.647-1.586 0-2.847.549-3.782 1.647-.935 1.098-1.403 2.623-1.403 4.575v7.32h10.37zm17.873 0v-7.93c0-2.196-.468-3.894-1.403-5.094-.935-1.2-2.237-1.799-3.904-1.799-1.749 0-3.1.61-4.056 1.83-.956 1.22-1.434 2.908-1.434 5.063v7.93h10.797zm7.259-30.256h-42.7v-8.296l26.901-18.117H178.5v-9.028h42.7v8.357L194.299 159.1H221.2v8.967zm-42.7-58.926c0-4.961.976-8.804 2.928-11.529 1.952-2.725 4.717-4.087 8.296-4.087 2.643 0 4.778.732 6.405 2.196 1.627 1.464 2.684 3.538 3.172 6.222.407-3.172 1.423-5.622 3.05-7.35 1.627-1.729 3.904-2.593 6.832-2.593 3.741 0 6.68 1.423 8.814 4.27 2.136 2.847 3.203 6.873 3.203 12.078v17.019h-42.7v-16.226zm17.568 7.076v-7.32c0-1.952-.468-3.477-1.403-4.575-.935-1.098-2.196-1.647-3.782-1.647-1.586 0-2.847.549-3.782 1.647-.935 1.098-1.403 2.623-1.403 4.575v7.32h10.37zm17.873 0v-7.93c0-2.196-.468-3.894-1.403-5.094-.935-1.2-2.237-1.799-3.904-1.799-1.749 0-3.1.61-4.056 1.83-.956 1.22-1.434 2.908-1.434 5.063v7.93h10.797z"/>
    </g>
</svg>
