<svg xmlns="http://www.w3.org/2000/svg" width="300" height="300">
    <g fill="none" fill-rule="evenodd">
        <circle cx="150.39" cy="150.271" r="149.576" fill="#FFF"/>
        <path fill="#8E8C98" d="M84.257 205.645l-11.93-8.548L147.36 92.385l11.93 8.548z"/>
        <path fill="#1E1A31" d="M123.57 141.8a7.338 7.338 0 1 1 0 14.675h-19.047c-18.447 0-33.402-14.955-33.402-33.402 0-18.448 14.955-33.403 33.402-33.403h49.122a7.338 7.338 0 1 1 0 14.676h-49.122c-10.342 0-18.726 8.384-18.726 18.727 0 10.342 8.384 18.726 18.726 18.726h19.048z"/>
        <path fill="#1E1A31" d="M108.533 156.475a7.338 7.338 0 0 1 0-14.676h19.048c18.448 0 33.402 14.955 33.402 33.403s-14.954 33.403-33.402 33.403H78.459a7.338 7.338 0 1 1 0-14.676h49.122c10.342 0 18.726-8.384 18.726-18.727 0-10.342-8.384-18.727-18.726-18.727h-19.048z"/>
        <path fill="#1E1A31" fill-rule="nonzero" d="M172.488 184.972c0-5.368 1.056-9.526 3.168-12.474 2.112-2.948 5.104-4.422 8.976-4.422 2.86 0 5.17.792 6.93 2.376 1.76 1.584 2.904 3.828 3.432 6.732.44-3.432 1.54-6.083 3.3-7.953 1.76-1.87 4.224-2.805 7.392-2.805 4.048 0 7.227 1.54 9.537 4.62 2.31 3.08 3.465 7.436 3.465 13.068v18.414h-46.2v-17.556zm19.008 7.656v-7.92c0-2.112-.506-3.762-1.518-4.95-1.012-1.188-2.376-1.782-4.092-1.782-1.716 0-3.08.594-4.092 1.782-1.012 1.188-1.518 2.838-1.518 4.95v7.92h11.22zm19.338 0v-8.58c0-2.376-.506-4.213-1.518-5.511s-2.42-1.947-4.224-1.947c-1.892 0-3.355.66-4.389 1.98-1.034 1.32-1.551 3.146-1.551 5.478v8.58h11.682zm-38.346-51.546c0-3.344.627-6.303 1.881-8.877 1.254-2.574 3.047-4.565 5.379-5.973 2.332-1.408 5.038-2.112 8.118-2.112 2.948 0 5.555.704 7.821 2.112 2.266 1.408 3.993 3.344 5.181 5.808l17.82-9.108v10.956l-15.51 7.722v8.382h15.51v9.9h-46.2v-18.81zm22.44 8.91v-8.118c0-2.332-.638-4.191-1.914-5.577-1.276-1.386-2.992-2.079-5.148-2.079-2.2 0-3.938.693-5.214 2.079-1.276 1.386-1.914 3.245-1.914 5.577v8.118h14.19zm23.76-32.472h-46.2v-9.9h37.686V89.272h8.514v28.248z"/>
    </g>
</svg>
