<svg xmlns="http://www.w3.org/2000/svg" width="300" height="300">
    <g fill="none" fill-rule="evenodd">
        <circle cx="150.39" cy="150.271" r="149.576" fill="#FFF"/>
        <path fill="#8E8C98" d="M94.257 205.645l-11.93-8.548L157.36 92.385l11.93 8.548z"/>
        <path fill="#1E1A31" d="M133.57 141.8a7.338 7.338 0 1 1 0 14.675h-19.047c-18.447 0-33.402-14.955-33.402-33.402 0-18.448 14.955-33.403 33.402-33.403h49.122a7.338 7.338 0 1 1 0 14.676h-49.122c-10.342 0-18.726 8.384-18.726 18.727 0 10.342 8.384 18.726 18.726 18.726h19.048z"/>
        <path fill="#1E1A31" d="M118.533 156.475a7.338 7.338 0 0 1 0-14.676h19.048c18.448 0 33.402 14.955 33.402 33.403s-14.954 33.403-33.402 33.403H88.459a7.338 7.338 0 1 1 0-14.676h49.122c10.342 0 18.726-8.384 18.726-18.727 0-10.342-8.384-18.727-18.726-18.727h-19.048z"/>
        <path fill="#1E1A31" fill-rule="nonzero" d="M202.89 212.97c-4.28 0-8.03-.83-11.25-2.49-3.22-1.66-5.71-4.04-7.47-7.14-1.76-3.1-2.64-6.75-2.64-10.95 0-3.28.64-6.22 1.92-8.82 1.28-2.6 3.08-4.7 5.4-6.3 2.32-1.6 5-2.56 8.04-2.88v9c-2.4.52-4.29 1.61-5.67 3.27s-2.07 3.73-2.07 6.21c0 3.36 1.26 6.02 3.78 7.98 2.52 1.96 5.84 2.94 9.96 2.94 4.08 0 7.39-.98 9.93-2.94s3.81-4.62 3.81-7.98c0-2.48-.69-4.55-2.07-6.21-1.38-1.66-3.27-2.75-5.67-3.27v-9c3.04.32 5.72 1.28 8.04 2.88 2.32 1.6 4.12 3.7 5.4 6.3 1.28 2.6 1.92 5.54 1.92 8.82 0 4.2-.88 7.85-2.64 10.95-1.76 3.1-4.25 5.48-7.47 7.14-3.22 1.66-6.97 2.49-11.25 2.49zm21-38.94l-42-15.36v-10.8l42-15.24v9.66l-9.18 3.24v15.96l9.18 3.24v9.3zm-16.44-14.94v-11.1l-15.96 5.58 15.96 5.52zm-25.56-30.3v-14.58c0-4.2.89-7.91 2.67-11.13 1.78-3.22 4.26-5.7 7.44-7.44 3.18-1.74 6.81-2.61 10.89-2.61 4.08 0 7.71.87 10.89 2.61 3.18 1.74 5.66 4.22 7.44 7.44 1.78 3.22 2.67 6.93 2.67 11.13v14.58h-42zm34.5-14.58c0-3.8-1.23-6.75-3.69-8.85-2.46-2.1-5.73-3.15-9.81-3.15s-7.35 1.05-9.81 3.15c-2.46 2.1-3.69 5.05-3.69 8.85v5.58h27v-5.58z"/>
    </g>
</svg>
