<svg xmlns="http://www.w3.org/2000/svg" width="350" height="350">
    <g fill="none" fill-rule="nonzero">
        <circle cx="175" cy="175" r="175" fill="#52B167"/>
        <path fill="#FFF" d="M232.93 245.629c-5.229 0-9.81-1.014-13.745-3.043-3.934-2.028-6.977-4.936-9.127-8.724-2.15-3.787-3.226-8.247-3.226-13.379 0-4.008.782-7.6 2.346-10.777 1.564-3.176 3.763-5.742 6.598-7.697s6.11-3.128 9.824-3.52v10.997c-2.933.636-5.242 1.968-6.928 3.996s-2.53 4.557-2.53 7.588c0 4.105 1.54 7.355 4.62 9.75 3.078 2.395 7.135 3.592 12.169 3.592 4.985 0 9.03-1.197 12.133-3.592 3.103-2.395 4.655-5.645 4.655-9.75 0-3.03-.843-5.56-2.53-7.588-1.685-2.028-3.995-3.36-6.927-3.996V198.49c3.714.39 6.989 1.564 9.824 3.519 2.834 1.955 5.034 4.52 6.598 7.697 1.564 3.177 2.346 6.77 2.346 10.777 0 5.132-1.076 9.592-3.226 13.38-2.15 3.787-5.193 6.695-9.127 8.723-3.935 2.029-8.517 3.043-13.746 3.043zm-25.658-53.517v-34.456h9.457v23.46h11.51v-19.062h9.017v19.061h11.877V156.85h9.457v35.263h-51.318zm25.146-55.35l-25.146 15.982V139.4l16.129-10.117-16.129-10.336v-12.023l25.146 15.981 26.172-16.788v13.416l-17.228 10.923 17.228 11.144v11.95l-26.172-16.789z"/>
        <path fill="#8E8C98" d="M107.209 240.88l-13.853-9.885 87.13-121.082 13.853 9.885z"/>
        <path fill="#FFF" d="M152.861 167.053c4.706 0 8.521 3.799 8.521 8.485s-3.815 8.485-8.52 8.485h-22.12c-21.421 0-38.788-17.293-38.788-38.625s17.367-38.625 38.789-38.625h57.042c4.706 0 8.521 3.8 8.521 8.486 0 4.686-3.815 8.485-8.521 8.485h-57.042c-12.01 0-21.746 9.695-21.746 21.654 0 11.96 9.736 21.655 21.746 21.655h22.118z"/>
        <path fill="#FFF" d="M135.4 184.023c-4.707 0-8.522-3.799-8.522-8.485s3.815-8.485 8.521-8.485h22.119c21.422 0 38.788 17.293 38.788 38.625s-17.366 38.625-38.788 38.625h-57.042c-4.707 0-8.522-3.799-8.522-8.485s3.815-8.485 8.522-8.485h57.042c12.01 0 21.746-9.696 21.746-21.655 0-11.96-9.736-21.655-21.746-21.655h-22.119z"/>
    </g>
</svg>
