<svg xmlns="http://www.w3.org/2000/svg" width="300" height="300">
    <g fill="none" fill-rule="evenodd">
        <circle cx="150.39" cy="150.271" r="149.576" fill="#FFF"/>
        <path fill="#8E8C98" d="M94.257 205.645l-11.93-8.548L157.36 92.385l11.93 8.548z"/>
        <path fill="#1E1A31" d="M133.57 141.8a7.338 7.338 0 1 1 0 14.675h-19.047c-18.447 0-33.402-14.955-33.402-33.402 0-18.448 14.955-33.403 33.402-33.403h49.122a7.338 7.338 0 1 1 0 14.676h-49.122c-10.342 0-18.726 8.384-18.726 18.727 0 10.342 8.384 18.726 18.726 18.726h19.048z"/>
        <path fill="#1E1A31" d="M118.533 156.475a7.338 7.338 0 0 1 0-14.676h19.048c18.448 0 33.402 14.955 33.402 33.403s-14.954 33.403-33.402 33.403H88.459a7.338 7.338 0 1 1 0-14.676h49.122c10.342 0 18.726-8.384 18.726-18.727 0-10.342-8.384-18.727-18.726-18.727h-19.048zM195.641 210.832c-4.336 0-8.135-.84-11.398-2.522-3.262-1.682-5.785-4.094-7.568-7.234-1.783-3.141-2.675-6.84-2.675-11.095 0-3.323.648-6.302 1.945-8.936 1.297-2.634 3.12-4.762 5.471-6.383 2.35-1.62 5.066-2.593 8.146-2.918v9.119c-2.431.527-4.346 1.631-5.744 3.313-1.399 1.682-2.098 3.779-2.098 6.292 0 3.404 1.277 6.099 3.83 8.085 2.553 1.986 5.917 2.978 10.091 2.978 4.134 0 7.488-.992 10.061-2.978 2.573-1.986 3.86-4.681 3.86-8.085 0-2.513-.699-4.61-2.097-6.292-1.398-1.682-3.313-2.786-5.745-3.313v-9.119c3.08.325 5.796 1.297 8.146 2.918 2.35 1.621 4.174 3.749 5.471 6.383 1.297 2.634 1.945 5.613 1.945 8.936 0 4.256-.891 7.954-2.674 11.095-1.783 3.14-4.306 5.552-7.569 7.234-3.262 1.681-7.061 2.522-11.398 2.522zm-21.276-44.376v-9.119h17.082v-16.9h-17.082v-9.118h42.553v9.118h-17.569v16.9h17.569v9.119h-42.553zm0-42.371V96h7.842v18.966h9.97V99.404h7.476v15.562h17.265v9.119h-42.553z"/>
    </g>
</svg>
