<svg xmlns="http://www.w3.org/2000/svg" width="300" height="300">
    <g fill="none" fill-rule="evenodd">
        <circle cx="150.39" cy="150.271" r="149.576" fill="#FFF"/>
        <path fill="#8E8C98" d="M87.203 204.618l-11.93-8.548 75.033-104.712 11.929 8.548z"/>
        <path fill="#1E1A31" d="M126.517 140.772a7.338 7.338 0 1 1 0 14.676h-19.048c-18.448 0-33.402-14.955-33.402-33.402 0-18.448 14.954-33.403 33.402-33.403h49.122a7.338 7.338 0 1 1 0 14.676H107.47c-10.342 0-18.726 8.384-18.726 18.727 0 10.342 8.384 18.726 18.726 18.726h19.048z"/>
        <path fill="#1E1A31" d="M111.48 155.448a7.338 7.338 0 0 1 0-14.676h19.047c18.447 0 33.402 14.955 33.402 33.403s-14.955 33.403-33.402 33.403H81.405a7.338 7.338 0 1 1 0-14.676h49.122c10.342 0 18.726-8.384 18.726-18.727 0-10.342-8.384-18.727-18.726-18.727h-19.048zM192.93 209.579c-4.194 0-7.869-.813-11.024-2.44-3.155-1.626-5.595-3.958-7.32-6.996-1.724-3.037-2.586-6.614-2.586-10.73 0-3.213.627-6.094 1.881-8.641 1.254-2.548 3.018-4.605 5.291-6.173 2.274-1.568 4.9-2.509 7.878-2.822v8.818c-2.351.51-4.203 1.578-5.555 3.204-1.353 1.627-2.029 3.655-2.029 6.085 0 3.292 1.235 5.899 3.704 7.82 2.47 1.92 5.722 2.88 9.76 2.88 3.997 0 7.24-.96 9.729-2.88 2.489-1.921 3.733-4.528 3.733-7.82 0-2.43-.676-4.458-2.028-6.085-1.352-1.626-3.204-2.694-5.556-3.204v-8.818c2.979.313 5.605 1.254 7.878 2.822 2.273 1.568 4.037 3.625 5.291 6.173 1.254 2.547 1.881 5.428 1.881 8.642 0 4.115-.862 7.692-2.586 10.73-1.725 3.037-4.165 5.369-7.32 6.995-3.155 1.627-6.83 2.44-11.023 2.44zm20.576-42.917h-41.153v-7.995l25.926-17.46h-25.926v-8.702h41.153v8.054l-25.927 17.461h25.927v8.642zm-41.153-37.625v-10.289l16.872-9.23-16.872-9.7V90l25.867 15.109h15.286v8.819H198.22l-25.867 15.109z"/>
    </g>
</svg>
