<?xml version="1.0" encoding="UTF-8"?>
<svg width="300px" height="300px" viewBox="0 0 300 300" version="1.1" xmlns="http://www.w3.org/2000/svg" xmlns:xlink="http://www.w3.org/1999/xlink">
    <!-- Generator: Sketch 60 (88103) - https://sketch.com -->
    <title>sDEFI</title>
    <desc>Created with Sketch.</desc>
    <g id="Page-1" stroke="none" stroke-width="1" fill="none" fill-rule="evenodd">
        <g id="sDEFI" fill-rule="nonzero">
            <g id="iBTC-2" fill="#52B167">
                <g id="Group-4">
                    <circle id="Oval" cx="150" cy="150" r="150"></circle>
                </g>
            </g>
            <g id="Group-20" transform="translate(78.000000, 90.000000)">
                <g id="Group-19" transform="translate(-0.000000, 0.000000)">
                    <g id="Group-Copy" transform="translate(0.000000, 0.147333)">
                        <g id="Group-6" transform="translate(0.000000, 0.583361)">
                            <g id="Group-5" transform="translate(0.039489, 0.450779)">
                                <g id="Group-4" transform="translate(0.062768, 0.386237)">
                                    <polygon id="Path-3" fill="#8E8C98" points="13.41264 115.03614 1.53866851 106.563531 76.2213423 2.77870219 88.0953138 11.2513106"></polygon>
                                    <path d="M52.5432889,51.7556196 C56.5770916,51.7556196 59.8471343,55.0118944 59.8471343,59.0287124 C59.8471343,63.0455309 56.5770916,66.3018058 52.5432889,66.3018058 L33.5846749,66.3018058 C15.2227468,66.3018058 0.337463,51.4791956 0.337463,33.1945787 C0.337463,14.9099621 15.2227468,0.0873518081 33.5846749,0.0873518081 L82.4779427,0.0873518081 C86.5117449,0.0873518081 89.7817881,3.34362644 89.7817881,7.36044481 C89.7817881,11.3772631 86.5117449,14.6335378 82.4779427,14.6335378 L33.5846749,14.6335378 C23.2903515,14.6335378 14.9451536,22.9435988 14.9451536,33.1945787 C14.9451536,43.4455585 23.2903515,51.7556196 33.5846749,51.7556196 L52.5432889,51.7556196 Z" id="Rectangle-2" fill="#FFFFFF"></path>
                                    <path d="M52.5432907,103.423889 C56.5770929,103.423889 59.8471356,106.680163 59.8471356,110.696981 C59.8471356,114.7138 56.5770929,117.970074 52.5432907,117.970074 L33.5846765,117.970074 C15.2227484,117.970074 0.337464624,103.147464 0.337464624,84.8628474 C0.337464624,66.5782307 15.2227484,51.7556206 33.5846765,51.7556206 L82.477944,51.7556206 C86.5117467,51.7556206 89.7817894,55.0118954 89.7817894,59.0287134 C89.7817894,63.0455319 86.5117467,66.3018068 82.477944,66.3018068 L33.5846765,66.3018068 C23.2903531,66.3018068 14.9451552,74.6118677 14.9451552,84.8628474 C14.9451552,95.1138271 23.2903531,103.423889 33.5846765,103.423889 L52.5432907,103.423889 Z" id="Rectangle-2-Copy" fill="#FFFFFF" transform="translate(45.059627, 84.862847) rotate(-180.000000) translate(-45.059627, -84.862847) "></path>
                                </g>
                            </g>
                        </g>
                    </g>
                </g>
                <path d="M79.6417558,81.3851351 C83.7524941,81.3851351 87.3836462,80.5163256 90.5352122,78.7787066 C93.6867782,77.0410875 96.1140713,74.6201351 97.8170914,71.5158494 C99.5201116,68.4115637 100.371622,64.8679923 100.371622,60.8851351 C100.371622,56.902278 99.5201116,53.3587066 97.8170914,50.2544208 C96.1140713,47.1501351 93.6867782,44.7291828 90.5352122,42.9915637 C87.3836462,41.2539447 83.7524941,40.3851351 79.6417558,40.3851351 L79.6417558,40.3851351 L65.3716216,40.3851351 L65.3716216,81.3851351 L79.6417558,81.3851351 Z M79.7675261,74.3851351 L74.3716216,74.3851351 L74.3716216,47.3851351 L79.7675261,47.3851351 C83.4421563,47.3851351 86.2948298,48.6151351 88.3255465,51.0751351 C90.3562633,53.5351351 91.3716216,56.8051351 91.3716216,60.8851351 C91.3716216,64.9651351 90.3562633,68.2351351 88.3255465,70.6951351 C86.2948298,73.1551351 83.4421563,74.3851351 79.7675261,74.3851351 L79.7675261,74.3851351 Z M133.871622,80.8851351 L133.871622,73.3294208 L114.60343,73.3294208 L114.60343,63.8408494 L129.738565,63.8408494 L129.738565,56.6365637 L114.60343,56.6365637 L114.60343,47.4408494 L133.231289,47.4408494 L133.231289,39.8851351 L105.871622,39.8851351 L105.871622,80.8851351 L133.871622,80.8851351 Z M148.137855,81.3851351 L148.137855,64.7508494 L163.098894,64.7508494 L163.098894,57.5465637 L148.137855,57.5465637 L148.137855,47.9408494 L166.371622,47.9408494 L166.371622,40.3851351 L139.371622,40.3851351 L139.371622,81.3851351 L148.137855,81.3851351 Z M180.371622,81.3851351 L180.371622,40.3851351 L171.371622,40.3851351 L171.371622,81.3851351 L180.371622,81.3851351 Z" id="DEFI" fill="#FFFFFF" transform="translate(122.871622, 60.635135) rotate(270.000000) translate(-122.871622, -60.635135) "></path>
            </g>
        </g>
    </g>
</svg>