<svg xmlns="http://www.w3.org/2000/svg" width="300" height="300">
    <g fill="none" fill-rule="evenodd">
        <ellipse cx="149.984" cy="150.288" fill="#45992F" rx="149.098" ry="149.611"/>
        <g fill="#FFF">
            <path d="M130.532 140.727c4.04 0 7.315 3.286 7.315 7.34s-3.275 7.34-7.315 7.34h-18.986c-18.389 0-33.296-14.959-33.296-33.41 0-18.453 14.907-33.411 33.296-33.411h48.965c4.04 0 7.314 3.286 7.314 7.34 0 4.053-3.274 7.34-7.314 7.34h-48.965c-10.31 0-18.667 8.385-18.667 18.73s8.357 18.731 18.667 18.731h18.986z"/>
            <path d="M115.543 155.407c-4.04 0-7.315-3.286-7.315-7.34s3.275-7.34 7.315-7.34h18.986c18.39 0 33.296 14.959 33.296 33.41 0 18.453-14.907 33.411-33.296 33.411H85.564c-4.04 0-7.314-3.286-7.314-7.34 0-4.053 3.275-7.34 7.314-7.34h48.965c10.31 0 18.667-8.385 18.667-18.73s-8.357-18.731-18.667-18.731h-18.986z"/>
            <path fill-opacity=".5" d="M91.344 204.587l-11.891-8.55 74.792-104.735 11.892 8.55z"/>
        </g>
        <path fill="#FFF" fill-rule="nonzero" d="M182 205v-29.594h8.109v20.15h9.868v-16.372h7.732v16.371h10.182v-20.841H226V205h-44zm0-33.56v-34.883h8.109v12.719H226v9.445h-35.891v12.719H182zm0-40.046v-9.445h17.663v-17.504H182V95h44v9.445h-18.166v17.504H226v9.445h-44z"/>
    </g>
</svg>
