<svg xmlns="http://www.w3.org/2000/svg" width="300" height="300">
    <g fill="none" fill-rule="evenodd">
        <circle cx="150" cy="150" r="150" fill="#45992F"/>
        <path fill="#8E8C98" d="M90.205 206.524l-11.891-8.55 74.792-104.736 11.891 8.55z"/>
        <path fill="#FFF" d="M129.393 142.664c4.04 0 7.315 3.286 7.315 7.34 0 4.053-3.275 7.34-7.315 7.34h-18.986c-18.39 0-33.296-14.96-33.296-33.411 0-18.452 14.907-33.41 33.296-33.41h48.965c4.04 0 7.314 3.285 7.314 7.339s-3.275 7.34-7.314 7.34h-48.965c-10.31 0-18.667 8.386-18.667 18.73 0 10.346 8.357 18.732 18.667 18.732h18.986z"/>
        <path fill="#FFF" d="M114.404 157.343c-4.04 0-7.315-3.286-7.315-7.34 0-4.053 3.275-7.34 7.315-7.34h18.986c18.39 0 33.296 14.959 33.296 33.411s-14.907 33.41-33.296 33.41H84.425c-4.04 0-7.314-3.286-7.314-7.34 0-4.053 3.274-7.339 7.314-7.339h48.965c10.31 0 18.667-8.386 18.667-18.73 0-10.346-8.357-18.732-18.667-18.732h-18.986z"/>
        <path fill="#FFF" fill-rule="nonzero" d="M180.86 206.936v-29.593h8.11v20.149h9.868V181.12h7.731v16.37h10.183v-20.84h8.109v30.285h-44zm0-33.56v-34.883h8.11v12.72h35.89v9.444h-35.89v12.719h-8.11zm0-40.046v-9.445h17.664v-17.504H180.86v-9.445h44v9.445h-18.166v17.504h18.166v9.445h-44z"/>
    </g>
</svg>
