<svg width="300" height="300" viewBox="0 0 300 300" fill="none" xmlns="http://www.w3.org/2000/svg">
<path d="M150 300C232.843 300 300 232.843 300 150C300 67.1573 232.843 0 150 0C67.1573 0 0 67.1573 0 150C0 232.843 67.1573 300 150 300Z" fill="#10BA97"/>
<path d="M179 203.324V175.124H186.74V194.324H196.16V178.724H203.54V194.324H213.26V174.464H221V203.324H179Z" fill="#1E1A31"/>
<path d="M179 160.346H203.36C206.76 160.346 209.32 159.686 211.04 158.366C212.76 157.046 213.62 154.966 213.62 152.126C213.62 149.286 212.76 147.206 211.04 145.886C209.32 144.526 206.76 143.846 203.36 143.846H179V134.846H202.88C208.88 134.846 213.46 136.326 216.62 139.286C219.78 142.206 221.36 146.486 221.36 152.126C221.36 157.766 219.78 162.046 216.62 164.966C213.46 167.886 208.88 169.346 202.88 169.346H179V160.346Z" fill="#1E1A31"/>
<path d="M179 110.872C179 107.832 179.58 105.152 180.74 102.832C181.86 100.472 183.48 98.6522 185.6 97.3722C187.72 96.0922 190.18 95.4522 192.98 95.4522C195.66 95.4522 198.04 96.0922 200.12 97.3722C202.16 98.6522 203.72 100.412 204.8 102.652L221 94.3722V104.332L206.9 111.352L206.9 118.972L221 118.972V127.972L179 127.972L179 110.872ZM199.4 118.972L199.4 111.592C199.4 109.472 198.82 107.792 197.66 106.552C196.5 105.272 194.94 104.632 192.98 104.632C190.98 104.632 189.4 105.272 188.24 106.552C187.08 107.792 186.5 109.472 186.5 111.592V118.972H199.4Z" fill="#1E1A31"/>
<path opacity="0.5" fill-rule="evenodd" clip-rule="evenodd" d="M81.4239 208.528L68.9404 199.622L147.457 90.5283L159.94 99.4343L81.4239 208.528Z" fill="#1E1A31"/>
<path fill-rule="evenodd" clip-rule="evenodd" d="M121.868 142.349H126.059C145.357 142.349 161 157.941 161 177.175C161 196.408 145.357 212 126.059 212H74.6759C70.4366 212 67 208.575 67 204.349C67 200.124 70.4366 196.699 74.6759 196.699H126.059C136.878 196.699 145.648 187.958 145.648 177.175C145.648 166.392 136.878 157.651 126.059 157.651H106.135H106.132H101.941C82.6434 157.651 67 142.059 67 122.825C67 103.592 82.6434 88 101.941 88H153.324C157.563 88 161 91.4253 161 95.6505C161 99.8758 157.563 103.301 153.324 103.301H101.941C91.1219 103.301 82.3517 112.042 82.3517 122.825C82.3517 133.608 91.1219 142.349 101.941 142.349H121.865C121.866 142.349 121.867 142.349 121.868 142.349Z" fill="#1E1A31"/>
</svg>
