<svg xmlns="http://www.w3.org/2000/svg" xmlns:xlink="http://www.w3.org/1999/xlink" width="300" height="300">
    <defs>
        <path id="a" d="M3.707 18.747H32.75v7.97H12.976v9.702H29.04v7.6H12.976v10.01h20.452V62H3.708V18.747zm44.242 0v25.087c0 3.501.68 6.138 2.04 7.909 1.358 1.771 3.5 2.657 6.425 2.657s5.077-.886 6.457-2.657 2.07-4.408 2.07-7.91V18.748h9.269V43.34c0 6.18-1.514 10.896-4.542 14.15-3.028 3.255-7.445 4.882-13.254 4.882-5.808 0-10.216-1.627-13.223-4.882-3.007-3.254-4.51-7.97-4.51-14.15V18.747h9.268zm50.977 0c3.13 0 5.9.587 8.31 1.761s4.274 2.853 5.593 5.036c1.318 2.183 1.977 4.717 1.977 7.6 0 2.76-.66 5.2-1.977 7.322-1.319 2.122-3.131 3.738-5.438 4.85L115.918 62h-10.257l-7.23-14.52h-7.847V62h-9.268V18.747h17.61zm-8.342 21.009h7.6c2.184 0 3.924-.598 5.222-1.792 1.297-1.195 1.946-2.801 1.946-4.82 0-2.06-.649-3.687-1.946-4.881-1.298-1.195-3.038-1.792-5.222-1.792h-7.6v13.285z"/>
    </defs>
    <g fill="none" fill-rule="evenodd">
        <circle cx="150.39" cy="150.271" r="149.576" fill="#FFF"/>
        <path fill="#8E8C98" d="M87.203 204.618l-11.93-8.548 75.033-104.712 11.929 8.548z"/>
        <path fill="#1E1A31" d="M126.517 140.772a7.338 7.338 0 1 1 0 14.676h-19.048c-18.448 0-33.402-14.955-33.402-33.402 0-18.448 14.954-33.403 33.402-33.403h49.122a7.338 7.338 0 1 1 0 14.676H107.47c-10.342 0-18.726 8.384-18.726 18.727 0 10.342 8.384 18.726 18.726 18.726h19.048z"/>
        <path fill="#1E1A31" d="M111.48 155.448a7.338 7.338 0 0 1 0-14.676h19.047c18.447 0 33.402 14.955 33.402 33.403s-14.955 33.403-33.402 33.403H81.405a7.338 7.338 0 1 1 0-14.676h49.122c10.342 0 18.726-8.384 18.726-18.727 0-10.342-8.384-18.727-18.726-18.727h-19.048z"/>
        <g transform="rotate(-90 183.12 25.12)">
            <use fill="#000" xlink:href="#a"/>
            <use fill="#1E1A31" xlink:href="#a"/>
        </g>
    </g>
</svg>
