<svg xmlns="http://www.w3.org/2000/svg" width="300" height="300">
    <g fill="none" fill-rule="evenodd">
        <circle cx="150.39" cy="150.271" r="149.576" fill="#FFF"/>
        <path fill="#8E8C98" d="M87.203 204.618l-11.93-8.548 75.033-104.712 11.929 8.548z"/>
        <path fill="#1E1A31" d="M126.517 140.772a7.338 7.338 0 1 1 0 14.676h-19.048c-18.448 0-33.402-14.955-33.402-33.402 0-18.448 14.954-33.403 33.402-33.403h49.122a7.338 7.338 0 1 1 0 14.676H107.47c-10.342 0-18.726 8.384-18.726 18.727 0 10.342 8.384 18.726 18.726 18.726h19.048z"/>
        <path fill="#1E1A31" d="M111.48 155.448a7.338 7.338 0 0 1 0-14.676h19.047c18.447 0 33.402 14.955 33.402 33.403s-14.955 33.403-33.402 33.403H81.405a7.338 7.338 0 1 1 0-14.676h49.122c10.342 0 18.726-8.384 18.726-18.727 0-10.342-8.384-18.727-18.726-18.727h-19.048zM194.997 210.17c-4.407 0-8.27-.865-11.585-2.595-3.316-1.73-5.88-4.212-7.693-7.446-1.813-3.233-2.719-7.033-2.719-11.4 0-3.419.66-6.488 1.977-9.207 1.318-2.718 3.172-4.912 5.561-6.58 2.39-1.669 5.129-2.688 8.218-3.059v9.145c-2.43.577-4.356 1.73-5.777 3.46-1.421 1.73-2.132 3.893-2.132 6.488 0 2.39.598 4.47 1.792 6.241 1.195 1.771 2.863 3.13 5.005 4.078 2.142.948 4.593 1.421 7.353 1.421 4.243 0 7.662-1.04 10.257-3.12 2.596-2.08 3.893-4.954 3.893-8.62 0-2.677-.731-5.046-2.193-7.106-1.463-2.06-3.615-3.295-6.457-3.707h-.557v10.751h-7.353v-19.34h24.037V176l-5.376.989c1.689 1.277 3.069 2.986 4.14 5.129 1.071 2.142 1.606 4.634 1.606 7.476 0 4.078-.906 7.672-2.718 10.782-1.813 3.11-4.387 5.52-7.724 7.23-3.337 1.71-7.188 2.564-11.555 2.564zm-21.626-64.447c0-5.025.988-8.918 2.966-11.678 1.977-2.76 4.778-4.14 8.403-4.14 2.678 0 4.84.741 6.488 2.224 1.648 1.483 2.719 3.584 3.213 6.303.412-3.213 1.442-5.695 3.09-7.446 1.647-1.75 3.954-2.626 6.92-2.626 3.79 0 6.766 1.442 8.929 4.326 2.162 2.883 3.244 6.961 3.244 12.234v17.24H173.37v-16.437zm17.795 7.168v-7.415c0-1.977-.473-3.522-1.42-4.634-.948-1.112-2.225-1.669-3.832-1.669-1.606 0-2.883.557-3.83 1.669-.948 1.112-1.422 2.657-1.422 4.634v7.415h10.504zm18.105 0v-8.033c0-2.224-.474-3.944-1.421-5.16-.948-1.215-2.266-1.822-3.955-1.822-1.771 0-3.141.618-4.109 1.854-.968 1.235-1.452 2.945-1.452 5.128v8.033h10.937zm-35.9-48.258c0-3.09.587-5.819 1.76-8.187 1.175-2.369 2.853-4.202 5.037-5.5 2.183-1.297 4.716-1.946 7.6-1.946 2.883 0 5.406.649 7.57 1.946 2.162 1.298 3.83 3.131 5.004 5.5 1.174 2.368 1.761 5.097 1.761 8.187v8.342h14.52v9.268h-43.252v-17.61zm21.008 8.342v-7.477c0-2.183-.597-3.913-1.792-5.19-1.194-1.277-2.8-1.916-4.82-1.916-2.059 0-3.686.639-4.88 1.916-1.195 1.277-1.793 3.007-1.793 5.19v7.477h13.285z"/>
    </g>
</svg>
