<svg xmlns="http://www.w3.org/2000/svg" width="300" height="300">
    <g fill="none" fill-rule="evenodd">
        <circle cx="150.39" cy="150.271" r="149.576" fill="#FFF"/>
        <path fill="#8E8C98" d="M87.257 205.645l-11.93-8.548L150.36 92.385l11.93 8.548z"/>
        <path fill="#1E1A31" d="M126.57 141.8a7.338 7.338 0 1 1 0 14.675h-19.047c-18.447 0-33.402-14.955-33.402-33.402 0-18.448 14.955-33.403 33.402-33.403h49.122a7.338 7.338 0 1 1 0 14.676h-49.122c-10.342 0-18.726 8.384-18.726 18.727 0 10.342 8.384 18.726 18.726 18.726h19.048z"/>
        <path fill="#1E1A31" d="M111.533 156.475a7.338 7.338 0 0 1 0-14.676h19.048c18.448 0 33.402 14.955 33.402 33.403s-14.954 33.403-33.402 33.403H81.459a7.338 7.338 0 1 1 0-14.676h49.122c10.342 0 18.726-8.384 18.726-18.727 0-10.342-8.384-18.727-18.726-18.727h-19.048z"/>
        <path fill="#1E1A31" fill-rule="nonzero" d="M172.164 208.844v-10.8h50.4v10.8h-50.4zm50.4-19.368h-50.4v-9.792l31.752-21.384h-31.752v-10.656h50.4v9.864l-31.752 21.384h31.752v10.584zm-50.4-70.92c0-3.648.684-6.876 2.052-9.684 1.368-2.808 3.324-4.98 5.868-6.516 2.544-1.536 5.496-2.304 8.856-2.304 3.216 0 6.06.768 8.532 2.304 2.472 1.536 4.356 3.648 5.652 6.336l19.44-9.936v11.952l-16.92 8.424v9.144h16.92v10.8h-50.4v-20.52zm24.48 9.72v-8.856c0-2.544-.696-4.572-2.088-6.084-1.392-1.512-3.264-2.268-5.616-2.268-2.4 0-4.296.756-5.688 2.268-1.392 1.512-2.088 3.54-2.088 6.084v8.856h15.48z"/>
    </g>
</svg>
