<svg xmlns="http://www.w3.org/2000/svg" xmlns:xlink="http://www.w3.org/1999/xlink" width="300" height="300">
    <defs>
        <path id="a" d="M24.193 21.747v36.9c0 4.212-1.16 7.49-3.482 9.835C18.391 70.827 15.1 72 10.841 72H1.578v-9.333h5.959c2.106 0 3.613-.49 4.523-1.471.91-.982 1.364-2.525 1.364-4.63V21.746h10.768zm29.075 0c3.59 0 6.76.682 9.512 2.046 2.752 1.364 4.882 3.314 6.39 5.85 1.507 2.537 2.261 5.48 2.261 8.831 0 3.35-.754 6.282-2.261 8.794-1.508 2.513-3.638 4.451-6.39 5.815-2.752 1.364-5.922 2.046-9.512 2.046h-9.691V72H32.808V21.747h20.46zm-9.691 24.409h8.686c2.537 0 4.547-.694 6.03-2.082 1.484-1.388 2.226-3.255 2.226-5.6 0-2.393-.742-4.283-2.226-5.671-1.483-1.388-3.493-2.082-6.03-2.082h-8.686v15.435zm27.352-24.409h12.563l11.27 20.604 11.846-20.604h11.99l-18.451 31.588V72H89.379V53.335l-18.45-31.588z"/>
    </defs>
    <g fill="none" fill-rule="evenodd">
        <circle cx="150.39" cy="150.271" r="149.576" fill="#FFF"/>
        <path fill="#8E8C98" d="M87.203 204.618l-11.93-8.548 75.033-104.712 11.929 8.548z"/>
        <path fill="#1E1A31" d="M126.517 140.772a7.338 7.338 0 1 1 0 14.676h-19.048c-18.448 0-33.402-14.955-33.402-33.402 0-18.448 14.954-33.403 33.402-33.403h49.122a7.338 7.338 0 1 1 0 14.676H107.47c-10.342 0-18.726 8.384-18.726 18.727 0 10.342 8.384 18.726 18.726 18.726h19.048z"/>
        <path fill="#1E1A31" d="M111.48 155.448a7.338 7.338 0 0 1 0-14.676h19.047c18.447 0 33.402 14.955 33.402 33.403s-14.955 33.403-33.402 33.403H81.405a7.338 7.338 0 1 1 0-14.676h49.122c10.342 0 18.726-8.384 18.726-18.727 0-10.342-8.384-18.727-18.726-18.727h-19.048z"/>
        <g>
            <g transform="rotate(-90 183 25)">
                <use fill="#000" xlink:href="#a"/>
                <use fill="#1E1A31" xlink:href="#a"/>
            </g>
        </g>
    </g>
</svg>
