<svg width="300" height="300" viewBox="0 0 300 300" fill="none" xmlns="http://www.w3.org/2000/svg">
<path d="M150 300C232.843 300 300 232.843 300 150C300 67.1573 232.843 0 150 0C67.1573 0 0 67.1573 0 150C0 232.843 67.1573 300 150 300Z" fill="#10BA97"/>
<path d="M179 179.35H209.84C213.36 179.35 216.1 180.33 218.06 182.29C220.02 184.21 221 186.95 221 190.51V198.25H213.2V193.27C213.2 191.51 212.8 190.25 212 189.49C211.16 188.73 209.86 188.35 208.1 188.35H179V179.35Z" fill="#1E1A31"/>
<path d="M179 155.023C179 152.023 179.58 149.383 180.74 147.103C181.86 144.783 183.48 143.003 185.6 141.763C187.72 140.483 190.18 139.843 192.98 139.843C195.78 139.843 198.24 140.483 200.36 141.763C202.44 143.003 204.06 144.783 205.22 147.103C206.34 149.383 206.9 152.023 206.9 155.023V163.123H221V172.123H179V155.023ZM199.4 163.123V155.863C199.4 153.743 198.82 152.063 197.66 150.823C196.5 149.583 194.94 148.963 192.98 148.963C190.98 148.963 189.4 149.583 188.24 150.823C187.08 152.063 186.5 153.743 186.5 155.863V163.123H199.4Z" fill="#1E1A31"/>
<path d="M179 140.273V129.773L196.22 120.353L179 110.453V100.433L205.4 115.853L221 115.853V124.853L205.4 124.853L179 140.273Z" fill="#1E1A31"/>
<path opacity="0.5" fill-rule="evenodd" clip-rule="evenodd" d="M81.4239 208.528L68.9404 199.622L147.457 90.5283L159.94 99.4343L81.4239 208.528Z" fill="#1E1A31"/>
<path fill-rule="evenodd" clip-rule="evenodd" d="M121.868 142.349H126.059C145.357 142.349 161 157.941 161 177.175C161 196.408 145.357 212 126.059 212H74.6759C70.4366 212 67 208.575 67 204.349C67 200.124 70.4366 196.699 74.6759 196.699H126.059C136.878 196.699 145.648 187.958 145.648 177.175C145.648 166.392 136.878 157.651 126.059 157.651H106.135H106.132H101.941C82.6434 157.651 67 142.059 67 122.825C67 103.592 82.6434 88 101.941 88H153.324C157.563 88 161 91.4253 161 95.6505C161 99.8758 157.563 103.301 153.324 103.301H101.941C91.1219 103.301 82.3517 112.042 82.3517 122.825C82.3517 133.608 91.1219 142.349 101.941 142.349H121.865C121.866 142.349 121.867 142.349 121.868 142.349Z" fill="#1E1A31"/>
</svg>
