<svg width="300" height="300" viewBox="0 0 300 300" fill="none" xmlns="http://www.w3.org/2000/svg">
<path d="M150 300C232.843 300 300 232.843 300 150C300 67.1573 232.843 0 150 0C67.1573 0 0 67.1573 0 150C0 232.843 67.1573 300 150 300Z" fill="#10BA97"/>
<path d="M179.06 215.277V206.277H197.9L179.06 189.477V178.557L196.34 193.977L221 177.537V188.337L203.3 200.337L209.96 206.277H221V215.277H179.06Z" fill="#1E1A31"/>
<path d="M179 157.22C179 154.18 179.58 151.5 180.74 149.18C181.86 146.82 183.48 145 185.6 143.72C187.72 142.44 190.18 141.8 192.98 141.8C195.66 141.8 198.04 142.44 200.12 143.72C202.16 145 203.72 146.76 204.8 149L221 140.72V150.68L206.9 157.7V165.32H221V174.32H179V157.22ZM199.4 165.32V157.94C199.4 155.82 198.82 154.14 197.66 152.9C196.5 151.62 194.94 150.98 192.98 150.98C190.98 150.98 189.4 151.62 188.24 152.9C187.08 154.14 186.5 155.82 186.5 157.94V165.32H199.4Z" fill="#1E1A31"/>
<path d="M179 140.056L178.94 130.756L209.66 123.016L179 114.796V106.696L209.66 98.7156L179 90.7956V81.6756L221 93.3156V103.696L193.1 110.956L221 118.036L221 128.416L179 140.056Z" fill="#1E1A31"/>
<path opacity="0.5" fill-rule="evenodd" clip-rule="evenodd" d="M81.4239 208.528L68.9404 199.622L147.457 90.5283L159.94 99.4343L81.4239 208.528Z" fill="#1E1A31"/>
<path fill-rule="evenodd" clip-rule="evenodd" d="M121.868 142.349H126.059C145.357 142.349 161 157.941 161 177.175C161 196.408 145.357 212 126.059 212H74.6759C70.4366 212 67 208.575 67 204.349C67 200.124 70.4366 196.699 74.6759 196.699H126.059C136.878 196.699 145.648 187.958 145.648 177.175C145.648 166.392 136.878 157.651 126.059 157.651H106.135H106.132H101.941C82.6434 157.651 67 142.059 67 122.825C67 103.592 82.6434 88 101.941 88H153.324C157.563 88 161 91.4253 161 95.6505C161 99.8758 157.563 103.301 153.324 103.301H101.941C91.1219 103.301 82.3517 112.042 82.3517 122.825C82.3517 133.608 91.1219 142.349 101.941 142.349H121.865C121.866 142.349 121.867 142.349 121.868 142.349Z" fill="#1E1A31"/>
</svg>
