<svg xmlns="http://www.w3.org/2000/svg" xmlns:xlink="http://www.w3.org/1999/xlink" width="300" height="300">
    <defs>
        <path id="a" d="M2.988 15.19h7.47v15.637L24.402 15.19h9.064L20.667 29.532 34.312 50h-8.964l-9.96-14.691-4.93 5.528V50h-7.47V15.19zm48.206-.05c2.524 0 4.756.473 6.698 1.42 1.943.946 3.445 2.298 4.507 4.058 1.063 1.76 1.594 3.801 1.594 6.125 0 2.225-.531 4.192-1.594 5.902-1.062 1.71-2.523 3.013-4.382 3.909L64.889 50h-8.266l-5.827-11.703h-6.325V50h-7.47V15.14h14.193zm-6.723 16.932h6.126c1.76 0 3.162-.481 4.208-1.444 1.046-.963 1.569-2.258 1.569-3.885 0-1.66-.523-2.971-1.57-3.934-1.045-.963-2.448-1.444-4.207-1.444H44.47v10.707zM65.437 15.14l7.72-.05 6.423 25.498 6.823-25.448h6.723l6.623 25.448 6.574-25.448h7.57L104.23 50h-8.615L89.59 26.843 83.714 50h-8.616l-9.66-34.86z"/>
    </defs>
    <g fill="none" fill-rule="evenodd">
        <circle cx="150.39" cy="150.271" r="149.576" fill="#FFF"/>
        <path fill="#8E8C98" d="M87.203 204.618l-11.93-8.548 75.033-104.712 11.929 8.548z"/>
        <path fill="#1E1A31" d="M126.517 140.772a7.338 7.338 0 1 1 0 14.676h-19.048c-18.448 0-33.402-14.955-33.402-33.402 0-18.448 14.954-33.403 33.402-33.403h49.122a7.338 7.338 0 1 1 0 14.676H107.47c-10.342 0-18.726 8.384-18.726 18.727 0 10.342 8.384 18.726 18.726 18.726h19.048z"/>
        <path fill="#1E1A31" d="M111.48 155.448a7.338 7.338 0 0 1 0-14.676h19.047c18.447 0 33.402 14.955 33.402 33.403s-14.955 33.403-33.402 33.403H81.405a7.338 7.338 0 1 1 0-14.676h49.122c10.342 0 18.726-8.384 18.726-18.727 0-10.342-8.384-18.727-18.726-18.727h-19.048z"/>
        <g>
            <g transform="rotate(-90 185.88 19.88)">
                <use fill="#000" xlink:href="#a"/>
                <use fill="#1E1A31" xlink:href="#a"/>
            </g>
        </g>
    </g>
</svg>
