<?xml version="1.0" encoding="UTF-8"?>
<svg width="300px" height="300px" viewBox="0 0 300 300" version="1.1" xmlns="http://www.w3.org/2000/svg" xmlns:xlink="http://www.w3.org/1999/xlink">
    <!-- Generator: Sketch 60 (88103) - https://sketch.com -->
    <title>sLINK</title>
    <desc>Created with Sketch.</desc>
    <g id="Page-1" stroke="none" stroke-width="1" fill="none" fill-rule="evenodd">
        <g id="sLINK" fill-rule="nonzero">
            <g id="iBTC-2" fill="#52B167">
                <g id="Group-4">
                    <circle id="Oval" cx="150" cy="150" r="150"></circle>
                </g>
            </g>
            <g id="Group-21" transform="translate(78.000000, 86.000000)">
                <g id="Group-19" transform="translate(0.000000, 3.000000)">
                    <g id="Group-Copy" transform="translate(0.000000, 0.147333)">
                        <g id="Group-6" transform="translate(0.000000, 0.583361)">
                            <g id="Group-5" transform="translate(0.039489, 0.450779)">
                                <g id="Group-4" transform="translate(0.062768, 0.386237)">
                                    <polygon id="Path-3" fill="#8E8C98" points="13.41264 115.03614 1.53866851 106.563531 76.2213423 2.77870219 88.0953138 11.2513106"></polygon>
                                    <path d="M52.5432889,51.7556196 C56.5770916,51.7556196 59.8471343,55.0118944 59.8471343,59.0287124 C59.8471343,63.0455309 56.5770916,66.3018058 52.5432889,66.3018058 L33.5846749,66.3018058 C15.2227468,66.3018058 0.337463,51.4791956 0.337463,33.1945787 C0.337463,14.9099621 15.2227468,0.0873518081 33.5846749,0.0873518081 L82.4779427,0.0873518081 C86.5117449,0.0873518081 89.7817881,3.34362644 89.7817881,7.36044481 C89.7817881,11.3772631 86.5117449,14.6335378 82.4779427,14.6335378 L33.5846749,14.6335378 C23.2903515,14.6335378 14.9451536,22.9435988 14.9451536,33.1945787 C14.9451536,43.4455585 23.2903515,51.7556196 33.5846749,51.7556196 L52.5432889,51.7556196 Z" id="Rectangle-2" fill="#FFFFFF"></path>
                                    <path d="M52.5432907,103.423889 C56.5770929,103.423889 59.8471356,106.680163 59.8471356,110.696981 C59.8471356,114.7138 56.5770929,117.970074 52.5432907,117.970074 L33.5846765,117.970074 C15.2227484,117.970074 0.337464624,103.147464 0.337464624,84.8628474 C0.337464624,66.5782307 15.2227484,51.7556206 33.5846765,51.7556206 L82.477944,51.7556206 C86.5117467,51.7556206 89.7817894,55.0118954 89.7817894,59.0287134 C89.7817894,63.0455319 86.5117467,66.3018068 82.477944,66.3018068 L33.5846765,66.3018068 C23.2903531,66.3018068 14.9451552,74.6118677 14.9451552,84.8628474 C14.9451552,95.1138271 23.2903531,103.423889 33.5846765,103.423889 L52.5432907,103.423889 Z" id="Rectangle-2-Copy" fill="#FFFFFF" transform="translate(45.059627, 84.862847) rotate(-180.000000) translate(-45.059627, -84.862847) "></path>
                                </g>
                            </g>
                        </g>
                    </g>
                </g>
                <path d="M86.3016216,85.1351351 L86.3016216,77.3951351 L69.6216216,77.3951351 L69.6216216,43.1351351 L60.6216216,43.1351351 L60.6216216,85.1351351 L86.3016216,85.1351351 Z M100.161622,85.1351351 L100.161622,43.1351351 L91.1616216,43.1351351 L91.1616216,85.1351351 L100.161622,85.1351351 Z M116.121622,85.1351351 L116.121622,58.6751351 L133.941622,85.1351351 L142.161622,85.1351351 L142.161622,43.1351351 L133.281622,43.1351351 L133.281622,69.5951351 L115.461622,43.1351351 L107.301622,43.1351351 L107.301622,85.1351351 L116.121622,85.1351351 Z M158.301622,85.1351351 L158.301622,74.0951351 L164.241622,67.4351351 L176.241622,85.1351351 L187.041622,85.1351351 L170.601622,60.4751351 L186.021622,43.1951351 L175.101622,43.1951351 L158.301622,62.0351351 L158.301622,43.1951351 L149.301622,43.1951351 L149.301622,85.1351351 L158.301622,85.1351351 Z" id="LINK" fill="#FFFFFF" transform="translate(123.831622, 64.135135) rotate(270.000000) translate(-123.831622, -64.135135) "></path>
            </g>
        </g>
    </g>
</svg>