<?xml version="1.0" encoding="UTF-8"?>
<svg width="300px" height="300px" viewBox="0 0 300 300" version="1.1" xmlns="http://www.w3.org/2000/svg" xmlns:xlink="http://www.w3.org/1999/xlink">
    <!-- Generator: Sketch 60 (88103) - https://sketch.com -->
    <title>sLTC</title>
    <desc>Created with Sketch.</desc>
    <g id="Page-1" stroke="none" stroke-width="1" fill="none" fill-rule="evenodd">
        <g id="sLTC" fill-rule="nonzero">
            <g id="iBTC-2" fill="#52B167">
                <g id="Group-4">
                    <circle id="Oval" cx="150" cy="150" r="150"></circle>
                </g>
            </g>
            <g id="Group-22" transform="translate(72.000000, 89.000000)">
                <g id="Group-19" transform="translate(0.000000, 1.000000)">
                    <g id="Group-Copy" transform="translate(0.000000, 0.147333)">
                        <g id="Group-6" transform="translate(0.000000, 0.583361)">
                            <g id="Group-5" transform="translate(0.039489, 0.450779)">
                                <g id="Group-4" transform="translate(0.062768, 0.386237)">
                                    <polygon id="Path-3" fill="#8E8C98" points="13.41264 115.03614 1.53866851 106.563531 76.2213423 2.77870219 88.0953138 11.2513106"></polygon>
                                    <path d="M52.5432889,51.7556196 C56.5770916,51.7556196 59.8471343,55.0118944 59.8471343,59.0287124 C59.8471343,63.0455309 56.5770916,66.3018058 52.5432889,66.3018058 L33.5846749,66.3018058 C15.2227468,66.3018058 0.337463,51.4791956 0.337463,33.1945787 C0.337463,14.9099621 15.2227468,0.0873518081 33.5846749,0.0873518081 L82.4779427,0.0873518081 C86.5117449,0.0873518081 89.7817881,3.34362644 89.7817881,7.36044481 C89.7817881,11.3772631 86.5117449,14.6335378 82.4779427,14.6335378 L33.5846749,14.6335378 C23.2903515,14.6335378 14.9451536,22.9435988 14.9451536,33.1945787 C14.9451536,43.4455585 23.2903515,51.7556196 33.5846749,51.7556196 L52.5432889,51.7556196 Z" id="Rectangle-2" fill="#FFFFFF"></path>
                                    <path d="M52.5432907,103.423889 C56.5770929,103.423889 59.8471356,106.680163 59.8471356,110.696981 C59.8471356,114.7138 56.5770929,117.970074 52.5432907,117.970074 L33.5846765,117.970074 C15.2227484,117.970074 0.337464624,103.147464 0.337464624,84.8628474 C0.337464624,66.5782307 15.2227484,51.7556206 33.5846765,51.7556206 L82.477944,51.7556206 C86.5117467,51.7556206 89.7817894,55.0118954 89.7817894,59.0287134 C89.7817894,63.0455319 86.5117467,66.3018068 82.477944,66.3018068 L33.5846765,66.3018068 C23.2903531,66.3018068 14.9451552,74.6118677 14.9451552,84.8628474 C14.9451552,95.1138271 23.2903531,103.423889 33.5846765,103.423889 L52.5432907,103.423889 Z" id="Rectangle-2-Copy" fill="#FFFFFF" transform="translate(45.059627, 84.862847) rotate(-180.000000) translate(-45.059627, -84.862847) "></path>
                                </g>
                            </g>
                        </g>
                    </g>
                </g>
                <path d="M100.121622,88.6351351 L100.121622,78.6837066 L78.6870422,78.6837066 L78.6870422,34.6351351 L67.1216216,34.6351351 L67.1216216,88.6351351 L100.121622,88.6351351 Z M122.442921,88.6351351 L122.442921,44.5865637 L138.121622,44.5865637 L138.121622,34.6351351 L95.1216216,34.6351351 L95.1216216,44.5865637 L110.800322,44.5865637 L110.800322,88.6351351 L122.442921,88.6351351 Z M164.793472,88.6351351 C169.04438,88.6351351 172.854644,87.8111651 176.224265,86.163225 C179.593887,84.5152849 182.315504,82.1978692 184.389118,79.2109778 C186.462731,76.2240864 187.706899,72.7737119 188.121622,68.8598542 L188.121622,68.8598542 L176.457547,68.8598542 C175.783623,71.9497419 174.370974,74.3830284 172.2196,76.1597138 C170.068226,77.9363992 167.385489,78.8247419 164.171388,78.8247419 C159.8168,78.8247419 156.369418,77.1896763 153.829242,73.9195452 C151.289066,70.6494142 150.018978,66.3879441 150.018978,61.1351351 C150.018978,55.830828 151.289066,51.5564834 153.829242,48.3121014 C156.369418,45.0677194 159.8168,43.4455284 164.171388,43.4455284 C167.385489,43.4455284 170.068226,44.3338711 172.2196,46.1105565 C174.370974,47.8872419 175.783623,50.3205284 176.457547,53.410416 L176.457547,53.410416 L188.121622,53.410416 C187.706899,49.4965584 186.462731,46.0461838 184.389118,43.0592924 C182.315504,40.0724011 179.593887,37.7549853 176.224265,36.1070452 C172.854644,34.4591052 169.04438,33.6351351 164.793472,33.6351351 C159.350237,33.6351351 154.619807,34.7680939 150.602181,37.0340115 C146.584556,39.2999291 143.500056,42.5056876 141.348682,46.6512868 C139.197309,50.7968861 138.121622,55.6248355 138.121622,61.1351351 C138.121622,66.6454348 139.197309,71.4733842 141.348682,75.6189834 C143.500056,79.7645827 146.584556,82.9703411 150.602181,85.2362587 C154.619807,87.5021763 159.350237,88.6351351 164.793472,88.6351351 Z" id="LTC" fill="#FFFFFF" transform="translate(127.621622, 61.135135) rotate(270.000000) translate(-127.621622, -61.135135) "></path>
            </g>
        </g>
    </g>
</svg>