<svg xmlns="http://www.w3.org/2000/svg" width="300" height="300">
    <g fill="none" fill-rule="evenodd">
        <circle cx="150" cy="150" r="150" fill="#45992F"/>
        <path fill="#FFF" fill-rule="nonzero" d="M171 210.83v-11.426l29.812-11.252L171 177.248v-11.194h40.6v8.294h-27.202l27.202 10.556v7.076l-27.202 10.556H211.6v8.294H171zm.058-51.736v-8.7h18.212l-18.212-16.24v-10.556l16.704 14.906 23.838-15.892v10.44l-17.11 11.6 6.438 5.742H211.6v8.7h-40.542zM171 102.95c0-2.939.551-5.539 1.653-7.801 1.102-2.262 2.678-4.012 4.727-5.249 2.05-1.237 4.427-1.856 7.134-1.856 2.59 0 4.882.619 6.873 1.856 1.991 1.237 3.509 2.939 4.553 5.104L211.6 87v9.628l-13.63 6.786v7.366h13.63v8.7H171v-16.53zm19.72 7.83v-7.134c0-2.05-.56-3.683-1.682-4.901-1.121-1.218-2.63-1.827-4.524-1.827-1.933 0-3.46.609-4.582 1.827-1.121 1.218-1.682 2.852-1.682 4.901v7.134h12.47z"/>
        <path fill="#8E8C98" d="M86.844 205.587l-11.891-8.55 74.792-104.735 11.892 8.55z"/>
        <path fill="#FFF" d="M126.032 141.727c4.04 0 7.315 3.286 7.315 7.34s-3.275 7.34-7.315 7.34h-18.986c-18.389 0-33.296-14.959-33.296-33.41 0-18.453 14.907-33.411 33.296-33.411h48.965c4.04 0 7.314 3.286 7.314 7.34 0 4.053-3.274 7.34-7.314 7.34h-48.965c-10.31 0-18.667 8.385-18.667 18.73s8.357 18.731 18.667 18.731h18.986z"/>
        <path fill="#FFF" d="M111.043 156.407c-4.04 0-7.315-3.286-7.315-7.34s3.275-7.34 7.315-7.34h18.986c18.39 0 33.296 14.959 33.296 33.41 0 18.453-14.907 33.411-33.296 33.411H81.064c-4.04 0-7.314-3.286-7.314-7.34 0-4.053 3.275-7.34 7.314-7.34h48.965c10.31 0 18.667-8.385 18.667-18.73s-8.357-18.731-18.667-18.731h-18.986z"/>
    </g>
</svg>
