<?xml version="1.0" encoding="UTF-8"?>
<svg width="300px" height="300px" viewBox="0 0 300 300" version="1.1" xmlns="http://www.w3.org/2000/svg" xmlns:xlink="http://www.w3.org/1999/xlink">
    <!-- Generator: Sketch 53 (72520) - https://sketchapp.com -->
    <title>sNZD_white</title>
    <desc>Created with Sketch.</desc>
    <g id="Page-1" stroke="none" stroke-width="1" fill="none" fill-rule="evenodd">
        <g id="sNZD_white">
            <circle id="Oval-Copy" fill="#FFFFFF" cx="150.389813" cy="150.27121" r="149.57633"></circle>
            <g id="Group-19" transform="translate(78.000000, 88.000000)">
                <g id="Group-Copy" transform="translate(0.000000, 0.148649)">
                    <g id="Group-6" transform="translate(0.000000, 0.588569)">
                        <g id="Group-5" transform="translate(0.718512, 0.454804)">
                            <g id="Group-4" transform="translate(0.063063, 0.389683)">
                                <polygon id="Path-3" fill="#8E8C98" points="13.4753987 116.063077 1.54586805 107.514833 76.5779872 2.8035079 88.5075177 11.351752"></polygon>
                                <path d="M52.7891427,52.2176465 C56.8418196,52.2176465 60.1271631,55.50299 60.1271631,59.5556669 C60.1271631,63.6083439 56.8418196,66.8936874 52.7891427,66.8936874 L33.7418199,66.8936874 C15.2939751,66.8936874 0.339042013,51.9387545 0.339042013,33.4909095 C0.339042013,15.0430646 15.2939751,0.0881316049 33.7418199,0.0881316049 L82.8638627,0.0881316049 C86.9165396,0.0881316049 90.2018831,3.37347527 90.2018831,7.4261521 C90.2018831,11.4788289 86.9165396,14.7641726 82.8638627,14.7641726 L33.7418199,14.7641726 C23.3993287,14.7641726 15.015083,23.1484183 15.015083,33.4909095 C15.015083,43.8334007 23.3993287,52.2176465 33.7418199,52.2176465 L52.7891427,52.2176465 Z" id="Rectangle-2" fill="#1E1A31"></path>
                                <path d="M52.7891445,104.347161 C56.8418214,104.347161 60.1271649,107.632505 60.1271649,111.685181 C60.1271649,115.737858 56.8418214,119.023202 52.7891445,119.023202 L33.7418217,119.023202 C15.2939769,119.023202 0.339043822,104.068269 0.339043822,85.6204242 C0.339043822,67.1725794 15.2939769,52.2176465 33.7418217,52.2176465 L82.8638645,52.2176465 C86.9165414,52.2176465 90.2018849,55.50299 90.2018849,59.5556669 C90.2018849,63.6083439 86.9165414,66.8936874 82.8638645,66.8936874 L33.7418217,66.8936874 C23.3993305,66.8936874 15.0150848,75.2779332 15.0150848,85.6204242 C15.0150848,95.9629152 23.3993305,104.347161 33.7418217,104.347161 L52.7891445,104.347161 Z" id="Rectangle-2-Copy" fill="#1E1A31" transform="translate(45.270464, 85.620424) rotate(-180.000000) translate(-45.270464, -85.620424) "></path>
                            </g>
                        </g>
                    </g>
                </g>
            </g>
            <text id="NZD" transform="translate(201.000000, 151.500000) rotate(270.000000) translate(-201.000000, -151.500000) " font-family="Aeonik-Bold, Aeonik" font-size="60" font-weight="bold" fill="#1E1A31">
                <tspan x="140.5" y="175.5">NZD</tspan>
            </text>
        </g>
    </g>
</svg>