<svg xmlns="http://www.w3.org/2000/svg" width="300" height="300">
    <g fill="none" fill-rule="evenodd">
        <circle cx="150.39" cy="150.271" r="149.576" fill="#FFF"/>
        <path fill="#8E8C98" d="M92.257 205.645l-11.93-8.548L155.36 92.385l11.93 8.548z"/>
        <path fill="#1E1A31" d="M131.57 141.8a7.338 7.338 0 1 1 0 14.675h-19.047c-18.447 0-33.402-14.955-33.402-33.402 0-18.448 14.955-33.403 33.402-33.403h49.122a7.338 7.338 0 1 1 0 14.676h-49.122c-10.342 0-18.726 8.384-18.726 18.727 0 10.342 8.384 18.726 18.726 18.726h19.048z"/>
        <path fill="#1E1A31" d="M116.533 156.475a7.338 7.338 0 0 1 0-14.676h19.048c18.448 0 33.402 14.955 33.402 33.403s-14.954 33.403-33.402 33.403H86.459a7.338 7.338 0 1 1 0-14.676h49.122c10.342 0 18.726-8.384 18.726-18.727 0-10.342-8.384-18.727-18.726-18.727h-19.048z"/>
        <path fill="#1E1A31" fill-rule="nonzero" d="M222.82 205.22h-42v-8.16l26.46-17.82h-26.46v-8.88h42v8.22l-26.46 17.82h26.46v8.82zm-42-40.56V131.3h5.94l28.38 21.54v-22.08h7.68v34.44h-5.94l-28.38-21.54v21h-7.68zm0-39.12v-14.58c0-4.2.89-7.91 2.67-11.13 1.78-3.22 4.26-5.7 7.44-7.44 3.18-1.74 6.81-2.61 10.89-2.61 4.08 0 7.71.87 10.89 2.61 3.18 1.74 5.66 4.22 7.44 7.44 1.78 3.22 2.67 6.93 2.67 11.13v14.58h-42zm34.5-14.58c0-3.8-1.23-6.75-3.69-8.85-2.46-2.1-5.73-3.15-9.81-3.15s-7.35 1.05-9.81 3.15c-2.46 2.1-3.69 5.05-3.69 8.85v5.58h27v-5.58z"/>
    </g>
</svg>
