<svg xmlns="http://www.w3.org/2000/svg" width="300" height="300">
    <g fill="none" fill-rule="evenodd">
        <circle cx="150.39" cy="150.271" r="149.576" fill="#FFF"/>
        <path fill="#8E8C98" d="M92.257 205.645l-11.93-8.548L155.36 92.385l11.93 8.548z"/>
        <path fill="#1E1A31" d="M131.57 141.8a7.338 7.338 0 1 1 0 14.675h-19.047c-18.447 0-33.402-14.955-33.402-33.402 0-18.448 14.955-33.403 33.402-33.403h49.122a7.338 7.338 0 1 1 0 14.676h-49.122c-10.342 0-18.726 8.384-18.726 18.727 0 10.342 8.384 18.726 18.726 18.726h19.048z"/>
        <path fill="#1E1A31" d="M116.533 156.475a7.338 7.338 0 0 1 0-14.676h19.048c18.448 0 33.402 14.955 33.402 33.403s-14.954 33.403-33.402 33.403H86.459a7.338 7.338 0 1 1 0-14.676h49.122c10.342 0 18.726-8.384 18.726-18.727 0-10.342-8.384-18.727-18.726-18.727h-19.048z"/>
        <path fill="#1E1A31" fill-rule="nonzero" d="M180.422 186.307c0-3.35.636-6.31 1.91-8.877 1.273-2.569 3.093-4.556 5.46-5.964 2.367-1.407 5.114-2.11 8.241-2.11s5.862.703 8.208 2.11c2.345 1.408 4.153 3.395 5.426 5.963 1.274 2.569 1.91 5.528 1.91 8.878v9.045h15.745v10.05h-46.9v-19.095zm22.78 9.045v-8.107c0-2.367-.648-4.243-1.943-5.628-1.295-1.385-3.037-2.077-5.226-2.077-2.233 0-3.998.692-5.293 2.077s-1.943 3.26-1.943 5.628v8.107h14.405zm24.12-31.624h-46.9v-10.05h38.257v-18.626h8.643v28.676zm0-34.103h-46.9v-9.112l29.547-19.899h-29.547v-9.916h46.9v9.179l-29.547 19.899h29.547v9.849z"/>
    </g>
</svg>
