<svg xmlns="http://www.w3.org/2000/svg" width="300" height="300">
    <g fill="none" fill-rule="evenodd">
        <circle cx="150.39" cy="150.271" r="149.576" fill="#FFF"/>
        <path fill="#8E8C98" d="M94.257 205.645l-11.93-8.548L157.36 92.385l11.93 8.548z"/>
        <path fill="#1E1A31" d="M133.57 141.8a7.338 7.338 0 1 1 0 14.675h-19.047c-18.447 0-33.402-14.955-33.402-33.402 0-18.448 14.955-33.403 33.402-33.403h49.122a7.338 7.338 0 1 1 0 14.676h-49.122c-10.342 0-18.726 8.384-18.726 18.727 0 10.342 8.384 18.726 18.726 18.726h19.048z"/>
        <path fill="#1E1A31" d="M118.533 156.475a7.338 7.338 0 0 1 0-14.676h19.048c18.448 0 33.402 14.955 33.402 33.403s-14.954 33.403-33.402 33.403H88.459a7.338 7.338 0 1 1 0-14.676h49.122c10.342 0 18.726-8.384 18.726-18.727 0-10.342-8.384-18.727-18.726-18.727h-19.048z"/>
        <path fill="#1E1A31" fill-rule="nonzero" d="M182.02 189.68c0-3.04.57-5.73 1.71-8.07 1.14-2.34 2.77-4.15 4.89-5.43 2.12-1.28 4.58-1.92 7.38-1.92 2.68 0 5.05.64 7.11 1.92 2.06 1.28 3.63 3.04 4.71 5.28l16.2-8.28v9.96l-14.1 7.02v7.62h14.1v9h-42v-17.1zm20.4 8.1v-7.38c0-2.12-.58-3.81-1.74-5.07-1.16-1.26-2.72-1.89-4.68-1.89-2 0-3.58.63-4.74 1.89-1.16 1.26-1.74 2.95-1.74 5.07v7.38h12.9zm-20.4-37.98h24.36c3.4 0 5.96-.66 7.68-1.98 1.72-1.32 2.58-3.4 2.58-6.24 0-2.84-.86-4.93-2.58-6.27-1.72-1.34-4.28-2.01-7.68-2.01h-24.36v-9h23.88c6 0 10.58 1.47 13.74 4.41 3.16 2.94 4.74 7.23 4.74 12.87 0 5.64-1.58 9.92-4.74 12.84s-7.74 4.38-13.74 4.38h-23.88v-9zm0-48.36c0-4.88.96-8.66 2.88-11.34 1.92-2.68 4.64-4.02 8.16-4.02 2.6 0 4.7.72 6.3 2.16 1.6 1.44 2.64 3.48 3.12 6.12.4-3.12 1.4-5.53 3-7.23 1.6-1.7 3.84-2.55 6.72-2.55 3.68 0 6.57 1.4 8.67 4.2 2.1 2.8 3.15 6.76 3.15 11.88v16.74h-42v-15.96zm17.28 6.96v-7.2c0-1.92-.46-3.42-1.38-4.5-.92-1.08-2.16-1.62-3.72-1.62s-2.8.54-3.72 1.62c-.92 1.08-1.38 2.58-1.38 4.5v7.2h10.2zm17.58 0v-7.8c0-2.16-.46-3.83-1.38-5.01-.92-1.18-2.2-1.77-3.84-1.77-1.72 0-3.05.6-3.99 1.8-.94 1.2-1.41 2.86-1.41 4.98v7.8h10.62z"/>
    </g>
</svg>
