<svg xmlns="http://www.w3.org/2000/svg" width="300" height="300">
    <g fill="none" fill-rule="evenodd">
        <circle cx="150.39" cy="150.271" r="149.576" fill="#FFF"/>
        <path fill="#8E8C98" d="M94.257 205.645l-11.93-8.548L157.36 92.385l11.93 8.548z"/>
        <path fill="#1E1A31" d="M133.57 141.8a7.338 7.338 0 1 1 0 14.675h-19.047c-18.447 0-33.402-14.955-33.402-33.402 0-18.448 14.955-33.403 33.402-33.403h49.122a7.338 7.338 0 1 1 0 14.676h-49.122c-10.342 0-18.726 8.384-18.726 18.727 0 10.342 8.384 18.726 18.726 18.726h19.048z"/>
        <path fill="#1E1A31" d="M118.533 156.475a7.338 7.338 0 0 1 0-14.676h19.048c18.448 0 33.402 14.955 33.402 33.403s-14.954 33.403-33.402 33.403H88.459a7.338 7.338 0 1 1 0-14.676h49.122c10.342 0 18.726-8.384 18.726-18.727 0-10.342-8.384-18.727-18.726-18.727h-19.048z"/>
        <path fill="#1E1A31" fill-rule="nonzero" d="M211.18 201.12c2.08-.16 3.75-1.01 5.01-2.55 1.26-1.54 1.89-3.59 1.89-6.15 0-2.12-.45-3.85-1.35-5.19-.9-1.34-2.15-2.01-3.75-2.01-1.12 0-2.01.37-2.67 1.11-.66.74-1.18 1.78-1.56 3.12-.38 1.34-.85 3.41-1.41 6.21-.52 2.76-1.19 5.08-2.01 6.96-.82 1.88-2.04 3.41-3.66 4.59-1.62 1.18-3.77 1.77-6.45 1.77-2.44 0-4.62-.67-6.54-2.01-1.92-1.34-3.43-3.2-4.53-5.58s-1.65-5.07-1.65-8.07c0-3.08.57-5.85 1.71-8.31 1.14-2.46 2.71-4.4 4.71-5.82s4.26-2.15 6.78-2.19v8.82c-1.8.2-3.25.96-4.35 2.28-1.1 1.32-1.65 3.06-1.65 5.22 0 2 .42 3.6 1.26 4.8.84 1.2 2.04 1.8 3.6 1.8 1.12 0 1.99-.36 2.61-1.08.62-.72 1.12-1.74 1.5-3.06.38-1.32.83-3.36 1.35-6.12.52-2.8 1.17-5.16 1.95-7.08s1.96-3.47 3.54-4.65c1.58-1.18 3.69-1.77 6.33-1.77 2.56 0 4.85.7 6.87 2.1 2.02 1.4 3.61 3.35 4.77 5.85 1.16 2.5 1.74 5.31 1.74 8.43 0 3.36-.61 6.35-1.83 8.97-1.22 2.62-2.91 4.67-5.07 6.15-2.16 1.48-4.58 2.24-7.26 2.28l.12-8.82zm-7.32-28.68c-4.28 0-8.03-.84-11.25-2.52-3.22-1.68-5.71-4.09-7.47-7.23-1.76-3.14-2.64-6.83-2.64-11.07 0-3.32.64-6.3 1.92-8.94 1.28-2.64 3.08-4.77 5.4-6.39 2.32-1.62 4.98-2.61 7.98-2.97v8.88c-2.36.56-4.23 1.68-5.61 3.36s-2.07 3.78-2.07 6.3c0 2.32.58 4.34 1.74 6.06 1.16 1.72 2.78 3.04 4.86 3.96 2.08.92 4.46 1.38 7.14 1.38 4.12 0 7.44-1.01 9.96-3.03 2.52-2.02 3.78-4.81 3.78-8.37 0-2.6-.71-4.9-2.13-6.9s-3.51-3.2-6.27-3.6h-.54v10.44h-7.14v-18.78h23.34v6.24l-5.22.96c1.64 1.24 2.98 2.9 4.02 4.98 1.04 2.08 1.56 4.5 1.56 7.26 0 3.96-.88 7.45-2.64 10.47-1.76 3.02-4.26 5.36-7.5 7.02-3.24 1.66-6.98 2.49-11.22 2.49zm-21-46.62v-14.58c0-4.2.89-7.91 2.67-11.13 1.78-3.22 4.26-5.7 7.44-7.44 3.18-1.74 6.81-2.61 10.89-2.61 4.08 0 7.71.87 10.89 2.61 3.18 1.74 5.66 4.22 7.44 7.44 1.78 3.22 2.67 6.93 2.67 11.13v14.58h-42zm34.5-14.58c0-3.8-1.23-6.75-3.69-8.85-2.46-2.1-5.73-3.15-9.81-3.15s-7.35 1.05-9.81 3.15c-2.46 2.1-3.69 5.05-3.69 8.85v5.58h27v-5.58z"/>
    </g>
</svg>
