<svg xmlns="http://www.w3.org/2000/svg" width="300" height="300">
    <g fill="none" fill-rule="evenodd">
        <circle cx="150" cy="150" r="150" fill="#45992F"/>
        <path fill="#8E8C98" d="M92.844 205.587l-11.891-8.55 74.792-104.735 11.892 8.55z"/>
        <path fill="#FFF" d="M132.032 141.727c4.04 0 7.315 3.286 7.315 7.34s-3.275 7.34-7.315 7.34h-18.986c-18.389 0-33.296-14.959-33.296-33.41 0-18.453 14.907-33.411 33.296-33.411h48.965c4.04 0 7.314 3.286 7.314 7.34 0 4.053-3.274 7.34-7.314 7.34h-48.965c-10.31 0-18.667 8.385-18.667 18.73s8.357 18.731 18.667 18.731h18.986z"/>
        <path fill="#FFF" d="M117.043 156.407c-4.04 0-7.315-3.286-7.315-7.34s3.275-7.34 7.315-7.34h18.986c18.39 0 33.296 14.959 33.296 33.41 0 18.453-14.907 33.411-33.296 33.411H87.064c-4.04 0-7.314-3.286-7.314-7.34 0-4.053 3.275-7.34 7.314-7.34h48.965c10.31 0 18.667-8.385 18.667-18.73s-8.357-18.731-18.667-18.731h-18.986z"/>
        <path fill="#FFF" fill-rule="nonzero" d="M182 211.07v-36.01h8.385v13.13H227.5v9.75h-37.115v13.13H182zm0-59.865c0-3.293.617-6.207 1.852-8.743 1.236-2.535 3.001-4.495 5.298-5.882 2.297-1.387 4.962-2.08 7.995-2.08 2.903 0 5.47.693 7.702 2.08s3.933 3.293 5.103 5.72l17.55-8.97v10.79l-15.275 7.605v8.255H227.5v9.75H182v-18.525zm22.1 8.775v-7.995c0-2.297-.628-4.127-1.885-5.493-1.257-1.365-2.947-2.047-5.07-2.047-2.167 0-3.878.682-5.135 2.048-1.257 1.365-1.885 3.195-1.885 5.492v7.995H204.1zm.195-43.81L182 130.34v-11.83l14.3-8.97-14.3-9.165v-10.66l22.295 14.17L227.5 89v11.895l-15.275 9.685 15.275 9.88v10.595l-23.205-14.885z"/>
    </g>
</svg>
