<svg xmlns="http://www.w3.org/2000/svg" width="300" height="300">
    <g fill="none" fill-rule="evenodd">
        <circle cx="150.39" cy="150.271" r="149.576" fill="#234CAA"/>
        <path fill="#8E8C98" d="M94.257 205.645l-11.93-8.548L157.36 92.385l11.93 8.548z"/>
        <path fill="#FFF" d="M133.57 141.8a7.338 7.338 0 1 1 0 14.675h-19.047c-18.447 0-33.402-14.955-33.402-33.402 0-18.448 14.955-33.403 33.402-33.403h49.122a7.338 7.338 0 1 1 0 14.676h-49.122c-10.342 0-18.726 8.384-18.726 18.727 0 10.342 8.384 18.726 18.726 18.726h19.048z"/>
        <path fill="#FFF" d="M118.533 156.475a7.338 7.338 0 0 1 0-14.676h19.048c18.448 0 33.402 14.955 33.402 33.403s-14.954 33.403-33.402 33.403H88.459a7.338 7.338 0 1 1 0-14.676h49.122c10.342 0 18.726-8.384 18.726-18.727 0-10.342-8.384-18.727-18.726-18.727h-19.048z"/>
        <path fill="#FFF" fill-rule="nonzero" d="M204.05 196.83l-20.58 13.08v-10.92l13.2-8.28-13.2-8.46v-9.84l20.58 13.08 21.42-13.74v10.98l-14.1 8.94 14.1 9.12v9.78l-21.42-13.74zm21.42-26.22l-42-15.36v-10.8l42-15.24v9.66l-9.18 3.24v15.96l9.18 3.24v9.3zm-16.44-14.94v-11.1l-15.96 5.58 15.96 5.52zm-4.56-26.82c-4.28 0-8.03-.84-11.25-2.52-3.22-1.68-5.71-4.09-7.47-7.23-1.76-3.14-2.64-6.83-2.64-11.07 0-3.32.64-6.3 1.92-8.94 1.28-2.64 3.08-4.77 5.4-6.39 2.32-1.62 4.98-2.61 7.98-2.97v8.88c-2.36.56-4.23 1.68-5.61 3.36s-2.07 3.78-2.07 6.3c0 2.32.58 4.34 1.74 6.06 1.16 1.72 2.78 3.04 4.86 3.96 2.08.92 4.46 1.38 7.14 1.38 4.12 0 7.44-1.01 9.96-3.03 2.52-2.02 3.78-4.81 3.78-8.37 0-2.6-.71-4.9-2.13-6.9s-3.51-3.2-6.27-3.6h-.54v10.44h-7.14V89.43h23.34v6.24l-5.22.96c1.64 1.24 2.98 2.9 4.02 4.98 1.04 2.08 1.56 4.5 1.56 7.26 0 3.96-.88 7.45-2.64 10.47-1.76 3.02-4.26 5.36-7.5 7.02-3.24 1.66-6.98 2.49-11.22 2.49z"/>
    </g>
</svg>
