<svg width="300" height="300" viewBox="0 0 300 300" fill="none" xmlns="http://www.w3.org/2000/svg">
<path d="M150 300C232.843 300 300 232.843 300 150C300 67.1573 232.843 0 150 0C67.1573 0 0 67.1573 0 150C0 232.843 67.1573 300 150 300Z" fill="#F4C14D"/>
<path d="M199.58 198.173L179 211.253V200.333L192.2 192.053L179 183.593V173.753L199.58 186.833L221 173.093V184.073L206.9 193.013L221 202.133V211.913L199.58 198.173Z" fill="#1E1A31"/>
<path d="M221 171.967L179 156.607V145.807L221 130.567V140.227L211.82 143.467V159.427L221 162.667V171.967ZM204.56 157.027V145.927L188.6 151.507L204.56 157.027Z" fill="#1E1A31"/>
<path d="M200 130.209C195.72 130.209 191.98 129.369 188.78 127.689C185.54 126.009 183.04 123.609 181.28 120.489C179.52 117.329 178.64 113.629 178.64 109.389C178.64 106.069 179.28 103.089 180.56 100.449C181.84 97.809 183.64 95.689 185.96 94.089C188.28 92.449 190.94 91.449 193.94 91.089V99.969C191.58 100.529 189.72 101.649 188.36 103.329C186.96 105.009 186.26 107.109 186.26 109.629C186.26 111.949 186.84 113.969 188 115.689C189.16 117.409 190.78 118.729 192.86 119.649C194.94 120.569 197.32 121.029 200 121.029C204.12 121.029 207.44 120.029 209.96 118.029C212.48 115.989 213.74 113.189 213.74 109.629C213.74 107.029 213.04 104.729 211.64 102.729C210.2 100.729 208.1 99.529 205.34 99.129H204.8V109.569H197.66V90.789L221 90.789V97.029L215.78 97.989C217.42 99.229 218.76 100.889 219.8 102.969C220.84 105.049 221.36 107.469 221.36 110.229C221.36 114.189 220.48 117.689 218.72 120.729C216.96 123.729 214.46 126.069 211.22 127.749C207.98 129.389 204.24 130.209 200 130.209Z" fill="#1E1A31"/>
<path opacity="0.5" fill-rule="evenodd" clip-rule="evenodd" d="M81.4244 208.528L68.9409 199.622L147.457 90.5283L159.941 99.4343L81.4244 208.528Z" fill="#1E1A31"/>
<path fill-rule="evenodd" clip-rule="evenodd" d="M121.868 142.349H126.059C145.357 142.349 161 157.941 161 177.175C161 196.408 145.357 212 126.059 212H74.6759C70.4366 212 67 208.575 67 204.349C67 200.124 70.4366 196.699 74.6759 196.699H126.059C136.878 196.699 145.648 187.958 145.648 177.175C145.648 166.392 136.878 157.651 126.059 157.651H106.135H106.132H101.941C82.6434 157.651 67 142.059 67 122.825C67 103.592 82.6434 88 101.941 88H153.324C157.563 88 161 91.4253 161 95.6505C161 99.8758 157.563 103.301 153.324 103.301H101.941C91.1219 103.301 82.3517 112.042 82.3517 122.825C82.3517 133.608 91.1219 142.349 101.941 142.349H121.865C121.866 142.349 121.867 142.349 121.868 142.349Z" fill="#1E1A31"/>
</svg>
