<svg xmlns="http://www.w3.org/2000/svg" width="300" height="300">
    <g fill="none" fill-rule="evenodd">
        <circle cx="150" cy="150" r="150" fill="#234CAA"/>
        <path fill="#8E8C98" d="M85.086 209.944l-11.926-8.352 75.007-102.307 11.925 8.352z"/>
        <path fill="#FFF" d="M124.386 147.565c4.051 0 7.336 3.21 7.336 7.17 0 3.959-3.285 7.169-7.336 7.169h-19.04c-18.443 0-33.392-14.612-33.392-32.636 0-18.025 14.95-32.636 33.391-32.636h49.106c4.051 0 7.335 3.21 7.335 7.17 0 3.959-3.284 7.169-7.335 7.169h-49.106c-10.339 0-18.72 8.191-18.72 18.297 0 10.105 8.381 18.297 18.72 18.297h19.041z"/>
        <path fill="#FFF" d="M109.354 161.904c-4.052 0-7.336-3.21-7.336-7.17s3.284-7.17 7.336-7.17h19.04c18.442 0 33.392 14.612 33.392 32.637 0 18.024-14.95 32.636-33.391 32.636H79.289c-4.051 0-7.335-3.21-7.335-7.17s3.284-7.17 7.335-7.17h49.106c10.339 0 18.72-8.191 18.72-18.296 0-10.106-8.381-18.297-18.72-18.297h-19.041z"/>
        <path fill="#FFF" fill-rule="nonzero" d="M201.112 199.006l-19.029 13.242v-11.055l12.205-8.383-12.205-8.565v-9.963l19.029 13.243 19.805-13.911v11.116l-13.037 9.052 13.037 9.233v9.902l-19.805-13.911zm19.805-26.546l-38.834-15.551v-10.934l38.834-15.43v9.78l-8.488 3.28v16.159l8.488 3.28v9.416zm-15.2-15.126v-11.238l-14.757 5.65 14.756 5.588zM182.082 120.4h22.524c3.144 0 5.51-.668 7.101-2.004 1.59-1.337 2.385-3.442 2.385-6.318 0-2.875-.795-4.991-2.385-6.348-1.59-1.356-3.957-2.035-7.101-2.035h-22.524v-9.112h22.08c5.548 0 9.783 1.489 12.704 4.465 2.922 2.977 4.383 7.32 4.383 13.03 0 5.71-1.46 10.044-4.383 13-2.921 2.956-7.156 4.434-12.704 4.434h-22.08V120.4z"/>
    </g>
</svg>
