<svg width="300" height="300" viewBox="0 0 300 300" fill="none" xmlns="http://www.w3.org/2000/svg">
<path d="M150 300C232.843 300 300 232.843 300 150C300 67.1573 232.843 0 150 0C67.1573 0 0 67.1573 0 150C0 232.843 67.1573 300 150 300Z" fill="#F4C14D"/>
<path d="M199.58 195.887L179 208.967V198.047L192.2 189.767L179 181.307V171.467L199.58 184.547L221 170.807V181.787L206.9 190.727L221 199.847V209.627L199.58 195.887Z" fill="#1E1A31"/>
<path d="M221 169.682L179 154.322V143.522L221 128.282V137.942L211.82 141.182V157.142L221 160.382V169.682ZM204.56 154.742V143.642L188.6 149.222L204.56 154.742Z" fill="#1E1A31"/>
<path d="M179 118.247H203.36C206.76 118.247 209.32 117.587 211.04 116.267C212.76 114.947 213.62 112.867 213.62 110.027C213.62 107.187 212.76 105.107 211.04 103.787C209.32 102.427 206.76 101.747 203.36 101.747H179V92.747H202.88C208.88 92.747 213.46 94.227 216.62 97.187C219.78 100.107 221.36 104.387 221.36 110.027C221.36 115.667 219.78 119.947 216.62 122.867C213.46 125.787 208.88 127.247 202.88 127.247H179V118.247Z" fill="#1E1A31"/>
<path opacity="0.5" fill-rule="evenodd" clip-rule="evenodd" d="M81.4239 208.528L68.9404 199.622L147.457 90.5283L159.94 99.4343L81.4239 208.528Z" fill="#1E1A31"/>
<path fill-rule="evenodd" clip-rule="evenodd" d="M121.868 142.349H126.059C145.357 142.349 161 157.941 161 177.175C161 196.408 145.357 212 126.059 212H74.6759C70.4366 212 67 208.575 67 204.349C67 200.124 70.4366 196.699 74.6759 196.699H126.059C136.878 196.699 145.648 187.958 145.648 177.175C145.648 166.392 136.878 157.651 126.059 157.651H106.135H106.132H101.941C82.6434 157.651 67 142.059 67 122.825C67 103.592 82.6434 88 101.941 88H153.324C157.563 88 161 91.4253 161 95.6505C161 99.8758 157.563 103.301 153.324 103.301H101.941C91.1219 103.301 82.3517 112.042 82.3517 122.825C82.3517 133.608 91.1219 142.349 101.941 142.349H121.865C121.866 142.349 121.867 142.349 121.868 142.349Z" fill="#1E1A31"/>
</svg>
