<svg xmlns="http://www.w3.org/2000/svg" xmlns:xlink="http://www.w3.org/1999/xlink" width="300" height="300">
    <defs>
        <path id="a" d="M15.077 39.941L1.607 18.747h11.245l8.527 13.594 8.713-13.594h10.133l-13.47 21.194L40.905 62H29.597l-9.206-14.52L10.999 62H.927l14.15-22.059zM42.079 62l15.818-43.253H69.02L84.714 62h-9.948l-3.337-9.454H54.993L51.656 62H42.08zm15.386-16.93h11.43L63.15 28.633 57.465 45.07zm37.568-26.323v25.087c0 3.501.68 6.138 2.04 7.909 1.358 1.771 3.5 2.657 6.425 2.657s5.077-.886 6.457-2.657 2.07-4.408 2.07-7.91V18.748h9.269v24.592c0 6.18-1.514 10.896-4.542 14.15-3.028 3.255-7.445 4.882-13.254 4.882-5.808 0-10.216-1.627-13.223-4.882-3.007-3.254-4.51-7.97-4.51-14.15V18.747h9.268z"/>
    </defs>
    <g fill="none" fill-rule="evenodd">
        <circle cx="150.39" cy="150.271" r="149.576" fill="#FFF"/>
        <path fill="#8E8C98" d="M87.203 204.618l-11.93-8.548 75.033-104.712 11.929 8.548z"/>
        <path fill="#1E1A31" d="M126.517 140.772a7.338 7.338 0 1 1 0 14.676h-19.048c-18.448 0-33.402-14.955-33.402-33.402 0-18.448 14.954-33.403 33.402-33.403h49.122a7.338 7.338 0 1 1 0 14.676H107.47c-10.342 0-18.726 8.384-18.726 18.727 0 10.342 8.384 18.726 18.726 18.726h19.048z"/>
        <path fill="#1E1A31" d="M111.48 155.448a7.338 7.338 0 0 1 0-14.676h19.047c18.447 0 33.402 14.955 33.402 33.403s-14.955 33.403-33.402 33.403H81.405a7.338 7.338 0 1 1 0-14.676h49.122c10.342 0 18.726-8.384 18.726-18.727 0-10.342-8.384-18.727-18.726-18.727h-19.048z"/>
        <g fill="#1E1A31">
            <g transform="rotate(-90 185 26)">
                <use xlink:href="#a"/>
                <use xlink:href="#a"/>
            </g>
        </g>
    </g>
</svg>
