<?xml version="1.0" encoding="UTF-8"?>
<svg width="300px" height="300px" viewBox="0 0 300 300" version="1.1" xmlns="http://www.w3.org/2000/svg" xmlns:xlink="http://www.w3.org/1999/xlink">
    <!-- Generator: Sketch 60 (88103) - https://sketch.com -->
    <title>sXRP</title>
    <desc>Created with Sketch.</desc>
    <g id="Page-1" stroke="none" stroke-width="1" fill="none" fill-rule="evenodd">
        <g id="sXRP" fill-rule="nonzero">
            <g id="iBTC-2" fill="#52B167">
                <g id="Group-4">
                    <circle id="Oval" cx="150" cy="150" r="150"></circle>
                </g>
            </g>
            <g id="Group-19" transform="translate(78.000000, 89.000000)">
                <g id="Group-23" transform="translate(0.621622, 0.135135)">
                    <g id="Group-Copy" transform="translate(-0.000000, -0.000000)">
                        <g id="Group-6" transform="translate(0.000000, 0.583361)">
                            <g id="Group-5" transform="translate(0.039489, 0.450779)">
                                <g id="Group-4" transform="translate(0.062768, 0.386237)">
                                    <polygon id="Path-3" fill="#8E8C98" points="13.41264 115.03614 1.53866851 106.563531 76.2213423 2.77870219 88.0953138 11.2513106"></polygon>
                                    <path d="M52.5432889,51.7556196 C56.5770916,51.7556196 59.8471343,55.0118944 59.8471343,59.0287124 C59.8471343,63.0455309 56.5770916,66.3018058 52.5432889,66.3018058 L33.5846749,66.3018058 C15.2227468,66.3018058 0.337463,51.4791956 0.337463,33.1945787 C0.337463,14.9099621 15.2227468,0.0873518081 33.5846749,0.0873518081 L82.4779427,0.0873518081 C86.5117449,0.0873518081 89.7817881,3.34362644 89.7817881,7.36044481 C89.7817881,11.3772631 86.5117449,14.6335378 82.4779427,14.6335378 L33.5846749,14.6335378 C23.2903515,14.6335378 14.9451536,22.9435988 14.9451536,33.1945787 C14.9451536,43.4455585 23.2903515,51.7556196 33.5846749,51.7556196 L52.5432889,51.7556196 Z" id="Rectangle-2" fill="#FFFFFF"></path>
                                    <path d="M52.5432907,103.423889 C56.5770929,103.423889 59.8471356,106.680163 59.8471356,110.696981 C59.8471356,114.7138 56.5770929,117.970074 52.5432907,117.970074 L33.5846765,117.970074 C15.2227484,117.970074 0.337464624,103.147464 0.337464624,84.8628474 C0.337464624,66.5782307 15.2227484,51.7556206 33.5846765,51.7556206 L82.477944,51.7556206 C86.5117467,51.7556206 89.7817894,55.0118954 89.7817894,59.0287134 C89.7817894,63.0455319 86.5117467,66.3018068 82.477944,66.3018068 L33.5846765,66.3018068 C23.2903531,66.3018068 14.9451552,74.6118677 14.9451552,84.8628474 C14.9451552,95.1138271 23.2903531,103.423889 33.5846765,103.423889 L52.5432907,103.423889 Z" id="Rectangle-2-Copy" fill="#FFFFFF" transform="translate(45.059627, 84.862847) rotate(-180.000000) translate(-45.059627, -84.862847) "></path>
                                </g>
                            </g>
                        </g>
                    </g>
                    <path d="M75.4016216,81.9878025 L84.5216216,67.8878025 L93.4616216,81.9878025 L104.441622,81.9878025 L90.7016216,60.5678025 L103.781622,39.9878025 L93.9416216,39.9878025 L85.4816216,53.1878025 L77.2016216,39.9878025 L66.2816216,39.9878025 L79.3616216,60.5678025 L65.6216216,81.9878025 L75.4016216,81.9878025 Z M117.941622,81.9878025 L117.941622,67.8878025 L125.561622,67.8878025 L132.581622,81.9878025 L142.541622,81.9878025 L134.261622,65.7878025 C136.501622,64.7078025 138.261622,63.1378025 139.541622,61.0778025 C140.821622,59.0178025 141.461622,56.6478025 141.461622,53.9678025 C141.461622,51.1678025 140.821622,48.7078025 139.541622,46.5878025 C138.261622,44.4678025 136.451622,42.8378025 134.111622,41.6978025 C131.771622,40.5578025 129.081622,39.9878025 126.041622,39.9878025 L126.041622,39.9878025 L108.941622,39.9878025 L108.941622,81.9878025 L117.941622,81.9878025 Z M125.321622,60.3878025 L117.941622,60.3878025 L117.941622,47.4878025 L125.321622,47.4878025 C127.441622,47.4878025 129.131622,48.0678025 130.391622,49.2278025 C131.651622,50.3878025 132.281622,51.9678025 132.281622,53.9678025 C132.281622,55.9278025 131.651622,57.4878025 130.391622,58.6478025 C129.131622,59.8078025 127.441622,60.3878025 125.321622,60.3878025 L125.321622,60.3878025 Z M156.461622,81.9878025 L156.461622,67.8878025 L164.561622,67.8878025 C167.561622,67.8878025 170.211622,67.3178025 172.511622,66.1778025 C174.811622,65.0378025 176.591622,63.4178025 177.851622,61.3178025 C179.111622,59.2178025 179.741622,56.7678025 179.741622,53.9678025 C179.741622,51.1678025 179.111622,48.7078025 177.851622,46.5878025 C176.591622,44.4678025 174.811622,42.8378025 172.511622,41.6978025 C170.211622,40.5578025 167.561622,39.9878025 164.561622,39.9878025 L164.561622,39.9878025 L147.461622,39.9878025 L147.461622,81.9878025 L156.461622,81.9878025 Z M163.721622,60.3878025 L156.461622,60.3878025 L156.461622,47.4878025 L163.721622,47.4878025 C165.841622,47.4878025 167.521622,48.0678025 168.761622,49.2278025 C170.001622,50.3878025 170.621622,51.9678025 170.621622,53.9678025 C170.621622,55.9278025 170.001622,57.4878025 168.761622,58.6478025 C167.521622,59.8078025 165.841622,60.3878025 163.721622,60.3878025 L163.721622,60.3878025 Z" id="XRP" fill="#FFFFFF" transform="translate(122.681622, 60.987802) rotate(270.000000) translate(-122.681622, -60.987802) "></path>
                </g>
            </g>
        </g>
    </g>
</svg>