<svg xmlns="http://www.w3.org/2000/svg" width="300" height="300">
    <g fill="none" fill-rule="evenodd">
        <circle cx="150" cy="150" r="150" fill="#45992F"/>
        <path fill="#FFF" fill-rule="nonzero" d="M193.981 197.344L171 211.95v-12.194l14.74-9.246-14.74-9.447v-10.988l22.981 14.606 23.919-15.343v12.261l-15.745 9.983 15.745 10.184v10.921l-23.919-15.343zM171 166.859v-37.118h8.643v13.534H217.9v10.05h-38.257v13.534H171zm0-41.004V88.603h6.633l31.691 24.053V88h8.576v38.458h-6.633l-31.691-24.053v23.45H171z"/>
        <path fill="#8E8C98" d="M84.844 205.587l-11.891-8.55 74.792-104.735 11.892 8.55z"/>
        <path fill="#FFF" d="M124.032 141.727c4.04 0 7.315 3.286 7.315 7.34s-3.275 7.34-7.315 7.34h-18.986c-18.389 0-33.296-14.959-33.296-33.41 0-18.453 14.907-33.411 33.296-33.411h48.965c4.04 0 7.314 3.286 7.314 7.34 0 4.053-3.274 7.34-7.314 7.34h-48.965c-10.31 0-18.667 8.385-18.667 18.73s8.357 18.731 18.667 18.731h18.986z"/>
        <path fill="#FFF" d="M109.043 156.407c-4.04 0-7.315-3.286-7.315-7.34s3.275-7.34 7.315-7.34h18.986c18.39 0 33.296 14.959 33.296 33.41 0 18.453-14.907 33.411-33.296 33.411H79.064c-4.04 0-7.314-3.286-7.314-7.34 0-4.053 3.275-7.34 7.314-7.34h48.965c10.31 0 18.667-8.385 18.667-18.73s-8.357-18.731-18.667-18.731h-18.986z"/>
    </g>
</svg>
