<svg width="30" height="26" viewBox="0 0 30 26" fill="none" xmlns="http://www.w3.org/2000/svg">
<path d="M29 11.5H5.98281L14.927 2.81316C15.1251 2.62077 15.1298 2.30422 14.9374 2.10613L13.5439 0.67142C13.3516 0.473329 13.035 0.468709 12.8369 0.6611L1.48426 11.7944C0.673977 12.5891 0.686521 13.8979 1.51189 14.6769L12.9381 25.4606C13.1351 25.6541 13.4517 25.6512 13.6452 25.4542L15.0467 24.0274C15.2402 23.8304 15.2373 23.5138 15.0403 23.3203L6.06059 14.5H29C29.2761 14.5 29.5 14.2762 29.5 14V12C29.5 11.7239 29.2761 11.5 29 11.5Z" fill="#908FDA"/>
</svg>
