<svg width="1920" height="182" viewBox="0 0 1920 182" fill="none" xmlns="http://www.w3.org/2000/svg">
<g filter="url(#filter0_d)">
<path d="M0 91.4902L11.691 96.9918C12.2237 97.2425 12.8053 97.3725 13.3941 97.3725H23.203C23.8364 97.3725 24.4607 97.523 25.0246 97.8114L59.8536 115.627C61.4247 116.43 63.3368 116.109 64.5595 114.837L70.7741 108.369C72.2193 106.865 74.5776 106.724 76.1918 108.045L90.2007 119.51C91.5659 120.628 93.5018 120.719 94.9658 119.735L114.366 106.692C115.301 106.064 116.457 105.859 117.55 106.127L124.415 107.809C125.331 108.034 126.297 107.927 127.142 107.508L139.887 101.195C141.008 100.64 142.325 100.641 143.445 101.199L151.658 105.287C152.212 105.562 152.822 105.706 153.44 105.706H166.196C166.509 105.706 166.82 105.743 167.124 105.815L196.227 112.755C197.054 112.953 197.797 113.408 198.347 114.056L199.749 115.705C200.443 116.521 201.435 117.025 202.503 117.103L231.923 119.266C233.316 119.369 234.662 118.737 235.473 117.599L241.952 108.511C243.485 106.36 246.646 106.26 248.313 108.31L261.373 124.373C262.526 125.792 264.495 126.248 266.155 125.48L271.728 122.905C273.587 122.045 275.796 122.73 276.843 124.49L285.153 138.455C286.052 139.967 287.834 140.714 289.542 140.295L315.877 133.841C316.398 133.713 316.94 133.691 317.47 133.777L340.091 137.448C340.582 137.528 341.083 137.515 341.569 137.411L358.21 133.852C358.838 133.717 359.49 133.736 360.11 133.907L383.862 140.456C385.1 140.798 386.427 140.524 387.428 139.721L394.072 134.392C394.677 133.906 395.411 133.607 396.184 133.531L412.629 131.919C414.09 131.775 415.355 130.844 415.925 129.491L438.058 76.9643C438.721 75.3902 440.311 74.411 442.015 74.5267L460.148 75.7574C460.601 75.7882 461.057 75.7414 461.495 75.619L492.868 66.8532C493.71 66.6177 494.607 66.665 495.42 66.9879L526.503 79.3297C527.156 79.589 527.866 79.6717 528.561 79.5694L538.919 78.0462C540.128 77.8684 541.352 78.2532 542.242 79.0909L547.746 84.2711C548.643 85.1148 549.878 85.4987 551.095 85.312L584.494 80.1868C586.27 79.9142 588.011 80.86 588.748 82.4991L601.338 110.477C602.034 112.024 603.631 112.964 605.321 112.822L624.097 111.244C625.204 111.151 626.3 111.523 627.123 112.27L632.82 117.45C634.117 118.628 636.029 118.826 637.539 117.938L644.722 113.713C645.445 113.288 646.283 113.1 647.117 113.177L687.684 116.92C688.114 116.96 688.548 116.93 688.968 116.831L695.362 115.327C696.209 115.127 697.097 115.21 697.893 115.561L705.713 119.011C706.338 119.287 707.024 119.398 707.704 119.333L751.15 115.226C752.51 115.097 753.842 115.672 754.681 116.75L761.299 125.243C762.057 126.216 763.221 126.784 764.454 126.784H776.788C777.259 126.784 777.726 126.867 778.168 127.03L789.666 131.257C790.426 131.537 791.253 131.579 792.038 131.378L808.294 127.221C809.381 126.943 810.535 127.134 811.474 127.748L815.941 130.667C816.929 131.313 818.153 131.49 819.283 131.149L850.574 121.721C851.288 121.506 852.048 121.495 852.769 121.689L870.454 126.457C871.243 126.67 872.079 126.636 872.848 126.359L884.526 122.162C885.853 121.684 887.334 121.941 888.422 122.838L898.059 130.774C898.775 131.364 899.674 131.686 900.602 131.686H917.837C918.167 131.686 918.495 131.727 918.815 131.808L928.5 134.249C929.465 134.493 930.486 134.367 931.364 133.898L937.63 130.547C938.61 130.023 939.764 129.93 940.815 130.291L958.392 136.322C958.903 136.498 959.445 136.568 959.983 136.528L1225.16 117.03C1225.61 116.997 1226.05 117.038 1226.48 117.152L1239.38 120.566C1241.2 121.048 1243.11 120.195 1243.97 118.517L1252.88 101.032C1254 98.8493 1256.79 98.1713 1258.78 99.6015L1276.33 112.219C1277.09 112.762 1278.01 113.025 1278.94 112.962L1306.19 111.13C1306.51 111.109 1306.82 111.049 1307.13 110.953L1327.32 104.555C1327.99 104.345 1328.69 104.312 1329.37 104.457L1336.06 105.888C1336.99 106.087 1337.96 105.948 1338.8 105.497L1346.19 101.512C1347.03 101.055 1348.02 100.919 1348.96 101.129L1371.24 106.1C1371.52 106.164 1371.81 106.196 1372.11 106.196H1382.05C1382.35 106.196 1382.65 106.229 1382.94 106.295L1403.36 110.915C1403.89 111.036 1404.44 111.045 1404.98 110.943L1429.02 106.382C1429.66 106.26 1430.33 106.297 1430.95 106.49L1442.92 110.195C1444.64 110.728 1446.51 110.044 1447.47 108.525L1459.65 89.4184C1460.39 88.2662 1461.66 87.5686 1463.03 87.5686H1471.54C1472.68 87.5686 1473.77 88.0534 1474.53 88.9014L1488.61 104.648C1489.48 105.618 1490.77 106.106 1492.06 105.953L1505.65 104.355C1506.32 104.276 1506.99 104.367 1507.62 104.619L1519.59 109.461C1519.86 109.572 1520.15 109.652 1520.44 109.7L1538.02 112.595C1539.7 112.872 1541.38 112.049 1542.19 110.546L1550.53 95.0628C1551.23 93.7681 1552.58 92.9608 1554.05 92.9608H1567.73C1568.13 92.9608 1568.53 92.901 1568.91 92.7834L1584.59 87.9506C1585.4 87.7023 1586.26 87.715 1587.06 87.9868L1600.26 92.4809C1601.17 92.7905 1602.16 92.7627 1603.05 92.4027L1613.83 88.0419C1614.59 87.7339 1615.43 87.6679 1616.23 87.8529L1635.73 92.3587C1637.3 92.7231 1638.95 92.1013 1639.89 90.7834L1647.97 79.4427C1648.72 78.3898 1649.93 77.7647 1651.23 77.7647H1659.97C1661.52 77.7647 1662.92 76.8771 1663.59 75.4839L1678.91 43.2808C1679.58 41.8876 1680.98 41 1682.53 41H1696.95C1697.85 41 1698.72 41.3002 1699.42 41.8526L1714.1 53.3699C1715.18 54.2141 1716.61 54.4497 1717.9 53.9944L1726.64 50.9122C1727.72 50.5316 1728.91 50.6307 1729.91 51.1847L1740.12 56.8391C1741.56 57.6344 1743.33 57.4711 1744.6 56.4274L1745.25 55.8899C1746.15 55.1505 1747.33 54.8386 1748.47 55.0352L1764.19 57.7322C1765.7 57.9918 1767.23 57.3621 1768.12 56.1117L1775.9 45.2019C1776.86 43.8522 1778.56 43.2358 1780.16 43.6522L1805.34 50.1866C1805.67 50.271 1805.98 50.3961 1806.28 50.5589L1817.78 56.9301C1819.14 57.6792 1820.8 57.5811 1822.06 56.6783L1825.86 53.9453C1826.89 53.203 1828.21 52.9958 1829.42 53.3872L1843.18 57.8382C1843.83 58.0472 1844.52 58.0883 1845.18 57.9577L1850.9 56.8372C1851.41 56.7375 1851.93 56.7375 1852.44 56.8372L1881.57 62.5506C1883.15 62.8588 1884.75 62.1993 1885.65 60.8746L1897.28 43.7692C1898.37 42.1668 1900.45 41.5759 1902.22 42.3667L1920 50.3137" stroke="#00E2DF" stroke-width="2"/>
</g>
<g filter="url(#filter1_d)">
<path d="M0 91.4902L11.691 96.9918C12.2237 97.2425 12.8053 97.3725 13.3941 97.3725H23.203C23.8364 97.3725 24.4607 97.523 25.0246 97.8114L59.8536 115.627C61.4247 116.43 63.3368 116.109 64.5595 114.837L70.7741 108.369C72.2193 106.865 74.5776 106.724 76.1918 108.045L90.2007 119.51C91.5659 120.628 93.5018 120.719 94.9658 119.735L114.366 106.692C115.301 106.064 116.457 105.859 117.55 106.127L124.415 107.809C125.331 108.034 126.297 107.927 127.142 107.508L139.887 101.195C141.008 100.64 142.325 100.641 143.445 101.199L151.658 105.287C152.212 105.562 152.822 105.706 153.44 105.706H166.196C166.509 105.706 166.82 105.743 167.124 105.815L196.227 112.755C197.054 112.953 197.797 113.408 198.347 114.056L199.749 115.705C200.443 116.521 201.435 117.025 202.503 117.103L231.923 119.266C233.316 119.369 234.662 118.737 235.473 117.599L241.952 108.511C243.485 106.36 246.646 106.26 248.313 108.31L261.373 124.373C262.526 125.792 264.495 126.248 266.155 125.48L271.728 122.905C273.587 122.045 275.796 122.73 276.843 124.49L285.153 138.455C286.052 139.967 287.834 140.714 289.542 140.295L315.877 133.841C316.398 133.713 316.94 133.691 317.47 133.777L340.091 137.448C340.582 137.528 341.083 137.515 341.569 137.411L358.21 133.852C358.838 133.717 359.49 133.736 360.11 133.907L383.862 140.456C385.1 140.798 386.427 140.524 387.428 139.721L394.072 134.392C394.677 133.906 395.411 133.607 396.184 133.531L412.629 131.919C414.09 131.775 415.355 130.844 415.925 129.491L438.058 76.9643C438.721 75.3902 440.311 74.411 442.015 74.5267L460.148 75.7574C460.601 75.7882 461.057 75.7414 461.495 75.619L492.868 66.8532C493.71 66.6177 494.607 66.665 495.42 66.9879L526.503 79.3297C527.156 79.589 527.866 79.6717 528.561 79.5694L538.919 78.0462C540.128 77.8684 541.352 78.2532 542.242 79.0909L547.746 84.2711C548.643 85.1148 549.878 85.4987 551.095 85.312L584.494 80.1868C586.27 79.9142 588.011 80.86 588.748 82.4991L601.338 110.477C602.034 112.024 603.631 112.964 605.321 112.822L624.097 111.244C625.204 111.151 626.3 111.523 627.123 112.27L632.82 117.45C634.117 118.628 636.029 118.826 637.539 117.938L644.722 113.713C645.445 113.288 646.283 113.1 647.117 113.177L687.684 116.92C688.114 116.96 688.548 116.93 688.968 116.831L695.362 115.327C696.209 115.127 697.097 115.21 697.893 115.561L705.713 119.011C706.338 119.287 707.024 119.398 707.704 119.333L751.15 115.226C752.51 115.097 753.842 115.672 754.681 116.75L761.299 125.243C762.057 126.216 763.221 126.784 764.454 126.784H776.788C777.259 126.784 777.726 126.867 778.168 127.03L789.666 131.257C790.426 131.537 791.253 131.579 792.038 131.378L808.294 127.221C809.381 126.943 810.535 127.134 811.474 127.748L815.941 130.667C816.929 131.313 818.153 131.49 819.283 131.149L850.574 121.721C851.288 121.506 852.048 121.495 852.769 121.689L870.454 126.457C871.243 126.67 872.079 126.636 872.848 126.359L884.526 122.162C885.853 121.684 887.334 121.941 888.422 122.838L898.059 130.774C898.775 131.364 899.674 131.686 900.602 131.686H917.837C918.167 131.686 918.495 131.727 918.815 131.808L928.5 134.249C929.465 134.493 930.486 134.367 931.364 133.898L937.63 130.547C938.61 130.023 939.764 129.93 940.815 130.291L958.392 136.322C958.903 136.498 959.445 136.568 959.983 136.528L1225.16 117.03C1225.61 116.997 1226.05 117.038 1226.48 117.152L1239.38 120.566C1241.2 121.048 1243.11 120.195 1243.97 118.517L1252.88 101.032C1254 98.8493 1256.79 98.1713 1258.78 99.6015L1276.33 112.219C1277.09 112.762 1278.01 113.025 1278.94 112.962L1306.19 111.13C1306.51 111.109 1306.82 111.049 1307.13 110.953L1327.32 104.555C1327.99 104.345 1328.69 104.312 1329.37 104.457L1336.06 105.888C1336.99 106.087 1337.96 105.948 1338.8 105.497L1346.19 101.512C1347.03 101.055 1348.02 100.919 1348.96 101.129L1371.24 106.1C1371.52 106.164 1371.81 106.196 1372.11 106.196H1382.05C1382.35 106.196 1382.65 106.229 1382.94 106.295L1403.36 110.915C1403.89 111.036 1404.44 111.045 1404.98 110.943L1429.02 106.382C1429.66 106.26 1430.33 106.297 1430.95 106.49L1442.92 110.195C1444.64 110.728 1446.51 110.044 1447.47 108.525L1459.65 89.4184C1460.39 88.2662 1461.66 87.5686 1463.03 87.5686H1471.54C1472.68 87.5686 1473.77 88.0534 1474.53 88.9014L1488.61 104.648C1489.48 105.618 1490.77 106.106 1492.06 105.953L1505.65 104.355C1506.32 104.276 1506.99 104.367 1507.62 104.619L1519.59 109.461C1519.86 109.572 1520.15 109.652 1520.44 109.7L1538.02 112.595C1539.7 112.872 1541.38 112.049 1542.19 110.546L1550.53 95.0628C1551.23 93.7681 1552.58 92.9608 1554.05 92.9608H1567.73C1568.13 92.9608 1568.53 92.901 1568.91 92.7834L1584.59 87.9506C1585.4 87.7023 1586.26 87.715 1587.06 87.9868L1600.26 92.4809C1601.17 92.7905 1602.16 92.7627 1603.05 92.4027L1613.83 88.0419C1614.59 87.7339 1615.43 87.6679 1616.23 87.8529L1635.73 92.3587C1637.3 92.7231 1638.95 92.1013 1639.89 90.7834L1647.97 79.4427C1648.72 78.3898 1649.93 77.7647 1651.23 77.7647H1659.97C1661.52 77.7647 1662.92 76.8771 1663.59 75.4839L1678.91 43.2808C1679.58 41.8876 1680.98 41 1682.53 41H1696.95C1697.85 41 1698.72 41.3002 1699.42 41.8526L1714.1 53.3699C1715.18 54.2141 1716.61 54.4497 1717.9 53.9944L1726.64 50.9122C1727.72 50.5316 1728.91 50.6307 1729.91 51.1847L1740.12 56.8391C1741.56 57.6344 1743.33 57.4711 1744.6 56.4274L1745.25 55.8899C1746.15 55.1505 1747.33 54.8386 1748.47 55.0352L1764.19 57.7322C1765.7 57.9918 1767.23 57.3621 1768.12 56.1117L1775.9 45.2019C1776.86 43.8522 1778.56 43.2358 1780.16 43.6522L1805.34 50.1866C1805.67 50.271 1805.98 50.3961 1806.28 50.5589L1817.78 56.9301C1819.14 57.6792 1820.8 57.5811 1822.06 56.6783L1825.86 53.9453C1826.89 53.203 1828.21 52.9958 1829.42 53.3872L1843.18 57.8382C1843.83 58.0472 1844.52 58.0883 1845.18 57.9577L1850.9 56.8372C1851.41 56.7375 1851.93 56.7375 1852.44 56.8372L1881.57 62.5506C1883.15 62.8588 1884.75 62.1993 1885.65 60.8746L1897.28 43.7692C1898.37 42.1668 1900.45 41.5759 1902.22 42.3667L1920 50.3137" stroke="#00E2DF" stroke-width="2"/>
</g>
<defs>
<filter id="filter0_d" x="-40.4258" y="0" width="2000.83" height="181.6" filterUnits="userSpaceOnUse" color-interpolation-filters="sRGB">
<feFlood flood-opacity="0" result="BackgroundImageFix"/>
<feColorMatrix in="SourceAlpha" type="matrix" values="0 0 0 0 0 0 0 0 0 0 0 0 0 0 0 0 0 0 127 0"/>
<feOffset/>
<feGaussianBlur stdDeviation="20"/>
<feColorMatrix type="matrix" values="0 0 0 0 1 0 0 0 0 1 0 0 0 0 1 0 0 0 1 0"/>
<feBlend mode="normal" in2="BackgroundImageFix" result="effect1_dropShadow"/>
<feBlend mode="normal" in="SourceGraphic" in2="effect1_dropShadow" result="shape"/>
</filter>
<filter id="filter1_d" x="-20.4258" y="20" width="1960.83" height="141.6" filterUnits="userSpaceOnUse" color-interpolation-filters="sRGB">
<feFlood flood-opacity="0" result="BackgroundImageFix"/>
<feColorMatrix in="SourceAlpha" type="matrix" values="0 0 0 0 0 0 0 0 0 0 0 0 0 0 0 0 0 0 127 0"/>
<feOffset/>
<feGaussianBlur stdDeviation="10"/>
<feColorMatrix type="matrix" values="0 0 0 0 0 0 0 0 0 0.886275 0 0 0 0 0.87451 0 0 0 1 0"/>
<feBlend mode="normal" in2="BackgroundImageFix" result="effect1_dropShadow"/>
<feBlend mode="normal" in="SourceGraphic" in2="effect1_dropShadow" result="shape"/>
</filter>
</defs>
</svg>
