<svg width="22" height="20" viewBox="0 0 22 20" fill="none" xmlns="http://www.w3.org/2000/svg">
<path d="M9.99455 10.2417V1.25004C9.99455 1.13953 9.95065 1.03355 9.87251 0.955413C9.79437 0.877273 9.68839 0.833374 9.57788 0.833374C8.00204 0.834271 6.45073 1.22375 5.06135 1.96733C3.67197 2.71091 2.48739 3.78563 1.61253 5.09632C0.737668 6.407 0.199518 7.9132 0.0457408 9.48153C-0.108036 11.0499 0.127306 12.6319 0.730924 14.0875C1.33454 15.5432 2.28781 16.8275 3.5063 17.8268C4.72479 18.8261 6.1709 19.5095 7.71656 19.8165C9.26221 20.1234 10.8597 20.0445 12.3676 19.5867C13.8755 19.1288 15.2472 18.3062 16.3612 17.1917C16.4012 17.1545 16.4331 17.1093 16.4546 17.0591C16.4761 17.0089 16.4869 16.9547 16.4862 16.9C16.4859 16.7874 16.441 16.6795 16.3612 16.6L9.99455 10.2417ZM9.57788 19.1667C8.42881 19.1941 7.28561 18.9948 6.21354 18.5804C5.14147 18.1659 4.16154 17.5444 3.32968 16.7512C1.64966 15.1493 0.674801 12.9457 0.619547 10.625C0.564294 8.3044 1.43318 6.05685 3.03505 4.37684C4.63692 2.69682 6.84057 1.72196 9.16121 1.66671V10.4167C9.16055 10.4714 9.17133 10.5255 9.19285 10.5758C9.21438 10.626 9.24618 10.6712 9.28621 10.7084L15.4612 16.8917C13.8546 18.3607 11.7548 19.1727 9.57788 19.1667Z" fill="#908FDA"/>
<path d="M11.478 0C11.3675 0 11.2615 0.0438988 11.1833 0.122039C11.1052 0.200179 11.0613 0.30616 11.0613 0.416667V9.58333C11.0606 9.63798 11.0714 9.69216 11.0929 9.74239C11.1145 9.79263 11.1463 9.8378 11.1863 9.875L17.6613 16.3583C17.7001 16.3986 17.7467 16.4305 17.7983 16.452C17.8499 16.4735 17.9054 16.4841 17.9613 16.4833C18.016 16.484 18.0701 16.4732 18.1204 16.4517C18.1706 16.4302 18.2158 16.3984 18.253 16.3583C19.5926 15.0181 20.5049 13.3108 20.8744 11.4522C21.244 9.59355 21.0542 7.66711 20.3291 5.91634C19.604 4.16557 18.3761 2.66907 16.8007 1.616C15.2252 0.562931 13.373 0.000569333 11.478 0ZM20.203 9.16667H11.8696V0.833333C14.0465 0.936633 16.1066 1.84777 17.6476 3.38875C19.1885 4.92972 20.0997 6.98984 20.203 9.16667ZM17.953 15.4667L12.4863 10H20.2113C20.1201 12.03 19.3211 13.9641 17.953 15.4667Z" fill="#908FDA"/>
</svg>
