<svg width="20" height="20" viewBox="0 0 20 20" fill="none" xmlns="http://www.w3.org/2000/svg">
<path d="M3.92801 2.60381e-06C3.83377 0.000378799 3.7435 0.0379602 3.67687 0.104597C3.61023 0.171234 3.57263 0.261525 3.57225 0.355763V1.78437C3.57189 1.87909 3.60916 1.97006 3.67588 2.0373C3.7426 2.10454 3.83329 2.14255 3.92801 2.14293H4.64232V3.57087H0.357155C0.262436 3.57088 0.171598 3.60849 0.10462 3.67547C0.037643 3.74244 1.06632e-05 3.83327 0 3.92799V6.42808C0 9.192 2.23626 11.4283 5.00018 11.4283H5.09016C5.73007 12.8942 7.00661 14.013 8.57173 14.4446V17.1421H7.50026C6.51712 17.1421 5.71588 17.9468 5.71588 18.9299V19.6442C5.71626 19.7385 5.75386 19.8288 5.8205 19.8954C5.88714 19.962 5.9774 19.9996 6.07164 20H13.9284C14.0231 20.0004 14.1141 19.9631 14.1813 19.8964C14.2485 19.8297 14.2865 19.739 14.2869 19.6442V18.9299C14.2869 17.9468 13.4822 17.1421 12.499 17.1421H11.429V14.4446C12.9935 14.0129 14.2693 12.8944 14.9091 11.429H15.0012C17.7651 11.429 20 9.19134 20 6.42742V3.92799C19.9996 3.83376 19.962 3.7435 19.8954 3.67687C19.8287 3.61023 19.7385 3.57261 19.6442 3.57223H15.357V2.14293H16.072C16.1191 2.14311 16.1658 2.13394 16.2094 2.11599C16.253 2.09803 16.2926 2.07162 16.3259 2.03829C16.3593 2.00496 16.3857 1.96538 16.4036 1.92179C16.4216 1.87821 16.4307 1.8315 16.4305 1.78437V0.355763C16.4302 0.261042 16.3922 0.170324 16.3249 0.103608C16.2577 0.036892 16.1667 -0.000358691 16.072 2.60381e-06H3.92801ZM4.28656 0.714325H15.7155V1.42861H4.28656V0.714325ZM5.35663 2.14293H14.6427V9.28533C14.6427 11.8637 12.5781 13.9283 9.99965 13.9283C7.42125 13.9283 5.35663 11.8637 5.35663 9.28533V2.14293ZM10.0052 4.28375C9.93778 4.28309 9.87152 4.30155 9.81411 4.33698C9.75671 4.37241 9.71051 4.42337 9.68086 4.48396L8.91912 6.027L7.21565 6.27463C7.14899 6.2835 7.0862 6.31103 7.03448 6.35401C6.98276 6.39699 6.94423 6.45369 6.92332 6.5176C6.9024 6.58151 6.89995 6.65005 6.91625 6.71529C6.93255 6.78053 6.96694 6.83985 7.01545 6.88642L8.24945 8.08552L7.95927 9.78342C7.94799 9.84899 7.95526 9.9164 7.98024 9.97806C8.00522 10.0397 8.04693 10.0932 8.10067 10.1324C8.1544 10.1717 8.21803 10.1951 8.28437 10.2001C8.35072 10.2051 8.41714 10.1915 8.47616 10.1608L9.99965 9.35927L11.5238 10.1608C11.5829 10.1921 11.6496 10.2062 11.7163 10.2014C11.783 10.1967 11.847 10.1733 11.9011 10.134C11.9552 10.0947 11.9971 10.041 12.0222 9.97901C12.0472 9.91703 12.0544 9.84927 12.0428 9.78342L11.7506 8.08552L12.9846 6.88642C13.033 6.83999 13.0674 6.78083 13.0838 6.71574C13.1002 6.65066 13.098 6.58228 13.0773 6.51842C13.0566 6.45457 13.0184 6.39783 12.9669 6.35471C12.9155 6.3116 12.8529 6.28383 12.7864 6.27463L11.0837 6.02906L10.3212 4.48396C10.2922 4.42464 10.2473 4.37454 10.1915 4.3392C10.1358 4.30386 10.0713 4.28465 10.0052 4.28375ZM15.357 4.28375H19.2857V6.42742C19.2857 8.75397 17.4656 10.6225 15.161 10.7063C15.2254 10.4715 15.2746 10.2309 15.3068 9.98433C17.1356 9.82878 18.5707 8.29663 18.5707 6.42742V5.35734C18.571 5.31038 18.562 5.2638 18.5442 5.22032C18.5265 5.17684 18.5003 5.13731 18.4673 5.10395C18.4343 5.07058 18.395 5.04404 18.3517 5.02588C18.3083 5.00772 18.2619 4.99826 18.2149 4.99808H15.357V4.28375ZM0.714311 4.28511H4.64232V4.99943H1.78578C1.69106 4.99944 1.60022 5.03705 1.53324 5.10403C1.46626 5.17101 1.42863 5.26188 1.42862 5.3566V6.42804C1.42863 8.29678 2.86491 9.82817 4.69324 9.98428C4.72535 10.2306 4.77403 10.471 4.83834 10.7056C2.53457 10.6208 0.714311 8.75388 0.714311 6.42804V4.28511ZM9.99965 5.44937L10.5242 6.51175C10.5499 6.56371 10.5878 6.60863 10.6347 6.64266C10.6816 6.67669 10.7361 6.69882 10.7935 6.70709L11.9668 6.87801L11.1179 7.70599C11.0762 7.74642 11.045 7.79639 11.0271 7.85157C11.0091 7.90676 11.0048 7.96549 11.0146 8.0227L11.2155 9.19041L10.1657 8.63935C10.1145 8.61246 10.0575 8.5984 9.99965 8.5984C9.94181 8.5984 9.88484 8.61246 9.83363 8.63935L8.78449 9.19041L8.98469 8.0227C8.9946 7.96555 8.99044 7.90684 8.97257 7.85166C8.9547 7.79648 8.92367 7.74649 8.88215 7.70599L8.0353 6.87801L9.20652 6.70709C9.26375 6.69872 9.3181 6.67657 9.36488 6.64254C9.41166 6.60852 9.44948 6.56362 9.47508 6.51175L9.99965 5.44937ZM15.357 5.71306H17.8564V6.42738C17.8564 7.89555 16.7747 9.08827 15.357 9.2616V5.71306ZM2.14293 5.71376H4.64232V9.2609C3.2254 9.08671 2.14294 7.89548 2.14293 6.42804V5.71376ZM9.28604 14.5896C9.52004 14.6208 9.75705 14.6427 9.99965 14.6427C10.2427 14.6427 10.4802 14.621 10.7147 14.5896V17.142H9.28604V14.5896ZM7.50026 17.8563H12.499C13.0988 17.8563 13.5719 18.3301 13.5719 18.9299V19.2856H6.43019V18.9299C6.43019 18.3301 6.90049 17.8563 7.50026 17.8563Z" fill="#908FDA"/>
</svg>
