<svg width="30" height="22" viewBox="0 0 30 22" fill="none" xmlns="http://www.w3.org/2000/svg">
<path d="M29.8 21.3H17.6V14.7C17.6 11.5 18.3 8.6 19.7 6C21.1 3.33333 23.1667 1.33333 25.9 0L29.3 2.5C28.6333 3.16666 27.9667 3.8 27.3 4.4C26.7 5 26.0667 5.6 25.4 6.2C24 7.8 23.3 9.5 23.3 11.3H29.8V21.3ZM12.2 21.3H0V14.7C0 11.5 0.7 8.6 2.1 6C3.5 3.33333 5.56667 1.33333 8.3 0L11.7 2.5C11.1 3.16666 10.4667 3.8 9.8 4.4C9.13333 5 8.46667 5.6 7.8 6.2C6.4 7.93333 5.7 9.63333 5.7 11.3H12.2V21.3Z" fill="#908FDA"/>
</svg>
