<svg width="12" height="11" viewBox="0 0 12 11" fill="none" xmlns="http://www.w3.org/2000/svg">
<path d="M5.55163 0.908494C5.73504 0.536871 6.26496 0.53687 6.44837 0.908493L7.64702 3.33723C7.71985 3.4848 7.86063 3.58708 8.02349 3.61075L10.7038 4.00021C11.1139 4.05981 11.2776 4.56379 10.9809 4.85306L9.0414 6.74357C8.92356 6.85844 8.86979 7.02394 8.89761 7.18613L9.35545 9.85557C9.4255 10.264 8.99679 10.5755 8.62998 10.3827L6.23267 9.12232C6.08701 9.04574 5.91299 9.04574 5.76733 9.12232L3.37003 10.3827C3.00321 10.5755 2.57449 10.264 2.64455 9.85557L3.10239 7.18613C3.13021 7.02394 3.07644 6.85844 2.9586 6.74357L1.01914 4.85306C0.722378 4.56379 0.886132 4.05981 1.29624 4.00021L3.97651 3.61075C4.13937 3.58708 4.28015 3.4848 4.35298 3.33723L5.55163 0.908494Z" fill="url(#paint0_linear)"/>
<defs>
<linearGradient id="paint0_linear" x1="6.73308" y1="12" x2="5.44515" y2="0.137384" gradientUnits="userSpaceOnUse">
<stop stop-color="#00E2DF"/>
<stop offset="1" stop-color="#BFF360"/>
</linearGradient>
</defs>
</svg>
