<svg
  width="9"
  height="22"
  viewBox="0 0 9 22"
  fill="none"
  xmlns="http://www.w3.org/2000/svg"
  >
  <path
    d="M0.412903 19.8931H4.96011C5.59478 19.8931 6.07265 19.7699 6.39371 19.5235C6.71478 19.2771 6.87532 18.8889 6.87532 18.3587C6.87532 17.8286 6.71478 17.4403 6.39371 17.1939C6.07265 16.9401 5.59478 16.8131 4.96011 16.8131H0.412903L0.412903 15.1331H4.87051C5.99051 15.1331 6.84545 15.4094 7.43532 15.9619C8.02518 16.507 8.32012 17.3059 8.32012 18.3587C8.32012 19.4115 8.02518 20.2105 7.43532 20.7555C6.84545 21.3006 5.99051 21.5731 4.87051 21.5731H0.412903L0.412903 19.8931Z"
    fill="#1E1A31"
  />
  <path
    d="M5.69931 12.5171C6.08758 12.4873 6.40118 12.3305 6.64011 12.0467C6.87158 11.7555 6.98732 11.371 6.98732 10.8931C6.98732 10.4974 6.90518 10.1763 6.74092 9.92993C6.56918 9.67607 6.33398 9.54913 6.03531 9.54913C5.82625 9.54913 5.66198 9.62007 5.54251 9.76193C5.41558 9.89633 5.31851 10.0905 5.25131 10.3443C5.17665 10.5907 5.08705 10.9753 4.98251 11.4979C4.88545 12.0131 4.76225 12.4462 4.61291 12.7971C4.45611 13.1481 4.22838 13.4355 3.92971 13.6595C3.62358 13.8761 3.22038 13.9843 2.72011 13.9843C2.26464 13.9843 1.85771 13.8611 1.49931 13.6147C1.1409 13.3609 0.860904 13.0137 0.659304 12.5731C0.450237 12.1251 0.345703 11.6211 0.345703 11.0611C0.345703 10.4862 0.45397 9.971 0.670504 9.51553C0.879571 9.0526 1.17077 8.69047 1.54411 8.42913C1.91744 8.16033 2.33931 8.0222 2.80971 8.01473L2.80971 9.66113C2.47371 9.69847 2.20491 9.84033 2.00331 10.0867C1.79424 10.3331 1.68971 10.6579 1.68971 11.0611C1.68971 11.4345 1.76811 11.7331 1.92491 11.9571C2.08171 12.1811 2.30571 12.2931 2.59691 12.2931C2.80597 12.2931 2.97024 12.2259 3.08971 12.0915C3.20171 11.9571 3.29504 11.7667 3.36971 11.5203C3.43691 11.2739 3.51904 10.8931 3.61611 10.3779C3.71318 9.85527 3.83638 9.41473 3.98571 9.05633C4.12758 8.69793 4.34784 8.41047 4.64651 8.19393C4.93771 7.96993 5.32971 7.85793 5.82251 7.85793C6.30038 7.85793 6.72972 7.9886 7.11052 8.24993C7.48385 8.51127 7.77878 8.87713 7.99532 9.34753C8.21185 9.81047 8.32012 10.3331 8.32012 10.9155C8.32012 11.5427 8.20812 12.1027 7.98412 12.5955C7.75265 13.0809 7.43532 13.4617 7.03212 13.7379C6.62891 14.0142 6.17718 14.1561 5.67691 14.1635L5.69931 12.5171Z"
    fill="#1E1A31"
  />
  <path
    d="M0.412903 6.84993L0.412903 4.12833C0.412903 3.34433 0.580904 2.65367 0.916904 2.05633C1.24544 1.45153 1.70837 0.9886 2.30571 0.667532C2.89557 0.339001 3.57131 0.174732 4.33291 0.174732C5.09451 0.174732 5.77398 0.339001 6.37131 0.667532C6.96118 0.9886 7.42412 1.45153 7.76012 2.05633C8.08865 2.65367 8.25292 3.34433 8.25292 4.12833V6.84993L0.412903 6.84993ZM6.85292 4.12833C6.85292 3.419 6.62518 2.8702 6.16971 2.48193C5.70678 2.0862 5.09451 1.88833 4.33291 1.88833C3.57131 1.88833 2.96277 2.0862 2.50731 2.48193C2.04437 2.8702 1.81291 3.419 1.81291 4.12833V5.16993H6.85292L6.85292 4.12833Z"
    fill="#1E1A31"
  />
</svg>