<svg width="96" height="96" viewBox="0 0 96 96" fill="none" xmlns="http://www.w3.org/2000/svg">
<g filter="url(#filter0_d)">
<path d="M75.5 48C75.5 63.1878 63.1878 75.5 48 75.5C32.8122 75.5 20.5 63.1878 20.5 48C20.5 32.8122 32.8122 20.5 48 20.5C63.1878 20.5 75.5 32.8122 75.5 48Z" fill="url(#paint0_linear)" stroke="#43EEEC"/>
<path d="M53.4134 56.8931H57.9606C58.5953 56.8931 59.0731 56.7699 59.3942 56.5235C59.7153 56.2771 59.8758 55.8889 59.8758 55.3587C59.8758 54.8286 59.7153 54.4403 59.3942 54.1939C59.0731 53.9401 58.5953 53.8131 57.9606 53.8131H53.4134V52.1331H57.871C58.991 52.1331 59.8459 52.4094 60.4358 52.9619C61.0257 53.507 61.3206 54.3059 61.3206 55.3587C61.3206 56.4115 61.0257 57.2105 60.4358 57.7555C59.8459 58.3006 58.991 58.5731 57.871 58.5731H53.4134V56.8931Z" fill="#1E1A31"/>
<path d="M58.6998 49.5171C59.0881 49.4873 59.4017 49.3305 59.6406 49.0467C59.8721 48.7555 59.9878 48.371 59.9878 47.8931C59.9878 47.4974 59.9057 47.1763 59.7414 46.9299C59.5697 46.6761 59.3345 46.5491 59.0358 46.5491C58.8267 46.5491 58.6625 46.6201 58.543 46.7619C58.4161 46.8963 58.319 47.0905 58.2518 47.3443C58.1771 47.5907 58.0875 47.9753 57.983 48.4979C57.8859 49.0131 57.7627 49.4462 57.6134 49.7971C57.4566 50.1481 57.2289 50.4355 56.9302 50.6595C56.6241 50.8761 56.2209 50.9843 55.7206 50.9843C55.2651 50.9843 54.8582 50.8611 54.4998 50.6147C54.1414 50.3609 53.8614 50.0137 53.6598 49.5731C53.4507 49.1251 53.3462 48.6211 53.3462 48.0611C53.3462 47.4862 53.4545 46.971 53.671 46.5155C53.8801 46.0526 54.1713 45.6905 54.5446 45.4291C54.9179 45.1603 55.3398 45.0222 55.8102 45.0147V46.6611C55.4742 46.6985 55.2054 46.8403 55.0038 47.0867C54.7947 47.3331 54.6902 47.6579 54.6902 48.0611C54.6902 48.4345 54.7686 48.7331 54.9254 48.9571C55.0822 49.1811 55.3062 49.2931 55.5974 49.2931C55.8065 49.2931 55.9707 49.2259 56.0902 49.0915C56.2022 48.9571 56.2955 48.7667 56.3702 48.5203C56.4374 48.2739 56.5195 47.8931 56.6166 47.3779C56.7137 46.8553 56.8369 46.4147 56.9862 46.0563C57.1281 45.6979 57.3483 45.4105 57.647 45.1939C57.9382 44.9699 58.3302 44.8579 58.823 44.8579C59.3009 44.8579 59.7302 44.9886 60.111 45.2499C60.4843 45.5113 60.7793 45.8771 60.9958 46.3475C61.2123 46.8105 61.3206 47.3331 61.3206 47.9155C61.3206 48.5427 61.2086 49.1027 60.9846 49.5955C60.7531 50.0809 60.4358 50.4617 60.0326 50.7379C59.6294 51.0142 59.1777 51.1561 58.6774 51.1635L58.6998 49.5171Z" fill="#1E1A31"/>
<path d="M53.4134 43.8499V41.1283C53.4134 40.3443 53.5814 39.6537 53.9174 39.0563C54.2459 38.4515 54.7089 37.9886 55.3062 37.6675C55.8961 37.339 56.5718 37.1747 57.3334 37.1747C58.095 37.1747 58.7745 37.339 59.3718 37.6675C59.9617 37.9886 60.4246 38.4515 60.7606 39.0563C61.0891 39.6537 61.2534 40.3443 61.2534 41.1283V43.8499H53.4134ZM59.8534 41.1283C59.8534 40.419 59.6257 39.8702 59.1702 39.4819C58.7073 39.0862 58.095 38.8883 57.3334 38.8883C56.5718 38.8883 55.9633 39.0862 55.5078 39.4819C55.0449 39.8702 54.8134 40.419 54.8134 41.1283V42.1699H59.8534V41.1283Z" fill="#1E1A31"/>
<path opacity="0.5" d="M35.1992 58.9252L32.8689 57.2628L47.5253 36.8986L49.8556 38.561L35.1992 58.9252Z" fill="#1E1A31"/>
<path fill-rule="evenodd" clip-rule="evenodd" d="M42.7486 46.5719H43.531C47.1332 46.5719 50.0533 49.4823 50.0533 53.0726C50.0533 56.6628 47.1332 59.5733 43.531 59.5733H33.9394C33.1481 59.5733 32.5066 58.9339 32.5066 58.1452C32.5066 57.3565 33.1481 56.7171 33.9394 56.7171H43.531C45.5505 56.7171 47.1876 55.0854 47.1876 53.0726C47.1876 51.0598 45.5505 49.4281 43.531 49.4281H39.8118H39.8112H39.0288C35.4267 49.4281 32.5066 46.5176 32.5066 42.9274C32.5066 39.3371 35.4267 36.4266 39.0288 36.4266H48.6204C49.4118 36.4266 50.0533 37.066 50.0533 37.8547C50.0533 38.6434 49.4118 39.2828 48.6204 39.2828H39.0288C37.0094 39.2828 35.3722 40.9145 35.3722 42.9274C35.3722 44.9402 37.0094 46.5719 39.0288 46.5719H42.748C42.7482 46.5719 42.7484 46.5719 42.7486 46.5719Z" fill="#1E1A31"/>
</g>
<defs>
<filter id="filter0_d" x="0" y="0" width="96" height="96" filterUnits="userSpaceOnUse" color-interpolation-filters="sRGB">
<feFlood flood-opacity="0" result="BackgroundImageFix"/>
<feColorMatrix in="SourceAlpha" type="matrix" values="0 0 0 0 0 0 0 0 0 0 0 0 0 0 0 0 0 0 127 0"/>
<feOffset/>
<feGaussianBlur stdDeviation="10"/>
<feColorMatrix type="matrix" values="0 0 0 0 1 0 0 0 0 0.641667 0 0 0 0 0.921167 0 0 0 0.3 0"/>
<feBlend mode="normal" in2="BackgroundImageFix" result="effect1_dropShadow"/>
<feBlend mode="normal" in="SourceGraphic" in2="effect1_dropShadow" result="shape"/>
</filter>
<linearGradient id="paint0_linear" x1="51.421" y1="76" x2="45.4107" y2="20.6411" gradientUnits="userSpaceOnUse">
<stop stop-color="#00E2DF"/>
<stop offset="1" stop-color="#BFF360"/>
</linearGradient>
</defs>
</svg>
