<svg width="22" height="18" viewBox="0 0 22 18" fill="none" xmlns="http://www.w3.org/2000/svg">
<path d="M21.4848 2.47971C20.7026 2.83028 19.8719 3.0604 19.0208 3.16227C19.9189 2.61771 20.5889 1.76588 20.9066 0.764832C20.066 1.26972 19.1445 1.62557 18.1827 1.81667C17.7836 1.38505 17.2994 1.04069 16.7607 0.805257C16.222 0.569827 15.6404 0.448419 15.0525 0.44867C14.4864 0.451646 13.9264 0.566108 13.4045 0.785516C12.8826 1.00492 12.4091 1.32498 12.0109 1.72741C11.6127 2.12984 11.2977 2.60677 11.0838 3.13095C10.87 3.65513 10.7615 4.21631 10.7645 4.78243C10.7641 5.11481 10.8011 5.44618 10.8749 5.77027C9.16557 5.6816 7.49433 5.23232 5.97095 4.45193C4.44757 3.67155 3.10651 2.57771 2.03586 1.24227C1.48762 2.19647 1.31973 3.32245 1.56576 4.39509C1.81179 5.46773 2.45361 6.40798 3.36291 7.02787C2.68115 7.00637 2.01468 6.82052 1.42019 6.48611V6.54083C1.41653 7.53689 1.75683 8.50369 2.3836 9.27785C3.01037 10.052 3.88517 10.5861 4.86019 10.7898C4.49215 10.8913 4.11204 10.9424 3.73026 10.9418C3.45935 10.9418 3.18903 10.9163 2.92291 10.8656C3.19256 11.7227 3.72392 12.4737 4.44233 13.0132C5.16075 13.5527 6.03013 13.8536 6.92834 13.8736C6.04131 14.5777 5.02339 15.0989 3.93354 15.4068C2.84369 15.7147 1.70357 15.8034 0.579224 15.6676C2.5354 16.9399 4.81909 17.6166 7.15267 17.6154C15.04 17.6154 19.354 11.0119 19.354 5.28515C19.354 5.0972 19.3496 4.91032 19.3408 4.72451C20.1832 4.10889 20.9092 3.34822 21.4848 2.47811V2.47971Z" fill="white"/>
</svg>
